<?xml version="1.0"?>
<VTKFile type="UnstructuredGrid" version="0.1" byte_order="LittleEndian">
  <UnstructuredGrid>
    <Piece NumberOfPoints="768" NumberOfCells="768">
      <PointData Scalars="p rho type" Vectors="v vf">
        <DataArray type="Float64" Name="p" format="ascii">
 0 0.0279516 0.0279351 0.0279257 0.0279351 0.0278159 0.0279641 0.0277113 0.028056 0.0277736 0.0279496 0.0278062 0.0279139 0.0278887 0.0278738 0.0278746 0.0278746 0.0278738 0.0278887 0.0279139 0.0278062 0.0279496 0.0277736 0.028056 0.0277113 0.0279641 0.0278159 0.0279351 0.0279257 0.0279351 0.0279516 0 0 0.0279516 0.0279351 0.0279257 0.0279351 0.0278159 0.0279641 0.0277113 0.028056 0.0277736 0.0279496 0.0278062 0.0279139 0.0278887 0.0278738 0.0278746 0.0278746 0.0278738 0.0278887 0.0279139 0.0278062 0.0279496 0.0277736 0.028056 0.0277113 0.0279641 0.0278159 0.0279351 0.0279257 0.0279351 0.0279516 0 0 0.0279516 0.0279351 0.0279257 0.0279351 0.0278159 0.0279641 0.0277113 0.028056 0.0277736 0.0279496 0.0278062 0.0279139 0.0278887 0.0278738 0.0278746 0.0278746 0.0278738 0.0278887 0.0279139 0.0278062 0.0279496 0.0277736 0.028056 0.0277113 0.0279641 0.0278159 0.0279351 0.0279257 0.0279351 0.0279516 0 0 0.0279516 0.0279351 0.0279257 0.0279351 0.0278159 0.0279641 0.0277113 0.028056 0.0277736 0.0279496 0.0278062 0.0279139 0.0278887 0.0278738 0.0278746 0.0278746 0.0278738 0.0278887 0.0279139 0.0278062 0.0279496 0.0277736 0.028056 0.0277113 0.0279641 0.0278159 0.0279351 0.0279257 0.0279351 0.0279516 0 0 0.0279516 0.0279351 0.0279257 0.0279351 0.0278159 0.0279641 0.0277113 0.028056 0.0277736 0.0279496 0.0278062 0.0279139 0.0278887 0.0278738 0.0278746 0.0278746 0.0278738 0.0278887 0.0279139 0.0278062 0.0279496 0.0277736 0.028056 0.0277113 0.0279641 0.0278159 0.0279351 0.0279257 0.0279351 0.0279516 0 0 0.0279516 0.0279351 0.0279257 0.0279351 0.0278159 0.0279641 0.0277113 0.028056 0.0277736 0.0279496 0.0278062 0.0279139 0.0278887 0.0278738 0.0278746 0.0278746 0.0278738 0.0278887 0.0279139 0.0278062 0.0279496 0.0277736 0.028056 0.0277113 0.0279641 0.0278159 0.0279351 0.0279257 0.0279351 0.0279516 0 0 0.0279516 0.0279351 0.0279257 0.0279351 0.0278159 0.0279641 0.0277113 0.028056 0.0277736 0.0279496 0.0278062 0.0279139 0.0278887 0.0278738 0.0278746 0.0278746 0.0278738 0.0278887 0.0279139 0.0278062 0.0279496 0.0277736 0.028056 0.0277113 0.0279641 0.0278159 0.0279351 0.0279257 0.0279351 0.0279516 0 0 0.0279516 0.0279351 0.0279257 0.0279351 0.0278159 0.0279641 0.0277113 0.028056 0.0277736 0.0279496 0.0278062 0.0279139 0.0278887 0.0278738 0.0278746 0.0278746 0.0278738 0.0278887 0.0279139 0.0278062 0.0279496 0.0277736 0.028056 0.0277113 0.0279641 0.0278159 0.0279351 0.0279257 0.0279351 0.0279516 0 0 0.0279516 0.0279351 0.0279257 0.0279351 0.0278159 0.0279641 0.0277113 0.028056 0.0277736 0.0279496 0.0278062 0.0279139 0.0278887 0.0278738 0.0278746 0.0278746 0.0278738 0.0278887 0.0279139 0.0278062 0.0279496 0.0277736 0.028056 0.0277113 0.0279641 0.0278159 0.0279351 0.0279257 0.0279351 0.0279516 0 0 0.0279516 0.0279351 0.0279257 0.0279351 0.0278159 0.0279641 0.0277113 0.028056 0.0277736 0.0279496 0.0278062 0.0279139 0.0278887 0.0278738 0.0278746 0.0278746 0.0278738 0.0278887 0.0279139 0.0278062 0.0279496 0.0277736 0.028056 0.0277113 0.0279641 0.0278159 0.0279351 0.0279257 0.0279351 0.0279516 0 0 0.0279516 0.0279351 0.0279257 0.0279351 0.0278159 0.0279641 0.0277113 0.028056 0.0277736 0.0279496 0.0278062 0.0279139 0.0278887 0.0278738 0.0278746 0.0278746 0.0278738 0.0278887 0.0279139 0.0278062 0.0279496 0.0277736 0.028056 0.0277113 0.0279641 0.0278159 0.0279351 0.0279257 0.0279351 0.0279516 0 0 0.0279516 0.0279351 0.0279257 0.0279351 0.0278159 0.0279641 0.0277113 0.028056 0.0277736 0.0279496 0.0278062 0.0279139 0.0278887 0.0278738 0.0278746 0.0278746 0.0278738 0.0278887 0.0279139 0.0278062 0.0279496 0.0277736 0.028056 0.0277113 0.0279641 0.0278159 0.0279351 0.0279257 0.0279351 0.0279516 0 0 0.0279516 0.0279351 0.0279257 0.0279351 0.0278159 0.0279641 0.0277113 0.028056 0.0277736 0.0279496 0.0278062 0.0279139 0.0278887 0.0278738 0.0278746 0.0278746 0.0278738 0.0278887 0.0279139 0.0278062 0.0279496 0.0277736 0.028056 0.0277113 0.0279641 0.0278159 0.0279351 0.0279257 0.0279351 0.0279516 0 0 0.0279516 0.0279351 0.0279257 0.0279351 0.0278159 0.0279641 0.0277113 0.028056 0.0277736 0.0279496 0.0278062 0.0279139 0.0278887 0.0278738 0.0278746 0.0278746 0.0278738 0.0278887 0.0279139 0.0278062 0.0279496 0.0277736 0.028056 0.0277113 0.0279641 0.0278159 0.0279351 0.0279257 0.0279351 0.0279516 0 0 0.0279516 0.0279351 0.0279257 0.0279351 0.0278159 0.0279641 0.0277113 0.028056 0.0277736 0.0279496 0.0278062 0.0279139 0.0278887 0.0278738 0.0278746 0.0278746 0.0278738 0.0278887 0.0279139 0.0278062 0.0279496 0.0277736 0.028056 0.0277113 0.0279641 0.0278159 0.0279351 0.0279257 0.0279351 0.0279516 0 0 0.0279516 0.0279351 0.0279257 0.0279351 0.0278159 0.0279641 0.0277113 0.028056 0.0277736 0.0279496 0.0278062 0.0279139 0.0278887 0.0278738 0.0278746 0.0278746 0.0278738 0.0278887 0.0279139 0.0278062 0.0279496 0.0277736 0.028056 0.0277113 0.0279641 0.0278159 0.0279351 0.0279257 0.0279351 0.0279516 0 0 0.0279516 0.0279351 0.0279257 0.0279351 0.0278159 0.0279641 0.0277113 0.028056 0.0277736 0.0279496 0.0278062 0.0279139 0.0278887 0.0278738 0.0278746 0.0278746 0.0278738 0.0278887 0.0279139 0.0278062 0.0279496 0.0277736 0.028056 0.0277113 0.0279641 0.0278159 0.0279351 0.0279257 0.0279351 0.0279516 0 0 0.0279516 0.0279351 0.0279257 0.0279351 0.0278159 0.0279641 0.0277113 0.028056 0.0277736 0.0279496 0.0278062 0.0279139 0.0278887 0.0278738 0.0278746 0.0278746 0.0278738 0.0278887 0.0279139 0.0278062 0.0279496 0.0277736 0.028056 0.0277113 0.0279641 0.0278159 0.0279351 0.0279257 0.0279351 0.0279516 0 0 0.0279516 0.0279351 0.0279257 0.0279351 0.0278159 0.0279641 0.0277113 0.028056 0.0277736 0.0279496 0.0278062 0.0279139 0.0278887 0.0278738 0.0278746 0.0278746 0.0278738 0.0278887 0.0279139 0.0278062 0.0279496 0.0277736 0.028056 0.0277113 0.0279641 0.0278159 0.0279351 0.0279257 0.0279351 0.0279516 0 0 0.0279516 0.0279351 0.0279257 0.0279351 0.0278159 0.0279641 0.0277113 0.028056 0.0277736 0.0279496 0.0278062 0.0279139 0.0278887 0.0278738 0.0278746 0.0278746 0.0278738 0.0278887 0.0279139 0.0278062 0.0279496 0.0277736 0.028056 0.0277113 0.0279641 0.0278159 0.0279351 0.0279257 0.0279351 0.0279516 0 0 0.0279516 0.0279351 0.0279257 0.0279351 0.0278159 0.0279641 0.0277113 0.028056 0.0277736 0.0279496 0.0278062 0.0279139 0.0278887 0.0278738 0.0278746 0.0278746 0.0278738 0.0278887 0.0279139 0.0278062 0.0279496 0.0277736 0.028056 0.0277113 0.0279641 0.0278159 0.0279351 0.0279257 0.0279351 0.0279516 0 0 0.0279516 0.0279351 0.0279257 0.0279351 0.0278159 0.0279641 0.0277113 0.028056 0.0277736 0.0279496 0.0278062 0.0279139 0.0278887 0.0278738 0.0278746 0.0278746 0.0278738 0.0278887 0.0279139 0.0278062 0.0279496 0.0277736 0.028056 0.0277113 0.0279641 0.0278159 0.0279351 0.0279257 0.0279351 0.0279516 0 0 0.0279516 0.0279351 0.0279257 0.0279351 0.0278159 0.0279641 0.0277113 0.028056 0.0277736 0.0279496 0.0278062 0.0279139 0.0278887 0.0278738 0.0278746 0.0278746 0.0278738 0.0278887 0.0279139 0.0278062 0.0279496 0.0277736 0.028056 0.0277113 0.0279641 0.0278159 0.0279351 0.0279257 0.0279351 0.0279516 0 0 0.0279516 0.0279351 0.0279257 0.0279351 0.0278159 0.0279641 0.0277113 0.028056 0.0277736 0.0279496 0.0278062 0.0279139 0.0278887 0.0278738 0.0278746 0.0278746 0.0278738 0.0278887 0.0279139 0.0278062 0.0279496 0.0277736 0.028056 0.0277113 0.0279641 0.0278159 0.0279351 0.0279257 0.0279351 0.0279516 0
        </DataArray>
        <DataArray type="Float64" Name="rho" format="ascii">
 1000 1001.16 1001.16 1001.16 1001.16 1001.15 1001.16 1001.15 1001.16 1001.15 1001.16 1001.15 1001.16 1001.16 1001.16 1001.16 1001.16 1001.16 1001.16 1001.16 1001.15 1001.16 1001.15 1001.16 1001.15 1001.16 1001.15 1001.16 1001.16 1001.16 1001.16 1000 1000 1001.16 1001.16 1001.16 1001.16 1001.15 1001.16 1001.15 1001.16 1001.15 1001.16 1001.15 1001.16 1001.16 1001.16 1001.16 1001.16 1001.16 1001.16 1001.16 1001.15 1001.16 1001.15 1001.16 1001.15 1001.16 1001.15 1001.16 1001.16 1001.16 1001.16 1000 1000 1001.16 1001.16 1001.16 1001.16 1001.15 1001.16 1001.15 1001.16 1001.15 1001.16 1001.15 1001.16 1001.16 1001.16 1001.16 1001.16 1001.16 1001.16 1001.16 1001.15 1001.16 1001.15 1001.16 1001.15 1001.16 1001.15 1001.16 1001.16 1001.16 1001.16 1000 1000 1001.16 1001.16 1001.16 1001.16 1001.15 1001.16 1001.15 1001.16 1001.15 1001.16 1001.15 1001.16 1001.16 1001.16 1001.16 1001.16 1001.16 1001.16 1001.16 1001.15 1001.16 1001.15 1001.16 1001.15 1001.16 1001.15 1001.16 1001.16 1001.16 1001.16 1000 1000 1001.16 1001.16 1001.16 1001.16 1001.15 1001.16 1001.15 1001.16 1001.15 1001.16 1001.15 1001.16 1001.16 1001.16 1001.16 1001.16 1001.16 1001.16 1001.16 1001.15 1001.16 1001.15 1001.16 1001.15 1001.16 1001.15 1001.16 1001.16 1001.16 1001.16 1000 1000 1001.16 1001.16 1001.16 1001.16 1001.15 1001.16 1001.15 1001.16 1001.15 1001.16 1001.15 1001.16 1001.16 1001.16 1001.16 1001.16 1001.16 1001.16 1001.16 1001.15 1001.16 1001.15 1001.16 1001.15 1001.16 1001.15 1001.16 1001.16 1001.16 1001.16 1000 1000 1001.16 1001.16 1001.16 1001.16 1001.15 1001.16 1001.15 1001.16 1001.15 1001.16 1001.15 1001.16 1001.16 1001.16 1001.16 1001.16 1001.16 1001.16 1001.16 1001.15 1001.16 1001.15 1001.16 1001.15 1001.16 1001.15 1001.16 1001.16 1001.16 1001.16 1000 1000 1001.16 1001.16 1001.16 1001.16 1001.15 1001.16 1001.15 1001.16 1001.15 1001.16 1001.15 1001.16 1001.16 1001.16 1001.16 1001.16 1001.16 1001.16 1001.16 1001.15 1001.16 1001.15 1001.16 1001.15 1001.16 1001.15 1001.16 1001.16 1001.16 1001.16 1000 1000 1001.16 1001.16 1001.16 1001.16 1001.15 1001.16 1001.15 1001.16 1001.15 1001.16 1001.15 1001.16 1001.16 1001.16 1001.16 1001.16 1001.16 1001.16 1001.16 1001.15 1001.16 1001.15 1001.16 1001.15 1001.16 1001.15 1001.16 1001.16 1001.16 1001.16 1000 1000 1001.16 1001.16 1001.16 1001.16 1001.15 1001.16 1001.15 1001.16 1001.15 1001.16 1001.15 1001.16 1001.16 1001.16 1001.16 1001.16 1001.16 1001.16 1001.16 1001.15 1001.16 1001.15 1001.16 1001.15 1001.16 1001.15 1001.16 1001.16 1001.16 1001.16 1000 1000 1001.16 1001.16 1001.16 1001.16 1001.15 1001.16 1001.15 1001.16 1001.15 1001.16 1001.15 1001.16 1001.16 1001.16 1001.16 1001.16 1001.16 1001.16 1001.16 1001.15 1001.16 1001.15 1001.16 1001.15 1001.16 1001.15 1001.16 1001.16 1001.16 1001.16 1000 1000 1001.16 1001.16 1001.16 1001.16 1001.15 1001.16 1001.15 1001.16 1001.15 1001.16 1001.15 1001.16 1001.16 1001.16 1001.16 1001.16 1001.16 1001.16 1001.16 1001.15 1001.16 1001.15 1001.16 1001.15 1001.16 1001.15 1001.16 1001.16 1001.16 1001.16 1000 1000 1001.16 1001.16 1001.16 1001.16 1001.15 1001.16 1001.15 1001.16 1001.15 1001.16 1001.15 1001.16 1001.16 1001.16 1001.16 1001.16 1001.16 1001.16 1001.16 1001.15 1001.16 1001.15 1001.16 1001.15 1001.16 1001.15 1001.16 1001.16 1001.16 1001.16 1000 1000 1001.16 1001.16 1001.16 1001.16 1001.15 1001.16 1001.15 1001.16 1001.15 1001.16 1001.15 1001.16 1001.16 1001.16 1001.16 1001.16 1001.16 1001.16 1001.16 1001.15 1001.16 1001.15 1001.16 1001.15 1001.16 1001.15 1001.16 1001.16 1001.16 1001.16 1000 1000 1001.16 1001.16 1001.16 1001.16 1001.15 1001.16 1001.15 1001.16 1001.15 1001.16 1001.15 1001.16 1001.16 1001.16 1001.16 1001.16 1001.16 1001.16 1001.16 1001.15 1001.16 1001.15 1001.16 1001.15 1001.16 1001.15 1001.16 1001.16 1001.16 1001.16 1000 1000 1001.16 1001.16 1001.16 1001.16 1001.15 1001.16 1001.15 1001.16 1001.15 1001.16 1001.15 1001.16 1001.16 1001.16 1001.16 1001.16 1001.16 1001.16 1001.16 1001.15 1001.16 1001.15 1001.16 1001.15 1001.16 1001.15 1001.16 1001.16 1001.16 1001.16 1000 1000 1001.16 1001.16 1001.16 1001.16 1001.15 1001.16 1001.15 1001.16 1001.15 1001.16 1001.15 1001.16 1001.16 1001.16 1001.16 1001.16 1001.16 1001.16 1001.16 1001.15 1001.16 1001.15 1001.16 1001.15 1001.16 1001.15 1001.16 1001.16 1001.16 1001.16 1000 1000 1001.16 1001.16 1001.16 1001.16 1001.15 1001.16 1001.15 1001.16 1001.15 1001.16 1001.15 1001.16 1001.16 1001.16 1001.16 1001.16 1001.16 1001.16 1001.16 1001.15 1001.16 1001.15 1001.16 1001.15 1001.16 1001.15 1001.16 1001.16 1001.16 1001.16 1000 1000 1001.16 1001.16 1001.16 1001.16 1001.15 1001.16 1001.15 1001.16 1001.15 1001.16 1001.15 1001.16 1001.16 1001.16 1001.16 1001.16 1001.16 1001.16 1001.16 1001.15 1001.16 1001.15 1001.16 1001.15 1001.16 1001.15 1001.16 1001.16 1001.16 1001.16 1000 1000 1001.16 1001.16 1001.16 1001.16 1001.15 1001.16 1001.15 1001.16 1001.15 1001.16 1001.15 1001.16 1001.16 1001.16 1001.16 1001.16 1001.16 1001.16 1001.16 1001.15 1001.16 1001.15 1001.16 1001.15 1001.16 1001.15 1001.16 1001.16 1001.16 1001.16 1000 1000 1001.16 1001.16 1001.16 1001.16 1001.15 1001.16 1001.15 1001.16 1001.15 1001.16 1001.15 1001.16 1001.16 1001.16 1001.16 1001.16 1001.16 1001.16 1001.16 1001.15 1001.16 1001.15 1001.16 1001.15 1001.16 1001.15 1001.16 1001.16 1001.16 1001.16 1000 1000 1001.16 1001.16 1001.16 1001.16 1001.15 1001.16 1001.15 1001.16 1001.15 1001.16 1001.15 1001.16 1001.16 1001.16 1001.16 1001.16 1001.16 1001.16 1001.16 1001.15 1001.16 1001.15 1001.16 1001.15 1001.16 1001.15 1001.16 1001.16 1001.16 1001.16 1000 1000 1001.16 1001.16 1001.16 1001.16 1001.15 1001.16 1001.15 1001.16 1001.15 1001.16 1001.15 1001.16 1001.16 1001.16 1001.16 1001.16 1001.16 1001.16 1001.16 1001.15 1001.16 1001.15 1001.16 1001.15 1001.16 1001.15 1001.16 1001.16 1001.16 1001.16 1000 1000 1001.16 1001.16 1001.16 1001.16 1001.15 1001.16 1001.15 1001.16 1001.15 1001.16 1001.15 1001.16 1001.16 1001.16 1001.16 1001.16 1001.16 1001.16 1001.16 1001.15 1001.16 1001.15 1001.16 1001.15 1001.16 1001.15 1001.16 1001.16 1001.16 1001.16 1000
        </DataArray>
        <DataArray type="Int32" Name="type" format="ascii">
 1 1 1 1 0 0 0 0 0 0 0 0 0 0 0 0 0 0 0 0 0 0 0 0 0 0 0 0 1 1 1 1 1 1 1 1 0 0 0 0 0 0 0 0 0 0 0 0 0 0 0 0 0 0 0 0 0 0 0 0 1 1 1 1 1 1 1 1 0 0 0 0 0 0 0 0 0 0 0 0 0 0 0 0 0 0 0 0 0 0 0 0 1 1 1 1 1 1 1 1 0 0 0 0 0 0 0 0 0 0 0 0 0 0 0 0 0 0 0 0 0 0 0 0 1 1 1 1 1 1 1 1 0 0 0 0 0 0 0 0 0 0 0 0 0 0 0 0 0 0 0 0 0 0 0 0 1 1 1 1 1 1 1 1 0 0 0 0 0 0 0 0 0 0 0 0 0 0 0 0 0 0 0 0 0 0 0 0 1 1 1 1 1 1 1 1 0 0 0 0 0 0 0 0 0 0 0 0 0 0 0 0 0 0 0 0 0 0 0 0 1 1 1 1 1 1 1 1 0 0 0 0 0 0 0 0 0 0 0 0 0 0 0 0 0 0 0 0 0 0 0 0 1 1 1 1 1 1 1 1 0 0 0 0 0 0 0 0 0 0 0 0 0 0 0 0 0 0 0 0 0 0 0 0 1 1 1 1 1 1 1 1 0 0 0 0 0 0 0 0 0 0 0 0 0 0 0 0 0 0 0 0 0 0 0 0 1 1 1 1 1 1 1 1 0 0 0 0 0 0 0 0 0 0 0 0 0 0 0 0 0 0 0 0 0 0 0 0 1 1 1 1 1 1 1 1 0 0 0 0 0 0 0 0 0 0 0 0 0 0 0 0 0 0 0 0 0 0 0 0 1 1 1 1 1 1 1 1 0 0 0 0 0 0 0 0 0 0 0 0 0 0 0 0 0 0 0 0 0 0 0 0 1 1 1 1 1 1 1 1 0 0 0 0 0 0 0 0 0 0 0 0 0 0 0 0 0 0 0 0 0 0 0 0 1 1 1 1 1 1 1 1 0 0 0 0 0 0 0 0 0 0 0 0 0 0 0 0 0 0 0 0 0 0 0 0 1 1 1 1 1 1 1 1 0 0 0 0 0 0 0 0 0 0 0 0 0 0 0 0 0 0 0 0 0 0 0 0 1 1 1 1 1 1 1 1 0 0 0 0 0 0 0 0 0 0 0 0 0 0 0 0 0 0 0 0 0 0 0 0 1 1 1 1 1 1 1 1 0 0 0 0 0 0 0 0 0 0 0 0 0 0 0 0 0 0 0 0 0 0 0 0 1 1 1 1 1 1 1 1 0 0 0 0 0 0 0 0 0 0 0 0 0 0 0 0 0 0 0 0 0 0 0 0 1 1 1 1 1 1 1 1 0 0 0 0 0 0 0 0 0 0 0 0 0 0 0 0 0 0 0 0 0 0 0 0 1 1 1 1 1 1 1 1 0 0 0 0 0 0 0 0 0 0 0 0 0 0 0 0 0 0 0 0 0 0 0 0 1 1 1 1 1 1 1 1 0 0 0 0 0 0 0 0 0 0 0 0 0 0 0 0 0 0 0 0 0 0 0 0 1 1 1 1 1 1 1 1 0 0 0 0 0 0 0 0 0 0 0 0 0 0 0 0 0 0 0 0 0 0 0 0 1 1 1 1 1 1 1 1 0 0 0 0 0 0 0 0 0 0 0 0 0 0 0 0 0 0 0 0 0 0 0 0 1 1 1 1
        </DataArray>
        <DataArray type="Float64" NumberOfComponents="3" Name="v" format="ascii">
 0 0 0.0 0 0 0.0 0 0 0.0 0 0 0.0 0.000258611 8.88581e-08 0.0 0.000715224 8.38631e-08 0.0 0.00113437 6.65286e-08 0.0 0.00151112 -5.32604e-08 0.0 0.001846 -1.22766e-08 0.0 0.00213907 9.20845e-08 0.0 0.00239036 1.22745e-08 0.0 0.00259971 -2.23558e-10 0.0 0.00276713 -2.59912e-08 0.0 0.00289272 3.28695e-08 0.0 0.00297648 1.43118e-08 0.0 0.00301837 -6.95699e-09 0.0 0.00301837 6.95699e-09 0.0 0.00297648 -1.43118e-08 0.0 0.00289272 -3.28695e-08 0.0 0.00276713 2.59912e-08 0.0 0.00259971 2.23558e-10 0.0 0.00239036 -1.22745e-08 0.0 0.00213907 -9.20845e-08 0.0 0.001846 1.22766e-08 0.0 0.00151112 5.32604e-08 0.0 0.00113437 -6.65286e-08 0.0 0.000715224 -8.38631e-08 0.0 0.000258611 -8.88581e-08 0.0 0 0 0.0 0 0 0.0 0 0 0.0 0 0 0.0 0 0 0.0 0 0 0.0 0 0 0.0 0 0 0.0 0.000258611 8.88581e-08 0.0 0.000715224 8.38631e-08 0.0 0.00113437 6.65286e-08 0.0 0.00151112 -5.32604e-08 0.0 0.001846 -1.22766e-08 0.0 0.00213907 9.20845e-08 0.0 0.00239036 1.22745e-08 0.0 0.00259971 -2.23558e-10 0.0 0.00276713 -2.59912e-08 0.0 0.00289272 3.28695e-08 0.0 0.00297648 1.43118e-08 0.0 0.00301837 -6.95699e-09 0.0 0.00301837 6.95699e-09 0.0 0.00297648 -1.43118e-08 0.0 0.00289272 -3.28695e-08 0.0 0.00276713 2.59912e-08 0.0 0.00259971 2.23558e-10 0.0 0.00239036 -1.22745e-08 0.0 0.00213907 -9.20845e-08 0.0 0.001846 1.22766e-08 0.0 0.00151112 5.32604e-08 0.0 0.00113437 -6.65286e-08 0.0 0.000715224 -8.38631e-08 0.0 0.000258611 -8.88581e-08 0.0 0 0 0.0 0 0 0.0 0 0 0.0 0 0 0.0 0 0 0.0 0 0 0.0 0 0 0.0 0 0 0.0 0.000258611 8.88581e-08 0.0 0.000715224 8.38631e-08 0.0 0.00113437 6.65286e-08 0.0 0.00151112 -5.32604e-08 0.0 0.001846 -1.22766e-08 0.0 0.00213907 9.20845e-08 0.0 0.00239036 1.22745e-08 0.0 0.00259971 -2.23558e-10 0.0 0.00276713 -2.59912e-08 0.0 0.00289272 3.28695e-08 0.0 0.00297648 1.43118e-08 0.0 0.00301837 -6.95699e-09 0.0 0.00301837 6.95699e-09 0.0 0.00297648 -1.43118e-08 0.0 0.00289272 -3.28695e-08 0.0 0.00276713 2.59912e-08 0.0 0.00259971 2.23558e-10 0.0 0.00239036 -1.22745e-08 0.0 0.00213907 -9.20845e-08 0.0 0.001846 1.22766e-08 0.0 0.00151112 5.32604e-08 0.0 0.00113437 -6.65286e-08 0.0 0.000715224 -8.38631e-08 0.0 0.000258611 -8.88581e-08 0.0 0 0 0.0 0 0 0.0 0 0 0.0 0 0 0.0 0 0 0.0 0 0 0.0 0 0 0.0 0 0 0.0 0.000258611 8.88581e-08 0.0 0.000715224 8.38631e-08 0.0 0.00113437 6.65286e-08 0.0 0.00151112 -5.32604e-08 0.0 0.001846 -1.22766e-08 0.0 0.00213907 9.20845e-08 0.0 0.00239036 1.22745e-08 0.0 0.00259971 -2.23558e-10 0.0 0.00276713 -2.59912e-08 0.0 0.00289272 3.28695e-08 0.0 0.00297648 1.43118e-08 0.0 0.00301837 -6.95699e-09 0.0 0.00301837 6.95699e-09 0.0 0.00297648 -1.43118e-08 0.0 0.00289272 -3.28695e-08 0.0 0.00276713 2.59912e-08 0.0 0.00259971 2.23558e-10 0.0 0.00239036 -1.22745e-08 0.0 0.00213907 -9.20845e-08 0.0 0.001846 1.22766e-08 0.0 0.00151112 5.32604e-08 0.0 0.00113437 -6.65286e-08 0.0 0.000715224 -8.38631e-08 0.0 0.000258611 -8.88581e-08 0.0 0 0 0.0 0 0 0.0 0 0 0.0 0 0 0.0 0 0 0.0 0 0 0.0 0 0 0.0 0 0 0.0 0.000258611 8.88581e-08 0.0 0.000715224 8.38631e-08 0.0 0.00113437 6.65286e-08 0.0 0.00151112 -5.32604e-08 0.0 0.001846 -1.22766e-08 0.0 0.00213907 9.20845e-08 0.0 0.00239036 1.22745e-08 0.0 0.00259971 -2.23558e-10 0.0 0.00276713 -2.59912e-08 0.0 0.00289272 3.28695e-08 0.0 0.00297648 1.43118e-08 0.0 0.00301837 -6.95699e-09 0.0 0.00301837 6.95699e-09 0.0 0.00297648 -1.43118e-08 0.0 0.00289272 -3.28695e-08 0.0 0.00276713 2.59912e-08 0.0 0.00259971 2.23558e-10 0.0 0.00239036 -1.22745e-08 0.0 0.00213907 -9.20845e-08 0.0 0.001846 1.22766e-08 0.0 0.00151112 5.32604e-08 0.0 0.00113437 -6.65286e-08 0.0 0.000715224 -8.38631e-08 0.0 0.000258611 -8.88581e-08 0.0 0 0 0.0 0 0 0.0 0 0 0.0 0 0 0.0 0 0 0.0 0 0 0.0 0 0 0.0 0 0 0.0 0.000258611 8.88581e-08 0.0 0.000715224 8.38631e-08 0.0 0.00113437 6.65286e-08 0.0 0.00151112 -5.32604e-08 0.0 0.001846 -1.22766e-08 0.0 0.00213907 9.20845e-08 0.0 0.00239036 1.22745e-08 0.0 0.00259971 -2.23558e-10 0.0 0.00276713 -2.59912e-08 0.0 0.00289272 3.28695e-08 0.0 0.00297648 1.43118e-08 0.0 0.00301837 -6.95699e-09 0.0 0.00301837 6.95699e-09 0.0 0.00297648 -1.43118e-08 0.0 0.00289272 -3.28695e-08 0.0 0.00276713 2.59912e-08 0.0 0.00259971 2.23558e-10 0.0 0.00239036 -1.22745e-08 0.0 0.00213907 -9.20845e-08 0.0 0.001846 1.22766e-08 0.0 0.00151112 5.32604e-08 0.0 0.00113437 -6.65286e-08 0.0 0.000715224 -8.38631e-08 0.0 0.000258611 -8.88581e-08 0.0 0 0 0.0 0 0 0.0 0 0 0.0 0 0 0.0 0 0 0.0 0 0 0.0 0 0 0.0 0 0 0.0 0.000258611 8.88581e-08 0.0 0.000715224 8.38631e-08 0.0 0.00113437 6.65286e-08 0.0 0.00151112 -5.32604e-08 0.0 0.001846 -1.22766e-08 0.0 0.00213907 9.20845e-08 0.0 0.00239036 1.22745e-08 0.0 0.00259971 -2.23558e-10 0.0 0.00276713 -2.59912e-08 0.0 0.00289272 3.28695e-08 0.0 0.00297648 1.43118e-08 0.0 0.00301837 -6.95699e-09 0.0 0.00301837 6.95699e-09 0.0 0.00297648 -1.43118e-08 0.0 0.00289272 -3.28695e-08 0.0 0.00276713 2.59912e-08 0.0 0.00259971 2.23558e-10 0.0 0.00239036 -1.22745e-08 0.0 0.00213907 -9.20845e-08 0.0 0.001846 1.22766e-08 0.0 0.00151112 5.32604e-08 0.0 0.00113437 -6.65286e-08 0.0 0.000715224 -8.38631e-08 0.0 0.000258611 -8.88581e-08 0.0 0 0 0.0 0 0 0.0 0 0 0.0 0 0 0.0 0 0 0.0 0 0 0.0 0 0 0.0 0 0 0.0 0.000258611 8.88581e-08 0.0 0.000715224 8.38631e-08 0.0 0.00113437 6.65286e-08 0.0 0.00151112 -5.32604e-08 0.0 0.001846 -1.22766e-08 0.0 0.00213907 9.20845e-08 0.0 0.00239036 1.22745e-08 0.0 0.00259971 -2.23558e-10 0.0 0.00276713 -2.59912e-08 0.0 0.00289272 3.28695e-08 0.0 0.00297648 1.43118e-08 0.0 0.00301837 -6.95699e-09 0.0 0.00301837 6.95699e-09 0.0 0.00297648 -1.43118e-08 0.0 0.00289272 -3.28695e-08 0.0 0.00276713 2.59912e-08 0.0 0.00259971 2.23558e-10 0.0 0.00239036 -1.22745e-08 0.0 0.00213907 -9.20845e-08 0.0 0.001846 1.22766e-08 0.0 0.00151112 5.32604e-08 0.0 0.00113437 -6.65286e-08 0.0 0.000715224 -8.38631e-08 0.0 0.000258611 -8.88581e-08 0.0 0 0 0.0 0 0 0.0 0 0 0.0 0 0 0.0 0 0 0.0 0 0 0.0 0 0 0.0 0 0 0.0 0.000258611 8.88581e-08 0.0 0.000715224 8.38631e-08 0.0 0.00113437 6.65286e-08 0.0 0.00151112 -5.32604e-08 0.0 0.001846 -1.22766e-08 0.0 0.00213907 9.20845e-08 0.0 0.00239036 1.22745e-08 0.0 0.00259971 -2.23558e-10 0.0 0.00276713 -2.59912e-08 0.0 0.00289272 3.28695e-08 0.0 0.00297648 1.43118e-08 0.0 0.00301837 -6.95699e-09 0.0 0.00301837 6.95699e-09 0.0 0.00297648 -1.43118e-08 0.0 0.00289272 -3.28695e-08 0.0 0.00276713 2.59912e-08 0.0 0.00259971 2.23558e-10 0.0 0.00239036 -1.22745e-08 0.0 0.00213907 -9.20845e-08 0.0 0.001846 1.22766e-08 0.0 0.00151112 5.32604e-08 0.0 0.00113437 -6.65286e-08 0.0 0.000715224 -8.38631e-08 0.0 0.000258611 -8.88581e-08 0.0 0 0 0.0 0 0 0.0 0 0 0.0 0 0 0.0 0 0 0.0 0 0 0.0 0 0 0.0 0 0 0.0 0.000258611 8.88581e-08 0.0 0.000715224 8.38631e-08 0.0 0.00113437 6.65286e-08 0.0 0.00151112 -5.32604e-08 0.0 0.001846 -1.22766e-08 0.0 0.00213907 9.20845e-08 0.0 0.00239036 1.22745e-08 0.0 0.00259971 -2.23558e-10 0.0 0.00276713 -2.59912e-08 0.0 0.00289272 3.28695e-08 0.0 0.00297648 1.43118e-08 0.0 0.00301837 -6.95699e-09 0.0 0.00301837 6.95699e-09 0.0 0.00297648 -1.43118e-08 0.0 0.00289272 -3.28695e-08 0.0 0.00276713 2.59912e-08 0.0 0.00259971 2.23558e-10 0.0 0.00239036 -1.22745e-08 0.0 0.00213907 -9.20845e-08 0.0 0.001846 1.22766e-08 0.0 0.00151112 5.32604e-08 0.0 0.00113437 -6.65286e-08 0.0 0.000715224 -8.38631e-08 0.0 0.000258611 -8.88581e-08 0.0 0 0 0.0 0 0 0.0 0 0 0.0 0 0 0.0 0 0 0.0 0 0 0.0 0 0 0.0 0 0 0.0 0.000258611 8.88581e-08 0.0 0.000715224 8.38631e-08 0.0 0.00113437 6.65286e-08 0.0 0.00151112 -5.32604e-08 0.0 0.001846 -1.22766e-08 0.0 0.00213907 9.20845e-08 0.0 0.00239036 1.22745e-08 0.0 0.00259971 -2.23558e-10 0.0 0.00276713 -2.59912e-08 0.0 0.00289272 3.28695e-08 0.0 0.00297648 1.43118e-08 0.0 0.00301837 -6.95699e-09 0.0 0.00301837 6.95699e-09 0.0 0.00297648 -1.43118e-08 0.0 0.00289272 -3.28695e-08 0.0 0.00276713 2.59912e-08 0.0 0.00259971 2.23558e-10 0.0 0.00239036 -1.22745e-08 0.0 0.00213907 -9.20845e-08 0.0 0.001846 1.22766e-08 0.0 0.00151112 5.32604e-08 0.0 0.00113437 -6.65286e-08 0.0 0.000715224 -8.38631e-08 0.0 0.000258611 -8.88581e-08 0.0 0 0 0.0 0 0 0.0 0 0 0.0 0 0 0.0 0 0 0.0 0 0 0.0 0 0 0.0 0 0 0.0 0.000258611 8.88581e-08 0.0 0.000715224 8.38631e-08 0.0 0.00113437 6.65286e-08 0.0 0.00151112 -5.32604e-08 0.0 0.001846 -1.22766e-08 0.0 0.00213907 9.20845e-08 0.0 0.00239036 1.22745e-08 0.0 0.00259971 -2.23558e-10 0.0 0.00276713 -2.59912e-08 0.0 0.00289272 3.28695e-08 0.0 0.00297648 1.43118e-08 0.0 0.00301837 -6.95699e-09 0.0 0.00301837 6.95699e-09 0.0 0.00297648 -1.43118e-08 0.0 0.00289272 -3.28695e-08 0.0 0.00276713 2.59912e-08 0.0 0.00259971 2.23558e-10 0.0 0.00239036 -1.22745e-08 0.0 0.00213907 -9.20845e-08 0.0 0.001846 1.22766e-08 0.0 0.00151112 5.32604e-08 0.0 0.00113437 -6.65286e-08 0.0 0.000715224 -8.38631e-08 0.0 0.000258611 -8.88581e-08 0.0 0 0 0.0 0 0 0.0 0 0 0.0 0 0 0.0 0 0 0.0 0 0 0.0 0 0 0.0 0 0 0.0 0.000258611 8.88581e-08 0.0 0.000715224 8.38631e-08 0.0 0.00113437 6.65286e-08 0.0 0.00151112 -5.32604e-08 0.0 0.001846 -1.22766e-08 0.0 0.00213907 9.20845e-08 0.0 0.00239036 1.22745e-08 0.0 0.00259971 -2.23558e-10 0.0 0.00276713 -2.59912e-08 0.0 0.00289272 3.28695e-08 0.0 0.00297648 1.43118e-08 0.0 0.00301837 -6.95699e-09 0.0 0.00301837 6.95699e-09 0.0 0.00297648 -1.43118e-08 0.0 0.00289272 -3.28695e-08 0.0 0.00276713 2.59912e-08 0.0 0.00259971 2.23558e-10 0.0 0.00239036 -1.22745e-08 0.0 0.00213907 -9.20845e-08 0.0 0.001846 1.22766e-08 0.0 0.00151112 5.32604e-08 0.0 0.00113437 -6.65286e-08 0.0 0.000715224 -8.38631e-08 0.0 0.000258611 -8.88581e-08 0.0 0 0 0.0 0 0 0.0 0 0 0.0 0 0 0.0 0 0 0.0 0 0 0.0 0 0 0.0 0 0 0.0 0.000258611 8.88581e-08 0.0 0.000715224 8.38631e-08 0.0 0.00113437 6.65286e-08 0.0 0.00151112 -5.32604e-08 0.0 0.001846 -1.22766e-08 0.0 0.00213907 9.20845e-08 0.0 0.00239036 1.22745e-08 0.0 0.00259971 -2.23558e-10 0.0 0.00276713 -2.59912e-08 0.0 0.00289272 3.28695e-08 0.0 0.00297648 1.43118e-08 0.0 0.00301837 -6.95699e-09 0.0 0.00301837 6.95699e-09 0.0 0.00297648 -1.43118e-08 0.0 0.00289272 -3.28695e-08 0.0 0.00276713 2.59912e-08 0.0 0.00259971 2.23558e-10 0.0 0.00239036 -1.22745e-08 0.0 0.00213907 -9.20845e-08 0.0 0.001846 1.22766e-08 0.0 0.00151112 5.32604e-08 0.0 0.00113437 -6.65286e-08 0.0 0.000715224 -8.38631e-08 0.0 0.000258611 -8.88581e-08 0.0 0 0 0.0 0 0 0.0 0 0 0.0 0 0 0.0 0 0 0.0 0 0 0.0 0 0 0.0 0 0 0.0 0.000258611 8.88581e-08 0.0 0.000715224 8.38631e-08 0.0 0.00113437 6.65286e-08 0.0 0.00151112 -5.32604e-08 0.0 0.001846 -1.22766e-08 0.0 0.00213907 9.20845e-08 0.0 0.00239036 1.22745e-08 0.0 0.00259971 -2.23558e-10 0.0 0.00276713 -2.59912e-08 0.0 0.00289272 3.28695e-08 0.0 0.00297648 1.43118e-08 0.0 0.00301837 -6.95699e-09 0.0 0.00301837 6.95699e-09 0.0 0.00297648 -1.43118e-08 0.0 0.00289272 -3.28695e-08 0.0 0.00276713 2.59912e-08 0.0 0.00259971 2.23558e-10 0.0 0.00239036 -1.22745e-08 0.0 0.00213907 -9.20845e-08 0.0 0.001846 1.22766e-08 0.0 0.00151112 5.32604e-08 0.0 0.00113437 -6.65286e-08 0.0 0.000715224 -8.38631e-08 0.0 0.000258611 -8.88581e-08 0.0 0 0 0.0 0 0 0.0 0 0 0.0 0 0 0.0 0 0 0.0 0 0 0.0 0 0 0.0 0 0 0.0 0.000258611 8.88581e-08 0.0 0.000715224 8.38631e-08 0.0 0.00113437 6.65286e-08 0.0 0.00151112 -5.32604e-08 0.0 0.001846 -1.22766e-08 0.0 0.00213907 9.20845e-08 0.0 0.00239036 1.22745e-08 0.0 0.00259971 -2.23558e-10 0.0 0.00276713 -2.59912e-08 0.0 0.00289272 3.28695e-08 0.0 0.00297648 1.43118e-08 0.0 0.00301837 -6.95699e-09 0.0 0.00301837 6.95699e-09 0.0 0.00297648 -1.43118e-08 0.0 0.00289272 -3.28695e-08 0.0 0.00276713 2.59912e-08 0.0 0.00259971 2.23558e-10 0.0 0.00239036 -1.22745e-08 0.0 0.00213907 -9.20845e-08 0.0 0.001846 1.22766e-08 0.0 0.00151112 5.32604e-08 0.0 0.00113437 -6.65286e-08 0.0 0.000715224 -8.38631e-08 0.0 0.000258611 -8.88581e-08 0.0 0 0 0.0 0 0 0.0 0 0 0.0 0 0 0.0 0 0 0.0 0 0 0.0 0 0 0.0 0 0 0.0 0.000258611 8.88581e-08 0.0 0.000715224 8.38631e-08 0.0 0.00113437 6.65286e-08 0.0 0.00151112 -5.32604e-08 0.0 0.001846 -1.22766e-08 0.0 0.00213907 9.20845e-08 0.0 0.00239036 1.22745e-08 0.0 0.00259971 -2.23558e-10 0.0 0.00276713 -2.59912e-08 0.0 0.00289272 3.28695e-08 0.0 0.00297648 1.43118e-08 0.0 0.00301837 -6.95699e-09 0.0 0.00301837 6.95699e-09 0.0 0.00297648 -1.43118e-08 0.0 0.00289272 -3.28695e-08 0.0 0.00276713 2.59912e-08 0.0 0.00259971 2.23558e-10 0.0 0.00239036 -1.22745e-08 0.0 0.00213907 -9.20845e-08 0.0 0.001846 1.22766e-08 0.0 0.00151112 5.32604e-08 0.0 0.00113437 -6.65286e-08 0.0 0.000715224 -8.38631e-08 0.0 0.000258611 -8.88581e-08 0.0 0 0 0.0 0 0 0.0 0 0 0.0 0 0 0.0 0 0 0.0 0 0 0.0 0 0 0.0 0 0 0.0 0.000258611 8.88581e-08 0.0 0.000715224 8.38631e-08 0.0 0.00113437 6.65286e-08 0.0 0.00151112 -5.32604e-08 0.0 0.001846 -1.22766e-08 0.0 0.00213907 9.20845e-08 0.0 0.00239036 1.22745e-08 0.0 0.00259971 -2.23558e-10 0.0 0.00276713 -2.59912e-08 0.0 0.00289272 3.28695e-08 0.0 0.00297648 1.43118e-08 0.0 0.00301837 -6.95699e-09 0.0 0.00301837 6.95699e-09 0.0 0.00297648 -1.43118e-08 0.0 0.00289272 -3.28695e-08 0.0 0.00276713 2.59912e-08 0.0 0.00259971 2.23558e-10 0.0 0.00239036 -1.22745e-08 0.0 0.00213907 -9.20845e-08 0.0 0.001846 1.22766e-08 0.0 0.00151112 5.32604e-08 0.0 0.00113437 -6.65286e-08 0.0 0.000715224 -8.38631e-08 0.0 0.000258611 -8.88581e-08 0.0 0 0 0.0 0 0 0.0 0 0 0.0 0 0 0.0 0 0 0.0 0 0 0.0 0 0 0.0 0 0 0.0 0.000258611 8.88581e-08 0.0 0.000715224 8.38631e-08 0.0 0.00113437 6.65286e-08 0.0 0.00151112 -5.32604e-08 0.0 0.001846 -1.22766e-08 0.0 0.00213907 9.20845e-08 0.0 0.00239036 1.22745e-08 0.0 0.00259971 -2.23558e-10 0.0 0.00276713 -2.59912e-08 0.0 0.00289272 3.28695e-08 0.0 0.00297648 1.43118e-08 0.0 0.00301837 -6.95699e-09 0.0 0.00301837 6.95699e-09 0.0 0.00297648 -1.43118e-08 0.0 0.00289272 -3.28695e-08 0.0 0.00276713 2.59912e-08 0.0 0.00259971 2.23558e-10 0.0 0.00239036 -1.22745e-08 0.0 0.00213907 -9.20845e-08 0.0 0.001846 1.22766e-08 0.0 0.00151112 5.32604e-08 0.0 0.00113437 -6.65286e-08 0.0 0.000715224 -8.38631e-08 0.0 0.000258611 -8.88581e-08 0.0 0 0 0.0 0 0 0.0 0 0 0.0 0 0 0.0 0 0 0.0 0 0 0.0 0 0 0.0 0 0 0.0 0.000258611 8.88581e-08 0.0 0.000715224 8.38631e-08 0.0 0.00113437 6.65286e-08 0.0 0.00151112 -5.32604e-08 0.0 0.001846 -1.22766e-08 0.0 0.00213907 9.20845e-08 0.0 0.00239036 1.22745e-08 0.0 0.00259971 -2.23558e-10 0.0 0.00276713 -2.59912e-08 0.0 0.00289272 3.28695e-08 0.0 0.00297648 1.43118e-08 0.0 0.00301837 -6.95699e-09 0.0 0.00301837 6.95699e-09 0.0 0.00297648 -1.43118e-08 0.0 0.00289272 -3.28695e-08 0.0 0.00276713 2.59912e-08 0.0 0.00259971 2.23558e-10 0.0 0.00239036 -1.22745e-08 0.0 0.00213907 -9.20845e-08 0.0 0.001846 1.22766e-08 0.0 0.00151112 5.32604e-08 0.0 0.00113437 -6.65286e-08 0.0 0.000715224 -8.38631e-08 0.0 0.000258611 -8.88581e-08 0.0 0 0 0.0 0 0 0.0 0 0 0.0 0 0 0.0 0 0 0.0 0 0 0.0 0 0 0.0 0 0 0.0 0.000258611 8.88581e-08 0.0 0.000715224 8.38631e-08 0.0 0.00113437 6.65286e-08 0.0 0.00151112 -5.32604e-08 0.0 0.001846 -1.22766e-08 0.0 0.00213907 9.20845e-08 0.0 0.00239036 1.22745e-08 0.0 0.00259971 -2.23558e-10 0.0 0.00276713 -2.59912e-08 0.0 0.00289272 3.28695e-08 0.0 0.00297648 1.43118e-08 0.0 0.00301837 -6.95699e-09 0.0 0.00301837 6.95699e-09 0.0 0.00297648 -1.43118e-08 0.0 0.00289272 -3.28695e-08 0.0 0.00276713 2.59912e-08 0.0 0.00259971 2.23558e-10 0.0 0.00239036 -1.22745e-08 0.0 0.00213907 -9.20845e-08 0.0 0.001846 1.22766e-08 0.0 0.00151112 5.32604e-08 0.0 0.00113437 -6.65286e-08 0.0 0.000715224 -8.38631e-08 0.0 0.000258611 -8.88581e-08 0.0 0 0 0.0 0 0 0.0 0 0 0.0 0 0 0.0 0 0 0.0 0 0 0.0 0 0 0.0 0 0 0.0 0.000258611 8.88581e-08 0.0 0.000715224 8.38631e-08 0.0 0.00113437 6.65286e-08 0.0 0.00151112 -5.32604e-08 0.0 0.001846 -1.22766e-08 0.0 0.00213907 9.20845e-08 0.0 0.00239036 1.22745e-08 0.0 0.00259971 -2.23558e-10 0.0 0.00276713 -2.59912e-08 0.0 0.00289272 3.28695e-08 0.0 0.00297648 1.43118e-08 0.0 0.00301837 -6.95699e-09 0.0 0.00301837 6.95699e-09 0.0 0.00297648 -1.43118e-08 0.0 0.00289272 -3.28695e-08 0.0 0.00276713 2.59912e-08 0.0 0.00259971 2.23558e-10 0.0 0.00239036 -1.22745e-08 0.0 0.00213907 -9.20845e-08 0.0 0.001846 1.22766e-08 0.0 0.00151112 5.32604e-08 0.0 0.00113437 -6.65286e-08 0.0 0.000715224 -8.38631e-08 0.0 0.000258611 -8.88581e-08 0.0 0 0 0.0 0 0 0.0 0 0 0.0 0 0 0.0 0 0 0.0 0 0 0.0 0 0 0.0 0 0 0.0 0.000258611 8.88581e-08 0.0 0.000715224 8.38631e-08 0.0 0.00113437 6.65286e-08 0.0 0.00151112 -5.32604e-08 0.0 0.001846 -1.22766e-08 0.0 0.00213907 9.20845e-08 0.0 0.00239036 1.22745e-08 0.0 0.00259971 -2.23558e-10 0.0 0.00276713 -2.59912e-08 0.0 0.00289272 3.28695e-08 0.0 0.00297648 1.43118e-08 0.0 0.00301837 -6.95699e-09 0.0 0.00301837 6.95699e-09 0.0 0.00297648 -1.43118e-08 0.0 0.00289272 -3.28695e-08 0.0 0.00276713 2.59912e-08 0.0 0.00259971 2.23558e-10 0.0 0.00239036 -1.22745e-08 0.0 0.00213907 -9.20845e-08 0.0 0.001846 1.22766e-08 0.0 0.00151112 5.32604e-08 0.0 0.00113437 -6.65286e-08 0.0 0.000715224 -8.38631e-08 0.0 0.000258611 -8.88581e-08 0.0 0 0 0.0 0 0 0.0 0 0 0.0 0 0 0.0 0 0 0.0 0 0 0.0 0 0 0.0 0 0 0.0 0.000258611 8.88581e-08 0.0 0.000715224 8.38631e-08 0.0 0.00113437 6.65286e-08 0.0 0.00151112 -5.32604e-08 0.0 0.001846 -1.22766e-08 0.0 0.00213907 9.20845e-08 0.0 0.00239036 1.22745e-08 0.0 0.00259971 -2.23558e-10 0.0 0.00276713 -2.59912e-08 0.0 0.00289272 3.28695e-08 0.0 0.00297648 1.43118e-08 0.0 0.00301837 -6.95699e-09 0.0 0.00301837 6.95699e-09 0.0 0.00297648 -1.43118e-08 0.0 0.00289272 -3.28695e-08 0.0 0.00276713 2.59912e-08 0.0 0.00259971 2.23558e-10 0.0 0.00239036 -1.22745e-08 0.0 0.00213907 -9.20845e-08 0.0 0.001846 1.22766e-08 0.0 0.00151112 5.32604e-08 0.0 0.00113437 -6.65286e-08 0.0 0.000715224 -8.38631e-08 0.0 0.000258611 -8.88581e-08 0.0 0 0 0.0 0 0 0.0 0 0 0.0 0 0 0.0
        </DataArray>
        <DataArray type="Float64" NumberOfComponents="3" Name="vf" format="ascii">
 0 0 0.0 -0.000258611 -8.91858e-08 0.0 -0.000258883 -8.91826e-08 0.0 -0.000292315 -8.87841e-08 0.0 0.0 0.0 0.0 0.0 0.0 0.0 0.0 0.0 0.0 0.0 0.0 0.0 0.0 0.0 0.0 0.0 0.0 0.0 0.0 0.0 0.0 0.0 0.0 0.0 0.0 0.0 0.0 0.0 0.0 0.0 0.0 0.0 0.0 0.0 0.0 0.0 0.0 0.0 0.0 0.0 0.0 0.0 0.0 0.0 0.0 0.0 0.0 0.0 0.0 0.0 0.0 0.0 0.0 0.0 0.0 0.0 0.0 0.0 0.0 0.0 0.0 0.0 0.0 0.0 0.0 0.0 0.0 0.0 0.0 0.0 0.0 0.0 -0.000292315 8.87841e-08 0.0 -0.000258883 8.91826e-08 0.0 -0.000258611 8.91858e-08 0.0 0 0 0.0 0 0 0.0 -0.000258611 -8.91858e-08 0.0 -0.000258883 -8.91826e-08 0.0 -0.000292315 -8.87841e-08 0.0 0.0 0.0 0.0 0.0 0.0 0.0 0.0 0.0 0.0 0.0 0.0 0.0 0.0 0.0 0.0 0.0 0.0 0.0 0.0 0.0 0.0 0.0 0.0 0.0 0.0 0.0 0.0 0.0 0.0 0.0 0.0 0.0 0.0 0.0 0.0 0.0 0.0 0.0 0.0 0.0 0.0 0.0 0.0 0.0 0.0 0.0 0.0 0.0 0.0 0.0 0.0 0.0 0.0 0.0 0.0 0.0 0.0 0.0 0.0 0.0 0.0 0.0 0.0 0.0 0.0 0.0 0.0 0.0 0.0 0.0 0.0 0.0 -0.000292315 8.87841e-08 0.0 -0.000258883 8.91826e-08 0.0 -0.000258611 8.91858e-08 0.0 0 0 0.0 0 0 0.0 -0.000258611 -8.91858e-08 0.0 -0.000258883 -8.91826e-08 0.0 -0.000292315 -8.87841e-08 0.0 0.0 0.0 0.0 0.0 0.0 0.0 0.0 0.0 0.0 0.0 0.0 0.0 0.0 0.0 0.0 0.0 0.0 0.0 0.0 0.0 0.0 0.0 0.0 0.0 0.0 0.0 0.0 0.0 0.0 0.0 0.0 0.0 0.0 0.0 0.0 0.0 0.0 0.0 0.0 0.0 0.0 0.0 0.0 0.0 0.0 0.0 0.0 0.0 0.0 0.0 0.0 0.0 0.0 0.0 0.0 0.0 0.0 0.0 0.0 0.0 0.0 0.0 0.0 0.0 0.0 0.0 0.0 0.0 0.0 0.0 0.0 0.0 -0.000292315 8.87841e-08 0.0 -0.000258883 8.91826e-08 0.0 -0.000258611 8.91858e-08 0.0 0 0 0.0 0 0 0.0 -0.000258611 -8.91858e-08 0.0 -0.000258883 -8.91826e-08 0.0 -0.000292315 -8.87841e-08 0.0 0.0 0.0 0.0 0.0 0.0 0.0 0.0 0.0 0.0 0.0 0.0 0.0 0.0 0.0 0.0 0.0 0.0 0.0 0.0 0.0 0.0 0.0 0.0 0.0 0.0 0.0 0.0 0.0 0.0 0.0 0.0 0.0 0.0 0.0 0.0 0.0 0.0 0.0 0.0 0.0 0.0 0.0 0.0 0.0 0.0 0.0 0.0 0.0 0.0 0.0 0.0 0.0 0.0 0.0 0.0 0.0 0.0 0.0 0.0 0.0 0.0 0.0 0.0 0.0 0.0 0.0 0.0 0.0 0.0 0.0 0.0 0.0 -0.000292315 8.87841e-08 0.0 -0.000258883 8.91826e-08 0.0 -0.000258611 8.91858e-08 0.0 0 0 0.0 0 0 0.0 -0.000258611 -8.91858e-08 0.0 -0.000258883 -8.91826e-08 0.0 -0.000292315 -8.87841e-08 0.0 0.0 0.0 0.0 0.0 0.0 0.0 0.0 0.0 0.0 0.0 0.0 0.0 0.0 0.0 0.0 0.0 0.0 0.0 0.0 0.0 0.0 0.0 0.0 0.0 0.0 0.0 0.0 0.0 0.0 0.0 0.0 0.0 0.0 0.0 0.0 0.0 0.0 0.0 0.0 0.0 0.0 0.0 0.0 0.0 0.0 0.0 0.0 0.0 0.0 0.0 0.0 0.0 0.0 0.0 0.0 0.0 0.0 0.0 0.0 0.0 0.0 0.0 0.0 0.0 0.0 0.0 0.0 0.0 0.0 0.0 0.0 0.0 -0.000292315 8.87841e-08 0.0 -0.000258883 8.91826e-08 0.0 -0.000258611 8.91858e-08 0.0 0 0 0.0 0 0 0.0 -0.000258611 -8.91858e-08 0.0 -0.000258883 -8.91826e-08 0.0 -0.000292315 -8.87841e-08 0.0 0.0 0.0 0.0 0.0 0.0 0.0 0.0 0.0 0.0 0.0 0.0 0.0 0.0 0.0 0.0 0.0 0.0 0.0 0.0 0.0 0.0 0.0 0.0 0.0 0.0 0.0 0.0 0.0 0.0 0.0 0.0 0.0 0.0 0.0 0.0 0.0 0.0 0.0 0.0 0.0 0.0 0.0 0.0 0.0 0.0 0.0 0.0 0.0 0.0 0.0 0.0 0.0 0.0 0.0 0.0 0.0 0.0 0.0 0.0 0.0 0.0 0.0 0.0 0.0 0.0 0.0 0.0 0.0 0.0 0.0 0.0 0.0 -0.000292315 8.87841e-08 0.0 -0.000258883 8.91826e-08 0.0 -0.000258611 8.91858e-08 0.0 0 0 0.0 0 0 0.0 -0.000258611 -8.91858e-08 0.0 -0.000258883 -8.91826e-08 0.0 -0.000292315 -8.87841e-08 0.0 0.0 0.0 0.0 0.0 0.0 0.0 0.0 0.0 0.0 0.0 0.0 0.0 0.0 0.0 0.0 0.0 0.0 0.0 0.0 0.0 0.0 0.0 0.0 0.0 0.0 0.0 0.0 0.0 0.0 0.0 0.0 0.0 0.0 0.0 0.0 0.0 0.0 0.0 0.0 0.0 0.0 0.0 0.0 0.0 0.0 0.0 0.0 0.0 0.0 0.0 0.0 0.0 0.0 0.0 0.0 0.0 0.0 0.0 0.0 0.0 0.0 0.0 0.0 0.0 0.0 0.0 0.0 0.0 0.0 0.0 0.0 0.0 -0.000292315 8.87841e-08 0.0 -0.000258883 8.91826e-08 0.0 -0.000258611 8.91858e-08 0.0 0 0 0.0 0 0 0.0 -0.000258611 -8.91858e-08 0.0 -0.000258883 -8.91826e-08 0.0 -0.000292315 -8.87841e-08 0.0 0.0 0.0 0.0 0.0 0.0 0.0 0.0 0.0 0.0 0.0 0.0 0.0 0.0 0.0 0.0 0.0 0.0 0.0 0.0 0.0 0.0 0.0 0.0 0.0 0.0 0.0 0.0 0.0 0.0 0.0 0.0 0.0 0.0 0.0 0.0 0.0 0.0 0.0 0.0 0.0 0.0 0.0 0.0 0.0 0.0 0.0 0.0 0.0 0.0 0.0 0.0 0.0 0.0 0.0 0.0 0.0 0.0 0.0 0.0 0.0 0.0 0.0 0.0 0.0 0.0 0.0 0.0 0.0 0.0 0.0 0.0 0.0 -0.000292315 8.87841e-08 0.0 -0.000258883 8.91826e-08 0.0 -0.000258611 8.91858e-08 0.0 0 0 0.0 0 0 0.0 -0.000258611 -8.91858e-08 0.0 -0.000258883 -8.91826e-08 0.0 -0.000292315 -8.87841e-08 0.0 0.0 0.0 0.0 0.0 0.0 0.0 0.0 0.0 0.0 0.0 0.0 0.0 0.0 0.0 0.0 0.0 0.0 0.0 0.0 0.0 0.0 0.0 0.0 0.0 0.0 0.0 0.0 0.0 0.0 0.0 0.0 0.0 0.0 0.0 0.0 0.0 0.0 0.0 0.0 0.0 0.0 0.0 0.0 0.0 0.0 0.0 0.0 0.0 0.0 0.0 0.0 0.0 0.0 0.0 0.0 0.0 0.0 0.0 0.0 0.0 0.0 0.0 0.0 0.0 0.0 0.0 0.0 0.0 0.0 0.0 0.0 0.0 -0.000292315 8.87841e-08 0.0 -0.000258883 8.91826e-08 0.0 -0.000258611 8.91858e-08 0.0 0 0 0.0 0 0 0.0 -0.000258611 -8.91858e-08 0.0 -0.000258883 -8.91826e-08 0.0 -0.000292315 -8.87841e-08 0.0 0.0 0.0 0.0 0.0 0.0 0.0 0.0 0.0 0.0 0.0 0.0 0.0 0.0 0.0 0.0 0.0 0.0 0.0 0.0 0.0 0.0 0.0 0.0 0.0 0.0 0.0 0.0 0.0 0.0 0.0 0.0 0.0 0.0 0.0 0.0 0.0 0.0 0.0 0.0 0.0 0.0 0.0 0.0 0.0 0.0 0.0 0.0 0.0 0.0 0.0 0.0 0.0 0.0 0.0 0.0 0.0 0.0 0.0 0.0 0.0 0.0 0.0 0.0 0.0 0.0 0.0 0.0 0.0 0.0 0.0 0.0 0.0 -0.000292315 8.87841e-08 0.0 -0.000258883 8.91826e-08 0.0 -0.000258611 8.91858e-08 0.0 0 0 0.0 0 0 0.0 -0.000258611 -8.91858e-08 0.0 -0.000258883 -8.91826e-08 0.0 -0.000292315 -8.87841e-08 0.0 0.0 0.0 0.0 0.0 0.0 0.0 0.0 0.0 0.0 0.0 0.0 0.0 0.0 0.0 0.0 0.0 0.0 0.0 0.0 0.0 0.0 0.0 0.0 0.0 0.0 0.0 0.0 0.0 0.0 0.0 0.0 0.0 0.0 0.0 0.0 0.0 0.0 0.0 0.0 0.0 0.0 0.0 0.0 0.0 0.0 0.0 0.0 0.0 0.0 0.0 0.0 0.0 0.0 0.0 0.0 0.0 0.0 0.0 0.0 0.0 0.0 0.0 0.0 0.0 0.0 0.0 0.0 0.0 0.0 0.0 0.0 0.0 -0.000292315 8.87841e-08 0.0 -0.000258883 8.91826e-08 0.0 -0.000258611 8.91858e-08 0.0 0 0 0.0 0 0 0.0 -0.000258611 -8.91858e-08 0.0 -0.000258883 -8.91826e-08 0.0 -0.000292315 -8.87841e-08 0.0 0.0 0.0 0.0 0.0 0.0 0.0 0.0 0.0 0.0 0.0 0.0 0.0 0.0 0.0 0.0 0.0 0.0 0.0 0.0 0.0 0.0 0.0 0.0 0.0 0.0 0.0 0.0 0.0 0.0 0.0 0.0 0.0 0.0 0.0 0.0 0.0 0.0 0.0 0.0 0.0 0.0 0.0 0.0 0.0 0.0 0.0 0.0 0.0 0.0 0.0 0.0 0.0 0.0 0.0 0.0 0.0 0.0 0.0 0.0 0.0 0.0 0.0 0.0 0.0 0.0 0.0 0.0 0.0 0.0 0.0 0.0 0.0 -0.000292315 8.87841e-08 0.0 -0.000258883 8.91826e-08 0.0 -0.000258611 8.91858e-08 0.0 0 0 0.0 0 0 0.0 -0.000258611 -8.91858e-08 0.0 -0.000258883 -8.91826e-08 0.0 -0.000292315 -8.87841e-08 0.0 0.0 0.0 0.0 0.0 0.0 0.0 0.0 0.0 0.0 0.0 0.0 0.0 0.0 0.0 0.0 0.0 0.0 0.0 0.0 0.0 0.0 0.0 0.0 0.0 0.0 0.0 0.0 0.0 0.0 0.0 0.0 0.0 0.0 0.0 0.0 0.0 0.0 0.0 0.0 0.0 0.0 0.0 0.0 0.0 0.0 0.0 0.0 0.0 0.0 0.0 0.0 0.0 0.0 0.0 0.0 0.0 0.0 0.0 0.0 0.0 0.0 0.0 0.0 0.0 0.0 0.0 0.0 0.0 0.0 0.0 0.0 0.0 -0.000292315 8.87841e-08 0.0 -0.000258883 8.91826e-08 0.0 -0.000258611 8.91858e-08 0.0 0 0 0.0 0 0 0.0 -0.000258611 -8.91858e-08 0.0 -0.000258883 -8.91826e-08 0.0 -0.000292315 -8.87841e-08 0.0 0.0 0.0 0.0 0.0 0.0 0.0 0.0 0.0 0.0 0.0 0.0 0.0 0.0 0.0 0.0 0.0 0.0 0.0 0.0 0.0 0.0 0.0 0.0 0.0 0.0 0.0 0.0 0.0 0.0 0.0 0.0 0.0 0.0 0.0 0.0 0.0 0.0 0.0 0.0 0.0 0.0 0.0 0.0 0.0 0.0 0.0 0.0 0.0 0.0 0.0 0.0 0.0 0.0 0.0 0.0 0.0 0.0 0.0 0.0 0.0 0.0 0.0 0.0 0.0 0.0 0.0 0.0 0.0 0.0 0.0 0.0 0.0 -0.000292315 8.87841e-08 0.0 -0.000258883 8.91826e-08 0.0 -0.000258611 8.91858e-08 0.0 0 0 0.0 0 0 0.0 -0.000258611 -8.91858e-08 0.0 -0.000258883 -8.91826e-08 0.0 -0.000292315 -8.87841e-08 0.0 0.0 0.0 0.0 0.0 0.0 0.0 0.0 0.0 0.0 0.0 0.0 0.0 0.0 0.0 0.0 0.0 0.0 0.0 0.0 0.0 0.0 0.0 0.0 0.0 0.0 0.0 0.0 0.0 0.0 0.0 0.0 0.0 0.0 0.0 0.0 0.0 0.0 0.0 0.0 0.0 0.0 0.0 0.0 0.0 0.0 0.0 0.0 0.0 0.0 0.0 0.0 0.0 0.0 0.0 0.0 0.0 0.0 0.0 0.0 0.0 0.0 0.0 0.0 0.0 0.0 0.0 0.0 0.0 0.0 0.0 0.0 0.0 -0.000292315 8.87841e-08 0.0 -0.000258883 8.91826e-08 0.0 -0.000258611 8.91858e-08 0.0 0 0 0.0 0 0 0.0 -0.000258611 -8.91858e-08 0.0 -0.000258883 -8.91826e-08 0.0 -0.000292315 -8.87841e-08 0.0 0.0 0.0 0.0 0.0 0.0 0.0 0.0 0.0 0.0 0.0 0.0 0.0 0.0 0.0 0.0 0.0 0.0 0.0 0.0 0.0 0.0 0.0 0.0 0.0 0.0 0.0 0.0 0.0 0.0 0.0 0.0 0.0 0.0 0.0 0.0 0.0 0.0 0.0 0.0 0.0 0.0 0.0 0.0 0.0 0.0 0.0 0.0 0.0 0.0 0.0 0.0 0.0 0.0 0.0 0.0 0.0 0.0 0.0 0.0 0.0 0.0 0.0 0.0 0.0 0.0 0.0 0.0 0.0 0.0 0.0 0.0 0.0 -0.000292315 8.87841e-08 0.0 -0.000258883 8.91826e-08 0.0 -0.000258611 8.91858e-08 0.0 0 0 0.0 0 0 0.0 -0.000258611 -8.91858e-08 0.0 -0.000258883 -8.91826e-08 0.0 -0.000292315 -8.87841e-08 0.0 0.0 0.0 0.0 0.0 0.0 0.0 0.0 0.0 0.0 0.0 0.0 0.0 0.0 0.0 0.0 0.0 0.0 0.0 0.0 0.0 0.0 0.0 0.0 0.0 0.0 0.0 0.0 0.0 0.0 0.0 0.0 0.0 0.0 0.0 0.0 0.0 0.0 0.0 0.0 0.0 0.0 0.0 0.0 0.0 0.0 0.0 0.0 0.0 0.0 0.0 0.0 0.0 0.0 0.0 0.0 0.0 0.0 0.0 0.0 0.0 0.0 0.0 0.0 0.0 0.0 0.0 0.0 0.0 0.0 0.0 0.0 0.0 -0.000292315 8.87841e-08 0.0 -0.000258883 8.91826e-08 0.0 -0.000258611 8.91858e-08 0.0 0 0 0.0 0 0 0.0 -0.000258611 -8.91858e-08 0.0 -0.000258883 -8.91826e-08 0.0 -0.000292315 -8.87841e-08 0.0 0.0 0.0 0.0 0.0 0.0 0.0 0.0 0.0 0.0 0.0 0.0 0.0 0.0 0.0 0.0 0.0 0.0 0.0 0.0 0.0 0.0 0.0 0.0 0.0 0.0 0.0 0.0 0.0 0.0 0.0 0.0 0.0 0.0 0.0 0.0 0.0 0.0 0.0 0.0 0.0 0.0 0.0 0.0 0.0 0.0 0.0 0.0 0.0 0.0 0.0 0.0 0.0 0.0 0.0 0.0 0.0 0.0 0.0 0.0 0.0 0.0 0.0 0.0 0.0 0.0 0.0 0.0 0.0 0.0 0.0 0.0 0.0 -0.000292315 8.87841e-08 0.0 -0.000258883 8.91826e-08 0.0 -0.000258611 8.91858e-08 0.0 0 0 0.0 0 0 0.0 -0.000258611 -8.91858e-08 0.0 -0.000258883 -8.91826e-08 0.0 -0.000292315 -8.87841e-08 0.0 0.0 0.0 0.0 0.0 0.0 0.0 0.0 0.0 0.0 0.0 0.0 0.0 0.0 0.0 0.0 0.0 0.0 0.0 0.0 0.0 0.0 0.0 0.0 0.0 0.0 0.0 0.0 0.0 0.0 0.0 0.0 0.0 0.0 0.0 0.0 0.0 0.0 0.0 0.0 0.0 0.0 0.0 0.0 0.0 0.0 0.0 0.0 0.0 0.0 0.0 0.0 0.0 0.0 0.0 0.0 0.0 0.0 0.0 0.0 0.0 0.0 0.0 0.0 0.0 0.0 0.0 0.0 0.0 0.0 0.0 0.0 0.0 -0.000292315 8.87841e-08 0.0 -0.000258883 8.91826e-08 0.0 -0.000258611 8.91858e-08 0.0 0 0 0.0 0 0 0.0 -0.000258611 -8.91858e-08 0.0 -0.000258883 -8.91826e-08 0.0 -0.000292315 -8.87841e-08 0.0 0.0 0.0 0.0 0.0 0.0 0.0 0.0 0.0 0.0 0.0 0.0 0.0 0.0 0.0 0.0 0.0 0.0 0.0 0.0 0.0 0.0 0.0 0.0 0.0 0.0 0.0 0.0 0.0 0.0 0.0 0.0 0.0 0.0 0.0 0.0 0.0 0.0 0.0 0.0 0.0 0.0 0.0 0.0 0.0 0.0 0.0 0.0 0.0 0.0 0.0 0.0 0.0 0.0 0.0 0.0 0.0 0.0 0.0 0.0 0.0 0.0 0.0 0.0 0.0 0.0 0.0 0.0 0.0 0.0 0.0 0.0 0.0 -0.000292315 8.87841e-08 0.0 -0.000258883 8.91826e-08 0.0 -0.000258611 8.91858e-08 0.0 0 0 0.0 0 0 0.0 -0.000258611 -8.91858e-08 0.0 -0.000258883 -8.91826e-08 0.0 -0.000292315 -8.87841e-08 0.0 0.0 0.0 0.0 0.0 0.0 0.0 0.0 0.0 0.0 0.0 0.0 0.0 0.0 0.0 0.0 0.0 0.0 0.0 0.0 0.0 0.0 0.0 0.0 0.0 0.0 0.0 0.0 0.0 0.0 0.0 0.0 0.0 0.0 0.0 0.0 0.0 0.0 0.0 0.0 0.0 0.0 0.0 0.0 0.0 0.0 0.0 0.0 0.0 0.0 0.0 0.0 0.0 0.0 0.0 0.0 0.0 0.0 0.0 0.0 0.0 0.0 0.0 0.0 0.0 0.0 0.0 0.0 0.0 0.0 0.0 0.0 0.0 -0.000292315 8.87841e-08 0.0 -0.000258883 8.91826e-08 0.0 -0.000258611 8.91858e-08 0.0 0 0 0.0 0 0 0.0 -0.000258611 -8.91858e-08 0.0 -0.000258883 -8.91826e-08 0.0 -0.000292315 -8.87841e-08 0.0 0.0 0.0 0.0 0.0 0.0 0.0 0.0 0.0 0.0 0.0 0.0 0.0 0.0 0.0 0.0 0.0 0.0 0.0 0.0 0.0 0.0 0.0 0.0 0.0 0.0 0.0 0.0 0.0 0.0 0.0 0.0 0.0 0.0 0.0 0.0 0.0 0.0 0.0 0.0 0.0 0.0 0.0 0.0 0.0 0.0 0.0 0.0 0.0 0.0 0.0 0.0 0.0 0.0 0.0 0.0 0.0 0.0 0.0 0.0 0.0 0.0 0.0 0.0 0.0 0.0 0.0 0.0 0.0 0.0 0.0 0.0 0.0 -0.000292315 8.87841e-08 0.0 -0.000258883 8.91826e-08 0.0 -0.000258611 8.91858e-08 0.0 0 0 0.0 0 0 0.0 -0.000258611 -8.91858e-08 0.0 -0.000258883 -8.91826e-08 0.0 -0.000292315 -8.87841e-08 0.0 0.0 0.0 0.0 0.0 0.0 0.0 0.0 0.0 0.0 0.0 0.0 0.0 0.0 0.0 0.0 0.0 0.0 0.0 0.0 0.0 0.0 0.0 0.0 0.0 0.0 0.0 0.0 0.0 0.0 0.0 0.0 0.0 0.0 0.0 0.0 0.0 0.0 0.0 0.0 0.0 0.0 0.0 0.0 0.0 0.0 0.0 0.0 0.0 0.0 0.0 0.0 0.0 0.0 0.0 0.0 0.0 0.0 0.0 0.0 0.0 0.0 0.0 0.0 0.0 0.0 0.0 0.0 0.0 0.0 0.0 0.0 0.0 -0.000292315 8.87841e-08 0.0 -0.000258883 8.91826e-08 0.0 -0.000258611 8.91858e-08 0.0 0 0 0.0 0 0 0.0 -0.000258611 -8.91858e-08 0.0 -0.000258883 -8.91826e-08 0.0 -0.000292315 -8.87841e-08 0.0 0.0 0.0 0.0 0.0 0.0 0.0 0.0 0.0 0.0 0.0 0.0 0.0 0.0 0.0 0.0 0.0 0.0 0.0 0.0 0.0 0.0 0.0 0.0 0.0 0.0 0.0 0.0 0.0 0.0 0.0 0.0 0.0 0.0 0.0 0.0 0.0 0.0 0.0 0.0 0.0 0.0 0.0 0.0 0.0 0.0 0.0 0.0 0.0 0.0 0.0 0.0 0.0 0.0 0.0 0.0 0.0 0.0 0.0 0.0 0.0 0.0 0.0 0.0 0.0 0.0 0.0 0.0 0.0 0.0 0.0 0.0 0.0 -0.000292315 8.87841e-08 0.0 -0.000258883 8.91826e-08 0.0 -0.000258611 8.91858e-08 0.0 0 0 0.0
        </DataArray>
      </PointData>
      <Points>
        <DataArray type="Float64" NumberOfComponents="3" format="ascii">
 -0.0479167 -0.0645833 0.0 -0.0479167 -0.0604167 0.0 -0.0479167 -0.05625 0.0 -0.0479167 -0.0520833 0.0 -0.0416461 -0.0479167 0.0 -0.0306073 -0.0437503 0.0 -0.0205025 -0.0395836 0.0 -0.0114368 -0.0354169 0.0 -0.00339413 -0.0312499 0.0 0.00363051 -0.0270834 0.0 0.00964208 -0.0229169 0.0 0.0146448 -0.0187501 0.0 0.0186428 -0.0145833 0.0 0.021639 -0.0104166 0.0 0.0236354 -0.00625023 0.0 0.0246335 -0.00208334 0.0 0.0246335 0.00208334 0.0 0.0236354 0.00625023 0.0 0.021639 0.0104166 0.0 0.0186428 0.0145833 0.0 0.0146448 0.0187501 0.0 0.00964208 0.0229169 0.0 0.00363051 0.0270834 0.0 -0.00339413 0.0312499 0.0 -0.0114368 0.0354169 0.0 -0.0205025 0.0395836 0.0 -0.0306073 0.0437503 0.0 -0.0416461 0.0479167 0.0 -0.0479167 0.0520833 0.0 -0.0479167 0.05625 0.0 -0.0479167 0.0604167 0.0 -0.0479167 0.0645833 0.0 -0.04375 -0.0645833 0.0 -0.04375 -0.0604167 0.0 -0.04375 -0.05625 0.0 -0.04375 -0.0520833 0.0 -0.0374794 -0.0479167 0.0 -0.0264407 -0.0437503 0.0 -0.0163358 -0.0395836 0.0 -0.00727012 -0.0354169 0.0 0.000772539 -0.0312499 0.0 0.00779718 -0.0270834 0.0 0.0138088 -0.0229169 0.0 0.0188115 -0.0187501 0.0 0.0228095 -0.0145833 0.0 0.0258056 -0.0104166 0.0 0.0278021 -0.00625023 0.0 0.0288002 -0.00208334 0.0 0.0288002 0.00208334 0.0 0.0278021 0.00625023 0.0 0.0258056 0.0104166 0.0 0.0228095 0.0145833 0.0 0.0188115 0.0187501 0.0 0.0138088 0.0229169 0.0 0.00779718 0.0270834 0.0 0.000772539 0.0312499 0.0 -0.00727012 0.0354169 0.0 -0.0163358 0.0395836 0.0 -0.0264407 0.0437503 0.0 -0.0374794 0.0479167 0.0 -0.04375 0.0520833 0.0 -0.04375 0.05625 0.0 -0.04375 0.0604167 0.0 -0.04375 0.0645833 0.0 -0.0395833 -0.0645833 0.0 -0.0395833 -0.0604167 0.0 -0.0395833 -0.05625 0.0 -0.0395833 -0.0520833 0.0 -0.0333128 -0.0479167 0.0 -0.022274 -0.0437503 0.0 -0.0121691 -0.0395836 0.0 -0.00310345 -0.0354169 0.0 0.00493921 -0.0312499 0.0 0.0119638 -0.0270834 0.0 0.0179754 -0.0229169 0.0 0.0229781 -0.0187501 0.0 0.0269761 -0.0145833 0.0 0.0299723 -0.0104166 0.0 0.0319688 -0.00625023 0.0 0.0329669 -0.00208334 0.0 0.0329669 0.00208334 0.0 0.0319688 0.00625023 0.0 0.0299723 0.0104166 0.0 0.0269761 0.0145833 0.0 0.0229781 0.0187501 0.0 0.0179754 0.0229169 0.0 0.0119638 0.0270834 0.0 0.00493921 0.0312499 0.0 -0.00310345 0.0354169 0.0 -0.0121691 0.0395836 0.0 -0.022274 0.0437503 0.0 -0.0333128 0.0479167 0.0 -0.0395833 0.0520833 0.0 -0.0395833 0.05625 0.0 -0.0395833 0.0604167 0.0 -0.0395833 0.0645833 0.0 -0.0354167 -0.0645833 0.0 -0.0354167 -0.0604167 0.0 -0.0354167 -0.05625 0.0 -0.0354167 -0.0520833 0.0 -0.0291461 -0.0479167 0.0 -0.0181073 -0.0437503 0.0 -0.00800248 -0.0395836 0.0 0.00106322 -0.0354169 0.0 0.00910587 -0.0312499 0.0 0.0161305 -0.0270834 0.0 0.0221421 -0.0229169 0.0 0.0271448 -0.0187501 0.0 0.0311428 -0.0145833 0.0 0.034139 -0.0104166 0.0 0.0361354 -0.00625023 0.0 0.0371335 -0.00208334 0.0 0.0371335 0.00208334 0.0 0.0361354 0.00625023 0.0 0.034139 0.0104166 0.0 0.0311428 0.0145833 0.0 0.0271448 0.0187501 0.0 0.0221421 0.0229169 0.0 0.0161305 0.0270834 0.0 0.00910587 0.0312499 0.0 0.00106322 0.0354169 0.0 -0.00800248 0.0395836 0.0 -0.0181073 0.0437503 0.0 -0.0291461 0.0479167 0.0 -0.0354167 0.0520833 0.0 -0.0354167 0.05625 0.0 -0.0354167 0.0604167 0.0 -0.0354167 0.0645833 0.0 -0.03125 -0.0645833 0.0 -0.03125 -0.0604167 0.0 -0.03125 -0.05625 0.0 -0.03125 -0.0520833 0.0 -0.0249794 -0.0479167 0.0 -0.0139407 -0.0437503 0.0 -0.00383581 -0.0395836 0.0 0.00522988 -0.0354169 0.0 0.0132725 -0.0312499 0.0 0.0202972 -0.0270834 0.0 0.0263088 -0.0229169 0.0 0.0313115 -0.0187501 0.0 0.0353095 -0.0145833 0.0 0.0383056 -0.0104166 0.0 0.0403021 -0.00625023 0.0 0.0413002 -0.00208334 0.0 0.0413002 0.00208334 0.0 0.0403021 0.00625023 0.0 0.0383056 0.0104166 0.0 0.0353095 0.0145833 0.0 0.0313115 0.0187501 0.0 0.0263088 0.0229169 0.0 0.0202972 0.0270834 0.0 0.0132725 0.0312499 0.0 0.00522988 0.0354169 0.0 -0.00383581 0.0395836 0.0 -0.0139407 0.0437503 0.0 -0.0249794 0.0479167 0.0 -0.03125 0.0520833 0.0 -0.03125 0.05625 0.0 -0.03125 0.0604167 0.0 -0.03125 0.0645833 0.0 -0.0270833 -0.0645833 0.0 -0.0270833 -0.0604167 0.0 -0.0270833 -0.05625 0.0 -0.0270833 -0.0520833 0.0 -0.0208128 -0.0479167 0.0 -0.00977401 -0.0437503 0.0 0.000330852 -0.0395836 0.0 0.00939655 -0.0354169 0.0 0.0174392 -0.0312499 0.0 0.0244638 -0.0270834 0.0 0.0304754 -0.0229169 0.0 0.0354781 -0.0187501 0.0 0.0394761 -0.0145833 0.0 0.0424723 -0.0104166 0.0 0.0444688 -0.00625023 0.0 0.0454669 -0.00208334 0.0 0.0454669 0.00208334 0.0 0.0444688 0.00625023 0.0 0.0424723 0.0104166 0.0 0.0394761 0.0145833 0.0 0.0354781 0.0187501 0.0 0.0304754 0.0229169 0.0 0.0244638 0.0270834 0.0 0.0174392 0.0312499 0.0 0.00939655 0.0354169 0.0 0.000330852 0.0395836 0.0 -0.00977401 0.0437503 0.0 -0.0208128 0.0479167 0.0 -0.0270833 0.0520833 0.0 -0.0270833 0.05625 0.0 -0.0270833 0.0604167 0.0 -0.0270833 0.0645833 0.0 -0.0229167 -0.0645833 0.0 -0.0229167 -0.0604167 0.0 -0.0229167 -0.05625 0.0 -0.0229167 -0.0520833 0.0 -0.0166461 -0.0479167 0.0 -0.00560735 -0.0437503 0.0 0.00449752 -0.0395836 0.0 0.0135632 -0.0354169 0.0 0.0216059 -0.0312499 0.0 0.0286305 -0.0270834 0.0 0.0346421 -0.0229169 0.0 0.0396448 -0.0187501 0.0 0.0436428 -0.0145833 0.0 0.046639 -0.0104166 0.0 0.0486354 -0.00625023 0.0 0.0496335 -0.00208334 0.0 0.0496335 0.00208334 0.0 0.0486354 0.00625023 0.0 0.046639 0.0104166 0.0 0.0436428 0.0145833 0.0 0.0396448 0.0187501 0.0 0.0346421 0.0229169 0.0 0.0286305 0.0270834 0.0 0.0216059 0.0312499 0.0 0.0135632 0.0354169 0.0 0.00449752 0.0395836 0.0 -0.00560735 0.0437503 0.0 -0.0166461 0.0479167 0.0 -0.0229167 0.0520833 0.0 -0.0229167 0.05625 0.0 -0.0229167 0.0604167 0.0 -0.0229167 0.0645833 0.0 -0.01875 -0.0645833 0.0 -0.01875 -0.0604167 0.0 -0.01875 -0.05625 0.0 -0.01875 -0.0520833 0.0 -0.0124794 -0.0479167 0.0 -0.00144068 -0.0437503 0.0 0.00866419 -0.0395836 0.0 0.0177299 -0.0354169 0.0 0.0257725 -0.0312499 0.0 0.0327972 -0.0270834 0.0 0.0388088 -0.0229169 0.0 0.0438115 -0.0187501 0.0 0.0478095 -0.0145833 0.0 -0.0491944 -0.0104166 0.0 -0.0471979 -0.00625023 0.0 -0.0461998 -0.00208334 0.0 -0.0461998 0.00208334 0.0 -0.0471979 0.00625023 0.0 -0.0491944 0.0104166 0.0 0.0478095 0.0145833 0.0 0.0438115 0.0187501 0.0 0.0388088 0.0229169 0.0 0.0327972 0.0270834 0.0 0.0257725 0.0312499 0.0 0.0177299 0.0354169 0.0 0.00866419 0.0395836 0.0 -0.00144068 0.0437503 0.0 -0.0124794 0.0479167 0.0 -0.01875 0.0520833 0.0 -0.01875 0.05625 0.0 -0.01875 0.0604167 0.0 -0.01875 0.0645833 0.0 -0.0145833 -0.0645833 0.0 -0.0145833 -0.0604167 0.0 -0.0145833 -0.05625 0.0 -0.0145833 -0.0520833 0.0 -0.00831275 -0.0479167 0.0 0.00272599 -0.0437503 0.0 0.0128309 -0.0395836 0.0 0.0218966 -0.0354169 0.0 0.0299392 -0.0312499 0.0 0.0369638 -0.0270834 0.0 0.0429754 -0.0229169 0.0 0.0479781 -0.0187501 0.0 -0.0480239 -0.0145833 0.0 -0.0450277 -0.0104166 0.0 -0.0430312 -0.00625023 0.0 -0.0420331 -0.00208334 0.0 -0.0420331 0.00208334 0.0 -0.0430312 0.00625023 0.0 -0.0450277 0.0104166 0.0 -0.0480239 0.0145833 0.0 0.0479781 0.0187501 0.0 0.0429754 0.0229169 0.0 0.0369638 0.0270834 0.0 0.0299392 0.0312499 0.0 0.0218966 0.0354169 0.0 0.0128309 0.0395836 0.0 0.00272599 0.0437503 0.0 -0.00831275 0.0479167 0.0 -0.0145833 0.0520833 0.0 -0.0145833 0.05625 0.0 -0.0145833 0.0604167 0.0 -0.0145833 0.0645833 0.0 -0.0104167 -0.0645833 0.0 -0.0104167 -0.0604167 0.0 -0.0104167 -0.05625 0.0 -0.0104167 -0.0520833 0.0 -0.00414609 -0.0479167 0.0 0.00689265 -0.0437503 0.0 0.0169975 -0.0395836 0.0 0.0260632 -0.0354169 0.0 0.0341059 -0.0312499 0.0 0.0411305 -0.0270834 0.0 0.0471421 -0.0229169 0.0 -0.0478552 -0.0187501 0.0 -0.0438572 -0.0145833 0.0 -0.040861 -0.0104166 0.0 -0.0388646 -0.00625023 0.0 -0.0378665 -0.00208334 0.0 -0.0378665 0.00208334 0.0 -0.0388646 0.00625023 0.0 -0.040861 0.0104166 0.0 -0.0438572 0.0145833 0.0 -0.0478552 0.0187501 0.0 0.0471421 0.0229169 0.0 0.0411305 0.0270834 0.0 0.0341059 0.0312499 0.0 0.0260632 0.0354169 0.0 0.0169975 0.0395836 0.0 0.00689265 0.0437503 0.0 -0.00414609 0.0479167 0.0 -0.0104167 0.0520833 0.0 -0.0104167 0.05625 0.0 -0.0104167 0.0604167 0.0 -0.0104167 0.0645833 0.0 -0.00625 -0.0645833 0.0 -0.00625 -0.0604167 0.0 -0.00625 -0.05625 0.0 -0.00625 -0.0520833 0.0 2.05784e-05 -0.0479167 0.0 0.0110593 -0.0437503 0.0 0.0211642 -0.0395836 0.0 0.0302299 -0.0354169 0.0 0.0382725 -0.0312499 0.0 0.0452972 -0.0270834 0.0 -0.0486912 -0.0229169 0.0 -0.0436885 -0.0187501 0.0 -0.0396905 -0.0145833 0.0 -0.0366944 -0.0104166 0.0 -0.0346979 -0.00625023 0.0 -0.0336998 -0.00208334 0.0 -0.0336998 0.00208334 0.0 -0.0346979 0.00625023 0.0 -0.0366944 0.0104166 0.0 -0.0396905 0.0145833 0.0 -0.0436885 0.0187501 0.0 -0.0486912 0.0229169 0.0 0.0452972 0.0270834 0.0 0.0382725 0.0312499 0.0 0.0302299 0.0354169 0.0 0.0211642 0.0395836 0.0 0.0110593 0.0437503 0.0 2.05784e-05 0.0479167 0.0 -0.00625 0.0520833 0.0 -0.00625 0.05625 0.0 -0.00625 0.0604167 0.0 -0.00625 0.0645833 0.0 -0.00208333 -0.0645833 0.0 -0.00208333 -0.0604167 0.0 -0.00208333 -0.05625 0.0 -0.00208333 -0.0520833 0.0 0.00418725 -0.0479167 0.0 0.015226 -0.0437503 0.0 0.0253309 -0.0395836 0.0 0.0343966 -0.0354169 0.0 0.0424392 -0.0312499 0.0 0.0494638 -0.0270834 0.0 -0.0445246 -0.0229169 0.0 -0.0395219 -0.0187501 0.0 -0.0355239 -0.0145833 0.0 -0.0325277 -0.0104166 0.0 -0.0305312 -0.00625023 0.0 -0.0295331 -0.00208334 0.0 -0.0295331 0.00208334 0.0 -0.0305312 0.00625023 0.0 -0.0325277 0.0104166 0.0 -0.0355239 0.0145833 0.0 -0.0395219 0.0187501 0.0 -0.0445246 0.0229169 0.0 0.0494638 0.0270834 0.0 0.0424392 0.0312499 0.0 0.0343966 0.0354169 0.0 0.0253309 0.0395836 0.0 0.015226 0.0437503 0.0 0.00418725 0.0479167 0.0 -0.00208333 0.0520833 0.0 -0.00208333 0.05625 0.0 -0.00208333 0.0604167 0.0 -0.00208333 0.0645833 0.0 0.00208333 -0.0645833 0.0 0.00208333 -0.0604167 0.0 0.00208333 -0.05625 0.0 0.00208333 -0.0520833 0.0 0.00835391 -0.0479167 0.0 0.0193927 -0.0437503 0.0 0.0294975 -0.0395836 0.0 0.0385632 -0.0354169 0.0 0.0466059 -0.0312499 0.0 -0.0463695 -0.0270834 0.0 -0.0403579 -0.0229169 0.0 -0.0353552 -0.0187501 0.0 -0.0313572 -0.0145833 0.0 -0.028361 -0.0104166 0.0 -0.0263646 -0.00625023 0.0 -0.0253665 -0.00208334 0.0 -0.0253665 0.00208334 0.0 -0.0263646 0.00625023 0.0 -0.028361 0.0104166 0.0 -0.0313572 0.0145833 0.0 -0.0353552 0.0187501 0.0 -0.0403579 0.0229169 0.0 -0.0463695 0.0270834 0.0 0.0466059 0.0312499 0.0 0.0385632 0.0354169 0.0 0.0294975 0.0395836 0.0 0.0193927 0.0437503 0.0 0.00835391 0.0479167 0.0 0.00208333 0.0520833 0.0 0.00208333 0.05625 0.0 0.00208333 0.0604167 0.0 0.00208333 0.0645833 0.0 0.00625 -0.0645833 0.0 0.00625 -0.0604167 0.0 0.00625 -0.05625 0.0 0.00625 -0.0520833 0.0 0.0125206 -0.0479167 0.0 0.0235593 -0.0437503 0.0 0.0336642 -0.0395836 0.0 0.0427299 -0.0354169 0.0 -0.0492275 -0.0312499 0.0 -0.0422028 -0.0270834 0.0 -0.0361912 -0.0229169 0.0 -0.0311885 -0.0187501 0.0 -0.0271905 -0.0145833 0.0 -0.0241944 -0.0104166 0.0 -0.0221979 -0.00625023 0.0 -0.0211998 -0.00208334 0.0 -0.0211998 0.00208334 0.0 -0.0221979 0.00625023 0.0 -0.0241944 0.0104166 0.0 -0.0271905 0.0145833 0.0 -0.0311885 0.0187501 0.0 -0.0361912 0.0229169 0.0 -0.0422028 0.0270834 0.0 -0.0492275 0.0312499 0.0 0.0427299 0.0354169 0.0 0.0336642 0.0395836 0.0 0.0235593 0.0437503 0.0 0.0125206 0.0479167 0.0 0.00625 0.0520833 0.0 0.00625 0.05625 0.0 0.00625 0.0604167 0.0 0.00625 0.0645833 0.0 0.0104167 -0.0645833 0.0 0.0104167 -0.0604167 0.0 0.0104167 -0.05625 0.0 0.0104167 -0.0520833 0.0 0.0166872 -0.0479167 0.0 0.027726 -0.0437503 0.0 0.0378309 -0.0395836 0.0 0.0468966 -0.0354169 0.0 -0.0450608 -0.0312499 0.0 -0.0380362 -0.0270834 0.0 -0.0320246 -0.0229169 0.0 -0.0270219 -0.0187501 0.0 -0.0230239 -0.0145833 0.0 -0.0200277 -0.0104166 0.0 -0.0180312 -0.00625023 0.0 -0.0170331 -0.00208334 0.0 -0.0170331 0.00208334 0.0 -0.0180312 0.00625023 0.0 -0.0200277 0.0104166 0.0 -0.0230239 0.0145833 0.0 -0.0270219 0.0187501 0.0 -0.0320246 0.0229169 0.0 -0.0380362 0.0270834 0.0 -0.0450608 0.0312499 0.0 0.0468966 0.0354169 0.0 0.0378309 0.0395836 0.0 0.027726 0.0437503 0.0 0.0166872 0.0479167 0.0 0.0104167 0.0520833 0.0 0.0104167 0.05625 0.0 0.0104167 0.0604167 0.0 0.0104167 0.0645833 0.0 0.0145833 -0.0645833 0.0 0.0145833 -0.0604167 0.0 0.0145833 -0.05625 0.0 0.0145833 -0.0520833 0.0 0.0208539 -0.0479167 0.0 0.0318927 -0.0437503 0.0 0.0419975 -0.0395836 0.0 -0.0489368 -0.0354169 0.0 -0.0408941 -0.0312499 0.0 -0.0338695 -0.0270834 0.0 -0.0278579 -0.0229169 0.0 -0.0228552 -0.0187501 0.0 -0.0188572 -0.0145833 0.0 -0.015861 -0.0104166 0.0 -0.0138646 -0.00625023 0.0 -0.0128665 -0.00208334 0.0 -0.0128665 0.00208334 0.0 -0.0138646 0.00625023 0.0 -0.015861 0.0104166 0.0 -0.0188572 0.0145833 0.0 -0.0228552 0.0187501 0.0 -0.0278579 0.0229169 0.0 -0.0338695 0.0270834 0.0 -0.0408941 0.0312499 0.0 -0.0489368 0.0354169 0.0 0.0419975 0.0395836 0.0 0.0318927 0.0437503 0.0 0.0208539 0.0479167 0.0 0.0145833 0.0520833 0.0 0.0145833 0.05625 0.0 0.0145833 0.0604167 0.0 0.0145833 0.0645833 0.0 0.01875 -0.0645833 0.0 0.01875 -0.0604167 0.0 0.01875 -0.05625 0.0 0.01875 -0.0520833 0.0 0.0250206 -0.0479167 0.0 0.0360593 -0.0437503 0.0 0.0461642 -0.0395836 0.0 -0.0447701 -0.0354169 0.0 -0.0367275 -0.0312499 0.0 -0.0297028 -0.0270834 0.0 -0.0236912 -0.0229169 0.0 -0.0186885 -0.0187501 0.0 -0.0146905 -0.0145833 0.0 -0.0116944 -0.0104166 0.0 -0.00969789 -0.00625023 0.0 -0.0086998 -0.00208334 0.0 -0.0086998 0.00208334 0.0 -0.00969789 0.00625023 0.0 -0.0116944 0.0104166 0.0 -0.0146905 0.0145833 0.0 -0.0186885 0.0187501 0.0 -0.0236912 0.0229169 0.0 -0.0297028 0.0270834 0.0 -0.0367275 0.0312499 0.0 -0.0447701 0.0354169 0.0 0.0461642 0.0395836 0.0 0.0360593 0.0437503 0.0 0.0250206 0.0479167 0.0 0.01875 0.0520833 0.0 0.01875 0.05625 0.0 0.01875 0.0604167 0.0 0.01875 0.0645833 0.0 0.0229167 -0.0645833 0.0 0.0229167 -0.0604167 0.0 0.0229167 -0.05625 0.0 0.0229167 -0.0520833 0.0 0.0291872 -0.0479167 0.0 0.040226 -0.0437503 0.0 -0.0496691 -0.0395836 0.0 -0.0406034 -0.0354169 0.0 -0.0325608 -0.0312499 0.0 -0.0255362 -0.0270834 0.0 -0.0195246 -0.0229169 0.0 -0.0145219 -0.0187501 0.0 -0.0105239 -0.0145833 0.0 -0.00752769 -0.0104166 0.0 -0.00553122 -0.00625023 0.0 -0.00453313 -0.00208334 0.0 -0.00453313 0.00208334 0.0 -0.00553122 0.00625023 0.0 -0.00752769 0.0104166 0.0 -0.0105239 0.0145833 0.0 -0.0145219 0.0187501 0.0 -0.0195246 0.0229169 0.0 -0.0255362 0.0270834 0.0 -0.0325608 0.0312499 0.0 -0.0406034 0.0354169 0.0 -0.0496691 0.0395836 0.0 0.040226 0.0437503 0.0 0.0291872 0.0479167 0.0 0.0229167 0.0520833 0.0 0.0229167 0.05625 0.0 0.0229167 0.0604167 0.0 0.0229167 0.0645833 0.0 0.0270833 -0.0645833 0.0 0.0270833 -0.0604167 0.0 0.0270833 -0.05625 0.0 0.0270833 -0.0520833 0.0 0.0333539 -0.0479167 0.0 0.0443927 -0.0437503 0.0 -0.0455025 -0.0395836 0.0 -0.0364368 -0.0354169 0.0 -0.0283941 -0.0312499 0.0 -0.0213695 -0.0270834 0.0 -0.0153579 -0.0229169 0.0 -0.0103552 -0.0187501 0.0 -0.00635721 -0.0145833 0.0 -0.00336102 -0.0104166 0.0 -0.00136455 -0.00625023 0.0 -0.000366465 -0.00208334 0.0 -0.000366465 0.00208334 0.0 -0.00136455 0.00625023 0.0 -0.00336102 0.0104166 0.0 -0.00635721 0.0145833 0.0 -0.0103552 0.0187501 0.0 -0.0153579 0.0229169 0.0 -0.0213695 0.0270834 0.0 -0.0283941 0.0312499 0.0 -0.0364368 0.0354169 0.0 -0.0455025 0.0395836 0.0 0.0443927 0.0437503 0.0 0.0333539 0.0479167 0.0 0.0270833 0.0520833 0.0 0.0270833 0.05625 0.0 0.0270833 0.0604167 0.0 0.0270833 0.0645833 0.0 0.03125 -0.0645833 0.0 0.03125 -0.0604167 0.0 0.03125 -0.05625 0.0 0.03125 -0.0520833 0.0 0.0375206 -0.0479167 0.0 0.0485593 -0.0437503 0.0 -0.0413358 -0.0395836 0.0 -0.0322701 -0.0354169 0.0 -0.0242275 -0.0312499 0.0 -0.0172028 -0.0270834 0.0 -0.0111912 -0.0229169 0.0 -0.00618852 -0.0187501 0.0 -0.00219054 -0.0145833 0.0 0.000805644 -0.0104166 0.0 0.00280211 -0.00625023 0.0 0.0038002 -0.00208334 0.0 0.0038002 0.00208334 0.0 0.00280211 0.00625023 0.0 0.000805644 0.0104166 0.0 -0.00219054 0.0145833 0.0 -0.00618852 0.0187501 0.0 -0.0111912 0.0229169 0.0 -0.0172028 0.0270834 0.0 -0.0242275 0.0312499 0.0 -0.0322701 0.0354169 0.0 -0.0413358 0.0395836 0.0 0.0485593 0.0437503 0.0 0.0375206 0.0479167 0.0 0.03125 0.0520833 0.0 0.03125 0.05625 0.0 0.03125 0.0604167 0.0 0.03125 0.0645833 0.0 0.0354167 -0.0645833 0.0 0.0354167 -0.0604167 0.0 0.0354167 -0.05625 0.0 0.0354167 -0.0520833 0.0 0.0416872 -0.0479167 0.0 -0.047274 -0.0437503 0.0 -0.0371691 -0.0395836 0.0 -0.0281034 -0.0354169 0.0 -0.0200608 -0.0312499 0.0 -0.0130362 -0.0270834 0.0 -0.00702458 -0.0229169 0.0 -0.00202186 -0.0187501 0.0 0.00197612 -0.0145833 0.0 0.00497231 -0.0104166 0.0 0.00696878 -0.00625023 0.0 0.00796687 -0.00208334 0.0 0.00796687 0.00208334 0.0 0.00696878 0.00625023 0.0 0.00497231 0.0104166 0.0 0.00197612 0.0145833 0.0 -0.00202186 0.0187501 0.0 -0.00702458 0.0229169 0.0 -0.0130362 0.0270834 0.0 -0.0200608 0.0312499 0.0 -0.0281034 0.0354169 0.0 -0.0371691 0.0395836 0.0 -0.047274 0.0437503 0.0 0.0416872 0.0479167 0.0 0.0354167 0.0520833 0.0 0.0354167 0.05625 0.0 0.0354167 0.0604167 0.0 0.0354167 0.0645833 0.0 0.0395833 -0.0645833 0.0 0.0395833 -0.0604167 0.0 0.0395833 -0.05625 0.0 0.0395833 -0.0520833 0.0 0.0458539 -0.0479167 0.0 -0.0431073 -0.0437503 0.0 -0.0330025 -0.0395836 0.0 -0.0239368 -0.0354169 0.0 -0.0158941 -0.0312499 0.0 -0.00886949 -0.0270834 0.0 -0.00285792 -0.0229169 0.0 0.00214481 -0.0187501 0.0 0.00614279 -0.0145833 0.0 0.00913898 -0.0104166 0.0 0.0111354 -0.00625023 0.0 0.0121335 -0.00208334 0.0 0.0121335 0.00208334 0.0 0.0111354 0.00625023 0.0 0.00913898 0.0104166 0.0 0.00614279 0.0145833 0.0 0.00214481 0.0187501 0.0 -0.00285792 0.0229169 0.0 -0.00886949 0.0270834 0.0 -0.0158941 0.0312499 0.0 -0.0239368 0.0354169 0.0 -0.0330025 0.0395836 0.0 -0.0431073 0.0437503 0.0 0.0458539 0.0479167 0.0 0.0395833 0.0520833 0.0 0.0395833 0.05625 0.0 0.0395833 0.0604167 0.0 0.0395833 0.0645833 0.0 0.04375 -0.0645833 0.0 0.04375 -0.0604167 0.0 0.04375 -0.05625 0.0 0.04375 -0.0520833 0.0 -0.0499794 -0.0479167 0.0 -0.0389407 -0.0437503 0.0 -0.0288358 -0.0395836 0.0 -0.0197701 -0.0354169 0.0 -0.0117275 -0.0312499 0.0 -0.00470282 -0.0270834 0.0 0.00130875 -0.0229169 0.0 0.00631148 -0.0187501 0.0 0.0103095 -0.0145833 0.0 0.0133056 -0.0104166 0.0 0.0153021 -0.00625023 0.0 0.0163002 -0.00208334 0.0 0.0163002 0.00208334 0.0 0.0153021 0.00625023 0.0 0.0133056 0.0104166 0.0 0.0103095 0.0145833 0.0 0.00631148 0.0187501 0.0 0.00130875 0.0229169 0.0 -0.00470282 0.0270834 0.0 -0.0117275 0.0312499 0.0 -0.0197701 0.0354169 0.0 -0.0288358 0.0395836 0.0 -0.0389407 0.0437503 0.0 -0.0499794 0.0479167 0.0 0.04375 0.0520833 0.0 0.04375 0.05625 0.0 0.04375 0.0604167 0.0 0.04375 0.0645833 0.0 0.0479167 -0.0645833 0.0 0.0479167 -0.0604167 0.0 0.0479167 -0.05625 0.0 0.0479167 -0.0520833 0.0 -0.0458128 -0.0479167 0.0 -0.034774 -0.0437503 0.0 -0.0246691 -0.0395836 0.0 -0.0156034 -0.0354169 0.0 -0.00756079 -0.0312499 0.0 -0.000536154 -0.0270834 0.0 0.00547542 -0.0229169 0.0 0.0104781 -0.0187501 0.0 0.0144761 -0.0145833 0.0 0.0174723 -0.0104166 0.0 0.0194688 -0.00625023 0.0 0.0204669 -0.00208334 0.0 0.0204669 0.00208334 0.0 0.0194688 0.00625023 0.0 0.0174723 0.0104166 0.0 0.0144761 0.0145833 0.0 0.0104781 0.0187501 0.0 0.00547542 0.0229169 0.0 -0.000536154 0.0270834 0.0 -0.00756079 0.0312499 0.0 -0.0156034 0.0354169 0.0 -0.0246691 0.0395836 0.0 -0.034774 0.0437503 0.0 -0.0458128 0.0479167 0.0 0.0479167 0.0520833 0.0 0.0479167 0.05625 0.0 0.0479167 0.0604167 0.0 0.0479167 0.0645833 0.0
        </DataArray>
      </Points>
      <Cells>
        <DataArray type="Int32" Name="connectivity" format="ascii">
 0 1 2 3 4 5 6 7 8 9 10 11 12 13 14 15 16 17 18 19 20 21 22 23 24 25 26 27 28 29 30 31 32 33 34 35 36 37 38 39 40 41 42 43 44 45 46 47 48 49 50 51 52 53 54 55 56 57 58 59 60 61 62 63 64 65 66 67 68 69 70 71 72 73 74 75 76 77 78 79 80 81 82 83 84 85 86 87 88 89 90 91 92 93 94 95 96 97 98 99 100 101 102 103 104 105 106 107 108 109 110 111 112 113 114 115 116 117 118 119 120 121 122 123 124 125 126 127 128 129 130 131 132 133 134 135 136 137 138 139 140 141 142 143 144 145 146 147 148 149 150 151 152 153 154 155 156 157 158 159 160 161 162 163 164 165 166 167 168 169 170 171 172 173 174 175 176 177 178 179 180 181 182 183 184 185 186 187 188 189 190 191 192 193 194 195 196 197 198 199 200 201 202 203 204 205 206 207 208 209 210 211 212 213 214 215 216 217 218 219 220 221 222 223 224 225 226 227 228 229 230 231 232 233 234 235 236 237 238 239 240 241 242 243 244 245 246 247 248 249 250 251 252 253 254 255 256 257 258 259 260 261 262 263 264 265 266 267 268 269 270 271 272 273 274 275 276 277 278 279 280 281 282 283 284 285 286 287 288 289 290 291 292 293 294 295 296 297 298 299 300 301 302 303 304 305 306 307 308 309 310 311 312 313 314 315 316 317 318 319 320 321 322 323 324 325 326 327 328 329 330 331 332 333 334 335 336 337 338 339 340 341 342 343 344 345 346 347 348 349 350 351 352 353 354 355 356 357 358 359 360 361 362 363 364 365 366 367 368 369 370 371 372 373 374 375 376 377 378 379 380 381 382 383 384 385 386 387 388 389 390 391 392 393 394 395 396 397 398 399 400 401 402 403 404 405 406 407 408 409 410 411 412 413 414 415 416 417 418 419 420 421 422 423 424 425 426 427 428 429 430 431 432 433 434 435 436 437 438 439 440 441 442 443 444 445 446 447 448 449 450 451 452 453 454 455 456 457 458 459 460 461 462 463 464 465 466 467 468 469 470 471 472 473 474 475 476 477 478 479 480 481 482 483 484 485 486 487 488 489 490 491 492 493 494 495 496 497 498 499 500 501 502 503 504 505 506 507 508 509 510 511 512 513 514 515 516 517 518 519 520 521 522 523 524 525 526 527 528 529 530 531 532 533 534 535 536 537 538 539 540 541 542 543 544 545 546 547 548 549 550 551 552 553 554 555 556 557 558 559 560 561 562 563 564 565 566 567 568 569 570 571 572 573 574 575 576 577 578 579 580 581 582 583 584 585 586 587 588 589 590 591 592 593 594 595 596 597 598 599 600 601 602 603 604 605 606 607 608 609 610 611 612 613 614 615 616 617 618 619 620 621 622 623 624 625 626 627 628 629 630 631 632 633 634 635 636 637 638 639 640 641 642 643 644 645 646 647 648 649 650 651 652 653 654 655 656 657 658 659 660 661 662 663 664 665 666 667 668 669 670 671 672 673 674 675 676 677 678 679 680 681 682 683 684 685 686 687 688 689 690 691 692 693 694 695 696 697 698 699 700 701 702 703 704 705 706 707 708 709 710 711 712 713 714 715 716 717 718 719 720 721 722 723 724 725 726 727 728 729 730 731 732 733 734 735 736 737 738 739 740 741 742 743 744 745 746 747 748 749 750 751 752 753 754 755 756 757 758 759 760 761 762 763 764 765 766 767
        </DataArray>
        <DataArray type="Int32" Name="offsets" format="ascii">
 1 2 3 4 5 6 7 8 9 10 11 12 13 14 15 16 17 18 19 20 21 22 23 24 25 26 27 28 29 30 31 32 33 34 35 36 37 38 39 40 41 42 43 44 45 46 47 48 49 50 51 52 53 54 55 56 57 58 59 60 61 62 63 64 65 66 67 68 69 70 71 72 73 74 75 76 77 78 79 80 81 82 83 84 85 86 87 88 89 90 91 92 93 94 95 96 97 98 99 100 101 102 103 104 105 106 107 108 109 110 111 112 113 114 115 116 117 118 119 120 121 122 123 124 125 126 127 128 129 130 131 132 133 134 135 136 137 138 139 140 141 142 143 144 145 146 147 148 149 150 151 152 153 154 155 156 157 158 159 160 161 162 163 164 165 166 167 168 169 170 171 172 173 174 175 176 177 178 179 180 181 182 183 184 185 186 187 188 189 190 191 192 193 194 195 196 197 198 199 200 201 202 203 204 205 206 207 208 209 210 211 212 213 214 215 216 217 218 219 220 221 222 223 224 225 226 227 228 229 230 231 232 233 234 235 236 237 238 239 240 241 242 243 244 245 246 247 248 249 250 251 252 253 254 255 256 257 258 259 260 261 262 263 264 265 266 267 268 269 270 271 272 273 274 275 276 277 278 279 280 281 282 283 284 285 286 287 288 289 290 291 292 293 294 295 296 297 298 299 300 301 302 303 304 305 306 307 308 309 310 311 312 313 314 315 316 317 318 319 320 321 322 323 324 325 326 327 328 329 330 331 332 333 334 335 336 337 338 339 340 341 342 343 344 345 346 347 348 349 350 351 352 353 354 355 356 357 358 359 360 361 362 363 364 365 366 367 368 369 370 371 372 373 374 375 376 377 378 379 380 381 382 383 384 385 386 387 388 389 390 391 392 393 394 395 396 397 398 399 400 401 402 403 404 405 406 407 408 409 410 411 412 413 414 415 416 417 418 419 420 421 422 423 424 425 426 427 428 429 430 431 432 433 434 435 436 437 438 439 440 441 442 443 444 445 446 447 448 449 450 451 452 453 454 455 456 457 458 459 460 461 462 463 464 465 466 467 468 469 470 471 472 473 474 475 476 477 478 479 480 481 482 483 484 485 486 487 488 489 490 491 492 493 494 495 496 497 498 499 500 501 502 503 504 505 506 507 508 509 510 511 512 513 514 515 516 517 518 519 520 521 522 523 524 525 526 527 528 529 530 531 532 533 534 535 536 537 538 539 540 541 542 543 544 545 546 547 548 549 550 551 552 553 554 555 556 557 558 559 560 561 562 563 564 565 566 567 568 569 570 571 572 573 574 575 576 577 578 579 580 581 582 583 584 585 586 587 588 589 590 591 592 593 594 595 596 597 598 599 600 601 602 603 604 605 606 607 608 609 610 611 612 613 614 615 616 617 618 619 620 621 622 623 624 625 626 627 628 629 630 631 632 633 634 635 636 637 638 639 640 641 642 643 644 645 646 647 648 649 650 651 652 653 654 655 656 657 658 659 660 661 662 663 664 665 666 667 668 669 670 671 672 673 674 675 676 677 678 679 680 681 682 683 684 685 686 687 688 689 690 691 692 693 694 695 696 697 698 699 700 701 702 703 704 705 706 707 708 709 710 711 712 713 714 715 716 717 718 719 720 721 722 723 724 725 726 727 728 729 730 731 732 733 734 735 736 737 738 739 740 741 742 743 744 745 746 747 748 749 750 751 752 753 754 755 756 757 758 759 760 761 762 763 764 765 766 767 768
        </DataArray>
        <DataArray type="UInt8" Name="types" format="ascii">
 1 1 1 1 1 1 1 1 1 1 1 1 1 1 1 1 1 1 1 1 1 1 1 1 1 1 1 1 1 1 1 1 1 1 1 1 1 1 1 1 1 1 1 1 1 1 1 1 1 1 1 1 1 1 1 1 1 1 1 1 1 1 1 1 1 1 1 1 1 1 1 1 1 1 1 1 1 1 1 1 1 1 1 1 1 1 1 1 1 1 1 1 1 1 1 1 1 1 1 1 1 1 1 1 1 1 1 1 1 1 1 1 1 1 1 1 1 1 1 1 1 1 1 1 1 1 1 1 1 1 1 1 1 1 1 1 1 1 1 1 1 1 1 1 1 1 1 1 1 1 1 1 1 1 1 1 1 1 1 1 1 1 1 1 1 1 1 1 1 1 1 1 1 1 1 1 1 1 1 1 1 1 1 1 1 1 1 1 1 1 1 1 1 1 1 1 1 1 1 1 1 1 1 1 1 1 1 1 1 1 1 1 1 1 1 1 1 1 1 1 1 1 1 1 1 1 1 1 1 1 1 1 1 1 1 1 1 1 1 1 1 1 1 1 1 1 1 1 1 1 1 1 1 1 1 1 1 1 1 1 1 1 1 1 1 1 1 1 1 1 1 1 1 1 1 1 1 1 1 1 1 1 1 1 1 1 1 1 1 1 1 1 1 1 1 1 1 1 1 1 1 1 1 1 1 1 1 1 1 1 1 1 1 1 1 1 1 1 1 1 1 1 1 1 1 1 1 1 1 1 1 1 1 1 1 1 1 1 1 1 1 1 1 1 1 1 1 1 1 1 1 1 1 1 1 1 1 1 1 1 1 1 1 1 1 1 1 1 1 1 1 1 1 1 1 1 1 1 1 1 1 1 1 1 1 1 1 1 1 1 1 1 1 1 1 1 1 1 1 1 1 1 1 1 1 1 1 1 1 1 1 1 1 1 1 1 1 1 1 1 1 1 1 1 1 1 1 1 1 1 1 1 1 1 1 1 1 1 1 1 1 1 1 1 1 1 1 1 1 1 1 1 1 1 1 1 1 1 1 1 1 1 1 1 1 1 1 1 1 1 1 1 1 1 1 1 1 1 1 1 1 1 1 1 1 1 1 1 1 1 1 1 1 1 1 1 1 1 1 1 1 1 1 1 1 1 1 1 1 1 1 1 1 1 1 1 1 1 1 1 1 1 1 1 1 1 1 1 1 1 1 1 1 1 1 1 1 1 1 1 1 1 1 1 1 1 1 1 1 1 1 1 1 1 1 1 1 1 1 1 1 1 1 1 1 1 1 1 1 1 1 1 1 1 1 1 1 1 1 1 1 1 1 1 1 1 1 1 1 1 1 1 1 1 1 1 1 1 1 1 1 1 1 1 1 1 1 1 1 1 1 1 1 1 1 1 1 1 1 1 1 1 1 1 1 1 1 1 1 1 1 1 1 1 1 1 1 1 1 1 1 1 1 1 1 1 1 1 1 1 1 1 1 1 1 1 1 1 1 1 1 1 1 1 1 1 1 1 1 1 1 1 1 1 1 1 1 1 1 1 1 1 1 1 1 1 1 1 1 1 1 1 1 1 1 1 1 1 1 1 1 1 1 1 1 1 1 1 1 1 1 1 1 1 1 1 1 1 1 1 1 1 1 1 1 1 1 1 1 1 1 1 1 1 1 1 1 1 1 1 1 1 1 1 1 1 1 1 1 1 1 1 1 1 1 1 1 1 1 1 1 1 1 1 1 1 1 1
        </DataArray>
      </Cells>
    </Piece>
  </UnstructuredGrid>
</VTKFile>
