<?xml version="1.0"?>
<VTKFile type="UnstructuredGrid" version="0.1" byte_order="LittleEndian">
  <UnstructuredGrid>
    <Piece NumberOfPoints="768" NumberOfCells="768">
      <PointData Scalars="p rho type" Vectors="v vf">
        <DataArray type="Float64" Name="p" format="ascii">
 0 0.0277666 0.0280977 0.0280984 0.0281049 0.0280233 0.0282054 0.0280543 0.0280542 0.0281101 0.0280474 0.0281044 0.0281241 0.028057 0.0281088 0.0280713 0.0280713 0.0281088 0.028057 0.0281241 0.0281044 0.0280474 0.0281101 0.0280542 0.0280543 0.0282054 0.0280233 0.0281049 0.0280984 0.0280977 0.0277666 0 0 0.0277666 0.0280977 0.0280984 0.0281049 0.0280233 0.0282054 0.0280543 0.0280542 0.0281101 0.0280474 0.0281044 0.0281241 0.028057 0.0281088 0.0280713 0.0280713 0.0281088 0.028057 0.0281241 0.0281044 0.0280474 0.0281101 0.0280542 0.0280543 0.0282054 0.0280233 0.0281049 0.0280984 0.0280977 0.0277666 0 0 0.0277666 0.0280977 0.0280984 0.0281049 0.0280233 0.0282054 0.0280543 0.0280542 0.0281101 0.0280474 0.0281044 0.0281241 0.028057 0.0281088 0.0280713 0.0280713 0.0281088 0.028057 0.0281241 0.0281044 0.0280474 0.0281101 0.0280542 0.0280543 0.0282054 0.0280233 0.0281049 0.0280984 0.0280977 0.0277666 0 0 0.0277666 0.0280977 0.0280984 0.0281049 0.0280233 0.0282054 0.0280543 0.0280542 0.0281101 0.0280474 0.0281044 0.0281241 0.028057 0.0281088 0.0280713 0.0280713 0.0281088 0.028057 0.0281241 0.0281044 0.0280474 0.0281101 0.0280542 0.0280543 0.0282054 0.0280233 0.0281049 0.0280984 0.0280977 0.0277666 0 0 0.0277666 0.0280977 0.0280984 0.0281049 0.0280233 0.0282054 0.0280543 0.0280542 0.0281101 0.0280474 0.0281044 0.0281241 0.028057 0.0281088 0.0280713 0.0280713 0.0281088 0.028057 0.0281241 0.0281044 0.0280474 0.0281101 0.0280542 0.0280543 0.0282054 0.0280233 0.0281049 0.0280984 0.0280977 0.0277666 0 0 0.0277666 0.0280977 0.0280984 0.0281049 0.0280233 0.0282054 0.0280543 0.0280542 0.0281101 0.0280474 0.0281044 0.0281241 0.028057 0.0281088 0.0280713 0.0280713 0.0281088 0.028057 0.0281241 0.0281044 0.0280474 0.0281101 0.0280542 0.0280543 0.0282054 0.0280233 0.0281049 0.0280984 0.0280977 0.0277666 0 0 0.0277666 0.0280977 0.0280984 0.0281049 0.0280233 0.0282054 0.0280543 0.0280542 0.0281101 0.0280474 0.0281044 0.0281241 0.028057 0.0281088 0.0280713 0.0280713 0.0281088 0.028057 0.0281241 0.0281044 0.0280474 0.0281101 0.0280542 0.0280543 0.0282054 0.0280233 0.0281049 0.0280984 0.0280977 0.0277666 0 0 0.0277666 0.0280977 0.0280984 0.0281049 0.0280233 0.0282054 0.0280543 0.0280542 0.0281101 0.0280474 0.0281044 0.0281241 0.028057 0.0281088 0.0280713 0.0280713 0.0281088 0.028057 0.0281241 0.0281044 0.0280474 0.0281101 0.0280542 0.0280543 0.0282054 0.0280233 0.0281049 0.0280984 0.0280977 0.0277666 0 0 0.0277666 0.0280977 0.0280984 0.0281049 0.0280233 0.0282054 0.0280543 0.0280542 0.0281101 0.0280474 0.0281044 0.0281241 0.028057 0.0281088 0.0280713 0.0280713 0.0281088 0.028057 0.0281241 0.0281044 0.0280474 0.0281101 0.0280542 0.0280543 0.0282054 0.0280233 0.0281049 0.0280984 0.0280977 0.0277666 0 0 0.0277666 0.0280977 0.0280984 0.0281049 0.0280233 0.0282054 0.0280543 0.0280542 0.0281101 0.0280474 0.0281044 0.0281241 0.028057 0.0281088 0.0280713 0.0280713 0.0281088 0.028057 0.0281241 0.0281044 0.0280474 0.0281101 0.0280542 0.0280543 0.0282054 0.0280233 0.0281049 0.0280984 0.0280977 0.0277666 0 0 0.0277666 0.0280977 0.0280984 0.0281049 0.0280233 0.0282054 0.0280543 0.0280542 0.0281101 0.0280474 0.0281044 0.0281241 0.028057 0.0281088 0.0280713 0.0280713 0.0281088 0.028057 0.0281241 0.0281044 0.0280474 0.0281101 0.0280542 0.0280543 0.0282054 0.0280233 0.0281049 0.0280984 0.0280977 0.0277666 0 0 0.0277666 0.0280977 0.0280984 0.0281049 0.0280233 0.0282054 0.0280543 0.0280542 0.0281101 0.0280474 0.0281044 0.0281241 0.028057 0.0281088 0.0280713 0.0280713 0.0281088 0.028057 0.0281241 0.0281044 0.0280474 0.0281101 0.0280542 0.0280543 0.0282054 0.0280233 0.0281049 0.0280984 0.0280977 0.0277666 0 0 0.0277666 0.0280977 0.0280984 0.0281049 0.0280233 0.0282054 0.0280543 0.0280542 0.0281101 0.0280474 0.0281044 0.0281241 0.028057 0.0281088 0.0280713 0.0280713 0.0281088 0.028057 0.0281241 0.0281044 0.0280474 0.0281101 0.0280542 0.0280543 0.0282054 0.0280233 0.0281049 0.0280984 0.0280977 0.0277666 0 0 0.0277666 0.0280977 0.0280984 0.0281049 0.0280233 0.0282054 0.0280543 0.0280542 0.0281101 0.0280474 0.0281044 0.0281241 0.028057 0.0281088 0.0280713 0.0280713 0.0281088 0.028057 0.0281241 0.0281044 0.0280474 0.0281101 0.0280542 0.0280543 0.0282054 0.0280233 0.0281049 0.0280984 0.0280977 0.0277666 0 0 0.0277666 0.0280977 0.0280984 0.0281049 0.0280233 0.0282054 0.0280543 0.0280542 0.0281101 0.0280474 0.0281044 0.0281241 0.028057 0.0281088 0.0280713 0.0280713 0.0281088 0.028057 0.0281241 0.0281044 0.0280474 0.0281101 0.0280542 0.0280543 0.0282054 0.0280233 0.0281049 0.0280984 0.0280977 0.0277666 0 0 0.0277666 0.0280977 0.0280984 0.0281049 0.0280233 0.0282054 0.0280543 0.0280542 0.0281101 0.0280474 0.0281044 0.0281241 0.028057 0.0281088 0.0280713 0.0280713 0.0281088 0.028057 0.0281241 0.0281044 0.0280474 0.0281101 0.0280542 0.0280543 0.0282054 0.0280233 0.0281049 0.0280984 0.0280977 0.0277666 0 0 0.0277666 0.0280977 0.0280984 0.0281049 0.0280233 0.0282054 0.0280543 0.0280542 0.0281101 0.0280474 0.0281044 0.0281241 0.028057 0.0281088 0.0280713 0.0280713 0.0281088 0.028057 0.0281241 0.0281044 0.0280474 0.0281101 0.0280542 0.0280543 0.0282054 0.0280233 0.0281049 0.0280984 0.0280977 0.0277666 0 0 0.0277666 0.0280977 0.0280984 0.0281049 0.0280233 0.0282054 0.0280543 0.0280542 0.0281101 0.0280474 0.0281044 0.0281241 0.028057 0.0281088 0.0280713 0.0280713 0.0281088 0.028057 0.0281241 0.0281044 0.0280474 0.0281101 0.0280542 0.0280543 0.0282054 0.0280233 0.0281049 0.0280984 0.0280977 0.0277666 0 0 0.0277666 0.0280977 0.0280984 0.0281049 0.0280233 0.0282054 0.0280543 0.0280542 0.0281101 0.0280474 0.0281044 0.0281241 0.028057 0.0281088 0.0280713 0.0280713 0.0281088 0.028057 0.0281241 0.0281044 0.0280474 0.0281101 0.0280542 0.0280543 0.0282054 0.0280233 0.0281049 0.0280984 0.0280977 0.0277666 0 0 0.0277666 0.0280977 0.0280984 0.0281049 0.0280233 0.0282054 0.0280543 0.0280542 0.0281101 0.0280474 0.0281044 0.0281241 0.028057 0.0281088 0.0280713 0.0280713 0.0281088 0.028057 0.0281241 0.0281044 0.0280474 0.0281101 0.0280542 0.0280543 0.0282054 0.0280233 0.0281049 0.0280984 0.0280977 0.0277666 0 0 0.0277666 0.0280977 0.0280984 0.0281049 0.0280233 0.0282054 0.0280543 0.0280542 0.0281101 0.0280474 0.0281044 0.0281241 0.028057 0.0281088 0.0280713 0.0280713 0.0281088 0.028057 0.0281241 0.0281044 0.0280474 0.0281101 0.0280542 0.0280543 0.0282054 0.0280233 0.0281049 0.0280984 0.0280977 0.0277666 0 0 0.0277666 0.0280977 0.0280984 0.0281049 0.0280233 0.0282054 0.0280543 0.0280542 0.0281101 0.0280474 0.0281044 0.0281241 0.028057 0.0281088 0.0280713 0.0280713 0.0281088 0.028057 0.0281241 0.0281044 0.0280474 0.0281101 0.0280542 0.0280543 0.0282054 0.0280233 0.0281049 0.0280984 0.0280977 0.0277666 0 0 0.0277666 0.0280977 0.0280984 0.0281049 0.0280233 0.0282054 0.0280543 0.0280542 0.0281101 0.0280474 0.0281044 0.0281241 0.028057 0.0281088 0.0280713 0.0280713 0.0281088 0.028057 0.0281241 0.0281044 0.0280474 0.0281101 0.0280542 0.0280543 0.0282054 0.0280233 0.0281049 0.0280984 0.0280977 0.0277666 0 0 0.0277666 0.0280977 0.0280984 0.0281049 0.0280233 0.0282054 0.0280543 0.0280542 0.0281101 0.0280474 0.0281044 0.0281241 0.028057 0.0281088 0.0280713 0.0280713 0.0281088 0.028057 0.0281241 0.0281044 0.0280474 0.0281101 0.0280542 0.0280543 0.0282054 0.0280233 0.0281049 0.0280984 0.0280977 0.0277666 0
        </DataArray>
        <DataArray type="Float64" Name="rho" format="ascii">
 1000 1001.15 1001.17 1001.17 1001.17 1001.16 1001.17 1001.16 1001.16 1001.17 1001.16 1001.17 1001.17 1001.16 1001.17 1001.17 1001.17 1001.17 1001.16 1001.17 1001.17 1001.16 1001.17 1001.16 1001.16 1001.17 1001.16 1001.17 1001.17 1001.17 1001.15 1000 1000 1001.15 1001.17 1001.17 1001.17 1001.16 1001.17 1001.16 1001.16 1001.17 1001.16 1001.17 1001.17 1001.16 1001.17 1001.17 1001.17 1001.17 1001.16 1001.17 1001.17 1001.16 1001.17 1001.16 1001.16 1001.17 1001.16 1001.17 1001.17 1001.17 1001.15 1000 1000 1001.15 1001.17 1001.17 1001.17 1001.16 1001.17 1001.16 1001.16 1001.17 1001.16 1001.17 1001.17 1001.16 1001.17 1001.17 1001.17 1001.17 1001.16 1001.17 1001.17 1001.16 1001.17 1001.16 1001.16 1001.17 1001.16 1001.17 1001.17 1001.17 1001.15 1000 1000 1001.15 1001.17 1001.17 1001.17 1001.16 1001.17 1001.16 1001.16 1001.17 1001.16 1001.17 1001.17 1001.16 1001.17 1001.17 1001.17 1001.17 1001.16 1001.17 1001.17 1001.16 1001.17 1001.16 1001.16 1001.17 1001.16 1001.17 1001.17 1001.17 1001.15 1000 1000 1001.15 1001.17 1001.17 1001.17 1001.16 1001.17 1001.16 1001.16 1001.17 1001.16 1001.17 1001.17 1001.16 1001.17 1001.17 1001.17 1001.17 1001.16 1001.17 1001.17 1001.16 1001.17 1001.16 1001.16 1001.17 1001.16 1001.17 1001.17 1001.17 1001.15 1000 1000 1001.15 1001.17 1001.17 1001.17 1001.16 1001.17 1001.16 1001.16 1001.17 1001.16 1001.17 1001.17 1001.16 1001.17 1001.17 1001.17 1001.17 1001.16 1001.17 1001.17 1001.16 1001.17 1001.16 1001.16 1001.17 1001.16 1001.17 1001.17 1001.17 1001.15 1000 1000 1001.15 1001.17 1001.17 1001.17 1001.16 1001.17 1001.16 1001.16 1001.17 1001.16 1001.17 1001.17 1001.16 1001.17 1001.17 1001.17 1001.17 1001.16 1001.17 1001.17 1001.16 1001.17 1001.16 1001.16 1001.17 1001.16 1001.17 1001.17 1001.17 1001.15 1000 1000 1001.15 1001.17 1001.17 1001.17 1001.16 1001.17 1001.16 1001.16 1001.17 1001.16 1001.17 1001.17 1001.16 1001.17 1001.17 1001.17 1001.17 1001.16 1001.17 1001.17 1001.16 1001.17 1001.16 1001.16 1001.17 1001.16 1001.17 1001.17 1001.17 1001.15 1000 1000 1001.15 1001.17 1001.17 1001.17 1001.16 1001.17 1001.16 1001.16 1001.17 1001.16 1001.17 1001.17 1001.16 1001.17 1001.17 1001.17 1001.17 1001.16 1001.17 1001.17 1001.16 1001.17 1001.16 1001.16 1001.17 1001.16 1001.17 1001.17 1001.17 1001.15 1000 1000 1001.15 1001.17 1001.17 1001.17 1001.16 1001.17 1001.16 1001.16 1001.17 1001.16 1001.17 1001.17 1001.16 1001.17 1001.17 1001.17 1001.17 1001.16 1001.17 1001.17 1001.16 1001.17 1001.16 1001.16 1001.17 1001.16 1001.17 1001.17 1001.17 1001.15 1000 1000 1001.15 1001.17 1001.17 1001.17 1001.16 1001.17 1001.16 1001.16 1001.17 1001.16 1001.17 1001.17 1001.16 1001.17 1001.17 1001.17 1001.17 1001.16 1001.17 1001.17 1001.16 1001.17 1001.16 1001.16 1001.17 1001.16 1001.17 1001.17 1001.17 1001.15 1000 1000 1001.15 1001.17 1001.17 1001.17 1001.16 1001.17 1001.16 1001.16 1001.17 1001.16 1001.17 1001.17 1001.16 1001.17 1001.17 1001.17 1001.17 1001.16 1001.17 1001.17 1001.16 1001.17 1001.16 1001.16 1001.17 1001.16 1001.17 1001.17 1001.17 1001.15 1000 1000 1001.15 1001.17 1001.17 1001.17 1001.16 1001.17 1001.16 1001.16 1001.17 1001.16 1001.17 1001.17 1001.16 1001.17 1001.17 1001.17 1001.17 1001.16 1001.17 1001.17 1001.16 1001.17 1001.16 1001.16 1001.17 1001.16 1001.17 1001.17 1001.17 1001.15 1000 1000 1001.15 1001.17 1001.17 1001.17 1001.16 1001.17 1001.16 1001.16 1001.17 1001.16 1001.17 1001.17 1001.16 1001.17 1001.17 1001.17 1001.17 1001.16 1001.17 1001.17 1001.16 1001.17 1001.16 1001.16 1001.17 1001.16 1001.17 1001.17 1001.17 1001.15 1000 1000 1001.15 1001.17 1001.17 1001.17 1001.16 1001.17 1001.16 1001.16 1001.17 1001.16 1001.17 1001.17 1001.16 1001.17 1001.17 1001.17 1001.17 1001.16 1001.17 1001.17 1001.16 1001.17 1001.16 1001.16 1001.17 1001.16 1001.17 1001.17 1001.17 1001.15 1000 1000 1001.15 1001.17 1001.17 1001.17 1001.16 1001.17 1001.16 1001.16 1001.17 1001.16 1001.17 1001.17 1001.16 1001.17 1001.17 1001.17 1001.17 1001.16 1001.17 1001.17 1001.16 1001.17 1001.16 1001.16 1001.17 1001.16 1001.17 1001.17 1001.17 1001.15 1000 1000 1001.15 1001.17 1001.17 1001.17 1001.16 1001.17 1001.16 1001.16 1001.17 1001.16 1001.17 1001.17 1001.16 1001.17 1001.17 1001.17 1001.17 1001.16 1001.17 1001.17 1001.16 1001.17 1001.16 1001.16 1001.17 1001.16 1001.17 1001.17 1001.17 1001.15 1000 1000 1001.15 1001.17 1001.17 1001.17 1001.16 1001.17 1001.16 1001.16 1001.17 1001.16 1001.17 1001.17 1001.16 1001.17 1001.17 1001.17 1001.17 1001.16 1001.17 1001.17 1001.16 1001.17 1001.16 1001.16 1001.17 1001.16 1001.17 1001.17 1001.17 1001.15 1000 1000 1001.15 1001.17 1001.17 1001.17 1001.16 1001.17 1001.16 1001.16 1001.17 1001.16 1001.17 1001.17 1001.16 1001.17 1001.17 1001.17 1001.17 1001.16 1001.17 1001.17 1001.16 1001.17 1001.16 1001.16 1001.17 1001.16 1001.17 1001.17 1001.17 1001.15 1000 1000 1001.15 1001.17 1001.17 1001.17 1001.16 1001.17 1001.16 1001.16 1001.17 1001.16 1001.17 1001.17 1001.16 1001.17 1001.17 1001.17 1001.17 1001.16 1001.17 1001.17 1001.16 1001.17 1001.16 1001.16 1001.17 1001.16 1001.17 1001.17 1001.17 1001.15 1000 1000 1001.15 1001.17 1001.17 1001.17 1001.16 1001.17 1001.16 1001.16 1001.17 1001.16 1001.17 1001.17 1001.16 1001.17 1001.17 1001.17 1001.17 1001.16 1001.17 1001.17 1001.16 1001.17 1001.16 1001.16 1001.17 1001.16 1001.17 1001.17 1001.17 1001.15 1000 1000 1001.15 1001.17 1001.17 1001.17 1001.16 1001.17 1001.16 1001.16 1001.17 1001.16 1001.17 1001.17 1001.16 1001.17 1001.17 1001.17 1001.17 1001.16 1001.17 1001.17 1001.16 1001.17 1001.16 1001.16 1001.17 1001.16 1001.17 1001.17 1001.17 1001.15 1000 1000 1001.15 1001.17 1001.17 1001.17 1001.16 1001.17 1001.16 1001.16 1001.17 1001.16 1001.17 1001.17 1001.16 1001.17 1001.17 1001.17 1001.17 1001.16 1001.17 1001.17 1001.16 1001.17 1001.16 1001.16 1001.17 1001.16 1001.17 1001.17 1001.17 1001.15 1000 1000 1001.15 1001.17 1001.17 1001.17 1001.16 1001.17 1001.16 1001.16 1001.17 1001.16 1001.17 1001.17 1001.16 1001.17 1001.17 1001.17 1001.17 1001.16 1001.17 1001.17 1001.16 1001.17 1001.16 1001.16 1001.17 1001.16 1001.17 1001.17 1001.17 1001.15 1000
        </DataArray>
        <DataArray type="Int32" Name="type" format="ascii">
 1 1 1 1 0 0 0 0 0 0 0 0 0 0 0 0 0 0 0 0 0 0 0 0 0 0 0 0 1 1 1 1 1 1 1 1 0 0 0 0 0 0 0 0 0 0 0 0 0 0 0 0 0 0 0 0 0 0 0 0 1 1 1 1 1 1 1 1 0 0 0 0 0 0 0 0 0 0 0 0 0 0 0 0 0 0 0 0 0 0 0 0 1 1 1 1 1 1 1 1 0 0 0 0 0 0 0 0 0 0 0 0 0 0 0 0 0 0 0 0 0 0 0 0 1 1 1 1 1 1 1 1 0 0 0 0 0 0 0 0 0 0 0 0 0 0 0 0 0 0 0 0 0 0 0 0 1 1 1 1 1 1 1 1 0 0 0 0 0 0 0 0 0 0 0 0 0 0 0 0 0 0 0 0 0 0 0 0 1 1 1 1 1 1 1 1 0 0 0 0 0 0 0 0 0 0 0 0 0 0 0 0 0 0 0 0 0 0 0 0 1 1 1 1 1 1 1 1 0 0 0 0 0 0 0 0 0 0 0 0 0 0 0 0 0 0 0 0 0 0 0 0 1 1 1 1 1 1 1 1 0 0 0 0 0 0 0 0 0 0 0 0 0 0 0 0 0 0 0 0 0 0 0 0 1 1 1 1 1 1 1 1 0 0 0 0 0 0 0 0 0 0 0 0 0 0 0 0 0 0 0 0 0 0 0 0 1 1 1 1 1 1 1 1 0 0 0 0 0 0 0 0 0 0 0 0 0 0 0 0 0 0 0 0 0 0 0 0 1 1 1 1 1 1 1 1 0 0 0 0 0 0 0 0 0 0 0 0 0 0 0 0 0 0 0 0 0 0 0 0 1 1 1 1 1 1 1 1 0 0 0 0 0 0 0 0 0 0 0 0 0 0 0 0 0 0 0 0 0 0 0 0 1 1 1 1 1 1 1 1 0 0 0 0 0 0 0 0 0 0 0 0 0 0 0 0 0 0 0 0 0 0 0 0 1 1 1 1 1 1 1 1 0 0 0 0 0 0 0 0 0 0 0 0 0 0 0 0 0 0 0 0 0 0 0 0 1 1 1 1 1 1 1 1 0 0 0 0 0 0 0 0 0 0 0 0 0 0 0 0 0 0 0 0 0 0 0 0 1 1 1 1 1 1 1 1 0 0 0 0 0 0 0 0 0 0 0 0 0 0 0 0 0 0 0 0 0 0 0 0 1 1 1 1 1 1 1 1 0 0 0 0 0 0 0 0 0 0 0 0 0 0 0 0 0 0 0 0 0 0 0 0 1 1 1 1 1 1 1 1 0 0 0 0 0 0 0 0 0 0 0 0 0 0 0 0 0 0 0 0 0 0 0 0 1 1 1 1 1 1 1 1 0 0 0 0 0 0 0 0 0 0 0 0 0 0 0 0 0 0 0 0 0 0 0 0 1 1 1 1 1 1 1 1 0 0 0 0 0 0 0 0 0 0 0 0 0 0 0 0 0 0 0 0 0 0 0 0 1 1 1 1 1 1 1 1 0 0 0 0 0 0 0 0 0 0 0 0 0 0 0 0 0 0 0 0 0 0 0 0 1 1 1 1 1 1 1 1 0 0 0 0 0 0 0 0 0 0 0 0 0 0 0 0 0 0 0 0 0 0 0 0 1 1 1 1 1 1 1 1 0 0 0 0 0 0 0 0 0 0 0 0 0 0 0 0 0 0 0 0 0 0 0 0 1 1 1 1
        </DataArray>
        <DataArray type="Float64" NumberOfComponents="3" Name="v" format="ascii">
 0 0 0.0 0 0 0.0 0 0 0.0 0 0 0.0 0.000258523 2.89588e-08 0.0 0.00071503 -1.3974e-08 0.0 0.001134 9.09145e-08 0.0 0.00151084 2.03244e-07 0.0 0.00184587 6.83427e-08 0.0 0.00213899 2.69517e-08 0.0 0.00239016 1.17381e-08 0.0 0.00259945 -5.08019e-09 0.0 0.00276692 6.87077e-08 0.0 0.00289255 4.86045e-08 0.0 0.00297632 9.04693e-09 0.0 0.00301821 1.54807e-08 0.0 0.00301821 -1.54807e-08 0.0 0.00297632 -9.04693e-09 0.0 0.00289255 -4.86045e-08 0.0 0.00276692 -6.87077e-08 0.0 0.00259945 5.08019e-09 0.0 0.00239016 -1.17381e-08 0.0 0.00213899 -2.69517e-08 0.0 0.00184587 -6.83427e-08 0.0 0.00151084 -2.03244e-07 0.0 0.001134 -9.09145e-08 0.0 0.00071503 1.3974e-08 0.0 0.000258523 -2.89588e-08 0.0 0 0 0.0 0 0 0.0 0 0 0.0 0 0 0.0 0 0 0.0 0 0 0.0 0 0 0.0 0 0 0.0 0.000258523 2.89588e-08 0.0 0.00071503 -1.3974e-08 0.0 0.001134 9.09145e-08 0.0 0.00151084 2.03244e-07 0.0 0.00184587 6.83427e-08 0.0 0.00213899 2.69517e-08 0.0 0.00239016 1.17381e-08 0.0 0.00259945 -5.08019e-09 0.0 0.00276692 6.87077e-08 0.0 0.00289255 4.86045e-08 0.0 0.00297632 9.04693e-09 0.0 0.00301821 1.54807e-08 0.0 0.00301821 -1.54807e-08 0.0 0.00297632 -9.04693e-09 0.0 0.00289255 -4.86045e-08 0.0 0.00276692 -6.87077e-08 0.0 0.00259945 5.08019e-09 0.0 0.00239016 -1.17381e-08 0.0 0.00213899 -2.69517e-08 0.0 0.00184587 -6.83427e-08 0.0 0.00151084 -2.03244e-07 0.0 0.001134 -9.09145e-08 0.0 0.00071503 1.3974e-08 0.0 0.000258523 -2.89588e-08 0.0 0 0 0.0 0 0 0.0 0 0 0.0 0 0 0.0 0 0 0.0 0 0 0.0 0 0 0.0 0 0 0.0 0.000258523 2.89588e-08 0.0 0.00071503 -1.3974e-08 0.0 0.001134 9.09145e-08 0.0 0.00151084 2.03244e-07 0.0 0.00184587 6.83427e-08 0.0 0.00213899 2.69517e-08 0.0 0.00239016 1.17381e-08 0.0 0.00259945 -5.08019e-09 0.0 0.00276692 6.87077e-08 0.0 0.00289255 4.86045e-08 0.0 0.00297632 9.04693e-09 0.0 0.00301821 1.54807e-08 0.0 0.00301821 -1.54807e-08 0.0 0.00297632 -9.04693e-09 0.0 0.00289255 -4.86045e-08 0.0 0.00276692 -6.87077e-08 0.0 0.00259945 5.08019e-09 0.0 0.00239016 -1.17381e-08 0.0 0.00213899 -2.69517e-08 0.0 0.00184587 -6.83427e-08 0.0 0.00151084 -2.03244e-07 0.0 0.001134 -9.09145e-08 0.0 0.00071503 1.3974e-08 0.0 0.000258523 -2.89588e-08 0.0 0 0 0.0 0 0 0.0 0 0 0.0 0 0 0.0 0 0 0.0 0 0 0.0 0 0 0.0 0 0 0.0 0.000258523 2.89588e-08 0.0 0.00071503 -1.3974e-08 0.0 0.001134 9.09145e-08 0.0 0.00151084 2.03244e-07 0.0 0.00184587 6.83427e-08 0.0 0.00213899 2.69517e-08 0.0 0.00239016 1.17381e-08 0.0 0.00259945 -5.08019e-09 0.0 0.00276692 6.87077e-08 0.0 0.00289255 4.86045e-08 0.0 0.00297632 9.04693e-09 0.0 0.00301821 1.54807e-08 0.0 0.00301821 -1.54807e-08 0.0 0.00297632 -9.04693e-09 0.0 0.00289255 -4.86045e-08 0.0 0.00276692 -6.87077e-08 0.0 0.00259945 5.08019e-09 0.0 0.00239016 -1.17381e-08 0.0 0.00213899 -2.69517e-08 0.0 0.00184587 -6.83427e-08 0.0 0.00151084 -2.03244e-07 0.0 0.001134 -9.09145e-08 0.0 0.00071503 1.3974e-08 0.0 0.000258523 -2.89588e-08 0.0 0 0 0.0 0 0 0.0 0 0 0.0 0 0 0.0 0 0 0.0 0 0 0.0 0 0 0.0 0 0 0.0 0.000258523 2.89588e-08 0.0 0.00071503 -1.3974e-08 0.0 0.001134 9.09145e-08 0.0 0.00151084 2.03244e-07 0.0 0.00184587 6.83427e-08 0.0 0.00213899 2.69517e-08 0.0 0.00239016 1.17381e-08 0.0 0.00259945 -5.08019e-09 0.0 0.00276692 6.87077e-08 0.0 0.00289255 4.86045e-08 0.0 0.00297632 9.04693e-09 0.0 0.00301821 1.54807e-08 0.0 0.00301821 -1.54807e-08 0.0 0.00297632 -9.04693e-09 0.0 0.00289255 -4.86045e-08 0.0 0.00276692 -6.87077e-08 0.0 0.00259945 5.08019e-09 0.0 0.00239016 -1.17381e-08 0.0 0.00213899 -2.69517e-08 0.0 0.00184587 -6.83427e-08 0.0 0.00151084 -2.03244e-07 0.0 0.001134 -9.09145e-08 0.0 0.00071503 1.3974e-08 0.0 0.000258523 -2.89588e-08 0.0 0 0 0.0 0 0 0.0 0 0 0.0 0 0 0.0 0 0 0.0 0 0 0.0 0 0 0.0 0 0 0.0 0.000258523 2.89588e-08 0.0 0.00071503 -1.3974e-08 0.0 0.001134 9.09145e-08 0.0 0.00151084 2.03244e-07 0.0 0.00184587 6.83427e-08 0.0 0.00213899 2.69517e-08 0.0 0.00239016 1.17381e-08 0.0 0.00259945 -5.08019e-09 0.0 0.00276692 6.87077e-08 0.0 0.00289255 4.86045e-08 0.0 0.00297632 9.04693e-09 0.0 0.00301821 1.54807e-08 0.0 0.00301821 -1.54807e-08 0.0 0.00297632 -9.04693e-09 0.0 0.00289255 -4.86045e-08 0.0 0.00276692 -6.87077e-08 0.0 0.00259945 5.08019e-09 0.0 0.00239016 -1.17381e-08 0.0 0.00213899 -2.69517e-08 0.0 0.00184587 -6.83427e-08 0.0 0.00151084 -2.03244e-07 0.0 0.001134 -9.09145e-08 0.0 0.00071503 1.3974e-08 0.0 0.000258523 -2.89588e-08 0.0 0 0 0.0 0 0 0.0 0 0 0.0 0 0 0.0 0 0 0.0 0 0 0.0 0 0 0.0 0 0 0.0 0.000258523 2.89588e-08 0.0 0.00071503 -1.3974e-08 0.0 0.001134 9.09145e-08 0.0 0.00151084 2.03244e-07 0.0 0.00184587 6.83427e-08 0.0 0.00213899 2.69517e-08 0.0 0.00239016 1.17381e-08 0.0 0.00259945 -5.08019e-09 0.0 0.00276692 6.87077e-08 0.0 0.00289255 4.86045e-08 0.0 0.00297632 9.04693e-09 0.0 0.00301821 1.54807e-08 0.0 0.00301821 -1.54807e-08 0.0 0.00297632 -9.04693e-09 0.0 0.00289255 -4.86045e-08 0.0 0.00276692 -6.87077e-08 0.0 0.00259945 5.08019e-09 0.0 0.00239016 -1.17381e-08 0.0 0.00213899 -2.69517e-08 0.0 0.00184587 -6.83427e-08 0.0 0.00151084 -2.03244e-07 0.0 0.001134 -9.09145e-08 0.0 0.00071503 1.3974e-08 0.0 0.000258523 -2.89588e-08 0.0 0 0 0.0 0 0 0.0 0 0 0.0 0 0 0.0 0 0 0.0 0 0 0.0 0 0 0.0 0 0 0.0 0.000258523 2.89588e-08 0.0 0.00071503 -1.3974e-08 0.0 0.001134 9.09145e-08 0.0 0.00151084 2.03244e-07 0.0 0.00184587 6.83427e-08 0.0 0.00213899 2.69517e-08 0.0 0.00239016 1.17381e-08 0.0 0.00259945 -5.08019e-09 0.0 0.00276692 6.87077e-08 0.0 0.00289255 4.86045e-08 0.0 0.00297632 9.04693e-09 0.0 0.00301821 1.54807e-08 0.0 0.00301821 -1.54807e-08 0.0 0.00297632 -9.04693e-09 0.0 0.00289255 -4.86045e-08 0.0 0.00276692 -6.87077e-08 0.0 0.00259945 5.08019e-09 0.0 0.00239016 -1.17381e-08 0.0 0.00213899 -2.69517e-08 0.0 0.00184587 -6.83427e-08 0.0 0.00151084 -2.03244e-07 0.0 0.001134 -9.09145e-08 0.0 0.00071503 1.3974e-08 0.0 0.000258523 -2.89588e-08 0.0 0 0 0.0 0 0 0.0 0 0 0.0 0 0 0.0 0 0 0.0 0 0 0.0 0 0 0.0 0 0 0.0 0.000258523 2.89588e-08 0.0 0.00071503 -1.3974e-08 0.0 0.001134 9.09145e-08 0.0 0.00151084 2.03244e-07 0.0 0.00184587 6.83427e-08 0.0 0.00213899 2.69517e-08 0.0 0.00239016 1.17381e-08 0.0 0.00259945 -5.08019e-09 0.0 0.00276692 6.87077e-08 0.0 0.00289255 4.86045e-08 0.0 0.00297632 9.04693e-09 0.0 0.00301821 1.54807e-08 0.0 0.00301821 -1.54807e-08 0.0 0.00297632 -9.04693e-09 0.0 0.00289255 -4.86045e-08 0.0 0.00276692 -6.87077e-08 0.0 0.00259945 5.08019e-09 0.0 0.00239016 -1.17381e-08 0.0 0.00213899 -2.69517e-08 0.0 0.00184587 -6.83427e-08 0.0 0.00151084 -2.03244e-07 0.0 0.001134 -9.09145e-08 0.0 0.00071503 1.3974e-08 0.0 0.000258523 -2.89588e-08 0.0 0 0 0.0 0 0 0.0 0 0 0.0 0 0 0.0 0 0 0.0 0 0 0.0 0 0 0.0 0 0 0.0 0.000258523 2.89588e-08 0.0 0.00071503 -1.3974e-08 0.0 0.001134 9.09145e-08 0.0 0.00151084 2.03244e-07 0.0 0.00184587 6.83427e-08 0.0 0.00213899 2.69517e-08 0.0 0.00239016 1.17381e-08 0.0 0.00259945 -5.08019e-09 0.0 0.00276692 6.87077e-08 0.0 0.00289255 4.86045e-08 0.0 0.00297632 9.04693e-09 0.0 0.00301821 1.54807e-08 0.0 0.00301821 -1.54807e-08 0.0 0.00297632 -9.04693e-09 0.0 0.00289255 -4.86045e-08 0.0 0.00276692 -6.87077e-08 0.0 0.00259945 5.08019e-09 0.0 0.00239016 -1.17381e-08 0.0 0.00213899 -2.69517e-08 0.0 0.00184587 -6.83427e-08 0.0 0.00151084 -2.03244e-07 0.0 0.001134 -9.09145e-08 0.0 0.00071503 1.3974e-08 0.0 0.000258523 -2.89588e-08 0.0 0 0 0.0 0 0 0.0 0 0 0.0 0 0 0.0 0 0 0.0 0 0 0.0 0 0 0.0 0 0 0.0 0.000258523 2.89588e-08 0.0 0.00071503 -1.3974e-08 0.0 0.001134 9.09145e-08 0.0 0.00151084 2.03244e-07 0.0 0.00184587 6.83427e-08 0.0 0.00213899 2.69517e-08 0.0 0.00239016 1.17381e-08 0.0 0.00259945 -5.08019e-09 0.0 0.00276692 6.87077e-08 0.0 0.00289255 4.86045e-08 0.0 0.00297632 9.04693e-09 0.0 0.00301821 1.54807e-08 0.0 0.00301821 -1.54807e-08 0.0 0.00297632 -9.04693e-09 0.0 0.00289255 -4.86045e-08 0.0 0.00276692 -6.87077e-08 0.0 0.00259945 5.08019e-09 0.0 0.00239016 -1.17381e-08 0.0 0.00213899 -2.69517e-08 0.0 0.00184587 -6.83427e-08 0.0 0.00151084 -2.03244e-07 0.0 0.001134 -9.09145e-08 0.0 0.00071503 1.3974e-08 0.0 0.000258523 -2.89588e-08 0.0 0 0 0.0 0 0 0.0 0 0 0.0 0 0 0.0 0 0 0.0 0 0 0.0 0 0 0.0 0 0 0.0 0.000258523 2.89588e-08 0.0 0.00071503 -1.3974e-08 0.0 0.001134 9.09145e-08 0.0 0.00151084 2.03244e-07 0.0 0.00184587 6.83427e-08 0.0 0.00213899 2.69517e-08 0.0 0.00239016 1.17381e-08 0.0 0.00259945 -5.08019e-09 0.0 0.00276692 6.87077e-08 0.0 0.00289255 4.86045e-08 0.0 0.00297632 9.04693e-09 0.0 0.00301821 1.54807e-08 0.0 0.00301821 -1.54807e-08 0.0 0.00297632 -9.04693e-09 0.0 0.00289255 -4.86045e-08 0.0 0.00276692 -6.87077e-08 0.0 0.00259945 5.08019e-09 0.0 0.00239016 -1.17381e-08 0.0 0.00213899 -2.69517e-08 0.0 0.00184587 -6.83427e-08 0.0 0.00151084 -2.03244e-07 0.0 0.001134 -9.09145e-08 0.0 0.00071503 1.3974e-08 0.0 0.000258523 -2.89588e-08 0.0 0 0 0.0 0 0 0.0 0 0 0.0 0 0 0.0 0 0 0.0 0 0 0.0 0 0 0.0 0 0 0.0 0.000258523 2.89588e-08 0.0 0.00071503 -1.3974e-08 0.0 0.001134 9.09145e-08 0.0 0.00151084 2.03244e-07 0.0 0.00184587 6.83427e-08 0.0 0.00213899 2.69517e-08 0.0 0.00239016 1.17381e-08 0.0 0.00259945 -5.08019e-09 0.0 0.00276692 6.87077e-08 0.0 0.00289255 4.86045e-08 0.0 0.00297632 9.04693e-09 0.0 0.00301821 1.54807e-08 0.0 0.00301821 -1.54807e-08 0.0 0.00297632 -9.04693e-09 0.0 0.00289255 -4.86045e-08 0.0 0.00276692 -6.87077e-08 0.0 0.00259945 5.08019e-09 0.0 0.00239016 -1.17381e-08 0.0 0.00213899 -2.69517e-08 0.0 0.00184587 -6.83427e-08 0.0 0.00151084 -2.03244e-07 0.0 0.001134 -9.09145e-08 0.0 0.00071503 1.3974e-08 0.0 0.000258523 -2.89588e-08 0.0 0 0 0.0 0 0 0.0 0 0 0.0 0 0 0.0 0 0 0.0 0 0 0.0 0 0 0.0 0 0 0.0 0.000258523 2.89588e-08 0.0 0.00071503 -1.3974e-08 0.0 0.001134 9.09145e-08 0.0 0.00151084 2.03244e-07 0.0 0.00184587 6.83427e-08 0.0 0.00213899 2.69517e-08 0.0 0.00239016 1.17381e-08 0.0 0.00259945 -5.08019e-09 0.0 0.00276692 6.87077e-08 0.0 0.00289255 4.86045e-08 0.0 0.00297632 9.04693e-09 0.0 0.00301821 1.54807e-08 0.0 0.00301821 -1.54807e-08 0.0 0.00297632 -9.04693e-09 0.0 0.00289255 -4.86045e-08 0.0 0.00276692 -6.87077e-08 0.0 0.00259945 5.08019e-09 0.0 0.00239016 -1.17381e-08 0.0 0.00213899 -2.69517e-08 0.0 0.00184587 -6.83427e-08 0.0 0.00151084 -2.03244e-07 0.0 0.001134 -9.09145e-08 0.0 0.00071503 1.3974e-08 0.0 0.000258523 -2.89588e-08 0.0 0 0 0.0 0 0 0.0 0 0 0.0 0 0 0.0 0 0 0.0 0 0 0.0 0 0 0.0 0 0 0.0 0.000258523 2.89588e-08 0.0 0.00071503 -1.3974e-08 0.0 0.001134 9.09145e-08 0.0 0.00151084 2.03244e-07 0.0 0.00184587 6.83427e-08 0.0 0.00213899 2.69517e-08 0.0 0.00239016 1.17381e-08 0.0 0.00259945 -5.08019e-09 0.0 0.00276692 6.87077e-08 0.0 0.00289255 4.86045e-08 0.0 0.00297632 9.04693e-09 0.0 0.00301821 1.54807e-08 0.0 0.00301821 -1.54807e-08 0.0 0.00297632 -9.04693e-09 0.0 0.00289255 -4.86045e-08 0.0 0.00276692 -6.87077e-08 0.0 0.00259945 5.08019e-09 0.0 0.00239016 -1.17381e-08 0.0 0.00213899 -2.69517e-08 0.0 0.00184587 -6.83427e-08 0.0 0.00151084 -2.03244e-07 0.0 0.001134 -9.09145e-08 0.0 0.00071503 1.3974e-08 0.0 0.000258523 -2.89588e-08 0.0 0 0 0.0 0 0 0.0 0 0 0.0 0 0 0.0 0 0 0.0 0 0 0.0 0 0 0.0 0 0 0.0 0.000258523 2.89588e-08 0.0 0.00071503 -1.3974e-08 0.0 0.001134 9.09145e-08 0.0 0.00151084 2.03244e-07 0.0 0.00184587 6.83427e-08 0.0 0.00213899 2.69517e-08 0.0 0.00239016 1.17381e-08 0.0 0.00259945 -5.08019e-09 0.0 0.00276692 6.87077e-08 0.0 0.00289255 4.86045e-08 0.0 0.00297632 9.04693e-09 0.0 0.00301821 1.54807e-08 0.0 0.00301821 -1.54807e-08 0.0 0.00297632 -9.04693e-09 0.0 0.00289255 -4.86045e-08 0.0 0.00276692 -6.87077e-08 0.0 0.00259945 5.08019e-09 0.0 0.00239016 -1.17381e-08 0.0 0.00213899 -2.69517e-08 0.0 0.00184587 -6.83427e-08 0.0 0.00151084 -2.03244e-07 0.0 0.001134 -9.09145e-08 0.0 0.00071503 1.3974e-08 0.0 0.000258523 -2.89588e-08 0.0 0 0 0.0 0 0 0.0 0 0 0.0 0 0 0.0 0 0 0.0 0 0 0.0 0 0 0.0 0 0 0.0 0.000258523 2.89588e-08 0.0 0.00071503 -1.3974e-08 0.0 0.001134 9.09145e-08 0.0 0.00151084 2.03244e-07 0.0 0.00184587 6.83427e-08 0.0 0.00213899 2.69517e-08 0.0 0.00239016 1.17381e-08 0.0 0.00259945 -5.08019e-09 0.0 0.00276692 6.87077e-08 0.0 0.00289255 4.86045e-08 0.0 0.00297632 9.04693e-09 0.0 0.00301821 1.54807e-08 0.0 0.00301821 -1.54807e-08 0.0 0.00297632 -9.04693e-09 0.0 0.00289255 -4.86045e-08 0.0 0.00276692 -6.87077e-08 0.0 0.00259945 5.08019e-09 0.0 0.00239016 -1.17381e-08 0.0 0.00213899 -2.69517e-08 0.0 0.00184587 -6.83427e-08 0.0 0.00151084 -2.03244e-07 0.0 0.001134 -9.09145e-08 0.0 0.00071503 1.3974e-08 0.0 0.000258523 -2.89588e-08 0.0 0 0 0.0 0 0 0.0 0 0 0.0 0 0 0.0 0 0 0.0 0 0 0.0 0 0 0.0 0 0 0.0 0.000258523 2.89588e-08 0.0 0.00071503 -1.3974e-08 0.0 0.001134 9.09145e-08 0.0 0.00151084 2.03244e-07 0.0 0.00184587 6.83427e-08 0.0 0.00213899 2.69517e-08 0.0 0.00239016 1.17381e-08 0.0 0.00259945 -5.08019e-09 0.0 0.00276692 6.87077e-08 0.0 0.00289255 4.86045e-08 0.0 0.00297632 9.04693e-09 0.0 0.00301821 1.54807e-08 0.0 0.00301821 -1.54807e-08 0.0 0.00297632 -9.04693e-09 0.0 0.00289255 -4.86045e-08 0.0 0.00276692 -6.87077e-08 0.0 0.00259945 5.08019e-09 0.0 0.00239016 -1.17381e-08 0.0 0.00213899 -2.69517e-08 0.0 0.00184587 -6.83427e-08 0.0 0.00151084 -2.03244e-07 0.0 0.001134 -9.09145e-08 0.0 0.00071503 1.3974e-08 0.0 0.000258523 -2.89588e-08 0.0 0 0 0.0 0 0 0.0 0 0 0.0 0 0 0.0 0 0 0.0 0 0 0.0 0 0 0.0 0 0 0.0 0.000258523 2.89588e-08 0.0 0.00071503 -1.3974e-08 0.0 0.001134 9.09145e-08 0.0 0.00151084 2.03244e-07 0.0 0.00184587 6.83427e-08 0.0 0.00213899 2.69517e-08 0.0 0.00239016 1.17381e-08 0.0 0.00259945 -5.08019e-09 0.0 0.00276692 6.87077e-08 0.0 0.00289255 4.86045e-08 0.0 0.00297632 9.04693e-09 0.0 0.00301821 1.54807e-08 0.0 0.00301821 -1.54807e-08 0.0 0.00297632 -9.04693e-09 0.0 0.00289255 -4.86045e-08 0.0 0.00276692 -6.87077e-08 0.0 0.00259945 5.08019e-09 0.0 0.00239016 -1.17381e-08 0.0 0.00213899 -2.69517e-08 0.0 0.00184587 -6.83427e-08 0.0 0.00151084 -2.03244e-07 0.0 0.001134 -9.09145e-08 0.0 0.00071503 1.3974e-08 0.0 0.000258523 -2.89588e-08 0.0 0 0 0.0 0 0 0.0 0 0 0.0 0 0 0.0 0 0 0.0 0 0 0.0 0 0 0.0 0 0 0.0 0.000258523 2.89588e-08 0.0 0.00071503 -1.3974e-08 0.0 0.001134 9.09145e-08 0.0 0.00151084 2.03244e-07 0.0 0.00184587 6.83427e-08 0.0 0.00213899 2.69517e-08 0.0 0.00239016 1.17381e-08 0.0 0.00259945 -5.08019e-09 0.0 0.00276692 6.87077e-08 0.0 0.00289255 4.86045e-08 0.0 0.00297632 9.04693e-09 0.0 0.00301821 1.54807e-08 0.0 0.00301821 -1.54807e-08 0.0 0.00297632 -9.04693e-09 0.0 0.00289255 -4.86045e-08 0.0 0.00276692 -6.87077e-08 0.0 0.00259945 5.08019e-09 0.0 0.00239016 -1.17381e-08 0.0 0.00213899 -2.69517e-08 0.0 0.00184587 -6.83427e-08 0.0 0.00151084 -2.03244e-07 0.0 0.001134 -9.09145e-08 0.0 0.00071503 1.3974e-08 0.0 0.000258523 -2.89588e-08 0.0 0 0 0.0 0 0 0.0 0 0 0.0 0 0 0.0 0 0 0.0 0 0 0.0 0 0 0.0 0 0 0.0 0.000258523 2.89588e-08 0.0 0.00071503 -1.3974e-08 0.0 0.001134 9.09145e-08 0.0 0.00151084 2.03244e-07 0.0 0.00184587 6.83427e-08 0.0 0.00213899 2.69517e-08 0.0 0.00239016 1.17381e-08 0.0 0.00259945 -5.08019e-09 0.0 0.00276692 6.87077e-08 0.0 0.00289255 4.86045e-08 0.0 0.00297632 9.04693e-09 0.0 0.00301821 1.54807e-08 0.0 0.00301821 -1.54807e-08 0.0 0.00297632 -9.04693e-09 0.0 0.00289255 -4.86045e-08 0.0 0.00276692 -6.87077e-08 0.0 0.00259945 5.08019e-09 0.0 0.00239016 -1.17381e-08 0.0 0.00213899 -2.69517e-08 0.0 0.00184587 -6.83427e-08 0.0 0.00151084 -2.03244e-07 0.0 0.001134 -9.09145e-08 0.0 0.00071503 1.3974e-08 0.0 0.000258523 -2.89588e-08 0.0 0 0 0.0 0 0 0.0 0 0 0.0 0 0 0.0 0 0 0.0 0 0 0.0 0 0 0.0 0 0 0.0 0.000258523 2.89588e-08 0.0 0.00071503 -1.3974e-08 0.0 0.001134 9.09145e-08 0.0 0.00151084 2.03244e-07 0.0 0.00184587 6.83427e-08 0.0 0.00213899 2.69517e-08 0.0 0.00239016 1.17381e-08 0.0 0.00259945 -5.08019e-09 0.0 0.00276692 6.87077e-08 0.0 0.00289255 4.86045e-08 0.0 0.00297632 9.04693e-09 0.0 0.00301821 1.54807e-08 0.0 0.00301821 -1.54807e-08 0.0 0.00297632 -9.04693e-09 0.0 0.00289255 -4.86045e-08 0.0 0.00276692 -6.87077e-08 0.0 0.00259945 5.08019e-09 0.0 0.00239016 -1.17381e-08 0.0 0.00213899 -2.69517e-08 0.0 0.00184587 -6.83427e-08 0.0 0.00151084 -2.03244e-07 0.0 0.001134 -9.09145e-08 0.0 0.00071503 1.3974e-08 0.0 0.000258523 -2.89588e-08 0.0 0 0 0.0 0 0 0.0 0 0 0.0 0 0 0.0 0 0 0.0 0 0 0.0 0 0 0.0 0 0 0.0 0.000258523 2.89588e-08 0.0 0.00071503 -1.3974e-08 0.0 0.001134 9.09145e-08 0.0 0.00151084 2.03244e-07 0.0 0.00184587 6.83427e-08 0.0 0.00213899 2.69517e-08 0.0 0.00239016 1.17381e-08 0.0 0.00259945 -5.08019e-09 0.0 0.00276692 6.87077e-08 0.0 0.00289255 4.86045e-08 0.0 0.00297632 9.04693e-09 0.0 0.00301821 1.54807e-08 0.0 0.00301821 -1.54807e-08 0.0 0.00297632 -9.04693e-09 0.0 0.00289255 -4.86045e-08 0.0 0.00276692 -6.87077e-08 0.0 0.00259945 5.08019e-09 0.0 0.00239016 -1.17381e-08 0.0 0.00213899 -2.69517e-08 0.0 0.00184587 -6.83427e-08 0.0 0.00151084 -2.03244e-07 0.0 0.001134 -9.09145e-08 0.0 0.00071503 1.3974e-08 0.0 0.000258523 -2.89588e-08 0.0 0 0 0.0 0 0 0.0 0 0 0.0 0 0 0.0 0 0 0.0 0 0 0.0 0 0 0.0 0 0 0.0 0.000258523 2.89588e-08 0.0 0.00071503 -1.3974e-08 0.0 0.001134 9.09145e-08 0.0 0.00151084 2.03244e-07 0.0 0.00184587 6.83427e-08 0.0 0.00213899 2.69517e-08 0.0 0.00239016 1.17381e-08 0.0 0.00259945 -5.08019e-09 0.0 0.00276692 6.87077e-08 0.0 0.00289255 4.86045e-08 0.0 0.00297632 9.04693e-09 0.0 0.00301821 1.54807e-08 0.0 0.00301821 -1.54807e-08 0.0 0.00297632 -9.04693e-09 0.0 0.00289255 -4.86045e-08 0.0 0.00276692 -6.87077e-08 0.0 0.00259945 5.08019e-09 0.0 0.00239016 -1.17381e-08 0.0 0.00213899 -2.69517e-08 0.0 0.00184587 -6.83427e-08 0.0 0.00151084 -2.03244e-07 0.0 0.001134 -9.09145e-08 0.0 0.00071503 1.3974e-08 0.0 0.000258523 -2.89588e-08 0.0 0 0 0.0 0 0 0.0 0 0 0.0 0 0 0.0
        </DataArray>
        <DataArray type="Float64" NumberOfComponents="3" Name="vf" format="ascii">
 0 0 0.0 -0.000258523 -2.88431e-08 0.0 -0.000258796 -2.88176e-08 0.0 -0.000292206 -2.57022e-08 0.0 0.0 0.0 0.0 0.0 0.0 0.0 0.0 0.0 0.0 0.0 0.0 0.0 0.0 0.0 0.0 0.0 0.0 0.0 0.0 0.0 0.0 0.0 0.0 0.0 0.0 0.0 0.0 0.0 0.0 0.0 0.0 0.0 0.0 0.0 0.0 0.0 0.0 0.0 0.0 0.0 0.0 0.0 0.0 0.0 0.0 0.0 0.0 0.0 0.0 0.0 0.0 0.0 0.0 0.0 0.0 0.0 0.0 0.0 0.0 0.0 0.0 0.0 0.0 0.0 0.0 0.0 0.0 0.0 0.0 0.0 0.0 0.0 -0.000292206 2.57022e-08 0.0 -0.000258796 2.88176e-08 0.0 -0.000258523 2.88431e-08 0.0 0 0 0.0 0 0 0.0 -0.000258523 -2.88431e-08 0.0 -0.000258796 -2.88176e-08 0.0 -0.000292206 -2.57022e-08 0.0 0.0 0.0 0.0 0.0 0.0 0.0 0.0 0.0 0.0 0.0 0.0 0.0 0.0 0.0 0.0 0.0 0.0 0.0 0.0 0.0 0.0 0.0 0.0 0.0 0.0 0.0 0.0 0.0 0.0 0.0 0.0 0.0 0.0 0.0 0.0 0.0 0.0 0.0 0.0 0.0 0.0 0.0 0.0 0.0 0.0 0.0 0.0 0.0 0.0 0.0 0.0 0.0 0.0 0.0 0.0 0.0 0.0 0.0 0.0 0.0 0.0 0.0 0.0 0.0 0.0 0.0 0.0 0.0 0.0 0.0 0.0 0.0 -0.000292206 2.57022e-08 0.0 -0.000258796 2.88176e-08 0.0 -0.000258523 2.88431e-08 0.0 0 0 0.0 0 0 0.0 -0.000258523 -2.88431e-08 0.0 -0.000258796 -2.88176e-08 0.0 -0.000292206 -2.57022e-08 0.0 0.0 0.0 0.0 0.0 0.0 0.0 0.0 0.0 0.0 0.0 0.0 0.0 0.0 0.0 0.0 0.0 0.0 0.0 0.0 0.0 0.0 0.0 0.0 0.0 0.0 0.0 0.0 0.0 0.0 0.0 0.0 0.0 0.0 0.0 0.0 0.0 0.0 0.0 0.0 0.0 0.0 0.0 0.0 0.0 0.0 0.0 0.0 0.0 0.0 0.0 0.0 0.0 0.0 0.0 0.0 0.0 0.0 0.0 0.0 0.0 0.0 0.0 0.0 0.0 0.0 0.0 0.0 0.0 0.0 0.0 0.0 0.0 -0.000292206 2.57022e-08 0.0 -0.000258796 2.88176e-08 0.0 -0.000258523 2.88431e-08 0.0 0 0 0.0 0 0 0.0 -0.000258523 -2.88431e-08 0.0 -0.000258796 -2.88176e-08 0.0 -0.000292206 -2.57022e-08 0.0 0.0 0.0 0.0 0.0 0.0 0.0 0.0 0.0 0.0 0.0 0.0 0.0 0.0 0.0 0.0 0.0 0.0 0.0 0.0 0.0 0.0 0.0 0.0 0.0 0.0 0.0 0.0 0.0 0.0 0.0 0.0 0.0 0.0 0.0 0.0 0.0 0.0 0.0 0.0 0.0 0.0 0.0 0.0 0.0 0.0 0.0 0.0 0.0 0.0 0.0 0.0 0.0 0.0 0.0 0.0 0.0 0.0 0.0 0.0 0.0 0.0 0.0 0.0 0.0 0.0 0.0 0.0 0.0 0.0 0.0 0.0 0.0 -0.000292206 2.57022e-08 0.0 -0.000258796 2.88176e-08 0.0 -0.000258523 2.88431e-08 0.0 0 0 0.0 0 0 0.0 -0.000258523 -2.88431e-08 0.0 -0.000258796 -2.88176e-08 0.0 -0.000292206 -2.57022e-08 0.0 0.0 0.0 0.0 0.0 0.0 0.0 0.0 0.0 0.0 0.0 0.0 0.0 0.0 0.0 0.0 0.0 0.0 0.0 0.0 0.0 0.0 0.0 0.0 0.0 0.0 0.0 0.0 0.0 0.0 0.0 0.0 0.0 0.0 0.0 0.0 0.0 0.0 0.0 0.0 0.0 0.0 0.0 0.0 0.0 0.0 0.0 0.0 0.0 0.0 0.0 0.0 0.0 0.0 0.0 0.0 0.0 0.0 0.0 0.0 0.0 0.0 0.0 0.0 0.0 0.0 0.0 0.0 0.0 0.0 0.0 0.0 0.0 -0.000292206 2.57022e-08 0.0 -0.000258796 2.88176e-08 0.0 -0.000258523 2.88431e-08 0.0 0 0 0.0 0 0 0.0 -0.000258523 -2.88431e-08 0.0 -0.000258796 -2.88176e-08 0.0 -0.000292206 -2.57022e-08 0.0 0.0 0.0 0.0 0.0 0.0 0.0 0.0 0.0 0.0 0.0 0.0 0.0 0.0 0.0 0.0 0.0 0.0 0.0 0.0 0.0 0.0 0.0 0.0 0.0 0.0 0.0 0.0 0.0 0.0 0.0 0.0 0.0 0.0 0.0 0.0 0.0 0.0 0.0 0.0 0.0 0.0 0.0 0.0 0.0 0.0 0.0 0.0 0.0 0.0 0.0 0.0 0.0 0.0 0.0 0.0 0.0 0.0 0.0 0.0 0.0 0.0 0.0 0.0 0.0 0.0 0.0 0.0 0.0 0.0 0.0 0.0 0.0 -0.000292206 2.57022e-08 0.0 -0.000258796 2.88176e-08 0.0 -0.000258523 2.88431e-08 0.0 0 0 0.0 0 0 0.0 -0.000258523 -2.88431e-08 0.0 -0.000258796 -2.88176e-08 0.0 -0.000292206 -2.57022e-08 0.0 0.0 0.0 0.0 0.0 0.0 0.0 0.0 0.0 0.0 0.0 0.0 0.0 0.0 0.0 0.0 0.0 0.0 0.0 0.0 0.0 0.0 0.0 0.0 0.0 0.0 0.0 0.0 0.0 0.0 0.0 0.0 0.0 0.0 0.0 0.0 0.0 0.0 0.0 0.0 0.0 0.0 0.0 0.0 0.0 0.0 0.0 0.0 0.0 0.0 0.0 0.0 0.0 0.0 0.0 0.0 0.0 0.0 0.0 0.0 0.0 0.0 0.0 0.0 0.0 0.0 0.0 0.0 0.0 0.0 0.0 0.0 0.0 -0.000292206 2.57022e-08 0.0 -0.000258796 2.88176e-08 0.0 -0.000258523 2.88431e-08 0.0 0 0 0.0 0 0 0.0 -0.000258523 -2.88431e-08 0.0 -0.000258796 -2.88176e-08 0.0 -0.000292206 -2.57022e-08 0.0 0.0 0.0 0.0 0.0 0.0 0.0 0.0 0.0 0.0 0.0 0.0 0.0 0.0 0.0 0.0 0.0 0.0 0.0 0.0 0.0 0.0 0.0 0.0 0.0 0.0 0.0 0.0 0.0 0.0 0.0 0.0 0.0 0.0 0.0 0.0 0.0 0.0 0.0 0.0 0.0 0.0 0.0 0.0 0.0 0.0 0.0 0.0 0.0 0.0 0.0 0.0 0.0 0.0 0.0 0.0 0.0 0.0 0.0 0.0 0.0 0.0 0.0 0.0 0.0 0.0 0.0 0.0 0.0 0.0 0.0 0.0 0.0 -0.000292206 2.57022e-08 0.0 -0.000258796 2.88176e-08 0.0 -0.000258523 2.88431e-08 0.0 0 0 0.0 0 0 0.0 -0.000258523 -2.88431e-08 0.0 -0.000258796 -2.88176e-08 0.0 -0.000292206 -2.57022e-08 0.0 0.0 0.0 0.0 0.0 0.0 0.0 0.0 0.0 0.0 0.0 0.0 0.0 0.0 0.0 0.0 0.0 0.0 0.0 0.0 0.0 0.0 0.0 0.0 0.0 0.0 0.0 0.0 0.0 0.0 0.0 0.0 0.0 0.0 0.0 0.0 0.0 0.0 0.0 0.0 0.0 0.0 0.0 0.0 0.0 0.0 0.0 0.0 0.0 0.0 0.0 0.0 0.0 0.0 0.0 0.0 0.0 0.0 0.0 0.0 0.0 0.0 0.0 0.0 0.0 0.0 0.0 0.0 0.0 0.0 0.0 0.0 0.0 -0.000292206 2.57022e-08 0.0 -0.000258796 2.88176e-08 0.0 -0.000258523 2.88431e-08 0.0 0 0 0.0 0 0 0.0 -0.000258523 -2.88431e-08 0.0 -0.000258796 -2.88176e-08 0.0 -0.000292206 -2.57022e-08 0.0 0.0 0.0 0.0 0.0 0.0 0.0 0.0 0.0 0.0 0.0 0.0 0.0 0.0 0.0 0.0 0.0 0.0 0.0 0.0 0.0 0.0 0.0 0.0 0.0 0.0 0.0 0.0 0.0 0.0 0.0 0.0 0.0 0.0 0.0 0.0 0.0 0.0 0.0 0.0 0.0 0.0 0.0 0.0 0.0 0.0 0.0 0.0 0.0 0.0 0.0 0.0 0.0 0.0 0.0 0.0 0.0 0.0 0.0 0.0 0.0 0.0 0.0 0.0 0.0 0.0 0.0 0.0 0.0 0.0 0.0 0.0 0.0 -0.000292206 2.57022e-08 0.0 -0.000258796 2.88176e-08 0.0 -0.000258523 2.88431e-08 0.0 0 0 0.0 0 0 0.0 -0.000258523 -2.88431e-08 0.0 -0.000258796 -2.88176e-08 0.0 -0.000292206 -2.57022e-08 0.0 0.0 0.0 0.0 0.0 0.0 0.0 0.0 0.0 0.0 0.0 0.0 0.0 0.0 0.0 0.0 0.0 0.0 0.0 0.0 0.0 0.0 0.0 0.0 0.0 0.0 0.0 0.0 0.0 0.0 0.0 0.0 0.0 0.0 0.0 0.0 0.0 0.0 0.0 0.0 0.0 0.0 0.0 0.0 0.0 0.0 0.0 0.0 0.0 0.0 0.0 0.0 0.0 0.0 0.0 0.0 0.0 0.0 0.0 0.0 0.0 0.0 0.0 0.0 0.0 0.0 0.0 0.0 0.0 0.0 0.0 0.0 0.0 -0.000292206 2.57022e-08 0.0 -0.000258796 2.88176e-08 0.0 -0.000258523 2.88431e-08 0.0 0 0 0.0 0 0 0.0 -0.000258523 -2.88431e-08 0.0 -0.000258796 -2.88176e-08 0.0 -0.000292206 -2.57022e-08 0.0 0.0 0.0 0.0 0.0 0.0 0.0 0.0 0.0 0.0 0.0 0.0 0.0 0.0 0.0 0.0 0.0 0.0 0.0 0.0 0.0 0.0 0.0 0.0 0.0 0.0 0.0 0.0 0.0 0.0 0.0 0.0 0.0 0.0 0.0 0.0 0.0 0.0 0.0 0.0 0.0 0.0 0.0 0.0 0.0 0.0 0.0 0.0 0.0 0.0 0.0 0.0 0.0 0.0 0.0 0.0 0.0 0.0 0.0 0.0 0.0 0.0 0.0 0.0 0.0 0.0 0.0 0.0 0.0 0.0 0.0 0.0 0.0 -0.000292206 2.57022e-08 0.0 -0.000258796 2.88176e-08 0.0 -0.000258523 2.88431e-08 0.0 0 0 0.0 0 0 0.0 -0.000258523 -2.88431e-08 0.0 -0.000258796 -2.88176e-08 0.0 -0.000292206 -2.57022e-08 0.0 0.0 0.0 0.0 0.0 0.0 0.0 0.0 0.0 0.0 0.0 0.0 0.0 0.0 0.0 0.0 0.0 0.0 0.0 0.0 0.0 0.0 0.0 0.0 0.0 0.0 0.0 0.0 0.0 0.0 0.0 0.0 0.0 0.0 0.0 0.0 0.0 0.0 0.0 0.0 0.0 0.0 0.0 0.0 0.0 0.0 0.0 0.0 0.0 0.0 0.0 0.0 0.0 0.0 0.0 0.0 0.0 0.0 0.0 0.0 0.0 0.0 0.0 0.0 0.0 0.0 0.0 0.0 0.0 0.0 0.0 0.0 0.0 -0.000292206 2.57022e-08 0.0 -0.000258796 2.88176e-08 0.0 -0.000258523 2.88431e-08 0.0 0 0 0.0 0 0 0.0 -0.000258523 -2.88431e-08 0.0 -0.000258796 -2.88176e-08 0.0 -0.000292206 -2.57022e-08 0.0 0.0 0.0 0.0 0.0 0.0 0.0 0.0 0.0 0.0 0.0 0.0 0.0 0.0 0.0 0.0 0.0 0.0 0.0 0.0 0.0 0.0 0.0 0.0 0.0 0.0 0.0 0.0 0.0 0.0 0.0 0.0 0.0 0.0 0.0 0.0 0.0 0.0 0.0 0.0 0.0 0.0 0.0 0.0 0.0 0.0 0.0 0.0 0.0 0.0 0.0 0.0 0.0 0.0 0.0 0.0 0.0 0.0 0.0 0.0 0.0 0.0 0.0 0.0 0.0 0.0 0.0 0.0 0.0 0.0 0.0 0.0 0.0 -0.000292206 2.57022e-08 0.0 -0.000258796 2.88176e-08 0.0 -0.000258523 2.88431e-08 0.0 0 0 0.0 0 0 0.0 -0.000258523 -2.88431e-08 0.0 -0.000258796 -2.88176e-08 0.0 -0.000292206 -2.57022e-08 0.0 0.0 0.0 0.0 0.0 0.0 0.0 0.0 0.0 0.0 0.0 0.0 0.0 0.0 0.0 0.0 0.0 0.0 0.0 0.0 0.0 0.0 0.0 0.0 0.0 0.0 0.0 0.0 0.0 0.0 0.0 0.0 0.0 0.0 0.0 0.0 0.0 0.0 0.0 0.0 0.0 0.0 0.0 0.0 0.0 0.0 0.0 0.0 0.0 0.0 0.0 0.0 0.0 0.0 0.0 0.0 0.0 0.0 0.0 0.0 0.0 0.0 0.0 0.0 0.0 0.0 0.0 0.0 0.0 0.0 0.0 0.0 0.0 -0.000292206 2.57022e-08 0.0 -0.000258796 2.88176e-08 0.0 -0.000258523 2.88431e-08 0.0 0 0 0.0 0 0 0.0 -0.000258523 -2.88431e-08 0.0 -0.000258796 -2.88176e-08 0.0 -0.000292206 -2.57022e-08 0.0 0.0 0.0 0.0 0.0 0.0 0.0 0.0 0.0 0.0 0.0 0.0 0.0 0.0 0.0 0.0 0.0 0.0 0.0 0.0 0.0 0.0 0.0 0.0 0.0 0.0 0.0 0.0 0.0 0.0 0.0 0.0 0.0 0.0 0.0 0.0 0.0 0.0 0.0 0.0 0.0 0.0 0.0 0.0 0.0 0.0 0.0 0.0 0.0 0.0 0.0 0.0 0.0 0.0 0.0 0.0 0.0 0.0 0.0 0.0 0.0 0.0 0.0 0.0 0.0 0.0 0.0 0.0 0.0 0.0 0.0 0.0 0.0 -0.000292206 2.57022e-08 0.0 -0.000258796 2.88176e-08 0.0 -0.000258523 2.88431e-08 0.0 0 0 0.0 0 0 0.0 -0.000258523 -2.88431e-08 0.0 -0.000258796 -2.88176e-08 0.0 -0.000292206 -2.57022e-08 0.0 0.0 0.0 0.0 0.0 0.0 0.0 0.0 0.0 0.0 0.0 0.0 0.0 0.0 0.0 0.0 0.0 0.0 0.0 0.0 0.0 0.0 0.0 0.0 0.0 0.0 0.0 0.0 0.0 0.0 0.0 0.0 0.0 0.0 0.0 0.0 0.0 0.0 0.0 0.0 0.0 0.0 0.0 0.0 0.0 0.0 0.0 0.0 0.0 0.0 0.0 0.0 0.0 0.0 0.0 0.0 0.0 0.0 0.0 0.0 0.0 0.0 0.0 0.0 0.0 0.0 0.0 0.0 0.0 0.0 0.0 0.0 0.0 -0.000292206 2.57022e-08 0.0 -0.000258796 2.88176e-08 0.0 -0.000258523 2.88431e-08 0.0 0 0 0.0 0 0 0.0 -0.000258523 -2.88431e-08 0.0 -0.000258796 -2.88176e-08 0.0 -0.000292206 -2.57022e-08 0.0 0.0 0.0 0.0 0.0 0.0 0.0 0.0 0.0 0.0 0.0 0.0 0.0 0.0 0.0 0.0 0.0 0.0 0.0 0.0 0.0 0.0 0.0 0.0 0.0 0.0 0.0 0.0 0.0 0.0 0.0 0.0 0.0 0.0 0.0 0.0 0.0 0.0 0.0 0.0 0.0 0.0 0.0 0.0 0.0 0.0 0.0 0.0 0.0 0.0 0.0 0.0 0.0 0.0 0.0 0.0 0.0 0.0 0.0 0.0 0.0 0.0 0.0 0.0 0.0 0.0 0.0 0.0 0.0 0.0 0.0 0.0 0.0 -0.000292206 2.57022e-08 0.0 -0.000258796 2.88176e-08 0.0 -0.000258523 2.88431e-08 0.0 0 0 0.0 0 0 0.0 -0.000258523 -2.88431e-08 0.0 -0.000258796 -2.88176e-08 0.0 -0.000292206 -2.57022e-08 0.0 0.0 0.0 0.0 0.0 0.0 0.0 0.0 0.0 0.0 0.0 0.0 0.0 0.0 0.0 0.0 0.0 0.0 0.0 0.0 0.0 0.0 0.0 0.0 0.0 0.0 0.0 0.0 0.0 0.0 0.0 0.0 0.0 0.0 0.0 0.0 0.0 0.0 0.0 0.0 0.0 0.0 0.0 0.0 0.0 0.0 0.0 0.0 0.0 0.0 0.0 0.0 0.0 0.0 0.0 0.0 0.0 0.0 0.0 0.0 0.0 0.0 0.0 0.0 0.0 0.0 0.0 0.0 0.0 0.0 0.0 0.0 0.0 -0.000292206 2.57022e-08 0.0 -0.000258796 2.88176e-08 0.0 -0.000258523 2.88431e-08 0.0 0 0 0.0 0 0 0.0 -0.000258523 -2.88431e-08 0.0 -0.000258796 -2.88176e-08 0.0 -0.000292206 -2.57022e-08 0.0 0.0 0.0 0.0 0.0 0.0 0.0 0.0 0.0 0.0 0.0 0.0 0.0 0.0 0.0 0.0 0.0 0.0 0.0 0.0 0.0 0.0 0.0 0.0 0.0 0.0 0.0 0.0 0.0 0.0 0.0 0.0 0.0 0.0 0.0 0.0 0.0 0.0 0.0 0.0 0.0 0.0 0.0 0.0 0.0 0.0 0.0 0.0 0.0 0.0 0.0 0.0 0.0 0.0 0.0 0.0 0.0 0.0 0.0 0.0 0.0 0.0 0.0 0.0 0.0 0.0 0.0 0.0 0.0 0.0 0.0 0.0 0.0 -0.000292206 2.57022e-08 0.0 -0.000258796 2.88176e-08 0.0 -0.000258523 2.88431e-08 0.0 0 0 0.0 0 0 0.0 -0.000258523 -2.88431e-08 0.0 -0.000258796 -2.88176e-08 0.0 -0.000292206 -2.57022e-08 0.0 0.0 0.0 0.0 0.0 0.0 0.0 0.0 0.0 0.0 0.0 0.0 0.0 0.0 0.0 0.0 0.0 0.0 0.0 0.0 0.0 0.0 0.0 0.0 0.0 0.0 0.0 0.0 0.0 0.0 0.0 0.0 0.0 0.0 0.0 0.0 0.0 0.0 0.0 0.0 0.0 0.0 0.0 0.0 0.0 0.0 0.0 0.0 0.0 0.0 0.0 0.0 0.0 0.0 0.0 0.0 0.0 0.0 0.0 0.0 0.0 0.0 0.0 0.0 0.0 0.0 0.0 0.0 0.0 0.0 0.0 0.0 0.0 -0.000292206 2.57022e-08 0.0 -0.000258796 2.88176e-08 0.0 -0.000258523 2.88431e-08 0.0 0 0 0.0 0 0 0.0 -0.000258523 -2.88431e-08 0.0 -0.000258796 -2.88176e-08 0.0 -0.000292206 -2.57022e-08 0.0 0.0 0.0 0.0 0.0 0.0 0.0 0.0 0.0 0.0 0.0 0.0 0.0 0.0 0.0 0.0 0.0 0.0 0.0 0.0 0.0 0.0 0.0 0.0 0.0 0.0 0.0 0.0 0.0 0.0 0.0 0.0 0.0 0.0 0.0 0.0 0.0 0.0 0.0 0.0 0.0 0.0 0.0 0.0 0.0 0.0 0.0 0.0 0.0 0.0 0.0 0.0 0.0 0.0 0.0 0.0 0.0 0.0 0.0 0.0 0.0 0.0 0.0 0.0 0.0 0.0 0.0 0.0 0.0 0.0 0.0 0.0 0.0 -0.000292206 2.57022e-08 0.0 -0.000258796 2.88176e-08 0.0 -0.000258523 2.88431e-08 0.0 0 0 0.0 0 0 0.0 -0.000258523 -2.88431e-08 0.0 -0.000258796 -2.88176e-08 0.0 -0.000292206 -2.57022e-08 0.0 0.0 0.0 0.0 0.0 0.0 0.0 0.0 0.0 0.0 0.0 0.0 0.0 0.0 0.0 0.0 0.0 0.0 0.0 0.0 0.0 0.0 0.0 0.0 0.0 0.0 0.0 0.0 0.0 0.0 0.0 0.0 0.0 0.0 0.0 0.0 0.0 0.0 0.0 0.0 0.0 0.0 0.0 0.0 0.0 0.0 0.0 0.0 0.0 0.0 0.0 0.0 0.0 0.0 0.0 0.0 0.0 0.0 0.0 0.0 0.0 0.0 0.0 0.0 0.0 0.0 0.0 0.0 0.0 0.0 0.0 0.0 0.0 -0.000292206 2.57022e-08 0.0 -0.000258796 2.88176e-08 0.0 -0.000258523 2.88431e-08 0.0 0 0 0.0 0 0 0.0 -0.000258523 -2.88431e-08 0.0 -0.000258796 -2.88176e-08 0.0 -0.000292206 -2.57022e-08 0.0 0.0 0.0 0.0 0.0 0.0 0.0 0.0 0.0 0.0 0.0 0.0 0.0 0.0 0.0 0.0 0.0 0.0 0.0 0.0 0.0 0.0 0.0 0.0 0.0 0.0 0.0 0.0 0.0 0.0 0.0 0.0 0.0 0.0 0.0 0.0 0.0 0.0 0.0 0.0 0.0 0.0 0.0 0.0 0.0 0.0 0.0 0.0 0.0 0.0 0.0 0.0 0.0 0.0 0.0 0.0 0.0 0.0 0.0 0.0 0.0 0.0 0.0 0.0 0.0 0.0 0.0 0.0 0.0 0.0 0.0 0.0 0.0 -0.000292206 2.57022e-08 0.0 -0.000258796 2.88176e-08 0.0 -0.000258523 2.88431e-08 0.0 0 0 0.0
        </DataArray>
      </PointData>
      <Points>
        <DataArray type="Float64" NumberOfComponents="3" format="ascii">
 -0.0479167 -0.0645833 0.0 -0.0479167 -0.0604167 0.0 -0.0479167 -0.05625 0.0 -0.0479167 -0.0520833 0.0 -0.0432677 -0.0479165 0.0 -0.0350927 -0.0437497 0.0 -0.0276156 -0.039583 0.0 -0.0209127 -0.0354165 0.0 -0.0149708 -0.03125 0.0 -0.00978453 -0.0270833 0.0 -0.00534866 -0.0229166 0.0 -0.00165861 -0.0187498 0.0 0.00128925 -0.0145831 0.0 0.00349765 -0.0104167 0.0 0.0049688 -0.00625014 0.0 0.00570413 -0.00208337 0.0 0.00570413 0.00208337 0.0 0.0049688 0.00625014 0.0 0.00349765 0.0104167 0.0 0.00128925 0.0145831 0.0 -0.00165861 0.0187498 0.0 -0.00534866 0.0229166 0.0 -0.00978453 0.0270833 0.0 -0.0149708 0.03125 0.0 -0.0209127 0.0354165 0.0 -0.0276156 0.039583 0.0 -0.0350927 0.0437497 0.0 -0.0432677 0.0479165 0.0 -0.0479167 0.0520833 0.0 -0.0479167 0.05625 0.0 -0.0479167 0.0604167 0.0 -0.0479167 0.0645833 0.0 -0.04375 -0.0645833 0.0 -0.04375 -0.0604167 0.0 -0.04375 -0.05625 0.0 -0.04375 -0.0520833 0.0 -0.0391011 -0.0479165 0.0 -0.030926 -0.0437497 0.0 -0.0234489 -0.039583 0.0 -0.016746 -0.0354165 0.0 -0.0108041 -0.03125 0.0 -0.00561787 -0.0270833 0.0 -0.00118199 -0.0229166 0.0 0.00250805 -0.0187498 0.0 0.00545591 -0.0145831 0.0 0.00766431 -0.0104167 0.0 0.00913546 -0.00625014 0.0 0.0098708 -0.00208337 0.0 0.0098708 0.00208337 0.0 0.00913546 0.00625014 0.0 0.00766431 0.0104167 0.0 0.00545591 0.0145831 0.0 0.00250805 0.0187498 0.0 -0.00118199 0.0229166 0.0 -0.00561787 0.0270833 0.0 -0.0108041 0.03125 0.0 -0.016746 0.0354165 0.0 -0.0234489 0.039583 0.0 -0.030926 0.0437497 0.0 -0.0391011 0.0479165 0.0 -0.04375 0.0520833 0.0 -0.04375 0.05625 0.0 -0.04375 0.0604167 0.0 -0.04375 0.0645833 0.0 -0.0395833 -0.0645833 0.0 -0.0395833 -0.0604167 0.0 -0.0395833 -0.05625 0.0 -0.0395833 -0.0520833 0.0 -0.0349344 -0.0479165 0.0 -0.0267594 -0.0437497 0.0 -0.0192823 -0.039583 0.0 -0.0125794 -0.0354165 0.0 -0.00663745 -0.03125 0.0 -0.0014512 -0.0270833 0.0 0.00298468 -0.0229166 0.0 0.00667472 -0.0187498 0.0 0.00962258 -0.0145831 0.0 0.011831 -0.0104167 0.0 0.0133021 -0.00625014 0.0 0.0140375 -0.00208337 0.0 0.0140375 0.00208337 0.0 0.0133021 0.00625014 0.0 0.011831 0.0104167 0.0 0.00962258 0.0145831 0.0 0.00667472 0.0187498 0.0 0.00298468 0.0229166 0.0 -0.0014512 0.0270833 0.0 -0.00663745 0.03125 0.0 -0.0125794 0.0354165 0.0 -0.0192823 0.039583 0.0 -0.0267594 0.0437497 0.0 -0.0349344 0.0479165 0.0 -0.0395833 0.0520833 0.0 -0.0395833 0.05625 0.0 -0.0395833 0.0604167 0.0 -0.0395833 0.0645833 0.0 -0.0354167 -0.0645833 0.0 -0.0354167 -0.0604167 0.0 -0.0354167 -0.05625 0.0 -0.0354167 -0.0520833 0.0 -0.0307677 -0.0479165 0.0 -0.0225927 -0.0437497 0.0 -0.0151156 -0.039583 0.0 -0.0084127 -0.0354165 0.0 -0.00247078 -0.03125 0.0 0.00271547 -0.0270833 0.0 0.00715134 -0.0229166 0.0 0.0108414 -0.0187498 0.0 0.0137892 -0.0145831 0.0 0.0159976 -0.0104167 0.0 0.0174688 -0.00625014 0.0 0.0182041 -0.00208337 0.0 0.0182041 0.00208337 0.0 0.0174688 0.00625014 0.0 0.0159976 0.0104167 0.0 0.0137892 0.0145831 0.0 0.0108414 0.0187498 0.0 0.00715134 0.0229166 0.0 0.00271547 0.0270833 0.0 -0.00247078 0.03125 0.0 -0.0084127 0.0354165 0.0 -0.0151156 0.039583 0.0 -0.0225927 0.0437497 0.0 -0.0307677 0.0479165 0.0 -0.0354167 0.0520833 0.0 -0.0354167 0.05625 0.0 -0.0354167 0.0604167 0.0 -0.0354167 0.0645833 0.0 -0.03125 -0.0645833 0.0 -0.03125 -0.0604167 0.0 -0.03125 -0.05625 0.0 -0.03125 -0.0520833 0.0 -0.0266011 -0.0479165 0.0 -0.018426 -0.0437497 0.0 -0.0109489 -0.039583 0.0 -0.00424603 -0.0354165 0.0 0.00169588 -0.03125 0.0 0.00688213 -0.0270833 0.0 0.011318 -0.0229166 0.0 0.0150081 -0.0187498 0.0 0.0179559 -0.0145831 0.0 0.0201643 -0.0104167 0.0 0.0216355 -0.00625014 0.0 0.0223708 -0.00208337 0.0 0.0223708 0.00208337 0.0 0.0216355 0.00625014 0.0 0.0201643 0.0104167 0.0 0.0179559 0.0145831 0.0 0.0150081 0.0187498 0.0 0.011318 0.0229166 0.0 0.00688213 0.0270833 0.0 0.00169588 0.03125 0.0 -0.00424603 0.0354165 0.0 -0.0109489 0.039583 0.0 -0.018426 0.0437497 0.0 -0.0266011 0.0479165 0.0 -0.03125 0.0520833 0.0 -0.03125 0.05625 0.0 -0.03125 0.0604167 0.0 -0.03125 0.0645833 0.0 -0.0270833 -0.0645833 0.0 -0.0270833 -0.0604167 0.0 -0.0270833 -0.05625 0.0 -0.0270833 -0.0520833 0.0 -0.0224344 -0.0479165 0.0 -0.0142594 -0.0437497 0.0 -0.00678226 -0.039583 0.0 -7.93619e-05 -0.0354165 0.0 0.00586255 -0.03125 0.0 0.0110488 -0.0270833 0.0 0.0154847 -0.0229166 0.0 0.0191747 -0.0187498 0.0 0.0221226 -0.0145831 0.0 0.024331 -0.0104167 0.0 0.0258021 -0.00625014 0.0 0.0265375 -0.00208337 0.0 0.0265375 0.00208337 0.0 0.0258021 0.00625014 0.0 0.024331 0.0104167 0.0 0.0221226 0.0145831 0.0 0.0191747 0.0187498 0.0 0.0154847 0.0229166 0.0 0.0110488 0.0270833 0.0 0.00586255 0.03125 0.0 -7.93619e-05 0.0354165 0.0 -0.00678226 0.039583 0.0 -0.0142594 0.0437497 0.0 -0.0224344 0.0479165 0.0 -0.0270833 0.0520833 0.0 -0.0270833 0.05625 0.0 -0.0270833 0.0604167 0.0 -0.0270833 0.0645833 0.0 -0.0229167 -0.0645833 0.0 -0.0229167 -0.0604167 0.0 -0.0229167 -0.05625 0.0 -0.0229167 -0.0520833 0.0 -0.0182677 -0.0479165 0.0 -0.0100927 -0.0437497 0.0 -0.00261559 -0.039583 0.0 0.0040873 -0.0354165 0.0 0.0100292 -0.03125 0.0 0.0152155 -0.0270833 0.0 0.0196513 -0.0229166 0.0 0.0233414 -0.0187498 0.0 0.0262892 -0.0145831 0.0 0.0284976 -0.0104167 0.0 0.0299688 -0.00625014 0.0 0.0307041 -0.00208337 0.0 0.0307041 0.00208337 0.0 0.0299688 0.00625014 0.0 0.0284976 0.0104167 0.0 0.0262892 0.0145831 0.0 0.0233414 0.0187498 0.0 0.0196513 0.0229166 0.0 0.0152155 0.0270833 0.0 0.0100292 0.03125 0.0 0.0040873 0.0354165 0.0 -0.00261559 0.039583 0.0 -0.0100927 0.0437497 0.0 -0.0182677 0.0479165 0.0 -0.0229167 0.0520833 0.0 -0.0229167 0.05625 0.0 -0.0229167 0.0604167 0.0 -0.0229167 0.0645833 0.0 -0.01875 -0.0645833 0.0 -0.01875 -0.0604167 0.0 -0.01875 -0.05625 0.0 -0.01875 -0.0520833 0.0 -0.0141011 -0.0479165 0.0 -0.00592605 -0.0437497 0.0 0.00155108 -0.039583 0.0 0.00825397 -0.0354165 0.0 0.0141959 -0.03125 0.0 0.0193821 -0.0270833 0.0 0.023818 -0.0229166 0.0 0.0275081 -0.0187498 0.0 0.0304559 -0.0145831 0.0 0.0326643 -0.0104167 0.0 0.0341355 -0.00625014 0.0 0.0348708 -0.00208337 0.0 0.0348708 0.00208337 0.0 0.0341355 0.00625014 0.0 0.0326643 0.0104167 0.0 0.0304559 0.0145831 0.0 0.0275081 0.0187498 0.0 0.023818 0.0229166 0.0 0.0193821 0.0270833 0.0 0.0141959 0.03125 0.0 0.00825397 0.0354165 0.0 0.00155108 0.039583 0.0 -0.00592605 0.0437497 0.0 -0.0141011 0.0479165 0.0 -0.01875 0.0520833 0.0 -0.01875 0.05625 0.0 -0.01875 0.0604167 0.0 -0.01875 0.0645833 0.0 -0.0145833 -0.0645833 0.0 -0.0145833 -0.0604167 0.0 -0.0145833 -0.05625 0.0 -0.0145833 -0.0520833 0.0 -0.00993439 -0.0479165 0.0 -0.00175938 -0.0437497 0.0 0.00571774 -0.039583 0.0 0.0124206 -0.0354165 0.0 0.0183626 -0.03125 0.0 0.0235488 -0.0270833 0.0 0.0279847 -0.0229166 0.0 0.0316747 -0.0187498 0.0 0.0346226 -0.0145831 0.0 0.036831 -0.0104167 0.0 0.0383021 -0.00625014 0.0 0.0390375 -0.00208337 0.0 0.0390375 0.00208337 0.0 0.0383021 0.00625014 0.0 0.036831 0.0104167 0.0 0.0346226 0.0145831 0.0 0.0316747 0.0187498 0.0 0.0279847 0.0229166 0.0 0.0235488 0.0270833 0.0 0.0183626 0.03125 0.0 0.0124206 0.0354165 0.0 0.00571774 0.039583 0.0 -0.00175938 0.0437497 0.0 -0.00993439 0.0479165 0.0 -0.0145833 0.0520833 0.0 -0.0145833 0.05625 0.0 -0.0145833 0.0604167 0.0 -0.0145833 0.0645833 0.0 -0.0104167 -0.0645833 0.0 -0.0104167 -0.0604167 0.0 -0.0104167 -0.05625 0.0 -0.0104167 -0.0520833 0.0 -0.00576772 -0.0479165 0.0 0.00240729 -0.0437497 0.0 0.00988441 -0.039583 0.0 0.0165873 -0.0354165 0.0 0.0225292 -0.03125 0.0 0.0277155 -0.0270833 0.0 0.0321513 -0.0229166 0.0 0.0358414 -0.0187498 0.0 0.0387892 -0.0145831 0.0 0.0409976 -0.0104167 0.0 0.0424688 -0.00625014 0.0 0.0432041 -0.00208337 0.0 0.0432041 0.00208337 0.0 0.0424688 0.00625014 0.0 0.0409976 0.0104167 0.0 0.0387892 0.0145831 0.0 0.0358414 0.0187498 0.0 0.0321513 0.0229166 0.0 0.0277155 0.0270833 0.0 0.0225292 0.03125 0.0 0.0165873 0.0354165 0.0 0.00988441 0.039583 0.0 0.00240729 0.0437497 0.0 -0.00576772 0.0479165 0.0 -0.0104167 0.0520833 0.0 -0.0104167 0.05625 0.0 -0.0104167 0.0604167 0.0 -0.0104167 0.0645833 0.0 -0.00625 -0.0645833 0.0 -0.00625 -0.0604167 0.0 -0.00625 -0.05625 0.0 -0.00625 -0.0520833 0.0 -0.00160105 -0.0479165 0.0 0.00657395 -0.0437497 0.0 0.0140511 -0.039583 0.0 0.020754 -0.0354165 0.0 0.0266959 -0.03125 0.0 0.0318821 -0.0270833 0.0 0.036318 -0.0229166 0.0 0.0400081 -0.0187498 0.0 0.0429559 -0.0145831 0.0 0.0451643 -0.0104167 0.0 0.0466355 -0.00625014 0.0 0.0473708 -0.00208337 0.0 0.0473708 0.00208337 0.0 0.0466355 0.00625014 0.0 0.0451643 0.0104167 0.0 0.0429559 0.0145831 0.0 0.0400081 0.0187498 0.0 0.036318 0.0229166 0.0 0.0318821 0.0270833 0.0 0.0266959 0.03125 0.0 0.020754 0.0354165 0.0 0.0140511 0.039583 0.0 0.00657395 0.0437497 0.0 -0.00160105 0.0479165 0.0 -0.00625 0.0520833 0.0 -0.00625 0.05625 0.0 -0.00625 0.0604167 0.0 -0.00625 0.0645833 0.0 -0.00208333 -0.0645833 0.0 -0.00208333 -0.0604167 0.0 -0.00208333 -0.05625 0.0 -0.00208333 -0.0520833 0.0 0.00256561 -0.0479165 0.0 0.0107406 -0.0437497 0.0 0.0182177 -0.039583 0.0 0.0249206 -0.0354165 0.0 0.0308626 -0.03125 0.0 0.0360488 -0.0270833 0.0 0.0404847 -0.0229166 0.0 0.0441747 -0.0187498 0.0 0.0471226 -0.0145831 0.0 0.049331 -0.0104167 0.0 -0.0491979 -0.00625014 0.0 -0.0484625 -0.00208337 0.0 -0.0484625 0.00208337 0.0 -0.0491979 0.00625014 0.0 0.049331 0.0104167 0.0 0.0471226 0.0145831 0.0 0.0441747 0.0187498 0.0 0.0404847 0.0229166 0.0 0.0360488 0.0270833 0.0 0.0308626 0.03125 0.0 0.0249206 0.0354165 0.0 0.0182177 0.039583 0.0 0.0107406 0.0437497 0.0 0.00256561 0.0479165 0.0 -0.00208333 0.0520833 0.0 -0.00208333 0.05625 0.0 -0.00208333 0.0604167 0.0 -0.00208333 0.0645833 0.0 0.00208333 -0.0645833 0.0 0.00208333 -0.0604167 0.0 0.00208333 -0.05625 0.0 0.00208333 -0.0520833 0.0 0.00673228 -0.0479165 0.0 0.0149073 -0.0437497 0.0 0.0223844 -0.039583 0.0 0.0290873 -0.0354165 0.0 0.0350292 -0.03125 0.0 0.0402155 -0.0270833 0.0 0.0446513 -0.0229166 0.0 0.0483414 -0.0187498 0.0 -0.0487108 -0.0145831 0.0 -0.0465024 -0.0104167 0.0 -0.0450312 -0.00625014 0.0 -0.0442959 -0.00208337 0.0 -0.0442959 0.00208337 0.0 -0.0450312 0.00625014 0.0 -0.0465024 0.0104167 0.0 -0.0487108 0.0145831 0.0 0.0483414 0.0187498 0.0 0.0446513 0.0229166 0.0 0.0402155 0.0270833 0.0 0.0350292 0.03125 0.0 0.0290873 0.0354165 0.0 0.0223844 0.039583 0.0 0.0149073 0.0437497 0.0 0.00673228 0.0479165 0.0 0.00208333 0.0520833 0.0 0.00208333 0.05625 0.0 0.00208333 0.0604167 0.0 0.00208333 0.0645833 0.0 0.00625 -0.0645833 0.0 0.00625 -0.0604167 0.0 0.00625 -0.05625 0.0 0.00625 -0.0520833 0.0 0.0108989 -0.0479165 0.0 0.019074 -0.0437497 0.0 0.0265511 -0.039583 0.0 0.033254 -0.0354165 0.0 0.0391959 -0.03125 0.0 0.0443821 -0.0270833 0.0 0.048818 -0.0229166 0.0 -0.0474919 -0.0187498 0.0 -0.0445441 -0.0145831 0.0 -0.0423357 -0.0104167 0.0 -0.0408645 -0.00625014 0.0 -0.0401292 -0.00208337 0.0 -0.0401292 0.00208337 0.0 -0.0408645 0.00625014 0.0 -0.0423357 0.0104167 0.0 -0.0445441 0.0145831 0.0 -0.0474919 0.0187498 0.0 0.048818 0.0229166 0.0 0.0443821 0.0270833 0.0 0.0391959 0.03125 0.0 0.033254 0.0354165 0.0 0.0265511 0.039583 0.0 0.019074 0.0437497 0.0 0.0108989 0.0479165 0.0 0.00625 0.0520833 0.0 0.00625 0.05625 0.0 0.00625 0.0604167 0.0 0.00625 0.0645833 0.0 0.0104167 -0.0645833 0.0 0.0104167 -0.0604167 0.0 0.0104167 -0.05625 0.0 0.0104167 -0.0520833 0.0 0.0150656 -0.0479165 0.0 0.0232406 -0.0437497 0.0 0.0307177 -0.039583 0.0 0.0374206 -0.0354165 0.0 0.0433626 -0.03125 0.0 0.0485488 -0.0270833 0.0 -0.0470153 -0.0229166 0.0 -0.0433253 -0.0187498 0.0 -0.0403774 -0.0145831 0.0 -0.038169 -0.0104167 0.0 -0.0366979 -0.00625014 0.0 -0.0359625 -0.00208337 0.0 -0.0359625 0.00208337 0.0 -0.0366979 0.00625014 0.0 -0.038169 0.0104167 0.0 -0.0403774 0.0145831 0.0 -0.0433253 0.0187498 0.0 -0.0470153 0.0229166 0.0 0.0485488 0.0270833 0.0 0.0433626 0.03125 0.0 0.0374206 0.0354165 0.0 0.0307177 0.039583 0.0 0.0232406 0.0437497 0.0 0.0150656 0.0479165 0.0 0.0104167 0.0520833 0.0 0.0104167 0.05625 0.0 0.0104167 0.0604167 0.0 0.0104167 0.0645833 0.0 0.0145833 -0.0645833 0.0 0.0145833 -0.0604167 0.0 0.0145833 -0.05625 0.0 0.0145833 -0.0520833 0.0 0.0192323 -0.0479165 0.0 0.0274073 -0.0437497 0.0 0.0348844 -0.039583 0.0 0.0415873 -0.0354165 0.0 0.0475292 -0.03125 0.0 -0.0472845 -0.0270833 0.0 -0.0428487 -0.0229166 0.0 -0.0391586 -0.0187498 0.0 -0.0362108 -0.0145831 0.0 -0.0340024 -0.0104167 0.0 -0.0325312 -0.00625014 0.0 -0.0317959 -0.00208337 0.0 -0.0317959 0.00208337 0.0 -0.0325312 0.00625014 0.0 -0.0340024 0.0104167 0.0 -0.0362108 0.0145831 0.0 -0.0391586 0.0187498 0.0 -0.0428487 0.0229166 0.0 -0.0472845 0.0270833 0.0 0.0475292 0.03125 0.0 0.0415873 0.0354165 0.0 0.0348844 0.039583 0.0 0.0274073 0.0437497 0.0 0.0192323 0.0479165 0.0 0.0145833 0.0520833 0.0 0.0145833 0.05625 0.0 0.0145833 0.0604167 0.0 0.0145833 0.0645833 0.0 0.01875 -0.0645833 0.0 0.01875 -0.0604167 0.0 0.01875 -0.05625 0.0 0.01875 -0.0520833 0.0 0.0233989 -0.0479165 0.0 0.031574 -0.0437497 0.0 0.0390511 -0.039583 0.0 0.045754 -0.0354165 0.0 -0.0483041 -0.03125 0.0 -0.0431179 -0.0270833 0.0 -0.038682 -0.0229166 0.0 -0.0349919 -0.0187498 0.0 -0.0320441 -0.0145831 0.0 -0.0298357 -0.0104167 0.0 -0.0283645 -0.00625014 0.0 -0.0276292 -0.00208337 0.0 -0.0276292 0.00208337 0.0 -0.0283645 0.00625014 0.0 -0.0298357 0.0104167 0.0 -0.0320441 0.0145831 0.0 -0.0349919 0.0187498 0.0 -0.038682 0.0229166 0.0 -0.0431179 0.0270833 0.0 -0.0483041 0.03125 0.0 0.045754 0.0354165 0.0 0.0390511 0.039583 0.0 0.031574 0.0437497 0.0 0.0233989 0.0479165 0.0 0.01875 0.0520833 0.0 0.01875 0.05625 0.0 0.01875 0.0604167 0.0 0.01875 0.0645833 0.0 0.0229167 -0.0645833 0.0 0.0229167 -0.0604167 0.0 0.0229167 -0.05625 0.0 0.0229167 -0.0520833 0.0 0.0275656 -0.0479165 0.0 0.0357406 -0.0437497 0.0 0.0432177 -0.039583 0.0 0.0499206 -0.0354165 0.0 -0.0441374 -0.03125 0.0 -0.0389512 -0.0270833 0.0 -0.0345153 -0.0229166 0.0 -0.0308253 -0.0187498 0.0 -0.0278774 -0.0145831 0.0 -0.025669 -0.0104167 0.0 -0.0241979 -0.00625014 0.0 -0.0234625 -0.00208337 0.0 -0.0234625 0.00208337 0.0 -0.0241979 0.00625014 0.0 -0.025669 0.0104167 0.0 -0.0278774 0.0145831 0.0 -0.0308253 0.0187498 0.0 -0.0345153 0.0229166 0.0 -0.0389512 0.0270833 0.0 -0.0441374 0.03125 0.0 0.0499206 0.0354165 0.0 0.0432177 0.039583 0.0 0.0357406 0.0437497 0.0 0.0275656 0.0479165 0.0 0.0229167 0.0520833 0.0 0.0229167 0.05625 0.0 0.0229167 0.0604167 0.0 0.0229167 0.0645833 0.0 0.0270833 -0.0645833 0.0 0.0270833 -0.0604167 0.0 0.0270833 -0.05625 0.0 0.0270833 -0.0520833 0.0 0.0317323 -0.0479165 0.0 0.0399073 -0.0437497 0.0 0.0473844 -0.039583 0.0 -0.0459127 -0.0354165 0.0 -0.0399708 -0.03125 0.0 -0.0347845 -0.0270833 0.0 -0.0303487 -0.0229166 0.0 -0.0266586 -0.0187498 0.0 -0.0237108 -0.0145831 0.0 -0.0215024 -0.0104167 0.0 -0.0200312 -0.00625014 0.0 -0.0192959 -0.00208337 0.0 -0.0192959 0.00208337 0.0 -0.0200312 0.00625014 0.0 -0.0215024 0.0104167 0.0 -0.0237108 0.0145831 0.0 -0.0266586 0.0187498 0.0 -0.0303487 0.0229166 0.0 -0.0347845 0.0270833 0.0 -0.0399708 0.03125 0.0 -0.0459127 0.0354165 0.0 0.0473844 0.039583 0.0 0.0399073 0.0437497 0.0 0.0317323 0.0479165 0.0 0.0270833 0.0520833 0.0 0.0270833 0.05625 0.0 0.0270833 0.0604167 0.0 0.0270833 0.0645833 0.0 0.03125 -0.0645833 0.0 0.03125 -0.0604167 0.0 0.03125 -0.05625 0.0 0.03125 -0.0520833 0.0 0.0358989 -0.0479165 0.0 0.044074 -0.0437497 0.0 -0.0484489 -0.039583 0.0 -0.041746 -0.0354165 0.0 -0.0358041 -0.03125 0.0 -0.0306179 -0.0270833 0.0 -0.026182 -0.0229166 0.0 -0.0224919 -0.0187498 0.0 -0.0195441 -0.0145831 0.0 -0.0173357 -0.0104167 0.0 -0.0158645 -0.00625014 0.0 -0.0151292 -0.00208337 0.0 -0.0151292 0.00208337 0.0 -0.0158645 0.00625014 0.0 -0.0173357 0.0104167 0.0 -0.0195441 0.0145831 0.0 -0.0224919 0.0187498 0.0 -0.026182 0.0229166 0.0 -0.0306179 0.0270833 0.0 -0.0358041 0.03125 0.0 -0.041746 0.0354165 0.0 -0.0484489 0.039583 0.0 0.044074 0.0437497 0.0 0.0358989 0.0479165 0.0 0.03125 0.0520833 0.0 0.03125 0.05625 0.0 0.03125 0.0604167 0.0 0.03125 0.0645833 0.0 0.0354167 -0.0645833 0.0 0.0354167 -0.0604167 0.0 0.0354167 -0.05625 0.0 0.0354167 -0.0520833 0.0 0.0400656 -0.0479165 0.0 0.0482406 -0.0437497 0.0 -0.0442823 -0.039583 0.0 -0.0375794 -0.0354165 0.0 -0.0316374 -0.03125 0.0 -0.0264512 -0.0270833 0.0 -0.0220153 -0.0229166 0.0 -0.0183253 -0.0187498 0.0 -0.0153774 -0.0145831 0.0 -0.013169 -0.0104167 0.0 -0.0116979 -0.00625014 0.0 -0.0109625 -0.00208337 0.0 -0.0109625 0.00208337 0.0 -0.0116979 0.00625014 0.0 -0.013169 0.0104167 0.0 -0.0153774 0.0145831 0.0 -0.0183253 0.0187498 0.0 -0.0220153 0.0229166 0.0 -0.0264512 0.0270833 0.0 -0.0316374 0.03125 0.0 -0.0375794 0.0354165 0.0 -0.0442823 0.039583 0.0 0.0482406 0.0437497 0.0 0.0400656 0.0479165 0.0 0.0354167 0.0520833 0.0 0.0354167 0.05625 0.0 0.0354167 0.0604167 0.0 0.0354167 0.0645833 0.0 0.0395833 -0.0645833 0.0 0.0395833 -0.0604167 0.0 0.0395833 -0.05625 0.0 0.0395833 -0.0520833 0.0 0.0442323 -0.0479165 0.0 -0.0475927 -0.0437497 0.0 -0.0401156 -0.039583 0.0 -0.0334127 -0.0354165 0.0 -0.0274708 -0.03125 0.0 -0.0222845 -0.0270833 0.0 -0.0178487 -0.0229166 0.0 -0.0141586 -0.0187498 0.0 -0.0112108 -0.0145831 0.0 -0.00900235 -0.0104167 0.0 -0.0075312 -0.00625014 0.0 -0.00679587 -0.00208337 0.0 -0.00679587 0.00208337 0.0 -0.0075312 0.00625014 0.0 -0.00900235 0.0104167 0.0 -0.0112108 0.0145831 0.0 -0.0141586 0.0187498 0.0 -0.0178487 0.0229166 0.0 -0.0222845 0.0270833 0.0 -0.0274708 0.03125 0.0 -0.0334127 0.0354165 0.0 -0.0401156 0.039583 0.0 -0.0475927 0.0437497 0.0 0.0442323 0.0479165 0.0 0.0395833 0.0520833 0.0 0.0395833 0.05625 0.0 0.0395833 0.0604167 0.0 0.0395833 0.0645833 0.0 0.04375 -0.0645833 0.0 0.04375 -0.0604167 0.0 0.04375 -0.05625 0.0 0.04375 -0.0520833 0.0 0.0483989 -0.0479165 0.0 -0.043426 -0.0437497 0.0 -0.0359489 -0.039583 0.0 -0.029246 -0.0354165 0.0 -0.0233041 -0.03125 0.0 -0.0181179 -0.0270833 0.0 -0.013682 -0.0229166 0.0 -0.00999195 -0.0187498 0.0 -0.00704409 -0.0145831 0.0 -0.00483569 -0.0104167 0.0 -0.00336454 -0.00625014 0.0 -0.0026292 -0.00208337 0.0 -0.0026292 0.00208337 0.0 -0.00336454 0.00625014 0.0 -0.00483569 0.0104167 0.0 -0.00704409 0.0145831 0.0 -0.00999195 0.0187498 0.0 -0.013682 0.0229166 0.0 -0.0181179 0.0270833 0.0 -0.0233041 0.03125 0.0 -0.029246 0.0354165 0.0 -0.0359489 0.039583 0.0 -0.043426 0.0437497 0.0 0.0483989 0.0479165 0.0 0.04375 0.0520833 0.0 0.04375 0.05625 0.0 0.04375 0.0604167 0.0 0.04375 0.0645833 0.0 0.0479167 -0.0645833 0.0 0.0479167 -0.0604167 0.0 0.0479167 -0.05625 0.0 0.0479167 -0.0520833 0.0 -0.0474344 -0.0479165 0.0 -0.0392594 -0.0437497 0.0 -0.0317823 -0.039583 0.0 -0.0250794 -0.0354165 0.0 -0.0191374 -0.03125 0.0 -0.0139512 -0.0270833 0.0 -0.00951532 -0.0229166 0.0 -0.00582528 -0.0187498 0.0 -0.00287742 -0.0145831 0.0 -0.000669019 -0.0104167 0.0 0.000802129 -0.00625014 0.0 0.00153746 -0.00208337 0.0 0.00153746 0.00208337 0.0 0.000802129 0.00625014 0.0 -0.000669019 0.0104167 0.0 -0.00287742 0.0145831 0.0 -0.00582528 0.0187498 0.0 -0.00951532 0.0229166 0.0 -0.0139512 0.0270833 0.0 -0.0191374 0.03125 0.0 -0.0250794 0.0354165 0.0 -0.0317823 0.039583 0.0 -0.0392594 0.0437497 0.0 -0.0474344 0.0479165 0.0 0.0479167 0.0520833 0.0 0.0479167 0.05625 0.0 0.0479167 0.0604167 0.0 0.0479167 0.0645833 0.0
        </DataArray>
      </Points>
      <Cells>
        <DataArray type="Int32" Name="connectivity" format="ascii">
 0 1 2 3 4 5 6 7 8 9 10 11 12 13 14 15 16 17 18 19 20 21 22 23 24 25 26 27 28 29 30 31 32 33 34 35 36 37 38 39 40 41 42 43 44 45 46 47 48 49 50 51 52 53 54 55 56 57 58 59 60 61 62 63 64 65 66 67 68 69 70 71 72 73 74 75 76 77 78 79 80 81 82 83 84 85 86 87 88 89 90 91 92 93 94 95 96 97 98 99 100 101 102 103 104 105 106 107 108 109 110 111 112 113 114 115 116 117 118 119 120 121 122 123 124 125 126 127 128 129 130 131 132 133 134 135 136 137 138 139 140 141 142 143 144 145 146 147 148 149 150 151 152 153 154 155 156 157 158 159 160 161 162 163 164 165 166 167 168 169 170 171 172 173 174 175 176 177 178 179 180 181 182 183 184 185 186 187 188 189 190 191 192 193 194 195 196 197 198 199 200 201 202 203 204 205 206 207 208 209 210 211 212 213 214 215 216 217 218 219 220 221 222 223 224 225 226 227 228 229 230 231 232 233 234 235 236 237 238 239 240 241 242 243 244 245 246 247 248 249 250 251 252 253 254 255 256 257 258 259 260 261 262 263 264 265 266 267 268 269 270 271 272 273 274 275 276 277 278 279 280 281 282 283 284 285 286 287 288 289 290 291 292 293 294 295 296 297 298 299 300 301 302 303 304 305 306 307 308 309 310 311 312 313 314 315 316 317 318 319 320 321 322 323 324 325 326 327 328 329 330 331 332 333 334 335 336 337 338 339 340 341 342 343 344 345 346 347 348 349 350 351 352 353 354 355 356 357 358 359 360 361 362 363 364 365 366 367 368 369 370 371 372 373 374 375 376 377 378 379 380 381 382 383 384 385 386 387 388 389 390 391 392 393 394 395 396 397 398 399 400 401 402 403 404 405 406 407 408 409 410 411 412 413 414 415 416 417 418 419 420 421 422 423 424 425 426 427 428 429 430 431 432 433 434 435 436 437 438 439 440 441 442 443 444 445 446 447 448 449 450 451 452 453 454 455 456 457 458 459 460 461 462 463 464 465 466 467 468 469 470 471 472 473 474 475 476 477 478 479 480 481 482 483 484 485 486 487 488 489 490 491 492 493 494 495 496 497 498 499 500 501 502 503 504 505 506 507 508 509 510 511 512 513 514 515 516 517 518 519 520 521 522 523 524 525 526 527 528 529 530 531 532 533 534 535 536 537 538 539 540 541 542 543 544 545 546 547 548 549 550 551 552 553 554 555 556 557 558 559 560 561 562 563 564 565 566 567 568 569 570 571 572 573 574 575 576 577 578 579 580 581 582 583 584 585 586 587 588 589 590 591 592 593 594 595 596 597 598 599 600 601 602 603 604 605 606 607 608 609 610 611 612 613 614 615 616 617 618 619 620 621 622 623 624 625 626 627 628 629 630 631 632 633 634 635 636 637 638 639 640 641 642 643 644 645 646 647 648 649 650 651 652 653 654 655 656 657 658 659 660 661 662 663 664 665 666 667 668 669 670 671 672 673 674 675 676 677 678 679 680 681 682 683 684 685 686 687 688 689 690 691 692 693 694 695 696 697 698 699 700 701 702 703 704 705 706 707 708 709 710 711 712 713 714 715 716 717 718 719 720 721 722 723 724 725 726 727 728 729 730 731 732 733 734 735 736 737 738 739 740 741 742 743 744 745 746 747 748 749 750 751 752 753 754 755 756 757 758 759 760 761 762 763 764 765 766 767
        </DataArray>
        <DataArray type="Int32" Name="offsets" format="ascii">
 1 2 3 4 5 6 7 8 9 10 11 12 13 14 15 16 17 18 19 20 21 22 23 24 25 26 27 28 29 30 31 32 33 34 35 36 37 38 39 40 41 42 43 44 45 46 47 48 49 50 51 52 53 54 55 56 57 58 59 60 61 62 63 64 65 66 67 68 69 70 71 72 73 74 75 76 77 78 79 80 81 82 83 84 85 86 87 88 89 90 91 92 93 94 95 96 97 98 99 100 101 102 103 104 105 106 107 108 109 110 111 112 113 114 115 116 117 118 119 120 121 122 123 124 125 126 127 128 129 130 131 132 133 134 135 136 137 138 139 140 141 142 143 144 145 146 147 148 149 150 151 152 153 154 155 156 157 158 159 160 161 162 163 164 165 166 167 168 169 170 171 172 173 174 175 176 177 178 179 180 181 182 183 184 185 186 187 188 189 190 191 192 193 194 195 196 197 198 199 200 201 202 203 204 205 206 207 208 209 210 211 212 213 214 215 216 217 218 219 220 221 222 223 224 225 226 227 228 229 230 231 232 233 234 235 236 237 238 239 240 241 242 243 244 245 246 247 248 249 250 251 252 253 254 255 256 257 258 259 260 261 262 263 264 265 266 267 268 269 270 271 272 273 274 275 276 277 278 279 280 281 282 283 284 285 286 287 288 289 290 291 292 293 294 295 296 297 298 299 300 301 302 303 304 305 306 307 308 309 310 311 312 313 314 315 316 317 318 319 320 321 322 323 324 325 326 327 328 329 330 331 332 333 334 335 336 337 338 339 340 341 342 343 344 345 346 347 348 349 350 351 352 353 354 355 356 357 358 359 360 361 362 363 364 365 366 367 368 369 370 371 372 373 374 375 376 377 378 379 380 381 382 383 384 385 386 387 388 389 390 391 392 393 394 395 396 397 398 399 400 401 402 403 404 405 406 407 408 409 410 411 412 413 414 415 416 417 418 419 420 421 422 423 424 425 426 427 428 429 430 431 432 433 434 435 436 437 438 439 440 441 442 443 444 445 446 447 448 449 450 451 452 453 454 455 456 457 458 459 460 461 462 463 464 465 466 467 468 469 470 471 472 473 474 475 476 477 478 479 480 481 482 483 484 485 486 487 488 489 490 491 492 493 494 495 496 497 498 499 500 501 502 503 504 505 506 507 508 509 510 511 512 513 514 515 516 517 518 519 520 521 522 523 524 525 526 527 528 529 530 531 532 533 534 535 536 537 538 539 540 541 542 543 544 545 546 547 548 549 550 551 552 553 554 555 556 557 558 559 560 561 562 563 564 565 566 567 568 569 570 571 572 573 574 575 576 577 578 579 580 581 582 583 584 585 586 587 588 589 590 591 592 593 594 595 596 597 598 599 600 601 602 603 604 605 606 607 608 609 610 611 612 613 614 615 616 617 618 619 620 621 622 623 624 625 626 627 628 629 630 631 632 633 634 635 636 637 638 639 640 641 642 643 644 645 646 647 648 649 650 651 652 653 654 655 656 657 658 659 660 661 662 663 664 665 666 667 668 669 670 671 672 673 674 675 676 677 678 679 680 681 682 683 684 685 686 687 688 689 690 691 692 693 694 695 696 697 698 699 700 701 702 703 704 705 706 707 708 709 710 711 712 713 714 715 716 717 718 719 720 721 722 723 724 725 726 727 728 729 730 731 732 733 734 735 736 737 738 739 740 741 742 743 744 745 746 747 748 749 750 751 752 753 754 755 756 757 758 759 760 761 762 763 764 765 766 767 768
        </DataArray>
        <DataArray type="UInt8" Name="types" format="ascii">
 1 1 1 1 1 1 1 1 1 1 1 1 1 1 1 1 1 1 1 1 1 1 1 1 1 1 1 1 1 1 1 1 1 1 1 1 1 1 1 1 1 1 1 1 1 1 1 1 1 1 1 1 1 1 1 1 1 1 1 1 1 1 1 1 1 1 1 1 1 1 1 1 1 1 1 1 1 1 1 1 1 1 1 1 1 1 1 1 1 1 1 1 1 1 1 1 1 1 1 1 1 1 1 1 1 1 1 1 1 1 1 1 1 1 1 1 1 1 1 1 1 1 1 1 1 1 1 1 1 1 1 1 1 1 1 1 1 1 1 1 1 1 1 1 1 1 1 1 1 1 1 1 1 1 1 1 1 1 1 1 1 1 1 1 1 1 1 1 1 1 1 1 1 1 1 1 1 1 1 1 1 1 1 1 1 1 1 1 1 1 1 1 1 1 1 1 1 1 1 1 1 1 1 1 1 1 1 1 1 1 1 1 1 1 1 1 1 1 1 1 1 1 1 1 1 1 1 1 1 1 1 1 1 1 1 1 1 1 1 1 1 1 1 1 1 1 1 1 1 1 1 1 1 1 1 1 1 1 1 1 1 1 1 1 1 1 1 1 1 1 1 1 1 1 1 1 1 1 1 1 1 1 1 1 1 1 1 1 1 1 1 1 1 1 1 1 1 1 1 1 1 1 1 1 1 1 1 1 1 1 1 1 1 1 1 1 1 1 1 1 1 1 1 1 1 1 1 1 1 1 1 1 1 1 1 1 1 1 1 1 1 1 1 1 1 1 1 1 1 1 1 1 1 1 1 1 1 1 1 1 1 1 1 1 1 1 1 1 1 1 1 1 1 1 1 1 1 1 1 1 1 1 1 1 1 1 1 1 1 1 1 1 1 1 1 1 1 1 1 1 1 1 1 1 1 1 1 1 1 1 1 1 1 1 1 1 1 1 1 1 1 1 1 1 1 1 1 1 1 1 1 1 1 1 1 1 1 1 1 1 1 1 1 1 1 1 1 1 1 1 1 1 1 1 1 1 1 1 1 1 1 1 1 1 1 1 1 1 1 1 1 1 1 1 1 1 1 1 1 1 1 1 1 1 1 1 1 1 1 1 1 1 1 1 1 1 1 1 1 1 1 1 1 1 1 1 1 1 1 1 1 1 1 1 1 1 1 1 1 1 1 1 1 1 1 1 1 1 1 1 1 1 1 1 1 1 1 1 1 1 1 1 1 1 1 1 1 1 1 1 1 1 1 1 1 1 1 1 1 1 1 1 1 1 1 1 1 1 1 1 1 1 1 1 1 1 1 1 1 1 1 1 1 1 1 1 1 1 1 1 1 1 1 1 1 1 1 1 1 1 1 1 1 1 1 1 1 1 1 1 1 1 1 1 1 1 1 1 1 1 1 1 1 1 1 1 1 1 1 1 1 1 1 1 1 1 1 1 1 1 1 1 1 1 1 1 1 1 1 1 1 1 1 1 1 1 1 1 1 1 1 1 1 1 1 1 1 1 1 1 1 1 1 1 1 1 1 1 1 1 1 1 1 1 1 1 1 1 1 1 1 1 1 1 1 1 1 1 1 1 1 1 1 1 1 1 1 1 1 1 1 1 1 1 1 1 1 1 1 1 1 1 1 1 1 1 1 1 1 1 1 1 1 1 1 1 1 1 1 1 1 1 1 1 1 1 1 1 1 1 1 1 1 1 1 1 1 1 1 1 1 1 1 1 1 1 1 1
        </DataArray>
      </Cells>
    </Piece>
  </UnstructuredGrid>
</VTKFile>
