<?xml version="1.0"?>
<VTKFile type="UnstructuredGrid" version="0.1" byte_order="LittleEndian">
  <UnstructuredGrid>
    <Piece NumberOfPoints="768" NumberOfCells="768">
      <PointData Scalars="p rho type" Vectors="v vf">
        <DataArray type="Float64" Name="p" format="ascii">
 0 0.0273822 0.0278213 0.0278413 0.0278301 0.0279795 0.0278281 0.0279085 0.0278819 0.0278684 0.0278767 0.0278598 0.0278676 0.0278664 0.0278718 0.0278741 0.0278741 0.0278718 0.0278664 0.0278676 0.0278598 0.0278767 0.0278684 0.0278819 0.0279085 0.0278281 0.0279795 0.0278301 0.0278413 0.0278213 0.0273822 0 0 0.0273822 0.0278213 0.0278413 0.0278301 0.0279795 0.0278281 0.0279085 0.0278819 0.0278684 0.0278767 0.0278598 0.0278676 0.0278664 0.0278718 0.0278741 0.0278741 0.0278718 0.0278664 0.0278676 0.0278598 0.0278767 0.0278684 0.0278819 0.0279085 0.0278281 0.0279795 0.0278301 0.0278413 0.0278213 0.0273822 0 0 0.0273822 0.0278213 0.0278413 0.0278301 0.0279795 0.0278281 0.0279085 0.0278819 0.0278684 0.0278767 0.0278598 0.0278676 0.0278664 0.0278718 0.0278741 0.0278741 0.0278718 0.0278664 0.0278676 0.0278598 0.0278767 0.0278684 0.0278819 0.0279085 0.0278281 0.0279795 0.0278301 0.0278413 0.0278213 0.0273822 0 0 0.0273822 0.0278213 0.0278413 0.0278301 0.0279795 0.0278281 0.0279085 0.0278819 0.0278684 0.0278767 0.0278598 0.0278676 0.0278664 0.0278718 0.0278741 0.0278741 0.0278718 0.0278664 0.0278676 0.0278598 0.0278767 0.0278684 0.0278819 0.0279085 0.0278281 0.0279795 0.0278301 0.0278413 0.0278213 0.0273822 0 0 0.0273822 0.0278213 0.0278413 0.0278301 0.0279795 0.0278281 0.0279085 0.0278819 0.0278684 0.0278767 0.0278598 0.0278676 0.0278664 0.0278718 0.0278741 0.0278741 0.0278718 0.0278664 0.0278676 0.0278598 0.0278767 0.0278684 0.0278819 0.0279085 0.0278281 0.0279795 0.0278301 0.0278413 0.0278213 0.0273822 0 0 0.0273822 0.0278213 0.0278413 0.0278301 0.0279795 0.0278281 0.0279085 0.0278819 0.0278684 0.0278767 0.0278598 0.0278676 0.0278664 0.0278718 0.0278741 0.0278741 0.0278718 0.0278664 0.0278676 0.0278598 0.0278767 0.0278684 0.0278819 0.0279085 0.0278281 0.0279795 0.0278301 0.0278413 0.0278213 0.0273822 0 0 0.0273822 0.0278213 0.0278413 0.0278301 0.0279795 0.0278281 0.0279085 0.0278819 0.0278684 0.0278767 0.0278598 0.0278676 0.0278664 0.0278718 0.0278741 0.0278741 0.0278718 0.0278664 0.0278676 0.0278598 0.0278767 0.0278684 0.0278819 0.0279085 0.0278281 0.0279795 0.0278301 0.0278413 0.0278213 0.0273822 0 0 0.0273822 0.0278213 0.0278413 0.0278301 0.0279795 0.0278281 0.0279085 0.0278819 0.0278684 0.0278767 0.0278598 0.0278676 0.0278664 0.0278718 0.0278741 0.0278741 0.0278718 0.0278664 0.0278676 0.0278598 0.0278767 0.0278684 0.0278819 0.0279085 0.0278281 0.0279795 0.0278301 0.0278413 0.0278213 0.0273822 0 0 0.0273822 0.0278213 0.0278413 0.0278301 0.0279795 0.0278281 0.0279085 0.0278819 0.0278684 0.0278767 0.0278598 0.0278676 0.0278664 0.0278718 0.0278741 0.0278741 0.0278718 0.0278664 0.0278676 0.0278598 0.0278767 0.0278684 0.0278819 0.0279085 0.0278281 0.0279795 0.0278301 0.0278413 0.0278213 0.0273822 0 0 0.0273822 0.0278213 0.0278413 0.0278301 0.0279795 0.0278281 0.0279085 0.0278819 0.0278684 0.0278767 0.0278598 0.0278676 0.0278664 0.0278718 0.0278741 0.0278741 0.0278718 0.0278664 0.0278676 0.0278598 0.0278767 0.0278684 0.0278819 0.0279085 0.0278281 0.0279795 0.0278301 0.0278413 0.0278213 0.0273822 0 0 0.0273822 0.0278213 0.0278413 0.0278301 0.0279795 0.0278281 0.0279085 0.0278819 0.0278684 0.0278767 0.0278598 0.0278676 0.0278664 0.0278718 0.0278741 0.0278741 0.0278718 0.0278664 0.0278676 0.0278598 0.0278767 0.0278684 0.0278819 0.0279085 0.0278281 0.0279795 0.0278301 0.0278413 0.0278213 0.0273822 0 0 0.0273822 0.0278213 0.0278413 0.0278301 0.0279795 0.0278281 0.0279085 0.0278819 0.0278684 0.0278767 0.0278598 0.0278676 0.0278664 0.0278718 0.0278741 0.0278741 0.0278718 0.0278664 0.0278676 0.0278598 0.0278767 0.0278684 0.0278819 0.0279085 0.0278281 0.0279795 0.0278301 0.0278413 0.0278213 0.0273822 0 0 0.0273822 0.0278213 0.0278413 0.0278301 0.0279795 0.0278281 0.0279085 0.0278819 0.0278684 0.0278767 0.0278598 0.0278676 0.0278664 0.0278718 0.0278741 0.0278741 0.0278718 0.0278664 0.0278676 0.0278598 0.0278767 0.0278684 0.0278819 0.0279085 0.0278281 0.0279795 0.0278301 0.0278413 0.0278213 0.0273822 0 0 0.0273822 0.0278213 0.0278413 0.0278301 0.0279795 0.0278281 0.0279085 0.0278819 0.0278684 0.0278767 0.0278598 0.0278676 0.0278664 0.0278718 0.0278741 0.0278741 0.0278718 0.0278664 0.0278676 0.0278598 0.0278767 0.0278684 0.0278819 0.0279085 0.0278281 0.0279795 0.0278301 0.0278413 0.0278213 0.0273822 0 0 0.0273822 0.0278213 0.0278413 0.0278301 0.0279795 0.0278281 0.0279085 0.0278819 0.0278684 0.0278767 0.0278598 0.0278676 0.0278664 0.0278718 0.0278741 0.0278741 0.0278718 0.0278664 0.0278676 0.0278598 0.0278767 0.0278684 0.0278819 0.0279085 0.0278281 0.0279795 0.0278301 0.0278413 0.0278213 0.0273822 0 0 0.0273822 0.0278213 0.0278413 0.0278301 0.0279795 0.0278281 0.0279085 0.0278819 0.0278684 0.0278767 0.0278598 0.0278676 0.0278664 0.0278718 0.0278741 0.0278741 0.0278718 0.0278664 0.0278676 0.0278598 0.0278767 0.0278684 0.0278819 0.0279085 0.0278281 0.0279795 0.0278301 0.0278413 0.0278213 0.0273822 0 0 0.0273822 0.0278213 0.0278413 0.0278301 0.0279795 0.0278281 0.0279085 0.0278819 0.0278684 0.0278767 0.0278598 0.0278676 0.0278664 0.0278718 0.0278741 0.0278741 0.0278718 0.0278664 0.0278676 0.0278598 0.0278767 0.0278684 0.0278819 0.0279085 0.0278281 0.0279795 0.0278301 0.0278413 0.0278213 0.0273822 0 0 0.0273822 0.0278213 0.0278413 0.0278301 0.0279795 0.0278281 0.0279085 0.0278819 0.0278684 0.0278767 0.0278598 0.0278676 0.0278664 0.0278718 0.0278741 0.0278741 0.0278718 0.0278664 0.0278676 0.0278598 0.0278767 0.0278684 0.0278819 0.0279085 0.0278281 0.0279795 0.0278301 0.0278413 0.0278213 0.0273822 0 0 0.0273822 0.0278213 0.0278413 0.0278301 0.0279795 0.0278281 0.0279085 0.0278819 0.0278684 0.0278767 0.0278598 0.0278676 0.0278664 0.0278718 0.0278741 0.0278741 0.0278718 0.0278664 0.0278676 0.0278598 0.0278767 0.0278684 0.0278819 0.0279085 0.0278281 0.0279795 0.0278301 0.0278413 0.0278213 0.0273822 0 0 0.0273822 0.0278213 0.0278413 0.0278301 0.0279795 0.0278281 0.0279085 0.0278819 0.0278684 0.0278767 0.0278598 0.0278676 0.0278664 0.0278718 0.0278741 0.0278741 0.0278718 0.0278664 0.0278676 0.0278598 0.0278767 0.0278684 0.0278819 0.0279085 0.0278281 0.0279795 0.0278301 0.0278413 0.0278213 0.0273822 0 0 0.0273822 0.0278213 0.0278413 0.0278301 0.0279795 0.0278281 0.0279085 0.0278819 0.0278684 0.0278767 0.0278598 0.0278676 0.0278664 0.0278718 0.0278741 0.0278741 0.0278718 0.0278664 0.0278676 0.0278598 0.0278767 0.0278684 0.0278819 0.0279085 0.0278281 0.0279795 0.0278301 0.0278413 0.0278213 0.0273822 0 0 0.0273822 0.0278213 0.0278413 0.0278301 0.0279795 0.0278281 0.0279085 0.0278819 0.0278684 0.0278767 0.0278598 0.0278676 0.0278664 0.0278718 0.0278741 0.0278741 0.0278718 0.0278664 0.0278676 0.0278598 0.0278767 0.0278684 0.0278819 0.0279085 0.0278281 0.0279795 0.0278301 0.0278413 0.0278213 0.0273822 0 0 0.0273822 0.0278213 0.0278413 0.0278301 0.0279795 0.0278281 0.0279085 0.0278819 0.0278684 0.0278767 0.0278598 0.0278676 0.0278664 0.0278718 0.0278741 0.0278741 0.0278718 0.0278664 0.0278676 0.0278598 0.0278767 0.0278684 0.0278819 0.0279085 0.0278281 0.0279795 0.0278301 0.0278413 0.0278213 0.0273822 0 0 0.0273822 0.0278213 0.0278413 0.0278301 0.0279795 0.0278281 0.0279085 0.0278819 0.0278684 0.0278767 0.0278598 0.0278676 0.0278664 0.0278718 0.0278741 0.0278741 0.0278718 0.0278664 0.0278676 0.0278598 0.0278767 0.0278684 0.0278819 0.0279085 0.0278281 0.0279795 0.0278301 0.0278413 0.0278213 0.0273822 0
        </DataArray>
        <DataArray type="Float64" Name="rho" format="ascii">
 1000 1001.14 1001.16 1001.16 1001.16 1001.16 1001.16 1001.16 1001.16 1001.16 1001.16 1001.16 1001.16 1001.16 1001.16 1001.16 1001.16 1001.16 1001.16 1001.16 1001.16 1001.16 1001.16 1001.16 1001.16 1001.16 1001.16 1001.16 1001.16 1001.16 1001.14 1000 1000 1001.14 1001.16 1001.16 1001.16 1001.16 1001.16 1001.16 1001.16 1001.16 1001.16 1001.16 1001.16 1001.16 1001.16 1001.16 1001.16 1001.16 1001.16 1001.16 1001.16 1001.16 1001.16 1001.16 1001.16 1001.16 1001.16 1001.16 1001.16 1001.16 1001.14 1000 1000 1001.14 1001.16 1001.16 1001.16 1001.16 1001.16 1001.16 1001.16 1001.16 1001.16 1001.16 1001.16 1001.16 1001.16 1001.16 1001.16 1001.16 1001.16 1001.16 1001.16 1001.16 1001.16 1001.16 1001.16 1001.16 1001.16 1001.16 1001.16 1001.16 1001.14 1000 1000 1001.14 1001.16 1001.16 1001.16 1001.16 1001.16 1001.16 1001.16 1001.16 1001.16 1001.16 1001.16 1001.16 1001.16 1001.16 1001.16 1001.16 1001.16 1001.16 1001.16 1001.16 1001.16 1001.16 1001.16 1001.16 1001.16 1001.16 1001.16 1001.16 1001.14 1000 1000 1001.14 1001.16 1001.16 1001.16 1001.16 1001.16 1001.16 1001.16 1001.16 1001.16 1001.16 1001.16 1001.16 1001.16 1001.16 1001.16 1001.16 1001.16 1001.16 1001.16 1001.16 1001.16 1001.16 1001.16 1001.16 1001.16 1001.16 1001.16 1001.16 1001.14 1000 1000 1001.14 1001.16 1001.16 1001.16 1001.16 1001.16 1001.16 1001.16 1001.16 1001.16 1001.16 1001.16 1001.16 1001.16 1001.16 1001.16 1001.16 1001.16 1001.16 1001.16 1001.16 1001.16 1001.16 1001.16 1001.16 1001.16 1001.16 1001.16 1001.16 1001.14 1000 1000 1001.14 1001.16 1001.16 1001.16 1001.16 1001.16 1001.16 1001.16 1001.16 1001.16 1001.16 1001.16 1001.16 1001.16 1001.16 1001.16 1001.16 1001.16 1001.16 1001.16 1001.16 1001.16 1001.16 1001.16 1001.16 1001.16 1001.16 1001.16 1001.16 1001.14 1000 1000 1001.14 1001.16 1001.16 1001.16 1001.16 1001.16 1001.16 1001.16 1001.16 1001.16 1001.16 1001.16 1001.16 1001.16 1001.16 1001.16 1001.16 1001.16 1001.16 1001.16 1001.16 1001.16 1001.16 1001.16 1001.16 1001.16 1001.16 1001.16 1001.16 1001.14 1000 1000 1001.14 1001.16 1001.16 1001.16 1001.16 1001.16 1001.16 1001.16 1001.16 1001.16 1001.16 1001.16 1001.16 1001.16 1001.16 1001.16 1001.16 1001.16 1001.16 1001.16 1001.16 1001.16 1001.16 1001.16 1001.16 1001.16 1001.16 1001.16 1001.16 1001.14 1000 1000 1001.14 1001.16 1001.16 1001.16 1001.16 1001.16 1001.16 1001.16 1001.16 1001.16 1001.16 1001.16 1001.16 1001.16 1001.16 1001.16 1001.16 1001.16 1001.16 1001.16 1001.16 1001.16 1001.16 1001.16 1001.16 1001.16 1001.16 1001.16 1001.16 1001.14 1000 1000 1001.14 1001.16 1001.16 1001.16 1001.16 1001.16 1001.16 1001.16 1001.16 1001.16 1001.16 1001.16 1001.16 1001.16 1001.16 1001.16 1001.16 1001.16 1001.16 1001.16 1001.16 1001.16 1001.16 1001.16 1001.16 1001.16 1001.16 1001.16 1001.16 1001.14 1000 1000 1001.14 1001.16 1001.16 1001.16 1001.16 1001.16 1001.16 1001.16 1001.16 1001.16 1001.16 1001.16 1001.16 1001.16 1001.16 1001.16 1001.16 1001.16 1001.16 1001.16 1001.16 1001.16 1001.16 1001.16 1001.16 1001.16 1001.16 1001.16 1001.16 1001.14 1000 1000 1001.14 1001.16 1001.16 1001.16 1001.16 1001.16 1001.16 1001.16 1001.16 1001.16 1001.16 1001.16 1001.16 1001.16 1001.16 1001.16 1001.16 1001.16 1001.16 1001.16 1001.16 1001.16 1001.16 1001.16 1001.16 1001.16 1001.16 1001.16 1001.16 1001.14 1000 1000 1001.14 1001.16 1001.16 1001.16 1001.16 1001.16 1001.16 1001.16 1001.16 1001.16 1001.16 1001.16 1001.16 1001.16 1001.16 1001.16 1001.16 1001.16 1001.16 1001.16 1001.16 1001.16 1001.16 1001.16 1001.16 1001.16 1001.16 1001.16 1001.16 1001.14 1000 1000 1001.14 1001.16 1001.16 1001.16 1001.16 1001.16 1001.16 1001.16 1001.16 1001.16 1001.16 1001.16 1001.16 1001.16 1001.16 1001.16 1001.16 1001.16 1001.16 1001.16 1001.16 1001.16 1001.16 1001.16 1001.16 1001.16 1001.16 1001.16 1001.16 1001.14 1000 1000 1001.14 1001.16 1001.16 1001.16 1001.16 1001.16 1001.16 1001.16 1001.16 1001.16 1001.16 1001.16 1001.16 1001.16 1001.16 1001.16 1001.16 1001.16 1001.16 1001.16 1001.16 1001.16 1001.16 1001.16 1001.16 1001.16 1001.16 1001.16 1001.16 1001.14 1000 1000 1001.14 1001.16 1001.16 1001.16 1001.16 1001.16 1001.16 1001.16 1001.16 1001.16 1001.16 1001.16 1001.16 1001.16 1001.16 1001.16 1001.16 1001.16 1001.16 1001.16 1001.16 1001.16 1001.16 1001.16 1001.16 1001.16 1001.16 1001.16 1001.16 1001.14 1000 1000 1001.14 1001.16 1001.16 1001.16 1001.16 1001.16 1001.16 1001.16 1001.16 1001.16 1001.16 1001.16 1001.16 1001.16 1001.16 1001.16 1001.16 1001.16 1001.16 1001.16 1001.16 1001.16 1001.16 1001.16 1001.16 1001.16 1001.16 1001.16 1001.16 1001.14 1000 1000 1001.14 1001.16 1001.16 1001.16 1001.16 1001.16 1001.16 1001.16 1001.16 1001.16 1001.16 1001.16 1001.16 1001.16 1001.16 1001.16 1001.16 1001.16 1001.16 1001.16 1001.16 1001.16 1001.16 1001.16 1001.16 1001.16 1001.16 1001.16 1001.16 1001.14 1000 1000 1001.14 1001.16 1001.16 1001.16 1001.16 1001.16 1001.16 1001.16 1001.16 1001.16 1001.16 1001.16 1001.16 1001.16 1001.16 1001.16 1001.16 1001.16 1001.16 1001.16 1001.16 1001.16 1001.16 1001.16 1001.16 1001.16 1001.16 1001.16 1001.16 1001.14 1000 1000 1001.14 1001.16 1001.16 1001.16 1001.16 1001.16 1001.16 1001.16 1001.16 1001.16 1001.16 1001.16 1001.16 1001.16 1001.16 1001.16 1001.16 1001.16 1001.16 1001.16 1001.16 1001.16 1001.16 1001.16 1001.16 1001.16 1001.16 1001.16 1001.16 1001.14 1000 1000 1001.14 1001.16 1001.16 1001.16 1001.16 1001.16 1001.16 1001.16 1001.16 1001.16 1001.16 1001.16 1001.16 1001.16 1001.16 1001.16 1001.16 1001.16 1001.16 1001.16 1001.16 1001.16 1001.16 1001.16 1001.16 1001.16 1001.16 1001.16 1001.16 1001.14 1000 1000 1001.14 1001.16 1001.16 1001.16 1001.16 1001.16 1001.16 1001.16 1001.16 1001.16 1001.16 1001.16 1001.16 1001.16 1001.16 1001.16 1001.16 1001.16 1001.16 1001.16 1001.16 1001.16 1001.16 1001.16 1001.16 1001.16 1001.16 1001.16 1001.16 1001.14 1000 1000 1001.14 1001.16 1001.16 1001.16 1001.16 1001.16 1001.16 1001.16 1001.16 1001.16 1001.16 1001.16 1001.16 1001.16 1001.16 1001.16 1001.16 1001.16 1001.16 1001.16 1001.16 1001.16 1001.16 1001.16 1001.16 1001.16 1001.16 1001.16 1001.16 1001.14 1000
        </DataArray>
        <DataArray type="Int32" Name="type" format="ascii">
 1 1 1 1 0 0 0 0 0 0 0 0 0 0 0 0 0 0 0 0 0 0 0 0 0 0 0 0 1 1 1 1 1 1 1 1 0 0 0 0 0 0 0 0 0 0 0 0 0 0 0 0 0 0 0 0 0 0 0 0 1 1 1 1 1 1 1 1 0 0 0 0 0 0 0 0 0 0 0 0 0 0 0 0 0 0 0 0 0 0 0 0 1 1 1 1 1 1 1 1 0 0 0 0 0 0 0 0 0 0 0 0 0 0 0 0 0 0 0 0 0 0 0 0 1 1 1 1 1 1 1 1 0 0 0 0 0 0 0 0 0 0 0 0 0 0 0 0 0 0 0 0 0 0 0 0 1 1 1 1 1 1 1 1 0 0 0 0 0 0 0 0 0 0 0 0 0 0 0 0 0 0 0 0 0 0 0 0 1 1 1 1 1 1 1 1 0 0 0 0 0 0 0 0 0 0 0 0 0 0 0 0 0 0 0 0 0 0 0 0 1 1 1 1 1 1 1 1 0 0 0 0 0 0 0 0 0 0 0 0 0 0 0 0 0 0 0 0 0 0 0 0 1 1 1 1 1 1 1 1 0 0 0 0 0 0 0 0 0 0 0 0 0 0 0 0 0 0 0 0 0 0 0 0 1 1 1 1 1 1 1 1 0 0 0 0 0 0 0 0 0 0 0 0 0 0 0 0 0 0 0 0 0 0 0 0 1 1 1 1 1 1 1 1 0 0 0 0 0 0 0 0 0 0 0 0 0 0 0 0 0 0 0 0 0 0 0 0 1 1 1 1 1 1 1 1 0 0 0 0 0 0 0 0 0 0 0 0 0 0 0 0 0 0 0 0 0 0 0 0 1 1 1 1 1 1 1 1 0 0 0 0 0 0 0 0 0 0 0 0 0 0 0 0 0 0 0 0 0 0 0 0 1 1 1 1 1 1 1 1 0 0 0 0 0 0 0 0 0 0 0 0 0 0 0 0 0 0 0 0 0 0 0 0 1 1 1 1 1 1 1 1 0 0 0 0 0 0 0 0 0 0 0 0 0 0 0 0 0 0 0 0 0 0 0 0 1 1 1 1 1 1 1 1 0 0 0 0 0 0 0 0 0 0 0 0 0 0 0 0 0 0 0 0 0 0 0 0 1 1 1 1 1 1 1 1 0 0 0 0 0 0 0 0 0 0 0 0 0 0 0 0 0 0 0 0 0 0 0 0 1 1 1 1 1 1 1 1 0 0 0 0 0 0 0 0 0 0 0 0 0 0 0 0 0 0 0 0 0 0 0 0 1 1 1 1 1 1 1 1 0 0 0 0 0 0 0 0 0 0 0 0 0 0 0 0 0 0 0 0 0 0 0 0 1 1 1 1 1 1 1 1 0 0 0 0 0 0 0 0 0 0 0 0 0 0 0 0 0 0 0 0 0 0 0 0 1 1 1 1 1 1 1 1 0 0 0 0 0 0 0 0 0 0 0 0 0 0 0 0 0 0 0 0 0 0 0 0 1 1 1 1 1 1 1 1 0 0 0 0 0 0 0 0 0 0 0 0 0 0 0 0 0 0 0 0 0 0 0 0 1 1 1 1 1 1 1 1 0 0 0 0 0 0 0 0 0 0 0 0 0 0 0 0 0 0 0 0 0 0 0 0 1 1 1 1 1 1 1 1 0 0 0 0 0 0 0 0 0 0 0 0 0 0 0 0 0 0 0 0 0 0 0 0 1 1 1 1
        </DataArray>
        <DataArray type="Float64" NumberOfComponents="3" Name="v" format="ascii">
 0 0 0.0 0 0 0.0 0 0 0.0 0 0 0.0 0.000258131 -8.6856e-08 0.0 0.000713936 -1.40808e-08 0.0 0.00113221 6.17937e-08 0.0 0.00150828 2.53577e-08 0.0 0.00184253 6.39093e-08 0.0 0.00213495 5.52471e-08 0.0 0.00238555 4.02697e-08 0.0 0.00259437 2.00252e-08 0.0 0.00276141 -7.48792e-09 0.0 0.00288669 -2.03104e-08 0.0 0.00297021 -2.16369e-08 0.0 0.00301197 -8.81134e-09 0.0 0.00301197 8.81134e-09 0.0 0.00297021 2.16369e-08 0.0 0.00288669 2.03104e-08 0.0 0.00276141 7.48792e-09 0.0 0.00259437 -2.00252e-08 0.0 0.00238555 -4.02697e-08 0.0 0.00213495 -5.52471e-08 0.0 0.00184253 -6.39093e-08 0.0 0.00150828 -2.53577e-08 0.0 0.00113221 -6.17937e-08 0.0 0.000713936 1.40808e-08 0.0 0.000258131 8.6856e-08 0.0 0 0 0.0 0 0 0.0 0 0 0.0 0 0 0.0 0 0 0.0 0 0 0.0 0 0 0.0 0 0 0.0 0.000258131 -8.6856e-08 0.0 0.000713936 -1.40808e-08 0.0 0.00113221 6.17937e-08 0.0 0.00150828 2.53577e-08 0.0 0.00184253 6.39093e-08 0.0 0.00213495 5.52471e-08 0.0 0.00238555 4.02697e-08 0.0 0.00259437 2.00252e-08 0.0 0.00276141 -7.48792e-09 0.0 0.00288669 -2.03104e-08 0.0 0.00297021 -2.16369e-08 0.0 0.00301197 -8.81134e-09 0.0 0.00301197 8.81134e-09 0.0 0.00297021 2.16369e-08 0.0 0.00288669 2.03104e-08 0.0 0.00276141 7.48792e-09 0.0 0.00259437 -2.00252e-08 0.0 0.00238555 -4.02697e-08 0.0 0.00213495 -5.52471e-08 0.0 0.00184253 -6.39093e-08 0.0 0.00150828 -2.53577e-08 0.0 0.00113221 -6.17937e-08 0.0 0.000713936 1.40808e-08 0.0 0.000258131 8.6856e-08 0.0 0 0 0.0 0 0 0.0 0 0 0.0 0 0 0.0 0 0 0.0 0 0 0.0 0 0 0.0 0 0 0.0 0.000258131 -8.6856e-08 0.0 0.000713936 -1.40808e-08 0.0 0.00113221 6.17937e-08 0.0 0.00150828 2.53577e-08 0.0 0.00184253 6.39093e-08 0.0 0.00213495 5.52471e-08 0.0 0.00238555 4.02697e-08 0.0 0.00259437 2.00252e-08 0.0 0.00276141 -7.48792e-09 0.0 0.00288669 -2.03104e-08 0.0 0.00297021 -2.16369e-08 0.0 0.00301197 -8.81134e-09 0.0 0.00301197 8.81134e-09 0.0 0.00297021 2.16369e-08 0.0 0.00288669 2.03104e-08 0.0 0.00276141 7.48792e-09 0.0 0.00259437 -2.00252e-08 0.0 0.00238555 -4.02697e-08 0.0 0.00213495 -5.52471e-08 0.0 0.00184253 -6.39093e-08 0.0 0.00150828 -2.53577e-08 0.0 0.00113221 -6.17937e-08 0.0 0.000713936 1.40808e-08 0.0 0.000258131 8.6856e-08 0.0 0 0 0.0 0 0 0.0 0 0 0.0 0 0 0.0 0 0 0.0 0 0 0.0 0 0 0.0 0 0 0.0 0.000258131 -8.6856e-08 0.0 0.000713936 -1.40808e-08 0.0 0.00113221 6.17937e-08 0.0 0.00150828 2.53577e-08 0.0 0.00184253 6.39093e-08 0.0 0.00213495 5.52471e-08 0.0 0.00238555 4.02697e-08 0.0 0.00259437 2.00252e-08 0.0 0.00276141 -7.48792e-09 0.0 0.00288669 -2.03104e-08 0.0 0.00297021 -2.16369e-08 0.0 0.00301197 -8.81134e-09 0.0 0.00301197 8.81134e-09 0.0 0.00297021 2.16369e-08 0.0 0.00288669 2.03104e-08 0.0 0.00276141 7.48792e-09 0.0 0.00259437 -2.00252e-08 0.0 0.00238555 -4.02697e-08 0.0 0.00213495 -5.52471e-08 0.0 0.00184253 -6.39093e-08 0.0 0.00150828 -2.53577e-08 0.0 0.00113221 -6.17937e-08 0.0 0.000713936 1.40808e-08 0.0 0.000258131 8.6856e-08 0.0 0 0 0.0 0 0 0.0 0 0 0.0 0 0 0.0 0 0 0.0 0 0 0.0 0 0 0.0 0 0 0.0 0.000258131 -8.6856e-08 0.0 0.000713936 -1.40808e-08 0.0 0.00113221 6.17937e-08 0.0 0.00150828 2.53577e-08 0.0 0.00184253 6.39093e-08 0.0 0.00213495 5.52471e-08 0.0 0.00238555 4.02697e-08 0.0 0.00259437 2.00252e-08 0.0 0.00276141 -7.48792e-09 0.0 0.00288669 -2.03104e-08 0.0 0.00297021 -2.16369e-08 0.0 0.00301197 -8.81134e-09 0.0 0.00301197 8.81134e-09 0.0 0.00297021 2.16369e-08 0.0 0.00288669 2.03104e-08 0.0 0.00276141 7.48792e-09 0.0 0.00259437 -2.00252e-08 0.0 0.00238555 -4.02697e-08 0.0 0.00213495 -5.52471e-08 0.0 0.00184253 -6.39093e-08 0.0 0.00150828 -2.53577e-08 0.0 0.00113221 -6.17937e-08 0.0 0.000713936 1.40808e-08 0.0 0.000258131 8.6856e-08 0.0 0 0 0.0 0 0 0.0 0 0 0.0 0 0 0.0 0 0 0.0 0 0 0.0 0 0 0.0 0 0 0.0 0.000258131 -8.6856e-08 0.0 0.000713936 -1.40808e-08 0.0 0.00113221 6.17937e-08 0.0 0.00150828 2.53577e-08 0.0 0.00184253 6.39093e-08 0.0 0.00213495 5.52471e-08 0.0 0.00238555 4.02697e-08 0.0 0.00259437 2.00252e-08 0.0 0.00276141 -7.48792e-09 0.0 0.00288669 -2.03104e-08 0.0 0.00297021 -2.16369e-08 0.0 0.00301197 -8.81134e-09 0.0 0.00301197 8.81134e-09 0.0 0.00297021 2.16369e-08 0.0 0.00288669 2.03104e-08 0.0 0.00276141 7.48792e-09 0.0 0.00259437 -2.00252e-08 0.0 0.00238555 -4.02697e-08 0.0 0.00213495 -5.52471e-08 0.0 0.00184253 -6.39093e-08 0.0 0.00150828 -2.53577e-08 0.0 0.00113221 -6.17937e-08 0.0 0.000713936 1.40808e-08 0.0 0.000258131 8.6856e-08 0.0 0 0 0.0 0 0 0.0 0 0 0.0 0 0 0.0 0 0 0.0 0 0 0.0 0 0 0.0 0 0 0.0 0.000258131 -8.6856e-08 0.0 0.000713936 -1.40808e-08 0.0 0.00113221 6.17937e-08 0.0 0.00150828 2.53577e-08 0.0 0.00184253 6.39093e-08 0.0 0.00213495 5.52471e-08 0.0 0.00238555 4.02697e-08 0.0 0.00259437 2.00252e-08 0.0 0.00276141 -7.48792e-09 0.0 0.00288669 -2.03104e-08 0.0 0.00297021 -2.16369e-08 0.0 0.00301197 -8.81134e-09 0.0 0.00301197 8.81134e-09 0.0 0.00297021 2.16369e-08 0.0 0.00288669 2.03104e-08 0.0 0.00276141 7.48792e-09 0.0 0.00259437 -2.00252e-08 0.0 0.00238555 -4.02697e-08 0.0 0.00213495 -5.52471e-08 0.0 0.00184253 -6.39093e-08 0.0 0.00150828 -2.53577e-08 0.0 0.00113221 -6.17937e-08 0.0 0.000713936 1.40808e-08 0.0 0.000258131 8.6856e-08 0.0 0 0 0.0 0 0 0.0 0 0 0.0 0 0 0.0 0 0 0.0 0 0 0.0 0 0 0.0 0 0 0.0 0.000258131 -8.6856e-08 0.0 0.000713936 -1.40808e-08 0.0 0.00113221 6.17937e-08 0.0 0.00150828 2.53577e-08 0.0 0.00184253 6.39093e-08 0.0 0.00213495 5.52471e-08 0.0 0.00238555 4.02697e-08 0.0 0.00259437 2.00252e-08 0.0 0.00276141 -7.48792e-09 0.0 0.00288669 -2.03104e-08 0.0 0.00297021 -2.16369e-08 0.0 0.00301197 -8.81134e-09 0.0 0.00301197 8.81134e-09 0.0 0.00297021 2.16369e-08 0.0 0.00288669 2.03104e-08 0.0 0.00276141 7.48792e-09 0.0 0.00259437 -2.00252e-08 0.0 0.00238555 -4.02697e-08 0.0 0.00213495 -5.52471e-08 0.0 0.00184253 -6.39093e-08 0.0 0.00150828 -2.53577e-08 0.0 0.00113221 -6.17937e-08 0.0 0.000713936 1.40808e-08 0.0 0.000258131 8.6856e-08 0.0 0 0 0.0 0 0 0.0 0 0 0.0 0 0 0.0 0 0 0.0 0 0 0.0 0 0 0.0 0 0 0.0 0.000258131 -8.6856e-08 0.0 0.000713936 -1.40808e-08 0.0 0.00113221 6.17937e-08 0.0 0.00150828 2.53577e-08 0.0 0.00184253 6.39093e-08 0.0 0.00213495 5.52471e-08 0.0 0.00238555 4.02697e-08 0.0 0.00259437 2.00252e-08 0.0 0.00276141 -7.48792e-09 0.0 0.00288669 -2.03104e-08 0.0 0.00297021 -2.16369e-08 0.0 0.00301197 -8.81134e-09 0.0 0.00301197 8.81134e-09 0.0 0.00297021 2.16369e-08 0.0 0.00288669 2.03104e-08 0.0 0.00276141 7.48792e-09 0.0 0.00259437 -2.00252e-08 0.0 0.00238555 -4.02697e-08 0.0 0.00213495 -5.52471e-08 0.0 0.00184253 -6.39093e-08 0.0 0.00150828 -2.53577e-08 0.0 0.00113221 -6.17937e-08 0.0 0.000713936 1.40808e-08 0.0 0.000258131 8.6856e-08 0.0 0 0 0.0 0 0 0.0 0 0 0.0 0 0 0.0 0 0 0.0 0 0 0.0 0 0 0.0 0 0 0.0 0.000258131 -8.6856e-08 0.0 0.000713936 -1.40808e-08 0.0 0.00113221 6.17937e-08 0.0 0.00150828 2.53577e-08 0.0 0.00184253 6.39093e-08 0.0 0.00213495 5.52471e-08 0.0 0.00238555 4.02697e-08 0.0 0.00259437 2.00252e-08 0.0 0.00276141 -7.48792e-09 0.0 0.00288669 -2.03104e-08 0.0 0.00297021 -2.16369e-08 0.0 0.00301197 -8.81134e-09 0.0 0.00301197 8.81134e-09 0.0 0.00297021 2.16369e-08 0.0 0.00288669 2.03104e-08 0.0 0.00276141 7.48792e-09 0.0 0.00259437 -2.00252e-08 0.0 0.00238555 -4.02697e-08 0.0 0.00213495 -5.52471e-08 0.0 0.00184253 -6.39093e-08 0.0 0.00150828 -2.53577e-08 0.0 0.00113221 -6.17937e-08 0.0 0.000713936 1.40808e-08 0.0 0.000258131 8.6856e-08 0.0 0 0 0.0 0 0 0.0 0 0 0.0 0 0 0.0 0 0 0.0 0 0 0.0 0 0 0.0 0 0 0.0 0.000258131 -8.6856e-08 0.0 0.000713936 -1.40808e-08 0.0 0.00113221 6.17937e-08 0.0 0.00150828 2.53577e-08 0.0 0.00184253 6.39093e-08 0.0 0.00213495 5.52471e-08 0.0 0.00238555 4.02697e-08 0.0 0.00259437 2.00252e-08 0.0 0.00276141 -7.48792e-09 0.0 0.00288669 -2.03104e-08 0.0 0.00297021 -2.16369e-08 0.0 0.00301197 -8.81134e-09 0.0 0.00301197 8.81134e-09 0.0 0.00297021 2.16369e-08 0.0 0.00288669 2.03104e-08 0.0 0.00276141 7.48792e-09 0.0 0.00259437 -2.00252e-08 0.0 0.00238555 -4.02697e-08 0.0 0.00213495 -5.52471e-08 0.0 0.00184253 -6.39093e-08 0.0 0.00150828 -2.53577e-08 0.0 0.00113221 -6.17937e-08 0.0 0.000713936 1.40808e-08 0.0 0.000258131 8.6856e-08 0.0 0 0 0.0 0 0 0.0 0 0 0.0 0 0 0.0 0 0 0.0 0 0 0.0 0 0 0.0 0 0 0.0 0.000258131 -8.6856e-08 0.0 0.000713936 -1.40808e-08 0.0 0.00113221 6.17937e-08 0.0 0.00150828 2.53577e-08 0.0 0.00184253 6.39093e-08 0.0 0.00213495 5.52471e-08 0.0 0.00238555 4.02697e-08 0.0 0.00259437 2.00252e-08 0.0 0.00276141 -7.48792e-09 0.0 0.00288669 -2.03104e-08 0.0 0.00297021 -2.16369e-08 0.0 0.00301197 -8.81134e-09 0.0 0.00301197 8.81134e-09 0.0 0.00297021 2.16369e-08 0.0 0.00288669 2.03104e-08 0.0 0.00276141 7.48792e-09 0.0 0.00259437 -2.00252e-08 0.0 0.00238555 -4.02697e-08 0.0 0.00213495 -5.52471e-08 0.0 0.00184253 -6.39093e-08 0.0 0.00150828 -2.53577e-08 0.0 0.00113221 -6.17937e-08 0.0 0.000713936 1.40808e-08 0.0 0.000258131 8.6856e-08 0.0 0 0 0.0 0 0 0.0 0 0 0.0 0 0 0.0 0 0 0.0 0 0 0.0 0 0 0.0 0 0 0.0 0.000258131 -8.6856e-08 0.0 0.000713936 -1.40808e-08 0.0 0.00113221 6.17937e-08 0.0 0.00150828 2.53577e-08 0.0 0.00184253 6.39093e-08 0.0 0.00213495 5.52471e-08 0.0 0.00238555 4.02697e-08 0.0 0.00259437 2.00252e-08 0.0 0.00276141 -7.48792e-09 0.0 0.00288669 -2.03104e-08 0.0 0.00297021 -2.16369e-08 0.0 0.00301197 -8.81134e-09 0.0 0.00301197 8.81134e-09 0.0 0.00297021 2.16369e-08 0.0 0.00288669 2.03104e-08 0.0 0.00276141 7.48792e-09 0.0 0.00259437 -2.00252e-08 0.0 0.00238555 -4.02697e-08 0.0 0.00213495 -5.52471e-08 0.0 0.00184253 -6.39093e-08 0.0 0.00150828 -2.53577e-08 0.0 0.00113221 -6.17937e-08 0.0 0.000713936 1.40808e-08 0.0 0.000258131 8.6856e-08 0.0 0 0 0.0 0 0 0.0 0 0 0.0 0 0 0.0 0 0 0.0 0 0 0.0 0 0 0.0 0 0 0.0 0.000258131 -8.6856e-08 0.0 0.000713936 -1.40808e-08 0.0 0.00113221 6.17937e-08 0.0 0.00150828 2.53577e-08 0.0 0.00184253 6.39093e-08 0.0 0.00213495 5.52471e-08 0.0 0.00238555 4.02697e-08 0.0 0.00259437 2.00252e-08 0.0 0.00276141 -7.48792e-09 0.0 0.00288669 -2.03104e-08 0.0 0.00297021 -2.16369e-08 0.0 0.00301197 -8.81134e-09 0.0 0.00301197 8.81134e-09 0.0 0.00297021 2.16369e-08 0.0 0.00288669 2.03104e-08 0.0 0.00276141 7.48792e-09 0.0 0.00259437 -2.00252e-08 0.0 0.00238555 -4.02697e-08 0.0 0.00213495 -5.52471e-08 0.0 0.00184253 -6.39093e-08 0.0 0.00150828 -2.53577e-08 0.0 0.00113221 -6.17937e-08 0.0 0.000713936 1.40808e-08 0.0 0.000258131 8.6856e-08 0.0 0 0 0.0 0 0 0.0 0 0 0.0 0 0 0.0 0 0 0.0 0 0 0.0 0 0 0.0 0 0 0.0 0.000258131 -8.6856e-08 0.0 0.000713936 -1.40808e-08 0.0 0.00113221 6.17937e-08 0.0 0.00150828 2.53577e-08 0.0 0.00184253 6.39093e-08 0.0 0.00213495 5.52471e-08 0.0 0.00238555 4.02697e-08 0.0 0.00259437 2.00252e-08 0.0 0.00276141 -7.48792e-09 0.0 0.00288669 -2.03104e-08 0.0 0.00297021 -2.16369e-08 0.0 0.00301197 -8.81134e-09 0.0 0.00301197 8.81134e-09 0.0 0.00297021 2.16369e-08 0.0 0.00288669 2.03104e-08 0.0 0.00276141 7.48792e-09 0.0 0.00259437 -2.00252e-08 0.0 0.00238555 -4.02697e-08 0.0 0.00213495 -5.52471e-08 0.0 0.00184253 -6.39093e-08 0.0 0.00150828 -2.53577e-08 0.0 0.00113221 -6.17937e-08 0.0 0.000713936 1.40808e-08 0.0 0.000258131 8.6856e-08 0.0 0 0 0.0 0 0 0.0 0 0 0.0 0 0 0.0 0 0 0.0 0 0 0.0 0 0 0.0 0 0 0.0 0.000258131 -8.6856e-08 0.0 0.000713936 -1.40808e-08 0.0 0.00113221 6.17937e-08 0.0 0.00150828 2.53577e-08 0.0 0.00184253 6.39093e-08 0.0 0.00213495 5.52471e-08 0.0 0.00238555 4.02697e-08 0.0 0.00259437 2.00252e-08 0.0 0.00276141 -7.48792e-09 0.0 0.00288669 -2.03104e-08 0.0 0.00297021 -2.16369e-08 0.0 0.00301197 -8.81134e-09 0.0 0.00301197 8.81134e-09 0.0 0.00297021 2.16369e-08 0.0 0.00288669 2.03104e-08 0.0 0.00276141 7.48792e-09 0.0 0.00259437 -2.00252e-08 0.0 0.00238555 -4.02697e-08 0.0 0.00213495 -5.52471e-08 0.0 0.00184253 -6.39093e-08 0.0 0.00150828 -2.53577e-08 0.0 0.00113221 -6.17937e-08 0.0 0.000713936 1.40808e-08 0.0 0.000258131 8.6856e-08 0.0 0 0 0.0 0 0 0.0 0 0 0.0 0 0 0.0 0 0 0.0 0 0 0.0 0 0 0.0 0 0 0.0 0.000258131 -8.6856e-08 0.0 0.000713936 -1.40808e-08 0.0 0.00113221 6.17937e-08 0.0 0.00150828 2.53577e-08 0.0 0.00184253 6.39093e-08 0.0 0.00213495 5.52471e-08 0.0 0.00238555 4.02697e-08 0.0 0.00259437 2.00252e-08 0.0 0.00276141 -7.48792e-09 0.0 0.00288669 -2.03104e-08 0.0 0.00297021 -2.16369e-08 0.0 0.00301197 -8.81134e-09 0.0 0.00301197 8.81134e-09 0.0 0.00297021 2.16369e-08 0.0 0.00288669 2.03104e-08 0.0 0.00276141 7.48792e-09 0.0 0.00259437 -2.00252e-08 0.0 0.00238555 -4.02697e-08 0.0 0.00213495 -5.52471e-08 0.0 0.00184253 -6.39093e-08 0.0 0.00150828 -2.53577e-08 0.0 0.00113221 -6.17937e-08 0.0 0.000713936 1.40808e-08 0.0 0.000258131 8.6856e-08 0.0 0 0 0.0 0 0 0.0 0 0 0.0 0 0 0.0 0 0 0.0 0 0 0.0 0 0 0.0 0 0 0.0 0.000258131 -8.6856e-08 0.0 0.000713936 -1.40808e-08 0.0 0.00113221 6.17937e-08 0.0 0.00150828 2.53577e-08 0.0 0.00184253 6.39093e-08 0.0 0.00213495 5.52471e-08 0.0 0.00238555 4.02697e-08 0.0 0.00259437 2.00252e-08 0.0 0.00276141 -7.48792e-09 0.0 0.00288669 -2.03104e-08 0.0 0.00297021 -2.16369e-08 0.0 0.00301197 -8.81134e-09 0.0 0.00301197 8.81134e-09 0.0 0.00297021 2.16369e-08 0.0 0.00288669 2.03104e-08 0.0 0.00276141 7.48792e-09 0.0 0.00259437 -2.00252e-08 0.0 0.00238555 -4.02697e-08 0.0 0.00213495 -5.52471e-08 0.0 0.00184253 -6.39093e-08 0.0 0.00150828 -2.53577e-08 0.0 0.00113221 -6.17937e-08 0.0 0.000713936 1.40808e-08 0.0 0.000258131 8.6856e-08 0.0 0 0 0.0 0 0 0.0 0 0 0.0 0 0 0.0 0 0 0.0 0 0 0.0 0 0 0.0 0 0 0.0 0.000258131 -8.6856e-08 0.0 0.000713936 -1.40808e-08 0.0 0.00113221 6.17937e-08 0.0 0.00150828 2.53577e-08 0.0 0.00184253 6.39093e-08 0.0 0.00213495 5.52471e-08 0.0 0.00238555 4.02697e-08 0.0 0.00259437 2.00252e-08 0.0 0.00276141 -7.48792e-09 0.0 0.00288669 -2.03104e-08 0.0 0.00297021 -2.16369e-08 0.0 0.00301197 -8.81134e-09 0.0 0.00301197 8.81134e-09 0.0 0.00297021 2.16369e-08 0.0 0.00288669 2.03104e-08 0.0 0.00276141 7.48792e-09 0.0 0.00259437 -2.00252e-08 0.0 0.00238555 -4.02697e-08 0.0 0.00213495 -5.52471e-08 0.0 0.00184253 -6.39093e-08 0.0 0.00150828 -2.53577e-08 0.0 0.00113221 -6.17937e-08 0.0 0.000713936 1.40808e-08 0.0 0.000258131 8.6856e-08 0.0 0 0 0.0 0 0 0.0 0 0 0.0 0 0 0.0 0 0 0.0 0 0 0.0 0 0 0.0 0 0 0.0 0.000258131 -8.6856e-08 0.0 0.000713936 -1.40808e-08 0.0 0.00113221 6.17937e-08 0.0 0.00150828 2.53577e-08 0.0 0.00184253 6.39093e-08 0.0 0.00213495 5.52471e-08 0.0 0.00238555 4.02697e-08 0.0 0.00259437 2.00252e-08 0.0 0.00276141 -7.48792e-09 0.0 0.00288669 -2.03104e-08 0.0 0.00297021 -2.16369e-08 0.0 0.00301197 -8.81134e-09 0.0 0.00301197 8.81134e-09 0.0 0.00297021 2.16369e-08 0.0 0.00288669 2.03104e-08 0.0 0.00276141 7.48792e-09 0.0 0.00259437 -2.00252e-08 0.0 0.00238555 -4.02697e-08 0.0 0.00213495 -5.52471e-08 0.0 0.00184253 -6.39093e-08 0.0 0.00150828 -2.53577e-08 0.0 0.00113221 -6.17937e-08 0.0 0.000713936 1.40808e-08 0.0 0.000258131 8.6856e-08 0.0 0 0 0.0 0 0 0.0 0 0 0.0 0 0 0.0 0 0 0.0 0 0 0.0 0 0 0.0 0 0 0.0 0.000258131 -8.6856e-08 0.0 0.000713936 -1.40808e-08 0.0 0.00113221 6.17937e-08 0.0 0.00150828 2.53577e-08 0.0 0.00184253 6.39093e-08 0.0 0.00213495 5.52471e-08 0.0 0.00238555 4.02697e-08 0.0 0.00259437 2.00252e-08 0.0 0.00276141 -7.48792e-09 0.0 0.00288669 -2.03104e-08 0.0 0.00297021 -2.16369e-08 0.0 0.00301197 -8.81134e-09 0.0 0.00301197 8.81134e-09 0.0 0.00297021 2.16369e-08 0.0 0.00288669 2.03104e-08 0.0 0.00276141 7.48792e-09 0.0 0.00259437 -2.00252e-08 0.0 0.00238555 -4.02697e-08 0.0 0.00213495 -5.52471e-08 0.0 0.00184253 -6.39093e-08 0.0 0.00150828 -2.53577e-08 0.0 0.00113221 -6.17937e-08 0.0 0.000713936 1.40808e-08 0.0 0.000258131 8.6856e-08 0.0 0 0 0.0 0 0 0.0 0 0 0.0 0 0 0.0 0 0 0.0 0 0 0.0 0 0 0.0 0 0 0.0 0.000258131 -8.6856e-08 0.0 0.000713936 -1.40808e-08 0.0 0.00113221 6.17937e-08 0.0 0.00150828 2.53577e-08 0.0 0.00184253 6.39093e-08 0.0 0.00213495 5.52471e-08 0.0 0.00238555 4.02697e-08 0.0 0.00259437 2.00252e-08 0.0 0.00276141 -7.48792e-09 0.0 0.00288669 -2.03104e-08 0.0 0.00297021 -2.16369e-08 0.0 0.00301197 -8.81134e-09 0.0 0.00301197 8.81134e-09 0.0 0.00297021 2.16369e-08 0.0 0.00288669 2.03104e-08 0.0 0.00276141 7.48792e-09 0.0 0.00259437 -2.00252e-08 0.0 0.00238555 -4.02697e-08 0.0 0.00213495 -5.52471e-08 0.0 0.00184253 -6.39093e-08 0.0 0.00150828 -2.53577e-08 0.0 0.00113221 -6.17937e-08 0.0 0.000713936 1.40808e-08 0.0 0.000258131 8.6856e-08 0.0 0 0 0.0 0 0 0.0 0 0 0.0 0 0 0.0 0 0 0.0 0 0 0.0 0 0 0.0 0 0 0.0 0.000258131 -8.6856e-08 0.0 0.000713936 -1.40808e-08 0.0 0.00113221 6.17937e-08 0.0 0.00150828 2.53577e-08 0.0 0.00184253 6.39093e-08 0.0 0.00213495 5.52471e-08 0.0 0.00238555 4.02697e-08 0.0 0.00259437 2.00252e-08 0.0 0.00276141 -7.48792e-09 0.0 0.00288669 -2.03104e-08 0.0 0.00297021 -2.16369e-08 0.0 0.00301197 -8.81134e-09 0.0 0.00301197 8.81134e-09 0.0 0.00297021 2.16369e-08 0.0 0.00288669 2.03104e-08 0.0 0.00276141 7.48792e-09 0.0 0.00259437 -2.00252e-08 0.0 0.00238555 -4.02697e-08 0.0 0.00213495 -5.52471e-08 0.0 0.00184253 -6.39093e-08 0.0 0.00150828 -2.53577e-08 0.0 0.00113221 -6.17937e-08 0.0 0.000713936 1.40808e-08 0.0 0.000258131 8.6856e-08 0.0 0 0 0.0 0 0 0.0 0 0 0.0 0 0 0.0 0 0 0.0 0 0 0.0 0 0 0.0 0 0 0.0 0.000258131 -8.6856e-08 0.0 0.000713936 -1.40808e-08 0.0 0.00113221 6.17937e-08 0.0 0.00150828 2.53577e-08 0.0 0.00184253 6.39093e-08 0.0 0.00213495 5.52471e-08 0.0 0.00238555 4.02697e-08 0.0 0.00259437 2.00252e-08 0.0 0.00276141 -7.48792e-09 0.0 0.00288669 -2.03104e-08 0.0 0.00297021 -2.16369e-08 0.0 0.00301197 -8.81134e-09 0.0 0.00301197 8.81134e-09 0.0 0.00297021 2.16369e-08 0.0 0.00288669 2.03104e-08 0.0 0.00276141 7.48792e-09 0.0 0.00259437 -2.00252e-08 0.0 0.00238555 -4.02697e-08 0.0 0.00213495 -5.52471e-08 0.0 0.00184253 -6.39093e-08 0.0 0.00150828 -2.53577e-08 0.0 0.00113221 -6.17937e-08 0.0 0.000713936 1.40808e-08 0.0 0.000258131 8.6856e-08 0.0 0 0 0.0 0 0 0.0 0 0 0.0 0 0 0.0
        </DataArray>
        <DataArray type="Float64" NumberOfComponents="3" Name="vf" format="ascii">
 0 0 0.0 -0.000258129 8.67119e-08 0.0 -0.000258402 8.66684e-08 0.0 -0.000291773 8.13503e-08 0.0 0.0 0.0 0.0 0.0 0.0 0.0 0.0 0.0 0.0 0.0 0.0 0.0 0.0 0.0 0.0 0.0 0.0 0.0 0.0 0.0 0.0 0.0 0.0 0.0 0.0 0.0 0.0 0.0 0.0 0.0 0.0 0.0 0.0 0.0 0.0 0.0 0.0 0.0 0.0 0.0 0.0 0.0 0.0 0.0 0.0 0.0 0.0 0.0 0.0 0.0 0.0 0.0 0.0 0.0 0.0 0.0 0.0 0.0 0.0 0.0 0.0 0.0 0.0 0.0 0.0 0.0 0.0 0.0 0.0 0.0 0.0 0.0 -0.000291773 -8.13503e-08 0.0 -0.000258402 -8.66684e-08 0.0 -0.000258129 -8.67119e-08 0.0 0 0 0.0 0 0 0.0 -0.000258129 8.67119e-08 0.0 -0.000258402 8.66684e-08 0.0 -0.000291773 8.13503e-08 0.0 0.0 0.0 0.0 0.0 0.0 0.0 0.0 0.0 0.0 0.0 0.0 0.0 0.0 0.0 0.0 0.0 0.0 0.0 0.0 0.0 0.0 0.0 0.0 0.0 0.0 0.0 0.0 0.0 0.0 0.0 0.0 0.0 0.0 0.0 0.0 0.0 0.0 0.0 0.0 0.0 0.0 0.0 0.0 0.0 0.0 0.0 0.0 0.0 0.0 0.0 0.0 0.0 0.0 0.0 0.0 0.0 0.0 0.0 0.0 0.0 0.0 0.0 0.0 0.0 0.0 0.0 0.0 0.0 0.0 0.0 0.0 0.0 -0.000291773 -8.13503e-08 0.0 -0.000258402 -8.66684e-08 0.0 -0.000258129 -8.67119e-08 0.0 0 0 0.0 0 0 0.0 -0.000258129 8.67119e-08 0.0 -0.000258402 8.66684e-08 0.0 -0.000291773 8.13503e-08 0.0 0.0 0.0 0.0 0.0 0.0 0.0 0.0 0.0 0.0 0.0 0.0 0.0 0.0 0.0 0.0 0.0 0.0 0.0 0.0 0.0 0.0 0.0 0.0 0.0 0.0 0.0 0.0 0.0 0.0 0.0 0.0 0.0 0.0 0.0 0.0 0.0 0.0 0.0 0.0 0.0 0.0 0.0 0.0 0.0 0.0 0.0 0.0 0.0 0.0 0.0 0.0 0.0 0.0 0.0 0.0 0.0 0.0 0.0 0.0 0.0 0.0 0.0 0.0 0.0 0.0 0.0 0.0 0.0 0.0 0.0 0.0 0.0 -0.000291773 -8.13503e-08 0.0 -0.000258402 -8.66684e-08 0.0 -0.000258129 -8.67119e-08 0.0 0 0 0.0 0 0 0.0 -0.000258129 8.67119e-08 0.0 -0.000258402 8.66684e-08 0.0 -0.000291773 8.13503e-08 0.0 0.0 0.0 0.0 0.0 0.0 0.0 0.0 0.0 0.0 0.0 0.0 0.0 0.0 0.0 0.0 0.0 0.0 0.0 0.0 0.0 0.0 0.0 0.0 0.0 0.0 0.0 0.0 0.0 0.0 0.0 0.0 0.0 0.0 0.0 0.0 0.0 0.0 0.0 0.0 0.0 0.0 0.0 0.0 0.0 0.0 0.0 0.0 0.0 0.0 0.0 0.0 0.0 0.0 0.0 0.0 0.0 0.0 0.0 0.0 0.0 0.0 0.0 0.0 0.0 0.0 0.0 0.0 0.0 0.0 0.0 0.0 0.0 -0.000291773 -8.13503e-08 0.0 -0.000258402 -8.66684e-08 0.0 -0.000258129 -8.67119e-08 0.0 0 0 0.0 0 0 0.0 -0.000258129 8.67119e-08 0.0 -0.000258402 8.66684e-08 0.0 -0.000291773 8.13503e-08 0.0 0.0 0.0 0.0 0.0 0.0 0.0 0.0 0.0 0.0 0.0 0.0 0.0 0.0 0.0 0.0 0.0 0.0 0.0 0.0 0.0 0.0 0.0 0.0 0.0 0.0 0.0 0.0 0.0 0.0 0.0 0.0 0.0 0.0 0.0 0.0 0.0 0.0 0.0 0.0 0.0 0.0 0.0 0.0 0.0 0.0 0.0 0.0 0.0 0.0 0.0 0.0 0.0 0.0 0.0 0.0 0.0 0.0 0.0 0.0 0.0 0.0 0.0 0.0 0.0 0.0 0.0 0.0 0.0 0.0 0.0 0.0 0.0 -0.000291773 -8.13503e-08 0.0 -0.000258402 -8.66684e-08 0.0 -0.000258129 -8.67119e-08 0.0 0 0 0.0 0 0 0.0 -0.000258129 8.67119e-08 0.0 -0.000258402 8.66684e-08 0.0 -0.000291773 8.13503e-08 0.0 0.0 0.0 0.0 0.0 0.0 0.0 0.0 0.0 0.0 0.0 0.0 0.0 0.0 0.0 0.0 0.0 0.0 0.0 0.0 0.0 0.0 0.0 0.0 0.0 0.0 0.0 0.0 0.0 0.0 0.0 0.0 0.0 0.0 0.0 0.0 0.0 0.0 0.0 0.0 0.0 0.0 0.0 0.0 0.0 0.0 0.0 0.0 0.0 0.0 0.0 0.0 0.0 0.0 0.0 0.0 0.0 0.0 0.0 0.0 0.0 0.0 0.0 0.0 0.0 0.0 0.0 0.0 0.0 0.0 0.0 0.0 0.0 -0.000291773 -8.13503e-08 0.0 -0.000258402 -8.66684e-08 0.0 -0.000258129 -8.67119e-08 0.0 0 0 0.0 0 0 0.0 -0.000258129 8.67119e-08 0.0 -0.000258402 8.66684e-08 0.0 -0.000291773 8.13503e-08 0.0 0.0 0.0 0.0 0.0 0.0 0.0 0.0 0.0 0.0 0.0 0.0 0.0 0.0 0.0 0.0 0.0 0.0 0.0 0.0 0.0 0.0 0.0 0.0 0.0 0.0 0.0 0.0 0.0 0.0 0.0 0.0 0.0 0.0 0.0 0.0 0.0 0.0 0.0 0.0 0.0 0.0 0.0 0.0 0.0 0.0 0.0 0.0 0.0 0.0 0.0 0.0 0.0 0.0 0.0 0.0 0.0 0.0 0.0 0.0 0.0 0.0 0.0 0.0 0.0 0.0 0.0 0.0 0.0 0.0 0.0 0.0 0.0 -0.000291773 -8.13503e-08 0.0 -0.000258402 -8.66684e-08 0.0 -0.000258129 -8.67119e-08 0.0 0 0 0.0 0 0 0.0 -0.000258129 8.67119e-08 0.0 -0.000258402 8.66684e-08 0.0 -0.000291773 8.13503e-08 0.0 0.0 0.0 0.0 0.0 0.0 0.0 0.0 0.0 0.0 0.0 0.0 0.0 0.0 0.0 0.0 0.0 0.0 0.0 0.0 0.0 0.0 0.0 0.0 0.0 0.0 0.0 0.0 0.0 0.0 0.0 0.0 0.0 0.0 0.0 0.0 0.0 0.0 0.0 0.0 0.0 0.0 0.0 0.0 0.0 0.0 0.0 0.0 0.0 0.0 0.0 0.0 0.0 0.0 0.0 0.0 0.0 0.0 0.0 0.0 0.0 0.0 0.0 0.0 0.0 0.0 0.0 0.0 0.0 0.0 0.0 0.0 0.0 -0.000291773 -8.13503e-08 0.0 -0.000258402 -8.66684e-08 0.0 -0.000258129 -8.67119e-08 0.0 0 0 0.0 0 0 0.0 -0.000258129 8.67119e-08 0.0 -0.000258402 8.66684e-08 0.0 -0.000291773 8.13503e-08 0.0 0.0 0.0 0.0 0.0 0.0 0.0 0.0 0.0 0.0 0.0 0.0 0.0 0.0 0.0 0.0 0.0 0.0 0.0 0.0 0.0 0.0 0.0 0.0 0.0 0.0 0.0 0.0 0.0 0.0 0.0 0.0 0.0 0.0 0.0 0.0 0.0 0.0 0.0 0.0 0.0 0.0 0.0 0.0 0.0 0.0 0.0 0.0 0.0 0.0 0.0 0.0 0.0 0.0 0.0 0.0 0.0 0.0 0.0 0.0 0.0 0.0 0.0 0.0 0.0 0.0 0.0 0.0 0.0 0.0 0.0 0.0 0.0 -0.000291773 -8.13503e-08 0.0 -0.000258402 -8.66684e-08 0.0 -0.000258129 -8.67119e-08 0.0 0 0 0.0 0 0 0.0 -0.000258129 8.67119e-08 0.0 -0.000258402 8.66684e-08 0.0 -0.000291773 8.13503e-08 0.0 0.0 0.0 0.0 0.0 0.0 0.0 0.0 0.0 0.0 0.0 0.0 0.0 0.0 0.0 0.0 0.0 0.0 0.0 0.0 0.0 0.0 0.0 0.0 0.0 0.0 0.0 0.0 0.0 0.0 0.0 0.0 0.0 0.0 0.0 0.0 0.0 0.0 0.0 0.0 0.0 0.0 0.0 0.0 0.0 0.0 0.0 0.0 0.0 0.0 0.0 0.0 0.0 0.0 0.0 0.0 0.0 0.0 0.0 0.0 0.0 0.0 0.0 0.0 0.0 0.0 0.0 0.0 0.0 0.0 0.0 0.0 0.0 -0.000291773 -8.13503e-08 0.0 -0.000258402 -8.66684e-08 0.0 -0.000258129 -8.67119e-08 0.0 0 0 0.0 0 0 0.0 -0.000258129 8.67119e-08 0.0 -0.000258402 8.66684e-08 0.0 -0.000291773 8.13503e-08 0.0 0.0 0.0 0.0 0.0 0.0 0.0 0.0 0.0 0.0 0.0 0.0 0.0 0.0 0.0 0.0 0.0 0.0 0.0 0.0 0.0 0.0 0.0 0.0 0.0 0.0 0.0 0.0 0.0 0.0 0.0 0.0 0.0 0.0 0.0 0.0 0.0 0.0 0.0 0.0 0.0 0.0 0.0 0.0 0.0 0.0 0.0 0.0 0.0 0.0 0.0 0.0 0.0 0.0 0.0 0.0 0.0 0.0 0.0 0.0 0.0 0.0 0.0 0.0 0.0 0.0 0.0 0.0 0.0 0.0 0.0 0.0 0.0 -0.000291773 -8.13503e-08 0.0 -0.000258402 -8.66684e-08 0.0 -0.000258129 -8.67119e-08 0.0 0 0 0.0 0 0 0.0 -0.000258129 8.67119e-08 0.0 -0.000258402 8.66684e-08 0.0 -0.000291773 8.13503e-08 0.0 0.0 0.0 0.0 0.0 0.0 0.0 0.0 0.0 0.0 0.0 0.0 0.0 0.0 0.0 0.0 0.0 0.0 0.0 0.0 0.0 0.0 0.0 0.0 0.0 0.0 0.0 0.0 0.0 0.0 0.0 0.0 0.0 0.0 0.0 0.0 0.0 0.0 0.0 0.0 0.0 0.0 0.0 0.0 0.0 0.0 0.0 0.0 0.0 0.0 0.0 0.0 0.0 0.0 0.0 0.0 0.0 0.0 0.0 0.0 0.0 0.0 0.0 0.0 0.0 0.0 0.0 0.0 0.0 0.0 0.0 0.0 0.0 -0.000291773 -8.13503e-08 0.0 -0.000258402 -8.66684e-08 0.0 -0.000258129 -8.67119e-08 0.0 0 0 0.0 0 0 0.0 -0.000258129 8.67119e-08 0.0 -0.000258402 8.66684e-08 0.0 -0.000291773 8.13503e-08 0.0 0.0 0.0 0.0 0.0 0.0 0.0 0.0 0.0 0.0 0.0 0.0 0.0 0.0 0.0 0.0 0.0 0.0 0.0 0.0 0.0 0.0 0.0 0.0 0.0 0.0 0.0 0.0 0.0 0.0 0.0 0.0 0.0 0.0 0.0 0.0 0.0 0.0 0.0 0.0 0.0 0.0 0.0 0.0 0.0 0.0 0.0 0.0 0.0 0.0 0.0 0.0 0.0 0.0 0.0 0.0 0.0 0.0 0.0 0.0 0.0 0.0 0.0 0.0 0.0 0.0 0.0 0.0 0.0 0.0 0.0 0.0 0.0 -0.000291773 -8.13503e-08 0.0 -0.000258402 -8.66684e-08 0.0 -0.000258129 -8.67119e-08 0.0 0 0 0.0 0 0 0.0 -0.000258129 8.67119e-08 0.0 -0.000258402 8.66684e-08 0.0 -0.000291773 8.13503e-08 0.0 0.0 0.0 0.0 0.0 0.0 0.0 0.0 0.0 0.0 0.0 0.0 0.0 0.0 0.0 0.0 0.0 0.0 0.0 0.0 0.0 0.0 0.0 0.0 0.0 0.0 0.0 0.0 0.0 0.0 0.0 0.0 0.0 0.0 0.0 0.0 0.0 0.0 0.0 0.0 0.0 0.0 0.0 0.0 0.0 0.0 0.0 0.0 0.0 0.0 0.0 0.0 0.0 0.0 0.0 0.0 0.0 0.0 0.0 0.0 0.0 0.0 0.0 0.0 0.0 0.0 0.0 0.0 0.0 0.0 0.0 0.0 0.0 -0.000291773 -8.13503e-08 0.0 -0.000258402 -8.66684e-08 0.0 -0.000258129 -8.67119e-08 0.0 0 0 0.0 0 0 0.0 -0.000258129 8.67119e-08 0.0 -0.000258402 8.66684e-08 0.0 -0.000291773 8.13503e-08 0.0 0.0 0.0 0.0 0.0 0.0 0.0 0.0 0.0 0.0 0.0 0.0 0.0 0.0 0.0 0.0 0.0 0.0 0.0 0.0 0.0 0.0 0.0 0.0 0.0 0.0 0.0 0.0 0.0 0.0 0.0 0.0 0.0 0.0 0.0 0.0 0.0 0.0 0.0 0.0 0.0 0.0 0.0 0.0 0.0 0.0 0.0 0.0 0.0 0.0 0.0 0.0 0.0 0.0 0.0 0.0 0.0 0.0 0.0 0.0 0.0 0.0 0.0 0.0 0.0 0.0 0.0 0.0 0.0 0.0 0.0 0.0 0.0 -0.000291773 -8.13503e-08 0.0 -0.000258402 -8.66684e-08 0.0 -0.000258129 -8.67119e-08 0.0 0 0 0.0 0 0 0.0 -0.000258129 8.67119e-08 0.0 -0.000258402 8.66684e-08 0.0 -0.000291773 8.13503e-08 0.0 0.0 0.0 0.0 0.0 0.0 0.0 0.0 0.0 0.0 0.0 0.0 0.0 0.0 0.0 0.0 0.0 0.0 0.0 0.0 0.0 0.0 0.0 0.0 0.0 0.0 0.0 0.0 0.0 0.0 0.0 0.0 0.0 0.0 0.0 0.0 0.0 0.0 0.0 0.0 0.0 0.0 0.0 0.0 0.0 0.0 0.0 0.0 0.0 0.0 0.0 0.0 0.0 0.0 0.0 0.0 0.0 0.0 0.0 0.0 0.0 0.0 0.0 0.0 0.0 0.0 0.0 0.0 0.0 0.0 0.0 0.0 0.0 -0.000291773 -8.13503e-08 0.0 -0.000258402 -8.66684e-08 0.0 -0.000258129 -8.67119e-08 0.0 0 0 0.0 0 0 0.0 -0.000258129 8.67119e-08 0.0 -0.000258402 8.66684e-08 0.0 -0.000291773 8.13503e-08 0.0 0.0 0.0 0.0 0.0 0.0 0.0 0.0 0.0 0.0 0.0 0.0 0.0 0.0 0.0 0.0 0.0 0.0 0.0 0.0 0.0 0.0 0.0 0.0 0.0 0.0 0.0 0.0 0.0 0.0 0.0 0.0 0.0 0.0 0.0 0.0 0.0 0.0 0.0 0.0 0.0 0.0 0.0 0.0 0.0 0.0 0.0 0.0 0.0 0.0 0.0 0.0 0.0 0.0 0.0 0.0 0.0 0.0 0.0 0.0 0.0 0.0 0.0 0.0 0.0 0.0 0.0 0.0 0.0 0.0 0.0 0.0 0.0 -0.000291773 -8.13503e-08 0.0 -0.000258402 -8.66684e-08 0.0 -0.000258129 -8.67119e-08 0.0 0 0 0.0 0 0 0.0 -0.000258129 8.67119e-08 0.0 -0.000258402 8.66684e-08 0.0 -0.000291773 8.13503e-08 0.0 0.0 0.0 0.0 0.0 0.0 0.0 0.0 0.0 0.0 0.0 0.0 0.0 0.0 0.0 0.0 0.0 0.0 0.0 0.0 0.0 0.0 0.0 0.0 0.0 0.0 0.0 0.0 0.0 0.0 0.0 0.0 0.0 0.0 0.0 0.0 0.0 0.0 0.0 0.0 0.0 0.0 0.0 0.0 0.0 0.0 0.0 0.0 0.0 0.0 0.0 0.0 0.0 0.0 0.0 0.0 0.0 0.0 0.0 0.0 0.0 0.0 0.0 0.0 0.0 0.0 0.0 0.0 0.0 0.0 0.0 0.0 0.0 -0.000291773 -8.13503e-08 0.0 -0.000258402 -8.66684e-08 0.0 -0.000258129 -8.67119e-08 0.0 0 0 0.0 0 0 0.0 -0.000258129 8.67119e-08 0.0 -0.000258402 8.66684e-08 0.0 -0.000291773 8.13503e-08 0.0 0.0 0.0 0.0 0.0 0.0 0.0 0.0 0.0 0.0 0.0 0.0 0.0 0.0 0.0 0.0 0.0 0.0 0.0 0.0 0.0 0.0 0.0 0.0 0.0 0.0 0.0 0.0 0.0 0.0 0.0 0.0 0.0 0.0 0.0 0.0 0.0 0.0 0.0 0.0 0.0 0.0 0.0 0.0 0.0 0.0 0.0 0.0 0.0 0.0 0.0 0.0 0.0 0.0 0.0 0.0 0.0 0.0 0.0 0.0 0.0 0.0 0.0 0.0 0.0 0.0 0.0 0.0 0.0 0.0 0.0 0.0 0.0 -0.000291773 -8.13503e-08 0.0 -0.000258402 -8.66684e-08 0.0 -0.000258129 -8.67119e-08 0.0 0 0 0.0 0 0 0.0 -0.000258129 8.67119e-08 0.0 -0.000258402 8.66684e-08 0.0 -0.000291773 8.13503e-08 0.0 0.0 0.0 0.0 0.0 0.0 0.0 0.0 0.0 0.0 0.0 0.0 0.0 0.0 0.0 0.0 0.0 0.0 0.0 0.0 0.0 0.0 0.0 0.0 0.0 0.0 0.0 0.0 0.0 0.0 0.0 0.0 0.0 0.0 0.0 0.0 0.0 0.0 0.0 0.0 0.0 0.0 0.0 0.0 0.0 0.0 0.0 0.0 0.0 0.0 0.0 0.0 0.0 0.0 0.0 0.0 0.0 0.0 0.0 0.0 0.0 0.0 0.0 0.0 0.0 0.0 0.0 0.0 0.0 0.0 0.0 0.0 0.0 -0.000291773 -8.13503e-08 0.0 -0.000258402 -8.66684e-08 0.0 -0.000258129 -8.67119e-08 0.0 0 0 0.0 0 0 0.0 -0.000258129 8.67119e-08 0.0 -0.000258402 8.66684e-08 0.0 -0.000291773 8.13503e-08 0.0 0.0 0.0 0.0 0.0 0.0 0.0 0.0 0.0 0.0 0.0 0.0 0.0 0.0 0.0 0.0 0.0 0.0 0.0 0.0 0.0 0.0 0.0 0.0 0.0 0.0 0.0 0.0 0.0 0.0 0.0 0.0 0.0 0.0 0.0 0.0 0.0 0.0 0.0 0.0 0.0 0.0 0.0 0.0 0.0 0.0 0.0 0.0 0.0 0.0 0.0 0.0 0.0 0.0 0.0 0.0 0.0 0.0 0.0 0.0 0.0 0.0 0.0 0.0 0.0 0.0 0.0 0.0 0.0 0.0 0.0 0.0 0.0 -0.000291773 -8.13503e-08 0.0 -0.000258402 -8.66684e-08 0.0 -0.000258129 -8.67119e-08 0.0 0 0 0.0 0 0 0.0 -0.000258129 8.67119e-08 0.0 -0.000258402 8.66684e-08 0.0 -0.000291773 8.13503e-08 0.0 0.0 0.0 0.0 0.0 0.0 0.0 0.0 0.0 0.0 0.0 0.0 0.0 0.0 0.0 0.0 0.0 0.0 0.0 0.0 0.0 0.0 0.0 0.0 0.0 0.0 0.0 0.0 0.0 0.0 0.0 0.0 0.0 0.0 0.0 0.0 0.0 0.0 0.0 0.0 0.0 0.0 0.0 0.0 0.0 0.0 0.0 0.0 0.0 0.0 0.0 0.0 0.0 0.0 0.0 0.0 0.0 0.0 0.0 0.0 0.0 0.0 0.0 0.0 0.0 0.0 0.0 0.0 0.0 0.0 0.0 0.0 0.0 -0.000291773 -8.13503e-08 0.0 -0.000258402 -8.66684e-08 0.0 -0.000258129 -8.67119e-08 0.0 0 0 0.0 0 0 0.0 -0.000258129 8.67119e-08 0.0 -0.000258402 8.66684e-08 0.0 -0.000291773 8.13503e-08 0.0 0.0 0.0 0.0 0.0 0.0 0.0 0.0 0.0 0.0 0.0 0.0 0.0 0.0 0.0 0.0 0.0 0.0 0.0 0.0 0.0 0.0 0.0 0.0 0.0 0.0 0.0 0.0 0.0 0.0 0.0 0.0 0.0 0.0 0.0 0.0 0.0 0.0 0.0 0.0 0.0 0.0 0.0 0.0 0.0 0.0 0.0 0.0 0.0 0.0 0.0 0.0 0.0 0.0 0.0 0.0 0.0 0.0 0.0 0.0 0.0 0.0 0.0 0.0 0.0 0.0 0.0 0.0 0.0 0.0 0.0 0.0 0.0 -0.000291773 -8.13503e-08 0.0 -0.000258402 -8.66684e-08 0.0 -0.000258129 -8.67119e-08 0.0 0 0 0.0 0 0 0.0 -0.000258129 8.67119e-08 0.0 -0.000258402 8.66684e-08 0.0 -0.000291773 8.13503e-08 0.0 0.0 0.0 0.0 0.0 0.0 0.0 0.0 0.0 0.0 0.0 0.0 0.0 0.0 0.0 0.0 0.0 0.0 0.0 0.0 0.0 0.0 0.0 0.0 0.0 0.0 0.0 0.0 0.0 0.0 0.0 0.0 0.0 0.0 0.0 0.0 0.0 0.0 0.0 0.0 0.0 0.0 0.0 0.0 0.0 0.0 0.0 0.0 0.0 0.0 0.0 0.0 0.0 0.0 0.0 0.0 0.0 0.0 0.0 0.0 0.0 0.0 0.0 0.0 0.0 0.0 0.0 0.0 0.0 0.0 0.0 0.0 0.0 -0.000291773 -8.13503e-08 0.0 -0.000258402 -8.66684e-08 0.0 -0.000258129 -8.67119e-08 0.0 0 0 0.0
        </DataArray>
      </PointData>
      <Points>
        <DataArray type="Float64" NumberOfComponents="3" format="ascii">
 -0.0479167 -0.0645833 0.0 -0.0479167 -0.0604167 0.0 -0.0479167 -0.05625 0.0 -0.0479167 -0.0520833 0.0 -0.0465102 -0.0479167 0.0 -0.0440616 -0.0437502 0.0 -0.0418396 -0.0395835 0.0 -0.0398623 -0.035417 0.0 -0.0381212 -0.0312504 0.0 -0.0366105 -0.0270838 0.0 -0.035325 -0.0229172 0.0 -0.0342605 -0.0187506 0.0 -0.0334133 -0.0145839 0.0 -0.0327804 -0.0104171 0.0 -0.0323596 -0.00625029 0.0 -0.0321496 -0.00208343 0.0 -0.0321496 0.00208343 0.0 -0.0323596 0.00625029 0.0 -0.0327804 0.0104171 0.0 -0.0334133 0.0145839 0.0 -0.0342605 0.0187506 0.0 -0.035325 0.0229172 0.0 -0.0366105 0.0270838 0.0 -0.0381212 0.0312504 0.0 -0.0398623 0.035417 0.0 -0.0418396 0.0395835 0.0 -0.0440616 0.0437502 0.0 -0.0465102 0.0479167 0.0 -0.0479167 0.0520833 0.0 -0.0479167 0.05625 0.0 -0.0479167 0.0604167 0.0 -0.0479167 0.0645833 0.0 -0.04375 -0.0645833 0.0 -0.04375 -0.0604167 0.0 -0.04375 -0.05625 0.0 -0.04375 -0.0520833 0.0 -0.0423435 -0.0479167 0.0 -0.0398949 -0.0437502 0.0 -0.0376729 -0.0395835 0.0 -0.0356956 -0.035417 0.0 -0.0339545 -0.0312504 0.0 -0.0324438 -0.0270838 0.0 -0.0311584 -0.0229172 0.0 -0.0300939 -0.0187506 0.0 -0.0292466 -0.0145839 0.0 -0.0286137 -0.0104171 0.0 -0.028193 -0.00625029 0.0 -0.027983 -0.00208343 0.0 -0.027983 0.00208343 0.0 -0.028193 0.00625029 0.0 -0.0286137 0.0104171 0.0 -0.0292466 0.0145839 0.0 -0.0300939 0.0187506 0.0 -0.0311584 0.0229172 0.0 -0.0324438 0.0270838 0.0 -0.0339545 0.0312504 0.0 -0.0356956 0.035417 0.0 -0.0376729 0.0395835 0.0 -0.0398949 0.0437502 0.0 -0.0423435 0.0479167 0.0 -0.04375 0.0520833 0.0 -0.04375 0.05625 0.0 -0.04375 0.0604167 0.0 -0.04375 0.0645833 0.0 -0.0395833 -0.0645833 0.0 -0.0395833 -0.0604167 0.0 -0.0395833 -0.05625 0.0 -0.0395833 -0.0520833 0.0 -0.0381768 -0.0479167 0.0 -0.0357282 -0.0437502 0.0 -0.0335062 -0.0395835 0.0 -0.031529 -0.035417 0.0 -0.0297878 -0.0312504 0.0 -0.0282771 -0.0270838 0.0 -0.0269917 -0.0229172 0.0 -0.0259272 -0.0187506 0.0 -0.0250799 -0.0145839 0.0 -0.024447 -0.0104171 0.0 -0.0240263 -0.00625029 0.0 -0.0238163 -0.00208343 0.0 -0.0238163 0.00208343 0.0 -0.0240263 0.00625029 0.0 -0.024447 0.0104171 0.0 -0.0250799 0.0145839 0.0 -0.0259272 0.0187506 0.0 -0.0269917 0.0229172 0.0 -0.0282771 0.0270838 0.0 -0.0297878 0.0312504 0.0 -0.031529 0.035417 0.0 -0.0335062 0.0395835 0.0 -0.0357282 0.0437502 0.0 -0.0381768 0.0479167 0.0 -0.0395833 0.0520833 0.0 -0.0395833 0.05625 0.0 -0.0395833 0.0604167 0.0 -0.0395833 0.0645833 0.0 -0.0354167 -0.0645833 0.0 -0.0354167 -0.0604167 0.0 -0.0354167 -0.05625 0.0 -0.0354167 -0.0520833 0.0 -0.0340102 -0.0479167 0.0 -0.0315616 -0.0437502 0.0 -0.0293396 -0.0395835 0.0 -0.0273623 -0.035417 0.0 -0.0256212 -0.0312504 0.0 -0.0241105 -0.0270838 0.0 -0.022825 -0.0229172 0.0 -0.0217605 -0.0187506 0.0 -0.0209133 -0.0145839 0.0 -0.0202804 -0.0104171 0.0 -0.0198596 -0.00625029 0.0 -0.0196496 -0.00208343 0.0 -0.0196496 0.00208343 0.0 -0.0198596 0.00625029 0.0 -0.0202804 0.0104171 0.0 -0.0209133 0.0145839 0.0 -0.0217605 0.0187506 0.0 -0.022825 0.0229172 0.0 -0.0241105 0.0270838 0.0 -0.0256212 0.0312504 0.0 -0.0273623 0.035417 0.0 -0.0293396 0.0395835 0.0 -0.0315616 0.0437502 0.0 -0.0340102 0.0479167 0.0 -0.0354167 0.0520833 0.0 -0.0354167 0.05625 0.0 -0.0354167 0.0604167 0.0 -0.0354167 0.0645833 0.0 -0.03125 -0.0645833 0.0 -0.03125 -0.0604167 0.0 -0.03125 -0.05625 0.0 -0.03125 -0.0520833 0.0 -0.0298435 -0.0479167 0.0 -0.0273949 -0.0437502 0.0 -0.0251729 -0.0395835 0.0 -0.0231956 -0.035417 0.0 -0.0214545 -0.0312504 0.0 -0.0199438 -0.0270838 0.0 -0.0186584 -0.0229172 0.0 -0.0175939 -0.0187506 0.0 -0.0167466 -0.0145839 0.0 -0.0161137 -0.0104171 0.0 -0.015693 -0.00625029 0.0 -0.015483 -0.00208343 0.0 -0.015483 0.00208343 0.0 -0.015693 0.00625029 0.0 -0.0161137 0.0104171 0.0 -0.0167466 0.0145839 0.0 -0.0175939 0.0187506 0.0 -0.0186584 0.0229172 0.0 -0.0199438 0.0270838 0.0 -0.0214545 0.0312504 0.0 -0.0231956 0.035417 0.0 -0.0251729 0.0395835 0.0 -0.0273949 0.0437502 0.0 -0.0298435 0.0479167 0.0 -0.03125 0.0520833 0.0 -0.03125 0.05625 0.0 -0.03125 0.0604167 0.0 -0.03125 0.0645833 0.0 -0.0270833 -0.0645833 0.0 -0.0270833 -0.0604167 0.0 -0.0270833 -0.05625 0.0 -0.0270833 -0.0520833 0.0 -0.0256768 -0.0479167 0.0 -0.0232282 -0.0437502 0.0 -0.0210062 -0.0395835 0.0 -0.019029 -0.035417 0.0 -0.0172878 -0.0312504 0.0 -0.0157771 -0.0270838 0.0 -0.0144917 -0.0229172 0.0 -0.0134272 -0.0187506 0.0 -0.0125799 -0.0145839 0.0 -0.011947 -0.0104171 0.0 -0.0115263 -0.00625029 0.0 -0.0113163 -0.00208343 0.0 -0.0113163 0.00208343 0.0 -0.0115263 0.00625029 0.0 -0.011947 0.0104171 0.0 -0.0125799 0.0145839 0.0 -0.0134272 0.0187506 0.0 -0.0144917 0.0229172 0.0 -0.0157771 0.0270838 0.0 -0.0172878 0.0312504 0.0 -0.019029 0.035417 0.0 -0.0210062 0.0395835 0.0 -0.0232282 0.0437502 0.0 -0.0256768 0.0479167 0.0 -0.0270833 0.0520833 0.0 -0.0270833 0.05625 0.0 -0.0270833 0.0604167 0.0 -0.0270833 0.0645833 0.0 -0.0229167 -0.0645833 0.0 -0.0229167 -0.0604167 0.0 -0.0229167 -0.05625 0.0 -0.0229167 -0.0520833 0.0 -0.0215102 -0.0479167 0.0 -0.0190616 -0.0437502 0.0 -0.0168396 -0.0395835 0.0 -0.0148623 -0.035417 0.0 -0.0131212 -0.0312504 0.0 -0.0116105 -0.0270838 0.0 -0.010325 -0.0229172 0.0 -0.00926053 -0.0187506 0.0 -0.00841328 -0.0145839 0.0 -0.00778037 -0.0104171 0.0 -0.00735963 -0.00625029 0.0 -0.00714962 -0.00208343 0.0 -0.00714962 0.00208343 0.0 -0.00735963 0.00625029 0.0 -0.00778037 0.0104171 0.0 -0.00841328 0.0145839 0.0 -0.00926053 0.0187506 0.0 -0.010325 0.0229172 0.0 -0.0116105 0.0270838 0.0 -0.0131212 0.0312504 0.0 -0.0148623 0.035417 0.0 -0.0168396 0.0395835 0.0 -0.0190616 0.0437502 0.0 -0.0215102 0.0479167 0.0 -0.0229167 0.0520833 0.0 -0.0229167 0.05625 0.0 -0.0229167 0.0604167 0.0 -0.0229167 0.0645833 0.0 -0.01875 -0.0645833 0.0 -0.01875 -0.0604167 0.0 -0.01875 -0.05625 0.0 -0.01875 -0.0520833 0.0 -0.0173435 -0.0479167 0.0 -0.0148949 -0.0437502 0.0 -0.0126729 -0.0395835 0.0 -0.0106956 -0.035417 0.0 -0.0089545 -0.0312504 0.0 -0.00744379 -0.0270838 0.0 -0.00615838 -0.0229172 0.0 -0.00509387 -0.0187506 0.0 -0.00424661 -0.0145839 0.0 -0.0036137 -0.0104171 0.0 -0.00319297 -0.00625029 0.0 -0.00298296 -0.00208343 0.0 -0.00298296 0.00208343 0.0 -0.00319297 0.00625029 0.0 -0.0036137 0.0104171 0.0 -0.00424661 0.0145839 0.0 -0.00509387 0.0187506 0.0 -0.00615838 0.0229172 0.0 -0.00744379 0.0270838 0.0 -0.0089545 0.0312504 0.0 -0.0106956 0.035417 0.0 -0.0126729 0.0395835 0.0 -0.0148949 0.0437502 0.0 -0.0173435 0.0479167 0.0 -0.01875 0.0520833 0.0 -0.01875 0.05625 0.0 -0.01875 0.0604167 0.0 -0.01875 0.0645833 0.0 -0.0145833 -0.0645833 0.0 -0.0145833 -0.0604167 0.0 -0.0145833 -0.05625 0.0 -0.0145833 -0.0520833 0.0 -0.0131768 -0.0479167 0.0 -0.0107282 -0.0437502 0.0 -0.00850623 -0.0395835 0.0 -0.00652897 -0.035417 0.0 -0.00478784 -0.0312504 0.0 -0.00327713 -0.0270838 0.0 -0.00199171 -0.0229172 0.0 -0.000927199 -0.0187506 0.0 -7.99445e-05 -0.0145839 0.0 0.000552964 -0.0104171 0.0 0.000973701 -0.00625029 0.0 0.00118371 -0.00208343 0.0 0.00118371 0.00208343 0.0 0.000973701 0.00625029 0.0 0.000552964 0.0104171 0.0 -7.99445e-05 0.0145839 0.0 -0.000927199 0.0187506 0.0 -0.00199171 0.0229172 0.0 -0.00327713 0.0270838 0.0 -0.00478784 0.0312504 0.0 -0.00652897 0.035417 0.0 -0.00850623 0.0395835 0.0 -0.0107282 0.0437502 0.0 -0.0131768 0.0479167 0.0 -0.0145833 0.0520833 0.0 -0.0145833 0.05625 0.0 -0.0145833 0.0604167 0.0 -0.0145833 0.0645833 0.0 -0.0104167 -0.0645833 0.0 -0.0104167 -0.0604167 0.0 -0.0104167 -0.05625 0.0 -0.0104167 -0.0520833 0.0 -0.00901017 -0.0479167 0.0 -0.00656155 -0.0437502 0.0 -0.00433956 -0.0395835 0.0 -0.0023623 -0.035417 0.0 -0.000621171 -0.0312504 0.0 0.000889541 -0.0270838 0.0 0.00217496 -0.0229172 0.0 0.00323947 -0.0187506 0.0 0.00408672 -0.0145839 0.0 0.00471963 -0.0104171 0.0 0.00514037 -0.00625029 0.0 0.00535038 -0.00208343 0.0 0.00535038 0.00208343 0.0 0.00514037 0.00625029 0.0 0.00471963 0.0104171 0.0 0.00408672 0.0145839 0.0 0.00323947 0.0187506 0.0 0.00217496 0.0229172 0.0 0.000889541 0.0270838 0.0 -0.000621171 0.0312504 0.0 -0.0023623 0.035417 0.0 -0.00433956 0.0395835 0.0 -0.00656155 0.0437502 0.0 -0.00901017 0.0479167 0.0 -0.0104167 0.0520833 0.0 -0.0104167 0.05625 0.0 -0.0104167 0.0604167 0.0 -0.0104167 0.0645833 0.0 -0.00625 -0.0645833 0.0 -0.00625 -0.0604167 0.0 -0.00625 -0.05625 0.0 -0.00625 -0.0520833 0.0 -0.00484351 -0.0479167 0.0 -0.00239489 -0.0437502 0.0 -0.000172895 -0.0395835 0.0 0.00180436 -0.035417 0.0 0.0035455 -0.0312504 0.0 0.00505621 -0.0270838 0.0 0.00634162 -0.0229172 0.0 0.00740613 -0.0187506 0.0 0.00825339 -0.0145839 0.0 0.0088863 -0.0104171 0.0 0.00930703 -0.00625029 0.0 0.00951704 -0.00208343 0.0 0.00951704 0.00208343 0.0 0.00930703 0.00625029 0.0 0.0088863 0.0104171 0.0 0.00825339 0.0145839 0.0 0.00740613 0.0187506 0.0 0.00634162 0.0229172 0.0 0.00505621 0.0270838 0.0 0.0035455 0.0312504 0.0 0.00180436 0.035417 0.0 -0.000172895 0.0395835 0.0 -0.00239489 0.0437502 0.0 -0.00484351 0.0479167 0.0 -0.00625 0.0520833 0.0 -0.00625 0.05625 0.0 -0.00625 0.0604167 0.0 -0.00625 0.0645833 0.0 -0.00208333 -0.0645833 0.0 -0.00208333 -0.0604167 0.0 -0.00208333 -0.05625 0.0 -0.00208333 -0.0520833 0.0 -0.000676841 -0.0479167 0.0 0.00177178 -0.0437502 0.0 0.00399377 -0.0395835 0.0 0.00597103 -0.035417 0.0 0.00771216 -0.0312504 0.0 0.00922287 -0.0270838 0.0 0.0105083 -0.0229172 0.0 0.0115728 -0.0187506 0.0 0.0124201 -0.0145839 0.0 0.013053 -0.0104171 0.0 0.0134737 -0.00625029 0.0 0.0136837 -0.00208343 0.0 0.0136837 0.00208343 0.0 0.0134737 0.00625029 0.0 0.013053 0.0104171 0.0 0.0124201 0.0145839 0.0 0.0115728 0.0187506 0.0 0.0105083 0.0229172 0.0 0.00922287 0.0270838 0.0 0.00771216 0.0312504 0.0 0.00597103 0.035417 0.0 0.00399377 0.0395835 0.0 0.00177178 0.0437502 0.0 -0.000676841 0.0479167 0.0 -0.00208333 0.0520833 0.0 -0.00208333 0.05625 0.0 -0.00208333 0.0604167 0.0 -0.00208333 0.0645833 0.0 0.00208333 -0.0645833 0.0 0.00208333 -0.0604167 0.0 0.00208333 -0.05625 0.0 0.00208333 -0.0520833 0.0 0.00348983 -0.0479167 0.0 0.00593845 -0.0437502 0.0 0.00816044 -0.0395835 0.0 0.0101377 -0.035417 0.0 0.0118788 -0.0312504 0.0 0.0133895 -0.0270838 0.0 0.014675 -0.0229172 0.0 0.0157395 -0.0187506 0.0 0.0165867 -0.0145839 0.0 0.0172196 -0.0104171 0.0 0.0176404 -0.00625029 0.0 0.0178504 -0.00208343 0.0 0.0178504 0.00208343 0.0 0.0176404 0.00625029 0.0 0.0172196 0.0104171 0.0 0.0165867 0.0145839 0.0 0.0157395 0.0187506 0.0 0.014675 0.0229172 0.0 0.0133895 0.0270838 0.0 0.0118788 0.0312504 0.0 0.0101377 0.035417 0.0 0.00816044 0.0395835 0.0 0.00593845 0.0437502 0.0 0.00348983 0.0479167 0.0 0.00208333 0.0520833 0.0 0.00208333 0.05625 0.0 0.00208333 0.0604167 0.0 0.00208333 0.0645833 0.0 0.00625 -0.0645833 0.0 0.00625 -0.0604167 0.0 0.00625 -0.05625 0.0 0.00625 -0.0520833 0.0 0.00765649 -0.0479167 0.0 0.0101051 -0.0437502 0.0 0.0123271 -0.0395835 0.0 0.0143044 -0.035417 0.0 0.0160455 -0.0312504 0.0 0.0175562 -0.0270838 0.0 0.0188416 -0.0229172 0.0 0.0199061 -0.0187506 0.0 0.0207534 -0.0145839 0.0 0.0213863 -0.0104171 0.0 0.021807 -0.00625029 0.0 0.022017 -0.00208343 0.0 0.022017 0.00208343 0.0 0.021807 0.00625029 0.0 0.0213863 0.0104171 0.0 0.0207534 0.0145839 0.0 0.0199061 0.0187506 0.0 0.0188416 0.0229172 0.0 0.0175562 0.0270838 0.0 0.0160455 0.0312504 0.0 0.0143044 0.035417 0.0 0.0123271 0.0395835 0.0 0.0101051 0.0437502 0.0 0.00765649 0.0479167 0.0 0.00625 0.0520833 0.0 0.00625 0.05625 0.0 0.00625 0.0604167 0.0 0.00625 0.0645833 0.0 0.0104167 -0.0645833 0.0 0.0104167 -0.0604167 0.0 0.0104167 -0.05625 0.0 0.0104167 -0.0520833 0.0 0.0118232 -0.0479167 0.0 0.0142718 -0.0437502 0.0 0.0164938 -0.0395835 0.0 0.018471 -0.035417 0.0 0.0202122 -0.0312504 0.0 0.0217229 -0.0270838 0.0 0.0230083 -0.0229172 0.0 0.0240728 -0.0187506 0.0 0.0249201 -0.0145839 0.0 0.025553 -0.0104171 0.0 0.0259737 -0.00625029 0.0 0.0261837 -0.00208343 0.0 0.0261837 0.00208343 0.0 0.0259737 0.00625029 0.0 0.025553 0.0104171 0.0 0.0249201 0.0145839 0.0 0.0240728 0.0187506 0.0 0.0230083 0.0229172 0.0 0.0217229 0.0270838 0.0 0.0202122 0.0312504 0.0 0.018471 0.035417 0.0 0.0164938 0.0395835 0.0 0.0142718 0.0437502 0.0 0.0118232 0.0479167 0.0 0.0104167 0.0520833 0.0 0.0104167 0.05625 0.0 0.0104167 0.0604167 0.0 0.0104167 0.0645833 0.0 0.0145833 -0.0645833 0.0 0.0145833 -0.0604167 0.0 0.0145833 -0.05625 0.0 0.0145833 -0.0520833 0.0 0.0159898 -0.0479167 0.0 0.0184384 -0.0437502 0.0 0.0206604 -0.0395835 0.0 0.0226377 -0.035417 0.0 0.0243788 -0.0312504 0.0 0.0258895 -0.0270838 0.0 0.027175 -0.0229172 0.0 0.0282395 -0.0187506 0.0 0.0290867 -0.0145839 0.0 0.0297196 -0.0104171 0.0 0.0301404 -0.00625029 0.0 0.0303504 -0.00208343 0.0 0.0303504 0.00208343 0.0 0.0301404 0.00625029 0.0 0.0297196 0.0104171 0.0 0.0290867 0.0145839 0.0 0.0282395 0.0187506 0.0 0.027175 0.0229172 0.0 0.0258895 0.0270838 0.0 0.0243788 0.0312504 0.0 0.0226377 0.035417 0.0 0.0206604 0.0395835 0.0 0.0184384 0.0437502 0.0 0.0159898 0.0479167 0.0 0.0145833 0.0520833 0.0 0.0145833 0.05625 0.0 0.0145833 0.0604167 0.0 0.0145833 0.0645833 0.0 0.01875 -0.0645833 0.0 0.01875 -0.0604167 0.0 0.01875 -0.05625 0.0 0.01875 -0.0520833 0.0 0.0201565 -0.0479167 0.0 0.0226051 -0.0437502 0.0 0.0248271 -0.0395835 0.0 0.0268044 -0.035417 0.0 0.0285455 -0.0312504 0.0 0.0300562 -0.0270838 0.0 0.0313416 -0.0229172 0.0 0.0324061 -0.0187506 0.0 0.0332534 -0.0145839 0.0 0.0338863 -0.0104171 0.0 0.034307 -0.00625029 0.0 0.034517 -0.00208343 0.0 0.034517 0.00208343 0.0 0.034307 0.00625029 0.0 0.0338863 0.0104171 0.0 0.0332534 0.0145839 0.0 0.0324061 0.0187506 0.0 0.0313416 0.0229172 0.0 0.0300562 0.0270838 0.0 0.0285455 0.0312504 0.0 0.0268044 0.035417 0.0 0.0248271 0.0395835 0.0 0.0226051 0.0437502 0.0 0.0201565 0.0479167 0.0 0.01875 0.0520833 0.0 0.01875 0.05625 0.0 0.01875 0.0604167 0.0 0.01875 0.0645833 0.0 0.0229167 -0.0645833 0.0 0.0229167 -0.0604167 0.0 0.0229167 -0.05625 0.0 0.0229167 -0.0520833 0.0 0.0243232 -0.0479167 0.0 0.0267718 -0.0437502 0.0 0.0289938 -0.0395835 0.0 0.030971 -0.035417 0.0 0.0327122 -0.0312504 0.0 0.0342229 -0.0270838 0.0 0.0355083 -0.0229172 0.0 0.0365728 -0.0187506 0.0 0.0374201 -0.0145839 0.0 0.038053 -0.0104171 0.0 0.0384737 -0.00625029 0.0 0.0386837 -0.00208343 0.0 0.0386837 0.00208343 0.0 0.0384737 0.00625029 0.0 0.038053 0.0104171 0.0 0.0374201 0.0145839 0.0 0.0365728 0.0187506 0.0 0.0355083 0.0229172 0.0 0.0342229 0.0270838 0.0 0.0327122 0.0312504 0.0 0.030971 0.035417 0.0 0.0289938 0.0395835 0.0 0.0267718 0.0437502 0.0 0.0243232 0.0479167 0.0 0.0229167 0.0520833 0.0 0.0229167 0.05625 0.0 0.0229167 0.0604167 0.0 0.0229167 0.0645833 0.0 0.0270833 -0.0645833 0.0 0.0270833 -0.0604167 0.0 0.0270833 -0.05625 0.0 0.0270833 -0.0520833 0.0 0.0284898 -0.0479167 0.0 0.0309384 -0.0437502 0.0 0.0331604 -0.0395835 0.0 0.0351377 -0.035417 0.0 0.0368788 -0.0312504 0.0 0.0383895 -0.0270838 0.0 0.039675 -0.0229172 0.0 0.0407395 -0.0187506 0.0 0.0415867 -0.0145839 0.0 0.0422196 -0.0104171 0.0 0.0426404 -0.00625029 0.0 0.0428504 -0.00208343 0.0 0.0428504 0.00208343 0.0 0.0426404 0.00625029 0.0 0.0422196 0.0104171 0.0 0.0415867 0.0145839 0.0 0.0407395 0.0187506 0.0 0.039675 0.0229172 0.0 0.0383895 0.0270838 0.0 0.0368788 0.0312504 0.0 0.0351377 0.035417 0.0 0.0331604 0.0395835 0.0 0.0309384 0.0437502 0.0 0.0284898 0.0479167 0.0 0.0270833 0.0520833 0.0 0.0270833 0.05625 0.0 0.0270833 0.0604167 0.0 0.0270833 0.0645833 0.0 0.03125 -0.0645833 0.0 0.03125 -0.0604167 0.0 0.03125 -0.05625 0.0 0.03125 -0.0520833 0.0 0.0326565 -0.0479167 0.0 0.0351051 -0.0437502 0.0 0.0373271 -0.0395835 0.0 0.0393044 -0.035417 0.0 0.0410455 -0.0312504 0.0 0.0425562 -0.0270838 0.0 0.0438416 -0.0229172 0.0 0.0449061 -0.0187506 0.0 0.0457534 -0.0145839 0.0 0.0463863 -0.0104171 0.0 0.046807 -0.00625029 0.0 0.047017 -0.00208343 0.0 0.047017 0.00208343 0.0 0.046807 0.00625029 0.0 0.0463863 0.0104171 0.0 0.0457534 0.0145839 0.0 0.0449061 0.0187506 0.0 0.0438416 0.0229172 0.0 0.0425562 0.0270838 0.0 0.0410455 0.0312504 0.0 0.0393044 0.035417 0.0 0.0373271 0.0395835 0.0 0.0351051 0.0437502 0.0 0.0326565 0.0479167 0.0 0.03125 0.0520833 0.0 0.03125 0.05625 0.0 0.03125 0.0604167 0.0 0.03125 0.0645833 0.0 0.0354167 -0.0645833 0.0 0.0354167 -0.0604167 0.0 0.0354167 -0.05625 0.0 0.0354167 -0.0520833 0.0 0.0368232 -0.0479167 0.0 0.0392718 -0.0437502 0.0 0.0414938 -0.0395835 0.0 0.043471 -0.035417 0.0 0.0452122 -0.0312504 0.0 0.0467229 -0.0270838 0.0 0.0480083 -0.0229172 0.0 0.0490728 -0.0187506 0.0 0.0499201 -0.0145839 0.0 -0.049447 -0.0104171 0.0 -0.0490263 -0.00625029 0.0 -0.0488163 -0.00208343 0.0 -0.0488163 0.00208343 0.0 -0.0490263 0.00625029 0.0 -0.049447 0.0104171 0.0 0.0499201 0.0145839 0.0 0.0490728 0.0187506 0.0 0.0480083 0.0229172 0.0 0.0467229 0.0270838 0.0 0.0452122 0.0312504 0.0 0.043471 0.035417 0.0 0.0414938 0.0395835 0.0 0.0392718 0.0437502 0.0 0.0368232 0.0479167 0.0 0.0354167 0.0520833 0.0 0.0354167 0.05625 0.0 0.0354167 0.0604167 0.0 0.0354167 0.0645833 0.0 0.0395833 -0.0645833 0.0 0.0395833 -0.0604167 0.0 0.0395833 -0.05625 0.0 0.0395833 -0.0520833 0.0 0.0409898 -0.0479167 0.0 0.0434384 -0.0437502 0.0 0.0456604 -0.0395835 0.0 0.0476377 -0.035417 0.0 0.0493788 -0.0312504 0.0 -0.0491105 -0.0270838 0.0 -0.047825 -0.0229172 0.0 -0.0467605 -0.0187506 0.0 -0.0459133 -0.0145839 0.0 -0.0452804 -0.0104171 0.0 -0.0448596 -0.00625029 0.0 -0.0446496 -0.00208343 0.0 -0.0446496 0.00208343 0.0 -0.0448596 0.00625029 0.0 -0.0452804 0.0104171 0.0 -0.0459133 0.0145839 0.0 -0.0467605 0.0187506 0.0 -0.047825 0.0229172 0.0 -0.0491105 0.0270838 0.0 0.0493788 0.0312504 0.0 0.0476377 0.035417 0.0 0.0456604 0.0395835 0.0 0.0434384 0.0437502 0.0 0.0409898 0.0479167 0.0 0.0395833 0.0520833 0.0 0.0395833 0.05625 0.0 0.0395833 0.0604167 0.0 0.0395833 0.0645833 0.0 0.04375 -0.0645833 0.0 0.04375 -0.0604167 0.0 0.04375 -0.05625 0.0 0.04375 -0.0520833 0.0 0.0451565 -0.0479167 0.0 0.0476051 -0.0437502 0.0 0.0498271 -0.0395835 0.0 -0.0481956 -0.035417 0.0 -0.0464545 -0.0312504 0.0 -0.0449438 -0.0270838 0.0 -0.0436584 -0.0229172 0.0 -0.0425939 -0.0187506 0.0 -0.0417466 -0.0145839 0.0 -0.0411137 -0.0104171 0.0 -0.040693 -0.00625029 0.0 -0.040483 -0.00208343 0.0 -0.040483 0.00208343 0.0 -0.040693 0.00625029 0.0 -0.0411137 0.0104171 0.0 -0.0417466 0.0145839 0.0 -0.0425939 0.0187506 0.0 -0.0436584 0.0229172 0.0 -0.0449438 0.0270838 0.0 -0.0464545 0.0312504 0.0 -0.0481956 0.035417 0.0 0.0498271 0.0395835 0.0 0.0476051 0.0437502 0.0 0.0451565 0.0479167 0.0 0.04375 0.0520833 0.0 0.04375 0.05625 0.0 0.04375 0.0604167 0.0 0.04375 0.0645833 0.0 0.0479167 -0.0645833 0.0 0.0479167 -0.0604167 0.0 0.0479167 -0.05625 0.0 0.0479167 -0.0520833 0.0 0.0493232 -0.0479167 0.0 -0.0482282 -0.0437502 0.0 -0.0460062 -0.0395835 0.0 -0.044029 -0.035417 0.0 -0.0422878 -0.0312504 0.0 -0.0407771 -0.0270838 0.0 -0.0394917 -0.0229172 0.0 -0.0384272 -0.0187506 0.0 -0.0375799 -0.0145839 0.0 -0.036947 -0.0104171 0.0 -0.0365263 -0.00625029 0.0 -0.0363163 -0.00208343 0.0 -0.0363163 0.00208343 0.0 -0.0365263 0.00625029 0.0 -0.036947 0.0104171 0.0 -0.0375799 0.0145839 0.0 -0.0384272 0.0187506 0.0 -0.0394917 0.0229172 0.0 -0.0407771 0.0270838 0.0 -0.0422878 0.0312504 0.0 -0.044029 0.035417 0.0 -0.0460062 0.0395835 0.0 -0.0482282 0.0437502 0.0 0.0493232 0.0479167 0.0 0.0479167 0.0520833 0.0 0.0479167 0.05625 0.0 0.0479167 0.0604167 0.0 0.0479167 0.0645833 0.0
        </DataArray>
      </Points>
      <Cells>
        <DataArray type="Int32" Name="connectivity" format="ascii">
 0 1 2 3 4 5 6 7 8 9 10 11 12 13 14 15 16 17 18 19 20 21 22 23 24 25 26 27 28 29 30 31 32 33 34 35 36 37 38 39 40 41 42 43 44 45 46 47 48 49 50 51 52 53 54 55 56 57 58 59 60 61 62 63 64 65 66 67 68 69 70 71 72 73 74 75 76 77 78 79 80 81 82 83 84 85 86 87 88 89 90 91 92 93 94 95 96 97 98 99 100 101 102 103 104 105 106 107 108 109 110 111 112 113 114 115 116 117 118 119 120 121 122 123 124 125 126 127 128 129 130 131 132 133 134 135 136 137 138 139 140 141 142 143 144 145 146 147 148 149 150 151 152 153 154 155 156 157 158 159 160 161 162 163 164 165 166 167 168 169 170 171 172 173 174 175 176 177 178 179 180 181 182 183 184 185 186 187 188 189 190 191 192 193 194 195 196 197 198 199 200 201 202 203 204 205 206 207 208 209 210 211 212 213 214 215 216 217 218 219 220 221 222 223 224 225 226 227 228 229 230 231 232 233 234 235 236 237 238 239 240 241 242 243 244 245 246 247 248 249 250 251 252 253 254 255 256 257 258 259 260 261 262 263 264 265 266 267 268 269 270 271 272 273 274 275 276 277 278 279 280 281 282 283 284 285 286 287 288 289 290 291 292 293 294 295 296 297 298 299 300 301 302 303 304 305 306 307 308 309 310 311 312 313 314 315 316 317 318 319 320 321 322 323 324 325 326 327 328 329 330 331 332 333 334 335 336 337 338 339 340 341 342 343 344 345 346 347 348 349 350 351 352 353 354 355 356 357 358 359 360 361 362 363 364 365 366 367 368 369 370 371 372 373 374 375 376 377 378 379 380 381 382 383 384 385 386 387 388 389 390 391 392 393 394 395 396 397 398 399 400 401 402 403 404 405 406 407 408 409 410 411 412 413 414 415 416 417 418 419 420 421 422 423 424 425 426 427 428 429 430 431 432 433 434 435 436 437 438 439 440 441 442 443 444 445 446 447 448 449 450 451 452 453 454 455 456 457 458 459 460 461 462 463 464 465 466 467 468 469 470 471 472 473 474 475 476 477 478 479 480 481 482 483 484 485 486 487 488 489 490 491 492 493 494 495 496 497 498 499 500 501 502 503 504 505 506 507 508 509 510 511 512 513 514 515 516 517 518 519 520 521 522 523 524 525 526 527 528 529 530 531 532 533 534 535 536 537 538 539 540 541 542 543 544 545 546 547 548 549 550 551 552 553 554 555 556 557 558 559 560 561 562 563 564 565 566 567 568 569 570 571 572 573 574 575 576 577 578 579 580 581 582 583 584 585 586 587 588 589 590 591 592 593 594 595 596 597 598 599 600 601 602 603 604 605 606 607 608 609 610 611 612 613 614 615 616 617 618 619 620 621 622 623 624 625 626 627 628 629 630 631 632 633 634 635 636 637 638 639 640 641 642 643 644 645 646 647 648 649 650 651 652 653 654 655 656 657 658 659 660 661 662 663 664 665 666 667 668 669 670 671 672 673 674 675 676 677 678 679 680 681 682 683 684 685 686 687 688 689 690 691 692 693 694 695 696 697 698 699 700 701 702 703 704 705 706 707 708 709 710 711 712 713 714 715 716 717 718 719 720 721 722 723 724 725 726 727 728 729 730 731 732 733 734 735 736 737 738 739 740 741 742 743 744 745 746 747 748 749 750 751 752 753 754 755 756 757 758 759 760 761 762 763 764 765 766 767
        </DataArray>
        <DataArray type="Int32" Name="offsets" format="ascii">
 1 2 3 4 5 6 7 8 9 10 11 12 13 14 15 16 17 18 19 20 21 22 23 24 25 26 27 28 29 30 31 32 33 34 35 36 37 38 39 40 41 42 43 44 45 46 47 48 49 50 51 52 53 54 55 56 57 58 59 60 61 62 63 64 65 66 67 68 69 70 71 72 73 74 75 76 77 78 79 80 81 82 83 84 85 86 87 88 89 90 91 92 93 94 95 96 97 98 99 100 101 102 103 104 105 106 107 108 109 110 111 112 113 114 115 116 117 118 119 120 121 122 123 124 125 126 127 128 129 130 131 132 133 134 135 136 137 138 139 140 141 142 143 144 145 146 147 148 149 150 151 152 153 154 155 156 157 158 159 160 161 162 163 164 165 166 167 168 169 170 171 172 173 174 175 176 177 178 179 180 181 182 183 184 185 186 187 188 189 190 191 192 193 194 195 196 197 198 199 200 201 202 203 204 205 206 207 208 209 210 211 212 213 214 215 216 217 218 219 220 221 222 223 224 225 226 227 228 229 230 231 232 233 234 235 236 237 238 239 240 241 242 243 244 245 246 247 248 249 250 251 252 253 254 255 256 257 258 259 260 261 262 263 264 265 266 267 268 269 270 271 272 273 274 275 276 277 278 279 280 281 282 283 284 285 286 287 288 289 290 291 292 293 294 295 296 297 298 299 300 301 302 303 304 305 306 307 308 309 310 311 312 313 314 315 316 317 318 319 320 321 322 323 324 325 326 327 328 329 330 331 332 333 334 335 336 337 338 339 340 341 342 343 344 345 346 347 348 349 350 351 352 353 354 355 356 357 358 359 360 361 362 363 364 365 366 367 368 369 370 371 372 373 374 375 376 377 378 379 380 381 382 383 384 385 386 387 388 389 390 391 392 393 394 395 396 397 398 399 400 401 402 403 404 405 406 407 408 409 410 411 412 413 414 415 416 417 418 419 420 421 422 423 424 425 426 427 428 429 430 431 432 433 434 435 436 437 438 439 440 441 442 443 444 445 446 447 448 449 450 451 452 453 454 455 456 457 458 459 460 461 462 463 464 465 466 467 468 469 470 471 472 473 474 475 476 477 478 479 480 481 482 483 484 485 486 487 488 489 490 491 492 493 494 495 496 497 498 499 500 501 502 503 504 505 506 507 508 509 510 511 512 513 514 515 516 517 518 519 520 521 522 523 524 525 526 527 528 529 530 531 532 533 534 535 536 537 538 539 540 541 542 543 544 545 546 547 548 549 550 551 552 553 554 555 556 557 558 559 560 561 562 563 564 565 566 567 568 569 570 571 572 573 574 575 576 577 578 579 580 581 582 583 584 585 586 587 588 589 590 591 592 593 594 595 596 597 598 599 600 601 602 603 604 605 606 607 608 609 610 611 612 613 614 615 616 617 618 619 620 621 622 623 624 625 626 627 628 629 630 631 632 633 634 635 636 637 638 639 640 641 642 643 644 645 646 647 648 649 650 651 652 653 654 655 656 657 658 659 660 661 662 663 664 665 666 667 668 669 670 671 672 673 674 675 676 677 678 679 680 681 682 683 684 685 686 687 688 689 690 691 692 693 694 695 696 697 698 699 700 701 702 703 704 705 706 707 708 709 710 711 712 713 714 715 716 717 718 719 720 721 722 723 724 725 726 727 728 729 730 731 732 733 734 735 736 737 738 739 740 741 742 743 744 745 746 747 748 749 750 751 752 753 754 755 756 757 758 759 760 761 762 763 764 765 766 767 768
        </DataArray>
        <DataArray type="UInt8" Name="types" format="ascii">
 1 1 1 1 1 1 1 1 1 1 1 1 1 1 1 1 1 1 1 1 1 1 1 1 1 1 1 1 1 1 1 1 1 1 1 1 1 1 1 1 1 1 1 1 1 1 1 1 1 1 1 1 1 1 1 1 1 1 1 1 1 1 1 1 1 1 1 1 1 1 1 1 1 1 1 1 1 1 1 1 1 1 1 1 1 1 1 1 1 1 1 1 1 1 1 1 1 1 1 1 1 1 1 1 1 1 1 1 1 1 1 1 1 1 1 1 1 1 1 1 1 1 1 1 1 1 1 1 1 1 1 1 1 1 1 1 1 1 1 1 1 1 1 1 1 1 1 1 1 1 1 1 1 1 1 1 1 1 1 1 1 1 1 1 1 1 1 1 1 1 1 1 1 1 1 1 1 1 1 1 1 1 1 1 1 1 1 1 1 1 1 1 1 1 1 1 1 1 1 1 1 1 1 1 1 1 1 1 1 1 1 1 1 1 1 1 1 1 1 1 1 1 1 1 1 1 1 1 1 1 1 1 1 1 1 1 1 1 1 1 1 1 1 1 1 1 1 1 1 1 1 1 1 1 1 1 1 1 1 1 1 1 1 1 1 1 1 1 1 1 1 1 1 1 1 1 1 1 1 1 1 1 1 1 1 1 1 1 1 1 1 1 1 1 1 1 1 1 1 1 1 1 1 1 1 1 1 1 1 1 1 1 1 1 1 1 1 1 1 1 1 1 1 1 1 1 1 1 1 1 1 1 1 1 1 1 1 1 1 1 1 1 1 1 1 1 1 1 1 1 1 1 1 1 1 1 1 1 1 1 1 1 1 1 1 1 1 1 1 1 1 1 1 1 1 1 1 1 1 1 1 1 1 1 1 1 1 1 1 1 1 1 1 1 1 1 1 1 1 1 1 1 1 1 1 1 1 1 1 1 1 1 1 1 1 1 1 1 1 1 1 1 1 1 1 1 1 1 1 1 1 1 1 1 1 1 1 1 1 1 1 1 1 1 1 1 1 1 1 1 1 1 1 1 1 1 1 1 1 1 1 1 1 1 1 1 1 1 1 1 1 1 1 1 1 1 1 1 1 1 1 1 1 1 1 1 1 1 1 1 1 1 1 1 1 1 1 1 1 1 1 1 1 1 1 1 1 1 1 1 1 1 1 1 1 1 1 1 1 1 1 1 1 1 1 1 1 1 1 1 1 1 1 1 1 1 1 1 1 1 1 1 1 1 1 1 1 1 1 1 1 1 1 1 1 1 1 1 1 1 1 1 1 1 1 1 1 1 1 1 1 1 1 1 1 1 1 1 1 1 1 1 1 1 1 1 1 1 1 1 1 1 1 1 1 1 1 1 1 1 1 1 1 1 1 1 1 1 1 1 1 1 1 1 1 1 1 1 1 1 1 1 1 1 1 1 1 1 1 1 1 1 1 1 1 1 1 1 1 1 1 1 1 1 1 1 1 1 1 1 1 1 1 1 1 1 1 1 1 1 1 1 1 1 1 1 1 1 1 1 1 1 1 1 1 1 1 1 1 1 1 1 1 1 1 1 1 1 1 1 1 1 1 1 1 1 1 1 1 1 1 1 1 1 1 1 1 1 1 1 1 1 1 1 1 1 1 1 1 1 1 1 1 1 1 1 1 1 1 1 1 1 1 1 1 1 1 1 1 1 1 1 1 1 1 1 1 1 1 1 1 1 1 1 1 1 1 1 1 1 1 1 1 1 1 1 1 1
        </DataArray>
      </Cells>
    </Piece>
  </UnstructuredGrid>
</VTKFile>
