<?xml version="1.0"?>
<VTKFile type="UnstructuredGrid" version="0.1" byte_order="LittleEndian">
  <UnstructuredGrid>
    <Piece NumberOfPoints="768" NumberOfCells="768">
      <PointData Scalars="p rho type" Vectors="v vf">
        <DataArray type="Float64" Name="p" format="ascii">
 0 0.0285549 0.028051 0.0280339 0.0280406 0.0279481 0.0280064 0.028017 0.0280219 0.0280452 0.0280212 0.0280284 0.0280165 0.0280143 0.0280099 0.0280108 0.0280108 0.0280099 0.0280143 0.0280165 0.0280284 0.0280212 0.0280452 0.0280219 0.028017 0.0280064 0.0279481 0.0280406 0.0280339 0.028051 0.0285549 0 0 0.0285549 0.028051 0.0280339 0.0280406 0.0279481 0.0280064 0.028017 0.0280219 0.0280452 0.0280212 0.0280284 0.0280165 0.0280143 0.0280099 0.0280108 0.0280108 0.0280099 0.0280143 0.0280165 0.0280284 0.0280212 0.0280452 0.0280219 0.028017 0.0280064 0.0279481 0.0280406 0.0280339 0.028051 0.0285549 0 0 0.0285549 0.028051 0.0280339 0.0280406 0.0279481 0.0280064 0.028017 0.0280219 0.0280452 0.0280212 0.0280284 0.0280165 0.0280143 0.0280099 0.0280108 0.0280108 0.0280099 0.0280143 0.0280165 0.0280284 0.0280212 0.0280452 0.0280219 0.028017 0.0280064 0.0279481 0.0280406 0.0280339 0.028051 0.0285549 0 0 0.0285549 0.028051 0.0280339 0.0280406 0.0279481 0.0280064 0.028017 0.0280219 0.0280452 0.0280212 0.0280284 0.0280165 0.0280143 0.0280099 0.0280108 0.0280108 0.0280099 0.0280143 0.0280165 0.0280284 0.0280212 0.0280452 0.0280219 0.028017 0.0280064 0.0279481 0.0280406 0.0280339 0.028051 0.0285549 0 0 0.0285549 0.028051 0.0280339 0.0280406 0.0279481 0.0280064 0.028017 0.0280219 0.0280452 0.0280212 0.0280284 0.0280165 0.0280143 0.0280099 0.0280108 0.0280108 0.0280099 0.0280143 0.0280165 0.0280284 0.0280212 0.0280452 0.0280219 0.028017 0.0280064 0.0279481 0.0280406 0.0280339 0.028051 0.0285549 0 0 0.0285549 0.028051 0.0280339 0.0280406 0.0279481 0.0280064 0.028017 0.0280219 0.0280452 0.0280212 0.0280284 0.0280165 0.0280143 0.0280099 0.0280108 0.0280108 0.0280099 0.0280143 0.0280165 0.0280284 0.0280212 0.0280452 0.0280219 0.028017 0.0280064 0.0279481 0.0280406 0.0280339 0.028051 0.0285549 0 0 0.0285549 0.028051 0.0280339 0.0280406 0.0279481 0.0280064 0.028017 0.0280219 0.0280452 0.0280212 0.0280284 0.0280165 0.0280143 0.0280099 0.0280108 0.0280108 0.0280099 0.0280143 0.0280165 0.0280284 0.0280212 0.0280452 0.0280219 0.028017 0.0280064 0.0279481 0.0280406 0.0280339 0.028051 0.0285549 0 0 0.0285549 0.028051 0.0280339 0.0280406 0.0279481 0.0280064 0.028017 0.0280219 0.0280452 0.0280212 0.0280284 0.0280165 0.0280143 0.0280099 0.0280108 0.0280108 0.0280099 0.0280143 0.0280165 0.0280284 0.0280212 0.0280452 0.0280219 0.028017 0.0280064 0.0279481 0.0280406 0.0280339 0.028051 0.0285549 0 0 0.0285549 0.028051 0.0280339 0.0280406 0.0279481 0.0280064 0.028017 0.0280219 0.0280452 0.0280212 0.0280284 0.0280165 0.0280143 0.0280099 0.0280108 0.0280108 0.0280099 0.0280143 0.0280165 0.0280284 0.0280212 0.0280452 0.0280219 0.028017 0.0280064 0.0279481 0.0280406 0.0280339 0.028051 0.0285549 0 0 0.0285549 0.028051 0.0280339 0.0280406 0.0279481 0.0280064 0.028017 0.0280219 0.0280452 0.0280212 0.0280284 0.0280165 0.0280143 0.0280099 0.0280108 0.0280108 0.0280099 0.0280143 0.0280165 0.0280284 0.0280212 0.0280452 0.0280219 0.028017 0.0280064 0.0279481 0.0280406 0.0280339 0.028051 0.0285549 0 0 0.0285549 0.028051 0.0280339 0.0280406 0.0279481 0.0280064 0.028017 0.0280219 0.0280452 0.0280212 0.0280284 0.0280165 0.0280143 0.0280099 0.0280108 0.0280108 0.0280099 0.0280143 0.0280165 0.0280284 0.0280212 0.0280452 0.0280219 0.028017 0.0280064 0.0279481 0.0280406 0.0280339 0.028051 0.0285549 0 0 0.0285549 0.028051 0.0280339 0.0280406 0.0279481 0.0280064 0.028017 0.0280219 0.0280452 0.0280212 0.0280284 0.0280165 0.0280143 0.0280099 0.0280108 0.0280108 0.0280099 0.0280143 0.0280165 0.0280284 0.0280212 0.0280452 0.0280219 0.028017 0.0280064 0.0279481 0.0280406 0.0280339 0.028051 0.0285549 0 0 0.0285549 0.028051 0.0280339 0.0280406 0.0279481 0.0280064 0.028017 0.0280219 0.0280452 0.0280212 0.0280284 0.0280165 0.0280143 0.0280099 0.0280108 0.0280108 0.0280099 0.0280143 0.0280165 0.0280284 0.0280212 0.0280452 0.0280219 0.028017 0.0280064 0.0279481 0.0280406 0.0280339 0.028051 0.0285549 0 0 0.0285549 0.028051 0.0280339 0.0280406 0.0279481 0.0280064 0.028017 0.0280219 0.0280452 0.0280212 0.0280284 0.0280165 0.0280143 0.0280099 0.0280108 0.0280108 0.0280099 0.0280143 0.0280165 0.0280284 0.0280212 0.0280452 0.0280219 0.028017 0.0280064 0.0279481 0.0280406 0.0280339 0.028051 0.0285549 0 0 0.0285549 0.028051 0.0280339 0.0280406 0.0279481 0.0280064 0.028017 0.0280219 0.0280452 0.0280212 0.0280284 0.0280165 0.0280143 0.0280099 0.0280108 0.0280108 0.0280099 0.0280143 0.0280165 0.0280284 0.0280212 0.0280452 0.0280219 0.028017 0.0280064 0.0279481 0.0280406 0.0280339 0.028051 0.0285549 0 0 0.0285549 0.028051 0.0280339 0.0280406 0.0279481 0.0280064 0.028017 0.0280219 0.0280452 0.0280212 0.0280284 0.0280165 0.0280143 0.0280099 0.0280108 0.0280108 0.0280099 0.0280143 0.0280165 0.0280284 0.0280212 0.0280452 0.0280219 0.028017 0.0280064 0.0279481 0.0280406 0.0280339 0.028051 0.0285549 0 0 0.0285549 0.028051 0.0280339 0.0280406 0.0279481 0.0280064 0.028017 0.0280219 0.0280452 0.0280212 0.0280284 0.0280165 0.0280143 0.0280099 0.0280108 0.0280108 0.0280099 0.0280143 0.0280165 0.0280284 0.0280212 0.0280452 0.0280219 0.028017 0.0280064 0.0279481 0.0280406 0.0280339 0.028051 0.0285549 0 0 0.0285549 0.028051 0.0280339 0.0280406 0.0279481 0.0280064 0.028017 0.0280219 0.0280452 0.0280212 0.0280284 0.0280165 0.0280143 0.0280099 0.0280108 0.0280108 0.0280099 0.0280143 0.0280165 0.0280284 0.0280212 0.0280452 0.0280219 0.028017 0.0280064 0.0279481 0.0280406 0.0280339 0.028051 0.0285549 0 0 0.0285549 0.028051 0.0280339 0.0280406 0.0279481 0.0280064 0.028017 0.0280219 0.0280452 0.0280212 0.0280284 0.0280165 0.0280143 0.0280099 0.0280108 0.0280108 0.0280099 0.0280143 0.0280165 0.0280284 0.0280212 0.0280452 0.0280219 0.028017 0.0280064 0.0279481 0.0280406 0.0280339 0.028051 0.0285549 0 0 0.0285549 0.028051 0.0280339 0.0280406 0.0279481 0.0280064 0.028017 0.0280219 0.0280452 0.0280212 0.0280284 0.0280165 0.0280143 0.0280099 0.0280108 0.0280108 0.0280099 0.0280143 0.0280165 0.0280284 0.0280212 0.0280452 0.0280219 0.028017 0.0280064 0.0279481 0.0280406 0.0280339 0.028051 0.0285549 0 0 0.0285549 0.028051 0.0280339 0.0280406 0.0279481 0.0280064 0.028017 0.0280219 0.0280452 0.0280212 0.0280284 0.0280165 0.0280143 0.0280099 0.0280108 0.0280108 0.0280099 0.0280143 0.0280165 0.0280284 0.0280212 0.0280452 0.0280219 0.028017 0.0280064 0.0279481 0.0280406 0.0280339 0.028051 0.0285549 0 0 0.0285549 0.028051 0.0280339 0.0280406 0.0279481 0.0280064 0.028017 0.0280219 0.0280452 0.0280212 0.0280284 0.0280165 0.0280143 0.0280099 0.0280108 0.0280108 0.0280099 0.0280143 0.0280165 0.0280284 0.0280212 0.0280452 0.0280219 0.028017 0.0280064 0.0279481 0.0280406 0.0280339 0.028051 0.0285549 0 0 0.0285549 0.028051 0.0280339 0.0280406 0.0279481 0.0280064 0.028017 0.0280219 0.0280452 0.0280212 0.0280284 0.0280165 0.0280143 0.0280099 0.0280108 0.0280108 0.0280099 0.0280143 0.0280165 0.0280284 0.0280212 0.0280452 0.0280219 0.028017 0.0280064 0.0279481 0.0280406 0.0280339 0.028051 0.0285549 0 0 0.0285549 0.028051 0.0280339 0.0280406 0.0279481 0.0280064 0.028017 0.0280219 0.0280452 0.0280212 0.0280284 0.0280165 0.0280143 0.0280099 0.0280108 0.0280108 0.0280099 0.0280143 0.0280165 0.0280284 0.0280212 0.0280452 0.0280219 0.028017 0.0280064 0.0279481 0.0280406 0.0280339 0.028051 0.0285549 0
        </DataArray>
        <DataArray type="Float64" Name="rho" format="ascii">
 1000 1001.19 1001.16 1001.16 1001.16 1001.16 1001.16 1001.16 1001.16 1001.16 1001.16 1001.16 1001.16 1001.16 1001.16 1001.16 1001.16 1001.16 1001.16 1001.16 1001.16 1001.16 1001.16 1001.16 1001.16 1001.16 1001.16 1001.16 1001.16 1001.16 1001.19 1000 1000 1001.19 1001.16 1001.16 1001.16 1001.16 1001.16 1001.16 1001.16 1001.16 1001.16 1001.16 1001.16 1001.16 1001.16 1001.16 1001.16 1001.16 1001.16 1001.16 1001.16 1001.16 1001.16 1001.16 1001.16 1001.16 1001.16 1001.16 1001.16 1001.16 1001.19 1000 1000 1001.19 1001.16 1001.16 1001.16 1001.16 1001.16 1001.16 1001.16 1001.16 1001.16 1001.16 1001.16 1001.16 1001.16 1001.16 1001.16 1001.16 1001.16 1001.16 1001.16 1001.16 1001.16 1001.16 1001.16 1001.16 1001.16 1001.16 1001.16 1001.16 1001.19 1000 1000 1001.19 1001.16 1001.16 1001.16 1001.16 1001.16 1001.16 1001.16 1001.16 1001.16 1001.16 1001.16 1001.16 1001.16 1001.16 1001.16 1001.16 1001.16 1001.16 1001.16 1001.16 1001.16 1001.16 1001.16 1001.16 1001.16 1001.16 1001.16 1001.16 1001.19 1000 1000 1001.19 1001.16 1001.16 1001.16 1001.16 1001.16 1001.16 1001.16 1001.16 1001.16 1001.16 1001.16 1001.16 1001.16 1001.16 1001.16 1001.16 1001.16 1001.16 1001.16 1001.16 1001.16 1001.16 1001.16 1001.16 1001.16 1001.16 1001.16 1001.16 1001.19 1000 1000 1001.19 1001.16 1001.16 1001.16 1001.16 1001.16 1001.16 1001.16 1001.16 1001.16 1001.16 1001.16 1001.16 1001.16 1001.16 1001.16 1001.16 1001.16 1001.16 1001.16 1001.16 1001.16 1001.16 1001.16 1001.16 1001.16 1001.16 1001.16 1001.16 1001.19 1000 1000 1001.19 1001.16 1001.16 1001.16 1001.16 1001.16 1001.16 1001.16 1001.16 1001.16 1001.16 1001.16 1001.16 1001.16 1001.16 1001.16 1001.16 1001.16 1001.16 1001.16 1001.16 1001.16 1001.16 1001.16 1001.16 1001.16 1001.16 1001.16 1001.16 1001.19 1000 1000 1001.19 1001.16 1001.16 1001.16 1001.16 1001.16 1001.16 1001.16 1001.16 1001.16 1001.16 1001.16 1001.16 1001.16 1001.16 1001.16 1001.16 1001.16 1001.16 1001.16 1001.16 1001.16 1001.16 1001.16 1001.16 1001.16 1001.16 1001.16 1001.16 1001.19 1000 1000 1001.19 1001.16 1001.16 1001.16 1001.16 1001.16 1001.16 1001.16 1001.16 1001.16 1001.16 1001.16 1001.16 1001.16 1001.16 1001.16 1001.16 1001.16 1001.16 1001.16 1001.16 1001.16 1001.16 1001.16 1001.16 1001.16 1001.16 1001.16 1001.16 1001.19 1000 1000 1001.19 1001.16 1001.16 1001.16 1001.16 1001.16 1001.16 1001.16 1001.16 1001.16 1001.16 1001.16 1001.16 1001.16 1001.16 1001.16 1001.16 1001.16 1001.16 1001.16 1001.16 1001.16 1001.16 1001.16 1001.16 1001.16 1001.16 1001.16 1001.16 1001.19 1000 1000 1001.19 1001.16 1001.16 1001.16 1001.16 1001.16 1001.16 1001.16 1001.16 1001.16 1001.16 1001.16 1001.16 1001.16 1001.16 1001.16 1001.16 1001.16 1001.16 1001.16 1001.16 1001.16 1001.16 1001.16 1001.16 1001.16 1001.16 1001.16 1001.16 1001.19 1000 1000 1001.19 1001.16 1001.16 1001.16 1001.16 1001.16 1001.16 1001.16 1001.16 1001.16 1001.16 1001.16 1001.16 1001.16 1001.16 1001.16 1001.16 1001.16 1001.16 1001.16 1001.16 1001.16 1001.16 1001.16 1001.16 1001.16 1001.16 1001.16 1001.16 1001.19 1000 1000 1001.19 1001.16 1001.16 1001.16 1001.16 1001.16 1001.16 1001.16 1001.16 1001.16 1001.16 1001.16 1001.16 1001.16 1001.16 1001.16 1001.16 1001.16 1001.16 1001.16 1001.16 1001.16 1001.16 1001.16 1001.16 1001.16 1001.16 1001.16 1001.16 1001.19 1000 1000 1001.19 1001.16 1001.16 1001.16 1001.16 1001.16 1001.16 1001.16 1001.16 1001.16 1001.16 1001.16 1001.16 1001.16 1001.16 1001.16 1001.16 1001.16 1001.16 1001.16 1001.16 1001.16 1001.16 1001.16 1001.16 1001.16 1001.16 1001.16 1001.16 1001.19 1000 1000 1001.19 1001.16 1001.16 1001.16 1001.16 1001.16 1001.16 1001.16 1001.16 1001.16 1001.16 1001.16 1001.16 1001.16 1001.16 1001.16 1001.16 1001.16 1001.16 1001.16 1001.16 1001.16 1001.16 1001.16 1001.16 1001.16 1001.16 1001.16 1001.16 1001.19 1000 1000 1001.19 1001.16 1001.16 1001.16 1001.16 1001.16 1001.16 1001.16 1001.16 1001.16 1001.16 1001.16 1001.16 1001.16 1001.16 1001.16 1001.16 1001.16 1001.16 1001.16 1001.16 1001.16 1001.16 1001.16 1001.16 1001.16 1001.16 1001.16 1001.16 1001.19 1000 1000 1001.19 1001.16 1001.16 1001.16 1001.16 1001.16 1001.16 1001.16 1001.16 1001.16 1001.16 1001.16 1001.16 1001.16 1001.16 1001.16 1001.16 1001.16 1001.16 1001.16 1001.16 1001.16 1001.16 1001.16 1001.16 1001.16 1001.16 1001.16 1001.16 1001.19 1000 1000 1001.19 1001.16 1001.16 1001.16 1001.16 1001.16 1001.16 1001.16 1001.16 1001.16 1001.16 1001.16 1001.16 1001.16 1001.16 1001.16 1001.16 1001.16 1001.16 1001.16 1001.16 1001.16 1001.16 1001.16 1001.16 1001.16 1001.16 1001.16 1001.16 1001.19 1000 1000 1001.19 1001.16 1001.16 1001.16 1001.16 1001.16 1001.16 1001.16 1001.16 1001.16 1001.16 1001.16 1001.16 1001.16 1001.16 1001.16 1001.16 1001.16 1001.16 1001.16 1001.16 1001.16 1001.16 1001.16 1001.16 1001.16 1001.16 1001.16 1001.16 1001.19 1000 1000 1001.19 1001.16 1001.16 1001.16 1001.16 1001.16 1001.16 1001.16 1001.16 1001.16 1001.16 1001.16 1001.16 1001.16 1001.16 1001.16 1001.16 1001.16 1001.16 1001.16 1001.16 1001.16 1001.16 1001.16 1001.16 1001.16 1001.16 1001.16 1001.16 1001.19 1000 1000 1001.19 1001.16 1001.16 1001.16 1001.16 1001.16 1001.16 1001.16 1001.16 1001.16 1001.16 1001.16 1001.16 1001.16 1001.16 1001.16 1001.16 1001.16 1001.16 1001.16 1001.16 1001.16 1001.16 1001.16 1001.16 1001.16 1001.16 1001.16 1001.16 1001.19 1000 1000 1001.19 1001.16 1001.16 1001.16 1001.16 1001.16 1001.16 1001.16 1001.16 1001.16 1001.16 1001.16 1001.16 1001.16 1001.16 1001.16 1001.16 1001.16 1001.16 1001.16 1001.16 1001.16 1001.16 1001.16 1001.16 1001.16 1001.16 1001.16 1001.16 1001.19 1000 1000 1001.19 1001.16 1001.16 1001.16 1001.16 1001.16 1001.16 1001.16 1001.16 1001.16 1001.16 1001.16 1001.16 1001.16 1001.16 1001.16 1001.16 1001.16 1001.16 1001.16 1001.16 1001.16 1001.16 1001.16 1001.16 1001.16 1001.16 1001.16 1001.16 1001.19 1000 1000 1001.19 1001.16 1001.16 1001.16 1001.16 1001.16 1001.16 1001.16 1001.16 1001.16 1001.16 1001.16 1001.16 1001.16 1001.16 1001.16 1001.16 1001.16 1001.16 1001.16 1001.16 1001.16 1001.16 1001.16 1001.16 1001.16 1001.16 1001.16 1001.16 1001.19 1000
        </DataArray>
        <DataArray type="Int32" Name="type" format="ascii">
 1 1 1 1 0 0 0 0 0 0 0 0 0 0 0 0 0 0 0 0 0 0 0 0 0 0 0 0 1 1 1 1 1 1 1 1 0 0 0 0 0 0 0 0 0 0 0 0 0 0 0 0 0 0 0 0 0 0 0 0 1 1 1 1 1 1 1 1 0 0 0 0 0 0 0 0 0 0 0 0 0 0 0 0 0 0 0 0 0 0 0 0 1 1 1 1 1 1 1 1 0 0 0 0 0 0 0 0 0 0 0 0 0 0 0 0 0 0 0 0 0 0 0 0 1 1 1 1 1 1 1 1 0 0 0 0 0 0 0 0 0 0 0 0 0 0 0 0 0 0 0 0 0 0 0 0 1 1 1 1 1 1 1 1 0 0 0 0 0 0 0 0 0 0 0 0 0 0 0 0 0 0 0 0 0 0 0 0 1 1 1 1 1 1 1 1 0 0 0 0 0 0 0 0 0 0 0 0 0 0 0 0 0 0 0 0 0 0 0 0 1 1 1 1 1 1 1 1 0 0 0 0 0 0 0 0 0 0 0 0 0 0 0 0 0 0 0 0 0 0 0 0 1 1 1 1 1 1 1 1 0 0 0 0 0 0 0 0 0 0 0 0 0 0 0 0 0 0 0 0 0 0 0 0 1 1 1 1 1 1 1 1 0 0 0 0 0 0 0 0 0 0 0 0 0 0 0 0 0 0 0 0 0 0 0 0 1 1 1 1 1 1 1 1 0 0 0 0 0 0 0 0 0 0 0 0 0 0 0 0 0 0 0 0 0 0 0 0 1 1 1 1 1 1 1 1 0 0 0 0 0 0 0 0 0 0 0 0 0 0 0 0 0 0 0 0 0 0 0 0 1 1 1 1 1 1 1 1 0 0 0 0 0 0 0 0 0 0 0 0 0 0 0 0 0 0 0 0 0 0 0 0 1 1 1 1 1 1 1 1 0 0 0 0 0 0 0 0 0 0 0 0 0 0 0 0 0 0 0 0 0 0 0 0 1 1 1 1 1 1 1 1 0 0 0 0 0 0 0 0 0 0 0 0 0 0 0 0 0 0 0 0 0 0 0 0 1 1 1 1 1 1 1 1 0 0 0 0 0 0 0 0 0 0 0 0 0 0 0 0 0 0 0 0 0 0 0 0 1 1 1 1 1 1 1 1 0 0 0 0 0 0 0 0 0 0 0 0 0 0 0 0 0 0 0 0 0 0 0 0 1 1 1 1 1 1 1 1 0 0 0 0 0 0 0 0 0 0 0 0 0 0 0 0 0 0 0 0 0 0 0 0 1 1 1 1 1 1 1 1 0 0 0 0 0 0 0 0 0 0 0 0 0 0 0 0 0 0 0 0 0 0 0 0 1 1 1 1 1 1 1 1 0 0 0 0 0 0 0 0 0 0 0 0 0 0 0 0 0 0 0 0 0 0 0 0 1 1 1 1 1 1 1 1 0 0 0 0 0 0 0 0 0 0 0 0 0 0 0 0 0 0 0 0 0 0 0 0 1 1 1 1 1 1 1 1 0 0 0 0 0 0 0 0 0 0 0 0 0 0 0 0 0 0 0 0 0 0 0 0 1 1 1 1 1 1 1 1 0 0 0 0 0 0 0 0 0 0 0 0 0 0 0 0 0 0 0 0 0 0 0 0 1 1 1 1 1 1 1 1 0 0 0 0 0 0 0 0 0 0 0 0 0 0 0 0 0 0 0 0 0 0 0 0 1 1 1 1
        </DataArray>
        <DataArray type="Float64" NumberOfComponents="3" Name="v" format="ascii">
 0 0 0.0 0 0 0.0 0 0 0.0 0 0 0.0 0.0002585 4.3134e-08 0.0 0.000715167 -4.83197e-08 0.0 0.00113416 -1.73602e-07 0.0 0.00151089 -1.75647e-07 0.0 0.00184577 -1.3278e-07 0.0 0.00213878 -4.85159e-08 0.0 0.00238999 1.45805e-08 0.0 0.00259938 2.54576e-08 0.0 0.00276689 1.88033e-08 0.0 0.00289252 5.4929e-09 0.0 0.00297628 -6.82785e-11 0.0 0.00301817 -1.09699e-09 0.0 0.00301817 1.09699e-09 0.0 0.00297628 6.82785e-11 0.0 0.00289252 -5.4929e-09 0.0 0.00276689 -1.88033e-08 0.0 0.00259938 -2.54576e-08 0.0 0.00238999 -1.45805e-08 0.0 0.00213878 4.85159e-08 0.0 0.00184577 1.3278e-07 0.0 0.00151089 1.75647e-07 0.0 0.00113416 1.73602e-07 0.0 0.000715167 4.83197e-08 0.0 0.0002585 -4.3134e-08 0.0 0 0 0.0 0 0 0.0 0 0 0.0 0 0 0.0 0 0 0.0 0 0 0.0 0 0 0.0 0 0 0.0 0.0002585 4.3134e-08 0.0 0.000715167 -4.83197e-08 0.0 0.00113416 -1.73602e-07 0.0 0.00151089 -1.75647e-07 0.0 0.00184577 -1.3278e-07 0.0 0.00213878 -4.85159e-08 0.0 0.00238999 1.45805e-08 0.0 0.00259938 2.54576e-08 0.0 0.00276689 1.88033e-08 0.0 0.00289252 5.4929e-09 0.0 0.00297628 -6.82785e-11 0.0 0.00301817 -1.09699e-09 0.0 0.00301817 1.09699e-09 0.0 0.00297628 6.82785e-11 0.0 0.00289252 -5.4929e-09 0.0 0.00276689 -1.88033e-08 0.0 0.00259938 -2.54576e-08 0.0 0.00238999 -1.45805e-08 0.0 0.00213878 4.85159e-08 0.0 0.00184577 1.3278e-07 0.0 0.00151089 1.75647e-07 0.0 0.00113416 1.73602e-07 0.0 0.000715167 4.83197e-08 0.0 0.0002585 -4.3134e-08 0.0 0 0 0.0 0 0 0.0 0 0 0.0 0 0 0.0 0 0 0.0 0 0 0.0 0 0 0.0 0 0 0.0 0.0002585 4.3134e-08 0.0 0.000715167 -4.83197e-08 0.0 0.00113416 -1.73602e-07 0.0 0.00151089 -1.75647e-07 0.0 0.00184577 -1.3278e-07 0.0 0.00213878 -4.85159e-08 0.0 0.00238999 1.45805e-08 0.0 0.00259938 2.54576e-08 0.0 0.00276689 1.88033e-08 0.0 0.00289252 5.4929e-09 0.0 0.00297628 -6.82785e-11 0.0 0.00301817 -1.09699e-09 0.0 0.00301817 1.09699e-09 0.0 0.00297628 6.82785e-11 0.0 0.00289252 -5.4929e-09 0.0 0.00276689 -1.88033e-08 0.0 0.00259938 -2.54576e-08 0.0 0.00238999 -1.45805e-08 0.0 0.00213878 4.85159e-08 0.0 0.00184577 1.3278e-07 0.0 0.00151089 1.75647e-07 0.0 0.00113416 1.73602e-07 0.0 0.000715167 4.83197e-08 0.0 0.0002585 -4.3134e-08 0.0 0 0 0.0 0 0 0.0 0 0 0.0 0 0 0.0 0 0 0.0 0 0 0.0 0 0 0.0 0 0 0.0 0.0002585 4.3134e-08 0.0 0.000715167 -4.83197e-08 0.0 0.00113416 -1.73602e-07 0.0 0.00151089 -1.75647e-07 0.0 0.00184577 -1.3278e-07 0.0 0.00213878 -4.85159e-08 0.0 0.00238999 1.45805e-08 0.0 0.00259938 2.54576e-08 0.0 0.00276689 1.88033e-08 0.0 0.00289252 5.4929e-09 0.0 0.00297628 -6.82785e-11 0.0 0.00301817 -1.09699e-09 0.0 0.00301817 1.09699e-09 0.0 0.00297628 6.82785e-11 0.0 0.00289252 -5.4929e-09 0.0 0.00276689 -1.88033e-08 0.0 0.00259938 -2.54576e-08 0.0 0.00238999 -1.45805e-08 0.0 0.00213878 4.85159e-08 0.0 0.00184577 1.3278e-07 0.0 0.00151089 1.75647e-07 0.0 0.00113416 1.73602e-07 0.0 0.000715167 4.83197e-08 0.0 0.0002585 -4.3134e-08 0.0 0 0 0.0 0 0 0.0 0 0 0.0 0 0 0.0 0 0 0.0 0 0 0.0 0 0 0.0 0 0 0.0 0.0002585 4.3134e-08 0.0 0.000715167 -4.83197e-08 0.0 0.00113416 -1.73602e-07 0.0 0.00151089 -1.75647e-07 0.0 0.00184577 -1.3278e-07 0.0 0.00213878 -4.85159e-08 0.0 0.00238999 1.45805e-08 0.0 0.00259938 2.54576e-08 0.0 0.00276689 1.88033e-08 0.0 0.00289252 5.4929e-09 0.0 0.00297628 -6.82785e-11 0.0 0.00301817 -1.09699e-09 0.0 0.00301817 1.09699e-09 0.0 0.00297628 6.82785e-11 0.0 0.00289252 -5.4929e-09 0.0 0.00276689 -1.88033e-08 0.0 0.00259938 -2.54576e-08 0.0 0.00238999 -1.45805e-08 0.0 0.00213878 4.85159e-08 0.0 0.00184577 1.3278e-07 0.0 0.00151089 1.75647e-07 0.0 0.00113416 1.73602e-07 0.0 0.000715167 4.83197e-08 0.0 0.0002585 -4.3134e-08 0.0 0 0 0.0 0 0 0.0 0 0 0.0 0 0 0.0 0 0 0.0 0 0 0.0 0 0 0.0 0 0 0.0 0.0002585 4.3134e-08 0.0 0.000715167 -4.83197e-08 0.0 0.00113416 -1.73602e-07 0.0 0.00151089 -1.75647e-07 0.0 0.00184577 -1.3278e-07 0.0 0.00213878 -4.85159e-08 0.0 0.00238999 1.45805e-08 0.0 0.00259938 2.54576e-08 0.0 0.00276689 1.88033e-08 0.0 0.00289252 5.4929e-09 0.0 0.00297628 -6.82785e-11 0.0 0.00301817 -1.09699e-09 0.0 0.00301817 1.09699e-09 0.0 0.00297628 6.82785e-11 0.0 0.00289252 -5.4929e-09 0.0 0.00276689 -1.88033e-08 0.0 0.00259938 -2.54576e-08 0.0 0.00238999 -1.45805e-08 0.0 0.00213878 4.85159e-08 0.0 0.00184577 1.3278e-07 0.0 0.00151089 1.75647e-07 0.0 0.00113416 1.73602e-07 0.0 0.000715167 4.83197e-08 0.0 0.0002585 -4.3134e-08 0.0 0 0 0.0 0 0 0.0 0 0 0.0 0 0 0.0 0 0 0.0 0 0 0.0 0 0 0.0 0 0 0.0 0.0002585 4.3134e-08 0.0 0.000715167 -4.83197e-08 0.0 0.00113416 -1.73602e-07 0.0 0.00151089 -1.75647e-07 0.0 0.00184577 -1.3278e-07 0.0 0.00213878 -4.85159e-08 0.0 0.00238999 1.45805e-08 0.0 0.00259938 2.54576e-08 0.0 0.00276689 1.88033e-08 0.0 0.00289252 5.4929e-09 0.0 0.00297628 -6.82785e-11 0.0 0.00301817 -1.09699e-09 0.0 0.00301817 1.09699e-09 0.0 0.00297628 6.82785e-11 0.0 0.00289252 -5.4929e-09 0.0 0.00276689 -1.88033e-08 0.0 0.00259938 -2.54576e-08 0.0 0.00238999 -1.45805e-08 0.0 0.00213878 4.85159e-08 0.0 0.00184577 1.3278e-07 0.0 0.00151089 1.75647e-07 0.0 0.00113416 1.73602e-07 0.0 0.000715167 4.83197e-08 0.0 0.0002585 -4.3134e-08 0.0 0 0 0.0 0 0 0.0 0 0 0.0 0 0 0.0 0 0 0.0 0 0 0.0 0 0 0.0 0 0 0.0 0.0002585 4.3134e-08 0.0 0.000715167 -4.83197e-08 0.0 0.00113416 -1.73602e-07 0.0 0.00151089 -1.75647e-07 0.0 0.00184577 -1.3278e-07 0.0 0.00213878 -4.85159e-08 0.0 0.00238999 1.45805e-08 0.0 0.00259938 2.54576e-08 0.0 0.00276689 1.88033e-08 0.0 0.00289252 5.4929e-09 0.0 0.00297628 -6.82785e-11 0.0 0.00301817 -1.09699e-09 0.0 0.00301817 1.09699e-09 0.0 0.00297628 6.82785e-11 0.0 0.00289252 -5.4929e-09 0.0 0.00276689 -1.88033e-08 0.0 0.00259938 -2.54576e-08 0.0 0.00238999 -1.45805e-08 0.0 0.00213878 4.85159e-08 0.0 0.00184577 1.3278e-07 0.0 0.00151089 1.75647e-07 0.0 0.00113416 1.73602e-07 0.0 0.000715167 4.83197e-08 0.0 0.0002585 -4.3134e-08 0.0 0 0 0.0 0 0 0.0 0 0 0.0 0 0 0.0 0 0 0.0 0 0 0.0 0 0 0.0 0 0 0.0 0.0002585 4.3134e-08 0.0 0.000715167 -4.83197e-08 0.0 0.00113416 -1.73602e-07 0.0 0.00151089 -1.75647e-07 0.0 0.00184577 -1.3278e-07 0.0 0.00213878 -4.85159e-08 0.0 0.00238999 1.45805e-08 0.0 0.00259938 2.54576e-08 0.0 0.00276689 1.88033e-08 0.0 0.00289252 5.4929e-09 0.0 0.00297628 -6.82785e-11 0.0 0.00301817 -1.09699e-09 0.0 0.00301817 1.09699e-09 0.0 0.00297628 6.82785e-11 0.0 0.00289252 -5.4929e-09 0.0 0.00276689 -1.88033e-08 0.0 0.00259938 -2.54576e-08 0.0 0.00238999 -1.45805e-08 0.0 0.00213878 4.85159e-08 0.0 0.00184577 1.3278e-07 0.0 0.00151089 1.75647e-07 0.0 0.00113416 1.73602e-07 0.0 0.000715167 4.83197e-08 0.0 0.0002585 -4.3134e-08 0.0 0 0 0.0 0 0 0.0 0 0 0.0 0 0 0.0 0 0 0.0 0 0 0.0 0 0 0.0 0 0 0.0 0.0002585 4.3134e-08 0.0 0.000715167 -4.83197e-08 0.0 0.00113416 -1.73602e-07 0.0 0.00151089 -1.75647e-07 0.0 0.00184577 -1.3278e-07 0.0 0.00213878 -4.85159e-08 0.0 0.00238999 1.45805e-08 0.0 0.00259938 2.54576e-08 0.0 0.00276689 1.88033e-08 0.0 0.00289252 5.4929e-09 0.0 0.00297628 -6.82785e-11 0.0 0.00301817 -1.09699e-09 0.0 0.00301817 1.09699e-09 0.0 0.00297628 6.82785e-11 0.0 0.00289252 -5.4929e-09 0.0 0.00276689 -1.88033e-08 0.0 0.00259938 -2.54576e-08 0.0 0.00238999 -1.45805e-08 0.0 0.00213878 4.85159e-08 0.0 0.00184577 1.3278e-07 0.0 0.00151089 1.75647e-07 0.0 0.00113416 1.73602e-07 0.0 0.000715167 4.83197e-08 0.0 0.0002585 -4.3134e-08 0.0 0 0 0.0 0 0 0.0 0 0 0.0 0 0 0.0 0 0 0.0 0 0 0.0 0 0 0.0 0 0 0.0 0.0002585 4.3134e-08 0.0 0.000715167 -4.83197e-08 0.0 0.00113416 -1.73602e-07 0.0 0.00151089 -1.75647e-07 0.0 0.00184577 -1.3278e-07 0.0 0.00213878 -4.85159e-08 0.0 0.00238999 1.45805e-08 0.0 0.00259938 2.54576e-08 0.0 0.00276689 1.88033e-08 0.0 0.00289252 5.4929e-09 0.0 0.00297628 -6.82785e-11 0.0 0.00301817 -1.09699e-09 0.0 0.00301817 1.09699e-09 0.0 0.00297628 6.82785e-11 0.0 0.00289252 -5.4929e-09 0.0 0.00276689 -1.88033e-08 0.0 0.00259938 -2.54576e-08 0.0 0.00238999 -1.45805e-08 0.0 0.00213878 4.85159e-08 0.0 0.00184577 1.3278e-07 0.0 0.00151089 1.75647e-07 0.0 0.00113416 1.73602e-07 0.0 0.000715167 4.83197e-08 0.0 0.0002585 -4.3134e-08 0.0 0 0 0.0 0 0 0.0 0 0 0.0 0 0 0.0 0 0 0.0 0 0 0.0 0 0 0.0 0 0 0.0 0.0002585 4.3134e-08 0.0 0.000715167 -4.83197e-08 0.0 0.00113416 -1.73602e-07 0.0 0.00151089 -1.75647e-07 0.0 0.00184577 -1.3278e-07 0.0 0.00213878 -4.85159e-08 0.0 0.00238999 1.45805e-08 0.0 0.00259938 2.54576e-08 0.0 0.00276689 1.88033e-08 0.0 0.00289252 5.4929e-09 0.0 0.00297628 -6.82785e-11 0.0 0.00301817 -1.09699e-09 0.0 0.00301817 1.09699e-09 0.0 0.00297628 6.82785e-11 0.0 0.00289252 -5.4929e-09 0.0 0.00276689 -1.88033e-08 0.0 0.00259938 -2.54576e-08 0.0 0.00238999 -1.45805e-08 0.0 0.00213878 4.85159e-08 0.0 0.00184577 1.3278e-07 0.0 0.00151089 1.75647e-07 0.0 0.00113416 1.73602e-07 0.0 0.000715167 4.83197e-08 0.0 0.0002585 -4.3134e-08 0.0 0 0 0.0 0 0 0.0 0 0 0.0 0 0 0.0 0 0 0.0 0 0 0.0 0 0 0.0 0 0 0.0 0.0002585 4.3134e-08 0.0 0.000715167 -4.83197e-08 0.0 0.00113416 -1.73602e-07 0.0 0.00151089 -1.75647e-07 0.0 0.00184577 -1.3278e-07 0.0 0.00213878 -4.85159e-08 0.0 0.00238999 1.45805e-08 0.0 0.00259938 2.54576e-08 0.0 0.00276689 1.88033e-08 0.0 0.00289252 5.4929e-09 0.0 0.00297628 -6.82785e-11 0.0 0.00301817 -1.09699e-09 0.0 0.00301817 1.09699e-09 0.0 0.00297628 6.82785e-11 0.0 0.00289252 -5.4929e-09 0.0 0.00276689 -1.88033e-08 0.0 0.00259938 -2.54576e-08 0.0 0.00238999 -1.45805e-08 0.0 0.00213878 4.85159e-08 0.0 0.00184577 1.3278e-07 0.0 0.00151089 1.75647e-07 0.0 0.00113416 1.73602e-07 0.0 0.000715167 4.83197e-08 0.0 0.0002585 -4.3134e-08 0.0 0 0 0.0 0 0 0.0 0 0 0.0 0 0 0.0 0 0 0.0 0 0 0.0 0 0 0.0 0 0 0.0 0.0002585 4.3134e-08 0.0 0.000715167 -4.83197e-08 0.0 0.00113416 -1.73602e-07 0.0 0.00151089 -1.75647e-07 0.0 0.00184577 -1.3278e-07 0.0 0.00213878 -4.85159e-08 0.0 0.00238999 1.45805e-08 0.0 0.00259938 2.54576e-08 0.0 0.00276689 1.88033e-08 0.0 0.00289252 5.4929e-09 0.0 0.00297628 -6.82785e-11 0.0 0.00301817 -1.09699e-09 0.0 0.00301817 1.09699e-09 0.0 0.00297628 6.82785e-11 0.0 0.00289252 -5.4929e-09 0.0 0.00276689 -1.88033e-08 0.0 0.00259938 -2.54576e-08 0.0 0.00238999 -1.45805e-08 0.0 0.00213878 4.85159e-08 0.0 0.00184577 1.3278e-07 0.0 0.00151089 1.75647e-07 0.0 0.00113416 1.73602e-07 0.0 0.000715167 4.83197e-08 0.0 0.0002585 -4.3134e-08 0.0 0 0 0.0 0 0 0.0 0 0 0.0 0 0 0.0 0 0 0.0 0 0 0.0 0 0 0.0 0 0 0.0 0.0002585 4.3134e-08 0.0 0.000715167 -4.83197e-08 0.0 0.00113416 -1.73602e-07 0.0 0.00151089 -1.75647e-07 0.0 0.00184577 -1.3278e-07 0.0 0.00213878 -4.85159e-08 0.0 0.00238999 1.45805e-08 0.0 0.00259938 2.54576e-08 0.0 0.00276689 1.88033e-08 0.0 0.00289252 5.4929e-09 0.0 0.00297628 -6.82785e-11 0.0 0.00301817 -1.09699e-09 0.0 0.00301817 1.09699e-09 0.0 0.00297628 6.82785e-11 0.0 0.00289252 -5.4929e-09 0.0 0.00276689 -1.88033e-08 0.0 0.00259938 -2.54576e-08 0.0 0.00238999 -1.45805e-08 0.0 0.00213878 4.85159e-08 0.0 0.00184577 1.3278e-07 0.0 0.00151089 1.75647e-07 0.0 0.00113416 1.73602e-07 0.0 0.000715167 4.83197e-08 0.0 0.0002585 -4.3134e-08 0.0 0 0 0.0 0 0 0.0 0 0 0.0 0 0 0.0 0 0 0.0 0 0 0.0 0 0 0.0 0 0 0.0 0.0002585 4.3134e-08 0.0 0.000715167 -4.83197e-08 0.0 0.00113416 -1.73602e-07 0.0 0.00151089 -1.75647e-07 0.0 0.00184577 -1.3278e-07 0.0 0.00213878 -4.85159e-08 0.0 0.00238999 1.45805e-08 0.0 0.00259938 2.54576e-08 0.0 0.00276689 1.88033e-08 0.0 0.00289252 5.4929e-09 0.0 0.00297628 -6.82785e-11 0.0 0.00301817 -1.09699e-09 0.0 0.00301817 1.09699e-09 0.0 0.00297628 6.82785e-11 0.0 0.00289252 -5.4929e-09 0.0 0.00276689 -1.88033e-08 0.0 0.00259938 -2.54576e-08 0.0 0.00238999 -1.45805e-08 0.0 0.00213878 4.85159e-08 0.0 0.00184577 1.3278e-07 0.0 0.00151089 1.75647e-07 0.0 0.00113416 1.73602e-07 0.0 0.000715167 4.83197e-08 0.0 0.0002585 -4.3134e-08 0.0 0 0 0.0 0 0 0.0 0 0 0.0 0 0 0.0 0 0 0.0 0 0 0.0 0 0 0.0 0 0 0.0 0.0002585 4.3134e-08 0.0 0.000715167 -4.83197e-08 0.0 0.00113416 -1.73602e-07 0.0 0.00151089 -1.75647e-07 0.0 0.00184577 -1.3278e-07 0.0 0.00213878 -4.85159e-08 0.0 0.00238999 1.45805e-08 0.0 0.00259938 2.54576e-08 0.0 0.00276689 1.88033e-08 0.0 0.00289252 5.4929e-09 0.0 0.00297628 -6.82785e-11 0.0 0.00301817 -1.09699e-09 0.0 0.00301817 1.09699e-09 0.0 0.00297628 6.82785e-11 0.0 0.00289252 -5.4929e-09 0.0 0.00276689 -1.88033e-08 0.0 0.00259938 -2.54576e-08 0.0 0.00238999 -1.45805e-08 0.0 0.00213878 4.85159e-08 0.0 0.00184577 1.3278e-07 0.0 0.00151089 1.75647e-07 0.0 0.00113416 1.73602e-07 0.0 0.000715167 4.83197e-08 0.0 0.0002585 -4.3134e-08 0.0 0 0 0.0 0 0 0.0 0 0 0.0 0 0 0.0 0 0 0.0 0 0 0.0 0 0 0.0 0 0 0.0 0.0002585 4.3134e-08 0.0 0.000715167 -4.83197e-08 0.0 0.00113416 -1.73602e-07 0.0 0.00151089 -1.75647e-07 0.0 0.00184577 -1.3278e-07 0.0 0.00213878 -4.85159e-08 0.0 0.00238999 1.45805e-08 0.0 0.00259938 2.54576e-08 0.0 0.00276689 1.88033e-08 0.0 0.00289252 5.4929e-09 0.0 0.00297628 -6.82785e-11 0.0 0.00301817 -1.09699e-09 0.0 0.00301817 1.09699e-09 0.0 0.00297628 6.82785e-11 0.0 0.00289252 -5.4929e-09 0.0 0.00276689 -1.88033e-08 0.0 0.00259938 -2.54576e-08 0.0 0.00238999 -1.45805e-08 0.0 0.00213878 4.85159e-08 0.0 0.00184577 1.3278e-07 0.0 0.00151089 1.75647e-07 0.0 0.00113416 1.73602e-07 0.0 0.000715167 4.83197e-08 0.0 0.0002585 -4.3134e-08 0.0 0 0 0.0 0 0 0.0 0 0 0.0 0 0 0.0 0 0 0.0 0 0 0.0 0 0 0.0 0 0 0.0 0.0002585 4.3134e-08 0.0 0.000715167 -4.83197e-08 0.0 0.00113416 -1.73602e-07 0.0 0.00151089 -1.75647e-07 0.0 0.00184577 -1.3278e-07 0.0 0.00213878 -4.85159e-08 0.0 0.00238999 1.45805e-08 0.0 0.00259938 2.54576e-08 0.0 0.00276689 1.88033e-08 0.0 0.00289252 5.4929e-09 0.0 0.00297628 -6.82785e-11 0.0 0.00301817 -1.09699e-09 0.0 0.00301817 1.09699e-09 0.0 0.00297628 6.82785e-11 0.0 0.00289252 -5.4929e-09 0.0 0.00276689 -1.88033e-08 0.0 0.00259938 -2.54576e-08 0.0 0.00238999 -1.45805e-08 0.0 0.00213878 4.85159e-08 0.0 0.00184577 1.3278e-07 0.0 0.00151089 1.75647e-07 0.0 0.00113416 1.73602e-07 0.0 0.000715167 4.83197e-08 0.0 0.0002585 -4.3134e-08 0.0 0 0 0.0 0 0 0.0 0 0 0.0 0 0 0.0 0 0 0.0 0 0 0.0 0 0 0.0 0 0 0.0 0.0002585 4.3134e-08 0.0 0.000715167 -4.83197e-08 0.0 0.00113416 -1.73602e-07 0.0 0.00151089 -1.75647e-07 0.0 0.00184577 -1.3278e-07 0.0 0.00213878 -4.85159e-08 0.0 0.00238999 1.45805e-08 0.0 0.00259938 2.54576e-08 0.0 0.00276689 1.88033e-08 0.0 0.00289252 5.4929e-09 0.0 0.00297628 -6.82785e-11 0.0 0.00301817 -1.09699e-09 0.0 0.00301817 1.09699e-09 0.0 0.00297628 6.82785e-11 0.0 0.00289252 -5.4929e-09 0.0 0.00276689 -1.88033e-08 0.0 0.00259938 -2.54576e-08 0.0 0.00238999 -1.45805e-08 0.0 0.00213878 4.85159e-08 0.0 0.00184577 1.3278e-07 0.0 0.00151089 1.75647e-07 0.0 0.00113416 1.73602e-07 0.0 0.000715167 4.83197e-08 0.0 0.0002585 -4.3134e-08 0.0 0 0 0.0 0 0 0.0 0 0 0.0 0 0 0.0 0 0 0.0 0 0 0.0 0 0 0.0 0 0 0.0 0.0002585 4.3134e-08 0.0 0.000715167 -4.83197e-08 0.0 0.00113416 -1.73602e-07 0.0 0.00151089 -1.75647e-07 0.0 0.00184577 -1.3278e-07 0.0 0.00213878 -4.85159e-08 0.0 0.00238999 1.45805e-08 0.0 0.00259938 2.54576e-08 0.0 0.00276689 1.88033e-08 0.0 0.00289252 5.4929e-09 0.0 0.00297628 -6.82785e-11 0.0 0.00301817 -1.09699e-09 0.0 0.00301817 1.09699e-09 0.0 0.00297628 6.82785e-11 0.0 0.00289252 -5.4929e-09 0.0 0.00276689 -1.88033e-08 0.0 0.00259938 -2.54576e-08 0.0 0.00238999 -1.45805e-08 0.0 0.00213878 4.85159e-08 0.0 0.00184577 1.3278e-07 0.0 0.00151089 1.75647e-07 0.0 0.00113416 1.73602e-07 0.0 0.000715167 4.83197e-08 0.0 0.0002585 -4.3134e-08 0.0 0 0 0.0 0 0 0.0 0 0 0.0 0 0 0.0 0 0 0.0 0 0 0.0 0 0 0.0 0 0 0.0 0.0002585 4.3134e-08 0.0 0.000715167 -4.83197e-08 0.0 0.00113416 -1.73602e-07 0.0 0.00151089 -1.75647e-07 0.0 0.00184577 -1.3278e-07 0.0 0.00213878 -4.85159e-08 0.0 0.00238999 1.45805e-08 0.0 0.00259938 2.54576e-08 0.0 0.00276689 1.88033e-08 0.0 0.00289252 5.4929e-09 0.0 0.00297628 -6.82785e-11 0.0 0.00301817 -1.09699e-09 0.0 0.00301817 1.09699e-09 0.0 0.00297628 6.82785e-11 0.0 0.00289252 -5.4929e-09 0.0 0.00276689 -1.88033e-08 0.0 0.00259938 -2.54576e-08 0.0 0.00238999 -1.45805e-08 0.0 0.00213878 4.85159e-08 0.0 0.00184577 1.3278e-07 0.0 0.00151089 1.75647e-07 0.0 0.00113416 1.73602e-07 0.0 0.000715167 4.83197e-08 0.0 0.0002585 -4.3134e-08 0.0 0 0 0.0 0 0 0.0 0 0 0.0 0 0 0.0 0 0 0.0 0 0 0.0 0 0 0.0 0 0 0.0 0.0002585 4.3134e-08 0.0 0.000715167 -4.83197e-08 0.0 0.00113416 -1.73602e-07 0.0 0.00151089 -1.75647e-07 0.0 0.00184577 -1.3278e-07 0.0 0.00213878 -4.85159e-08 0.0 0.00238999 1.45805e-08 0.0 0.00259938 2.54576e-08 0.0 0.00276689 1.88033e-08 0.0 0.00289252 5.4929e-09 0.0 0.00297628 -6.82785e-11 0.0 0.00301817 -1.09699e-09 0.0 0.00301817 1.09699e-09 0.0 0.00297628 6.82785e-11 0.0 0.00289252 -5.4929e-09 0.0 0.00276689 -1.88033e-08 0.0 0.00259938 -2.54576e-08 0.0 0.00238999 -1.45805e-08 0.0 0.00213878 4.85159e-08 0.0 0.00184577 1.3278e-07 0.0 0.00151089 1.75647e-07 0.0 0.00113416 1.73602e-07 0.0 0.000715167 4.83197e-08 0.0 0.0002585 -4.3134e-08 0.0 0 0 0.0 0 0 0.0 0 0 0.0 0 0 0.0 0 0 0.0 0 0 0.0 0 0 0.0 0 0 0.0 0.0002585 4.3134e-08 0.0 0.000715167 -4.83197e-08 0.0 0.00113416 -1.73602e-07 0.0 0.00151089 -1.75647e-07 0.0 0.00184577 -1.3278e-07 0.0 0.00213878 -4.85159e-08 0.0 0.00238999 1.45805e-08 0.0 0.00259938 2.54576e-08 0.0 0.00276689 1.88033e-08 0.0 0.00289252 5.4929e-09 0.0 0.00297628 -6.82785e-11 0.0 0.00301817 -1.09699e-09 0.0 0.00301817 1.09699e-09 0.0 0.00297628 6.82785e-11 0.0 0.00289252 -5.4929e-09 0.0 0.00276689 -1.88033e-08 0.0 0.00259938 -2.54576e-08 0.0 0.00238999 -1.45805e-08 0.0 0.00213878 4.85159e-08 0.0 0.00184577 1.3278e-07 0.0 0.00151089 1.75647e-07 0.0 0.00113416 1.73602e-07 0.0 0.000715167 4.83197e-08 0.0 0.0002585 -4.3134e-08 0.0 0 0 0.0 0 0 0.0 0 0 0.0 0 0 0.0
        </DataArray>
        <DataArray type="Float64" NumberOfComponents="3" Name="vf" format="ascii">
 0 0 0.0 -0.000258501 -4.26735e-08 0.0 -0.000258774 -4.26188e-08 0.0 -0.000292206 -3.59319e-08 0.0 0.0 0.0 0.0 0.0 0.0 0.0 0.0 0.0 0.0 0.0 0.0 0.0 0.0 0.0 0.0 0.0 0.0 0.0 0.0 0.0 0.0 0.0 0.0 0.0 0.0 0.0 0.0 0.0 0.0 0.0 0.0 0.0 0.0 0.0 0.0 0.0 0.0 0.0 0.0 0.0 0.0 0.0 0.0 0.0 0.0 0.0 0.0 0.0 0.0 0.0 0.0 0.0 0.0 0.0 0.0 0.0 0.0 0.0 0.0 0.0 0.0 0.0 0.0 0.0 0.0 0.0 0.0 0.0 0.0 0.0 0.0 0.0 -0.000292206 3.59319e-08 0.0 -0.000258774 4.26188e-08 0.0 -0.000258501 4.26735e-08 0.0 0 0 0.0 0 0 0.0 -0.000258501 -4.26735e-08 0.0 -0.000258774 -4.26188e-08 0.0 -0.000292206 -3.59319e-08 0.0 0.0 0.0 0.0 0.0 0.0 0.0 0.0 0.0 0.0 0.0 0.0 0.0 0.0 0.0 0.0 0.0 0.0 0.0 0.0 0.0 0.0 0.0 0.0 0.0 0.0 0.0 0.0 0.0 0.0 0.0 0.0 0.0 0.0 0.0 0.0 0.0 0.0 0.0 0.0 0.0 0.0 0.0 0.0 0.0 0.0 0.0 0.0 0.0 0.0 0.0 0.0 0.0 0.0 0.0 0.0 0.0 0.0 0.0 0.0 0.0 0.0 0.0 0.0 0.0 0.0 0.0 0.0 0.0 0.0 0.0 0.0 0.0 -0.000292206 3.59319e-08 0.0 -0.000258774 4.26188e-08 0.0 -0.000258501 4.26735e-08 0.0 0 0 0.0 0 0 0.0 -0.000258501 -4.26735e-08 0.0 -0.000258774 -4.26188e-08 0.0 -0.000292206 -3.59319e-08 0.0 0.0 0.0 0.0 0.0 0.0 0.0 0.0 0.0 0.0 0.0 0.0 0.0 0.0 0.0 0.0 0.0 0.0 0.0 0.0 0.0 0.0 0.0 0.0 0.0 0.0 0.0 0.0 0.0 0.0 0.0 0.0 0.0 0.0 0.0 0.0 0.0 0.0 0.0 0.0 0.0 0.0 0.0 0.0 0.0 0.0 0.0 0.0 0.0 0.0 0.0 0.0 0.0 0.0 0.0 0.0 0.0 0.0 0.0 0.0 0.0 0.0 0.0 0.0 0.0 0.0 0.0 0.0 0.0 0.0 0.0 0.0 0.0 -0.000292206 3.59319e-08 0.0 -0.000258774 4.26188e-08 0.0 -0.000258501 4.26735e-08 0.0 0 0 0.0 0 0 0.0 -0.000258501 -4.26735e-08 0.0 -0.000258774 -4.26188e-08 0.0 -0.000292206 -3.59319e-08 0.0 0.0 0.0 0.0 0.0 0.0 0.0 0.0 0.0 0.0 0.0 0.0 0.0 0.0 0.0 0.0 0.0 0.0 0.0 0.0 0.0 0.0 0.0 0.0 0.0 0.0 0.0 0.0 0.0 0.0 0.0 0.0 0.0 0.0 0.0 0.0 0.0 0.0 0.0 0.0 0.0 0.0 0.0 0.0 0.0 0.0 0.0 0.0 0.0 0.0 0.0 0.0 0.0 0.0 0.0 0.0 0.0 0.0 0.0 0.0 0.0 0.0 0.0 0.0 0.0 0.0 0.0 0.0 0.0 0.0 0.0 0.0 0.0 -0.000292206 3.59319e-08 0.0 -0.000258774 4.26188e-08 0.0 -0.000258501 4.26735e-08 0.0 0 0 0.0 0 0 0.0 -0.000258501 -4.26735e-08 0.0 -0.000258774 -4.26188e-08 0.0 -0.000292206 -3.59319e-08 0.0 0.0 0.0 0.0 0.0 0.0 0.0 0.0 0.0 0.0 0.0 0.0 0.0 0.0 0.0 0.0 0.0 0.0 0.0 0.0 0.0 0.0 0.0 0.0 0.0 0.0 0.0 0.0 0.0 0.0 0.0 0.0 0.0 0.0 0.0 0.0 0.0 0.0 0.0 0.0 0.0 0.0 0.0 0.0 0.0 0.0 0.0 0.0 0.0 0.0 0.0 0.0 0.0 0.0 0.0 0.0 0.0 0.0 0.0 0.0 0.0 0.0 0.0 0.0 0.0 0.0 0.0 0.0 0.0 0.0 0.0 0.0 0.0 -0.000292206 3.59319e-08 0.0 -0.000258774 4.26188e-08 0.0 -0.000258501 4.26735e-08 0.0 0 0 0.0 0 0 0.0 -0.000258501 -4.26735e-08 0.0 -0.000258774 -4.26188e-08 0.0 -0.000292206 -3.59319e-08 0.0 0.0 0.0 0.0 0.0 0.0 0.0 0.0 0.0 0.0 0.0 0.0 0.0 0.0 0.0 0.0 0.0 0.0 0.0 0.0 0.0 0.0 0.0 0.0 0.0 0.0 0.0 0.0 0.0 0.0 0.0 0.0 0.0 0.0 0.0 0.0 0.0 0.0 0.0 0.0 0.0 0.0 0.0 0.0 0.0 0.0 0.0 0.0 0.0 0.0 0.0 0.0 0.0 0.0 0.0 0.0 0.0 0.0 0.0 0.0 0.0 0.0 0.0 0.0 0.0 0.0 0.0 0.0 0.0 0.0 0.0 0.0 0.0 -0.000292206 3.59319e-08 0.0 -0.000258774 4.26188e-08 0.0 -0.000258501 4.26735e-08 0.0 0 0 0.0 0 0 0.0 -0.000258501 -4.26735e-08 0.0 -0.000258774 -4.26188e-08 0.0 -0.000292206 -3.59319e-08 0.0 0.0 0.0 0.0 0.0 0.0 0.0 0.0 0.0 0.0 0.0 0.0 0.0 0.0 0.0 0.0 0.0 0.0 0.0 0.0 0.0 0.0 0.0 0.0 0.0 0.0 0.0 0.0 0.0 0.0 0.0 0.0 0.0 0.0 0.0 0.0 0.0 0.0 0.0 0.0 0.0 0.0 0.0 0.0 0.0 0.0 0.0 0.0 0.0 0.0 0.0 0.0 0.0 0.0 0.0 0.0 0.0 0.0 0.0 0.0 0.0 0.0 0.0 0.0 0.0 0.0 0.0 0.0 0.0 0.0 0.0 0.0 0.0 -0.000292206 3.59319e-08 0.0 -0.000258774 4.26188e-08 0.0 -0.000258501 4.26735e-08 0.0 0 0 0.0 0 0 0.0 -0.000258501 -4.26735e-08 0.0 -0.000258774 -4.26188e-08 0.0 -0.000292206 -3.59319e-08 0.0 0.0 0.0 0.0 0.0 0.0 0.0 0.0 0.0 0.0 0.0 0.0 0.0 0.0 0.0 0.0 0.0 0.0 0.0 0.0 0.0 0.0 0.0 0.0 0.0 0.0 0.0 0.0 0.0 0.0 0.0 0.0 0.0 0.0 0.0 0.0 0.0 0.0 0.0 0.0 0.0 0.0 0.0 0.0 0.0 0.0 0.0 0.0 0.0 0.0 0.0 0.0 0.0 0.0 0.0 0.0 0.0 0.0 0.0 0.0 0.0 0.0 0.0 0.0 0.0 0.0 0.0 0.0 0.0 0.0 0.0 0.0 0.0 -0.000292206 3.59319e-08 0.0 -0.000258774 4.26188e-08 0.0 -0.000258501 4.26735e-08 0.0 0 0 0.0 0 0 0.0 -0.000258501 -4.26735e-08 0.0 -0.000258774 -4.26188e-08 0.0 -0.000292206 -3.59319e-08 0.0 0.0 0.0 0.0 0.0 0.0 0.0 0.0 0.0 0.0 0.0 0.0 0.0 0.0 0.0 0.0 0.0 0.0 0.0 0.0 0.0 0.0 0.0 0.0 0.0 0.0 0.0 0.0 0.0 0.0 0.0 0.0 0.0 0.0 0.0 0.0 0.0 0.0 0.0 0.0 0.0 0.0 0.0 0.0 0.0 0.0 0.0 0.0 0.0 0.0 0.0 0.0 0.0 0.0 0.0 0.0 0.0 0.0 0.0 0.0 0.0 0.0 0.0 0.0 0.0 0.0 0.0 0.0 0.0 0.0 0.0 0.0 0.0 -0.000292206 3.59319e-08 0.0 -0.000258774 4.26188e-08 0.0 -0.000258501 4.26735e-08 0.0 0 0 0.0 0 0 0.0 -0.000258501 -4.26735e-08 0.0 -0.000258774 -4.26188e-08 0.0 -0.000292206 -3.59319e-08 0.0 0.0 0.0 0.0 0.0 0.0 0.0 0.0 0.0 0.0 0.0 0.0 0.0 0.0 0.0 0.0 0.0 0.0 0.0 0.0 0.0 0.0 0.0 0.0 0.0 0.0 0.0 0.0 0.0 0.0 0.0 0.0 0.0 0.0 0.0 0.0 0.0 0.0 0.0 0.0 0.0 0.0 0.0 0.0 0.0 0.0 0.0 0.0 0.0 0.0 0.0 0.0 0.0 0.0 0.0 0.0 0.0 0.0 0.0 0.0 0.0 0.0 0.0 0.0 0.0 0.0 0.0 0.0 0.0 0.0 0.0 0.0 0.0 -0.000292206 3.59319e-08 0.0 -0.000258774 4.26188e-08 0.0 -0.000258501 4.26735e-08 0.0 0 0 0.0 0 0 0.0 -0.000258501 -4.26735e-08 0.0 -0.000258774 -4.26188e-08 0.0 -0.000292206 -3.59319e-08 0.0 0.0 0.0 0.0 0.0 0.0 0.0 0.0 0.0 0.0 0.0 0.0 0.0 0.0 0.0 0.0 0.0 0.0 0.0 0.0 0.0 0.0 0.0 0.0 0.0 0.0 0.0 0.0 0.0 0.0 0.0 0.0 0.0 0.0 0.0 0.0 0.0 0.0 0.0 0.0 0.0 0.0 0.0 0.0 0.0 0.0 0.0 0.0 0.0 0.0 0.0 0.0 0.0 0.0 0.0 0.0 0.0 0.0 0.0 0.0 0.0 0.0 0.0 0.0 0.0 0.0 0.0 0.0 0.0 0.0 0.0 0.0 0.0 -0.000292206 3.59319e-08 0.0 -0.000258774 4.26188e-08 0.0 -0.000258501 4.26735e-08 0.0 0 0 0.0 0 0 0.0 -0.000258501 -4.26735e-08 0.0 -0.000258774 -4.26188e-08 0.0 -0.000292206 -3.59319e-08 0.0 0.0 0.0 0.0 0.0 0.0 0.0 0.0 0.0 0.0 0.0 0.0 0.0 0.0 0.0 0.0 0.0 0.0 0.0 0.0 0.0 0.0 0.0 0.0 0.0 0.0 0.0 0.0 0.0 0.0 0.0 0.0 0.0 0.0 0.0 0.0 0.0 0.0 0.0 0.0 0.0 0.0 0.0 0.0 0.0 0.0 0.0 0.0 0.0 0.0 0.0 0.0 0.0 0.0 0.0 0.0 0.0 0.0 0.0 0.0 0.0 0.0 0.0 0.0 0.0 0.0 0.0 0.0 0.0 0.0 0.0 0.0 0.0 -0.000292206 3.59319e-08 0.0 -0.000258774 4.26188e-08 0.0 -0.000258501 4.26735e-08 0.0 0 0 0.0 0 0 0.0 -0.000258501 -4.26735e-08 0.0 -0.000258774 -4.26188e-08 0.0 -0.000292206 -3.59319e-08 0.0 0.0 0.0 0.0 0.0 0.0 0.0 0.0 0.0 0.0 0.0 0.0 0.0 0.0 0.0 0.0 0.0 0.0 0.0 0.0 0.0 0.0 0.0 0.0 0.0 0.0 0.0 0.0 0.0 0.0 0.0 0.0 0.0 0.0 0.0 0.0 0.0 0.0 0.0 0.0 0.0 0.0 0.0 0.0 0.0 0.0 0.0 0.0 0.0 0.0 0.0 0.0 0.0 0.0 0.0 0.0 0.0 0.0 0.0 0.0 0.0 0.0 0.0 0.0 0.0 0.0 0.0 0.0 0.0 0.0 0.0 0.0 0.0 -0.000292206 3.59319e-08 0.0 -0.000258774 4.26188e-08 0.0 -0.000258501 4.26735e-08 0.0 0 0 0.0 0 0 0.0 -0.000258501 -4.26735e-08 0.0 -0.000258774 -4.26188e-08 0.0 -0.000292206 -3.59319e-08 0.0 0.0 0.0 0.0 0.0 0.0 0.0 0.0 0.0 0.0 0.0 0.0 0.0 0.0 0.0 0.0 0.0 0.0 0.0 0.0 0.0 0.0 0.0 0.0 0.0 0.0 0.0 0.0 0.0 0.0 0.0 0.0 0.0 0.0 0.0 0.0 0.0 0.0 0.0 0.0 0.0 0.0 0.0 0.0 0.0 0.0 0.0 0.0 0.0 0.0 0.0 0.0 0.0 0.0 0.0 0.0 0.0 0.0 0.0 0.0 0.0 0.0 0.0 0.0 0.0 0.0 0.0 0.0 0.0 0.0 0.0 0.0 0.0 -0.000292206 3.59319e-08 0.0 -0.000258774 4.26188e-08 0.0 -0.000258501 4.26735e-08 0.0 0 0 0.0 0 0 0.0 -0.000258501 -4.26735e-08 0.0 -0.000258774 -4.26188e-08 0.0 -0.000292206 -3.59319e-08 0.0 0.0 0.0 0.0 0.0 0.0 0.0 0.0 0.0 0.0 0.0 0.0 0.0 0.0 0.0 0.0 0.0 0.0 0.0 0.0 0.0 0.0 0.0 0.0 0.0 0.0 0.0 0.0 0.0 0.0 0.0 0.0 0.0 0.0 0.0 0.0 0.0 0.0 0.0 0.0 0.0 0.0 0.0 0.0 0.0 0.0 0.0 0.0 0.0 0.0 0.0 0.0 0.0 0.0 0.0 0.0 0.0 0.0 0.0 0.0 0.0 0.0 0.0 0.0 0.0 0.0 0.0 0.0 0.0 0.0 0.0 0.0 0.0 -0.000292206 3.59319e-08 0.0 -0.000258774 4.26188e-08 0.0 -0.000258501 4.26735e-08 0.0 0 0 0.0 0 0 0.0 -0.000258501 -4.26735e-08 0.0 -0.000258774 -4.26188e-08 0.0 -0.000292206 -3.59319e-08 0.0 0.0 0.0 0.0 0.0 0.0 0.0 0.0 0.0 0.0 0.0 0.0 0.0 0.0 0.0 0.0 0.0 0.0 0.0 0.0 0.0 0.0 0.0 0.0 0.0 0.0 0.0 0.0 0.0 0.0 0.0 0.0 0.0 0.0 0.0 0.0 0.0 0.0 0.0 0.0 0.0 0.0 0.0 0.0 0.0 0.0 0.0 0.0 0.0 0.0 0.0 0.0 0.0 0.0 0.0 0.0 0.0 0.0 0.0 0.0 0.0 0.0 0.0 0.0 0.0 0.0 0.0 0.0 0.0 0.0 0.0 0.0 0.0 -0.000292206 3.59319e-08 0.0 -0.000258774 4.26188e-08 0.0 -0.000258501 4.26735e-08 0.0 0 0 0.0 0 0 0.0 -0.000258501 -4.26735e-08 0.0 -0.000258774 -4.26188e-08 0.0 -0.000292206 -3.59319e-08 0.0 0.0 0.0 0.0 0.0 0.0 0.0 0.0 0.0 0.0 0.0 0.0 0.0 0.0 0.0 0.0 0.0 0.0 0.0 0.0 0.0 0.0 0.0 0.0 0.0 0.0 0.0 0.0 0.0 0.0 0.0 0.0 0.0 0.0 0.0 0.0 0.0 0.0 0.0 0.0 0.0 0.0 0.0 0.0 0.0 0.0 0.0 0.0 0.0 0.0 0.0 0.0 0.0 0.0 0.0 0.0 0.0 0.0 0.0 0.0 0.0 0.0 0.0 0.0 0.0 0.0 0.0 0.0 0.0 0.0 0.0 0.0 0.0 -0.000292206 3.59319e-08 0.0 -0.000258774 4.26188e-08 0.0 -0.000258501 4.26735e-08 0.0 0 0 0.0 0 0 0.0 -0.000258501 -4.26735e-08 0.0 -0.000258774 -4.26188e-08 0.0 -0.000292206 -3.59319e-08 0.0 0.0 0.0 0.0 0.0 0.0 0.0 0.0 0.0 0.0 0.0 0.0 0.0 0.0 0.0 0.0 0.0 0.0 0.0 0.0 0.0 0.0 0.0 0.0 0.0 0.0 0.0 0.0 0.0 0.0 0.0 0.0 0.0 0.0 0.0 0.0 0.0 0.0 0.0 0.0 0.0 0.0 0.0 0.0 0.0 0.0 0.0 0.0 0.0 0.0 0.0 0.0 0.0 0.0 0.0 0.0 0.0 0.0 0.0 0.0 0.0 0.0 0.0 0.0 0.0 0.0 0.0 0.0 0.0 0.0 0.0 0.0 0.0 -0.000292206 3.59319e-08 0.0 -0.000258774 4.26188e-08 0.0 -0.000258501 4.26735e-08 0.0 0 0 0.0 0 0 0.0 -0.000258501 -4.26735e-08 0.0 -0.000258774 -4.26188e-08 0.0 -0.000292206 -3.59319e-08 0.0 0.0 0.0 0.0 0.0 0.0 0.0 0.0 0.0 0.0 0.0 0.0 0.0 0.0 0.0 0.0 0.0 0.0 0.0 0.0 0.0 0.0 0.0 0.0 0.0 0.0 0.0 0.0 0.0 0.0 0.0 0.0 0.0 0.0 0.0 0.0 0.0 0.0 0.0 0.0 0.0 0.0 0.0 0.0 0.0 0.0 0.0 0.0 0.0 0.0 0.0 0.0 0.0 0.0 0.0 0.0 0.0 0.0 0.0 0.0 0.0 0.0 0.0 0.0 0.0 0.0 0.0 0.0 0.0 0.0 0.0 0.0 0.0 -0.000292206 3.59319e-08 0.0 -0.000258774 4.26188e-08 0.0 -0.000258501 4.26735e-08 0.0 0 0 0.0 0 0 0.0 -0.000258501 -4.26735e-08 0.0 -0.000258774 -4.26188e-08 0.0 -0.000292206 -3.59319e-08 0.0 0.0 0.0 0.0 0.0 0.0 0.0 0.0 0.0 0.0 0.0 0.0 0.0 0.0 0.0 0.0 0.0 0.0 0.0 0.0 0.0 0.0 0.0 0.0 0.0 0.0 0.0 0.0 0.0 0.0 0.0 0.0 0.0 0.0 0.0 0.0 0.0 0.0 0.0 0.0 0.0 0.0 0.0 0.0 0.0 0.0 0.0 0.0 0.0 0.0 0.0 0.0 0.0 0.0 0.0 0.0 0.0 0.0 0.0 0.0 0.0 0.0 0.0 0.0 0.0 0.0 0.0 0.0 0.0 0.0 0.0 0.0 0.0 -0.000292206 3.59319e-08 0.0 -0.000258774 4.26188e-08 0.0 -0.000258501 4.26735e-08 0.0 0 0 0.0 0 0 0.0 -0.000258501 -4.26735e-08 0.0 -0.000258774 -4.26188e-08 0.0 -0.000292206 -3.59319e-08 0.0 0.0 0.0 0.0 0.0 0.0 0.0 0.0 0.0 0.0 0.0 0.0 0.0 0.0 0.0 0.0 0.0 0.0 0.0 0.0 0.0 0.0 0.0 0.0 0.0 0.0 0.0 0.0 0.0 0.0 0.0 0.0 0.0 0.0 0.0 0.0 0.0 0.0 0.0 0.0 0.0 0.0 0.0 0.0 0.0 0.0 0.0 0.0 0.0 0.0 0.0 0.0 0.0 0.0 0.0 0.0 0.0 0.0 0.0 0.0 0.0 0.0 0.0 0.0 0.0 0.0 0.0 0.0 0.0 0.0 0.0 0.0 0.0 -0.000292206 3.59319e-08 0.0 -0.000258774 4.26188e-08 0.0 -0.000258501 4.26735e-08 0.0 0 0 0.0 0 0 0.0 -0.000258501 -4.26735e-08 0.0 -0.000258774 -4.26188e-08 0.0 -0.000292206 -3.59319e-08 0.0 0.0 0.0 0.0 0.0 0.0 0.0 0.0 0.0 0.0 0.0 0.0 0.0 0.0 0.0 0.0 0.0 0.0 0.0 0.0 0.0 0.0 0.0 0.0 0.0 0.0 0.0 0.0 0.0 0.0 0.0 0.0 0.0 0.0 0.0 0.0 0.0 0.0 0.0 0.0 0.0 0.0 0.0 0.0 0.0 0.0 0.0 0.0 0.0 0.0 0.0 0.0 0.0 0.0 0.0 0.0 0.0 0.0 0.0 0.0 0.0 0.0 0.0 0.0 0.0 0.0 0.0 0.0 0.0 0.0 0.0 0.0 0.0 -0.000292206 3.59319e-08 0.0 -0.000258774 4.26188e-08 0.0 -0.000258501 4.26735e-08 0.0 0 0 0.0 0 0 0.0 -0.000258501 -4.26735e-08 0.0 -0.000258774 -4.26188e-08 0.0 -0.000292206 -3.59319e-08 0.0 0.0 0.0 0.0 0.0 0.0 0.0 0.0 0.0 0.0 0.0 0.0 0.0 0.0 0.0 0.0 0.0 0.0 0.0 0.0 0.0 0.0 0.0 0.0 0.0 0.0 0.0 0.0 0.0 0.0 0.0 0.0 0.0 0.0 0.0 0.0 0.0 0.0 0.0 0.0 0.0 0.0 0.0 0.0 0.0 0.0 0.0 0.0 0.0 0.0 0.0 0.0 0.0 0.0 0.0 0.0 0.0 0.0 0.0 0.0 0.0 0.0 0.0 0.0 0.0 0.0 0.0 0.0 0.0 0.0 0.0 0.0 0.0 -0.000292206 3.59319e-08 0.0 -0.000258774 4.26188e-08 0.0 -0.000258501 4.26735e-08 0.0 0 0 0.0 0 0 0.0 -0.000258501 -4.26735e-08 0.0 -0.000258774 -4.26188e-08 0.0 -0.000292206 -3.59319e-08 0.0 0.0 0.0 0.0 0.0 0.0 0.0 0.0 0.0 0.0 0.0 0.0 0.0 0.0 0.0 0.0 0.0 0.0 0.0 0.0 0.0 0.0 0.0 0.0 0.0 0.0 0.0 0.0 0.0 0.0 0.0 0.0 0.0 0.0 0.0 0.0 0.0 0.0 0.0 0.0 0.0 0.0 0.0 0.0 0.0 0.0 0.0 0.0 0.0 0.0 0.0 0.0 0.0 0.0 0.0 0.0 0.0 0.0 0.0 0.0 0.0 0.0 0.0 0.0 0.0 0.0 0.0 0.0 0.0 0.0 0.0 0.0 0.0 -0.000292206 3.59319e-08 0.0 -0.000258774 4.26188e-08 0.0 -0.000258501 4.26735e-08 0.0 0 0 0.0
        </DataArray>
      </PointData>
      <Points>
        <DataArray type="Float64" NumberOfComponents="3" format="ascii">
 -0.0479167 -0.0645833 0.0 -0.0479167 -0.0604167 0.0 -0.0479167 -0.05625 0.0 -0.0479167 -0.0520833 0.0 -0.0448888 -0.0479169 0.0 -0.0395777 -0.0437501 0.0 -0.0347287 -0.0395834 0.0 -0.0303891 -0.0354166 0.0 -0.0265479 -0.0312498 0.0 -0.0231995 -0.0270831 0.0 -0.0203388 -0.0229165 0.0 -0.0179616 -0.01875 0.0 -0.0160643 -0.0145834 0.0 -0.0146438 -0.0104169 0.0 -0.013698 -0.00625019 0.0 -0.0132254 -0.00208341 0.0 -0.0132254 0.00208341 0.0 -0.013698 0.00625019 0.0 -0.0146438 0.0104169 0.0 -0.0160643 0.0145834 0.0 -0.0179616 0.01875 0.0 -0.0203388 0.0229165 0.0 -0.0231995 0.0270831 0.0 -0.0265479 0.0312498 0.0 -0.0303891 0.0354166 0.0 -0.0347287 0.0395834 0.0 -0.0395777 0.0437501 0.0 -0.0448888 0.0479169 0.0 -0.0479167 0.0520833 0.0 -0.0479167 0.05625 0.0 -0.0479167 0.0604167 0.0 -0.0479167 0.0645833 0.0 -0.04375 -0.0645833 0.0 -0.04375 -0.0604167 0.0 -0.04375 -0.05625 0.0 -0.04375 -0.0520833 0.0 -0.0407221 -0.0479169 0.0 -0.035411 -0.0437501 0.0 -0.030562 -0.0395834 0.0 -0.0262225 -0.0354166 0.0 -0.0223812 -0.0312498 0.0 -0.0190328 -0.0270831 0.0 -0.0161722 -0.0229165 0.0 -0.013795 -0.01875 0.0 -0.0118976 -0.0145834 0.0 -0.0104772 -0.0104169 0.0 -0.00953133 -0.00625019 0.0 -0.00905873 -0.00208341 0.0 -0.00905873 0.00208341 0.0 -0.00953133 0.00625019 0.0 -0.0104772 0.0104169 0.0 -0.0118976 0.0145834 0.0 -0.013795 0.01875 0.0 -0.0161722 0.0229165 0.0 -0.0190328 0.0270831 0.0 -0.0223812 0.0312498 0.0 -0.0262225 0.0354166 0.0 -0.030562 0.0395834 0.0 -0.035411 0.0437501 0.0 -0.0407221 0.0479169 0.0 -0.04375 0.0520833 0.0 -0.04375 0.05625 0.0 -0.04375 0.0604167 0.0 -0.04375 0.0645833 0.0 -0.0395833 -0.0645833 0.0 -0.0395833 -0.0604167 0.0 -0.0395833 -0.05625 0.0 -0.0395833 -0.0520833 0.0 -0.0365555 -0.0479169 0.0 -0.0312444 -0.0437501 0.0 -0.0263953 -0.0395834 0.0 -0.0220558 -0.0354166 0.0 -0.0182146 -0.0312498 0.0 -0.0148662 -0.0270831 0.0 -0.0120055 -0.0229165 0.0 -0.00962831 -0.01875 0.0 -0.00773096 -0.0145834 0.0 -0.00631049 -0.0104169 0.0 -0.00536466 -0.00625019 0.0 -0.00489206 -0.00208341 0.0 -0.00489206 0.00208341 0.0 -0.00536466 0.00625019 0.0 -0.00631049 0.0104169 0.0 -0.00773096 0.0145834 0.0 -0.00962831 0.01875 0.0 -0.0120055 0.0229165 0.0 -0.0148662 0.0270831 0.0 -0.0182146 0.0312498 0.0 -0.0220558 0.0354166 0.0 -0.0263953 0.0395834 0.0 -0.0312444 0.0437501 0.0 -0.0365555 0.0479169 0.0 -0.0395833 0.0520833 0.0 -0.0395833 0.05625 0.0 -0.0395833 0.0604167 0.0 -0.0395833 0.0645833 0.0 -0.0354167 -0.0645833 0.0 -0.0354167 -0.0604167 0.0 -0.0354167 -0.05625 0.0 -0.0354167 -0.0520833 0.0 -0.0323888 -0.0479169 0.0 -0.0270777 -0.0437501 0.0 -0.0222287 -0.0395834 0.0 -0.0178891 -0.0354166 0.0 -0.0140479 -0.0312498 0.0 -0.0106995 -0.0270831 0.0 -0.00783885 -0.0229165 0.0 -0.00546164 -0.01875 0.0 -0.0035643 -0.0145834 0.0 -0.00214383 -0.0104169 0.0 -0.00119799 -0.00625019 0.0 -0.000725395 -0.00208341 0.0 -0.000725395 0.00208341 0.0 -0.00119799 0.00625019 0.0 -0.00214383 0.0104169 0.0 -0.0035643 0.0145834 0.0 -0.00546164 0.01875 0.0 -0.00783885 0.0229165 0.0 -0.0106995 0.0270831 0.0 -0.0140479 0.0312498 0.0 -0.0178891 0.0354166 0.0 -0.0222287 0.0395834 0.0 -0.0270777 0.0437501 0.0 -0.0323888 0.0479169 0.0 -0.0354167 0.0520833 0.0 -0.0354167 0.05625 0.0 -0.0354167 0.0604167 0.0 -0.0354167 0.0645833 0.0 -0.03125 -0.0645833 0.0 -0.03125 -0.0604167 0.0 -0.03125 -0.05625 0.0 -0.03125 -0.0520833 0.0 -0.0282221 -0.0479169 0.0 -0.022911 -0.0437501 0.0 -0.018062 -0.0395834 0.0 -0.0137225 -0.0354166 0.0 -0.00988124 -0.0312498 0.0 -0.00653285 -0.0270831 0.0 -0.00367218 -0.0229165 0.0 -0.00129498 -0.01875 0.0 0.000602371 -0.0145834 0.0 0.00202284 -0.0104169 0.0 0.00296867 -0.00625019 0.0 0.00344127 -0.00208341 0.0 0.00344127 0.00208341 0.0 0.00296867 0.00625019 0.0 0.00202284 0.0104169 0.0 0.000602371 0.0145834 0.0 -0.00129498 0.01875 0.0 -0.00367218 0.0229165 0.0 -0.00653285 0.0270831 0.0 -0.00988124 0.0312498 0.0 -0.0137225 0.0354166 0.0 -0.018062 0.0395834 0.0 -0.022911 0.0437501 0.0 -0.0282221 0.0479169 0.0 -0.03125 0.0520833 0.0 -0.03125 0.05625 0.0 -0.03125 0.0604167 0.0 -0.03125 0.0645833 0.0 -0.0270833 -0.0645833 0.0 -0.0270833 -0.0604167 0.0 -0.0270833 -0.05625 0.0 -0.0270833 -0.0520833 0.0 -0.0240555 -0.0479169 0.0 -0.0187444 -0.0437501 0.0 -0.0138953 -0.0395834 0.0 -0.00955581 -0.0354166 0.0 -0.00571457 -0.0312498 0.0 -0.00236618 -0.0270831 0.0 0.000494486 -0.0229165 0.0 0.00287169 -0.01875 0.0 0.00476904 -0.0145834 0.0 0.00618951 -0.0104169 0.0 0.00713534 -0.00625019 0.0 0.00760794 -0.00208341 0.0 0.00760794 0.00208341 0.0 0.00713534 0.00625019 0.0 0.00618951 0.0104169 0.0 0.00476904 0.0145834 0.0 0.00287169 0.01875 0.0 0.000494486 0.0229165 0.0 -0.00236618 0.0270831 0.0 -0.00571457 0.0312498 0.0 -0.00955581 0.0354166 0.0 -0.0138953 0.0395834 0.0 -0.0187444 0.0437501 0.0 -0.0240555 0.0479169 0.0 -0.0270833 0.0520833 0.0 -0.0270833 0.05625 0.0 -0.0270833 0.0604167 0.0 -0.0270833 0.0645833 0.0 -0.0229167 -0.0645833 0.0 -0.0229167 -0.0604167 0.0 -0.0229167 -0.05625 0.0 -0.0229167 -0.0520833 0.0 -0.0198888 -0.0479169 0.0 -0.0145777 -0.0437501 0.0 -0.00972867 -0.0395834 0.0 -0.00538914 -0.0354166 0.0 -0.0015479 -0.0312498 0.0 0.00180049 -0.0270831 0.0 0.00466115 -0.0229165 0.0 0.00703836 -0.01875 0.0 0.0089357 -0.0145834 0.0 0.0103562 -0.0104169 0.0 0.011302 -0.00625019 0.0 0.0117746 -0.00208341 0.0 0.0117746 0.00208341 0.0 0.011302 0.00625019 0.0 0.0103562 0.0104169 0.0 0.0089357 0.0145834 0.0 0.00703836 0.01875 0.0 0.00466115 0.0229165 0.0 0.00180049 0.0270831 0.0 -0.0015479 0.0312498 0.0 -0.00538914 0.0354166 0.0 -0.00972867 0.0395834 0.0 -0.0145777 0.0437501 0.0 -0.0198888 0.0479169 0.0 -0.0229167 0.0520833 0.0 -0.0229167 0.05625 0.0 -0.0229167 0.0604167 0.0 -0.0229167 0.0645833 0.0 -0.01875 -0.0645833 0.0 -0.01875 -0.0604167 0.0 -0.01875 -0.05625 0.0 -0.01875 -0.0520833 0.0 -0.0157221 -0.0479169 0.0 -0.010411 -0.0437501 0.0 -0.00556201 -0.0395834 0.0 -0.00122247 -0.0354166 0.0 0.00261876 -0.0312498 0.0 0.00596715 -0.0270831 0.0 0.00882782 -0.0229165 0.0 0.011205 -0.01875 0.0 0.0131024 -0.0145834 0.0 0.0145228 -0.0104169 0.0 0.0154687 -0.00625019 0.0 0.0159413 -0.00208341 0.0 0.0159413 0.00208341 0.0 0.0154687 0.00625019 0.0 0.0145228 0.0104169 0.0 0.0131024 0.0145834 0.0 0.011205 0.01875 0.0 0.00882782 0.0229165 0.0 0.00596715 0.0270831 0.0 0.00261876 0.0312498 0.0 -0.00122247 0.0354166 0.0 -0.00556201 0.0395834 0.0 -0.010411 0.0437501 0.0 -0.0157221 0.0479169 0.0 -0.01875 0.0520833 0.0 -0.01875 0.05625 0.0 -0.01875 0.0604167 0.0 -0.01875 0.0645833 0.0 -0.0145833 -0.0645833 0.0 -0.0145833 -0.0604167 0.0 -0.0145833 -0.05625 0.0 -0.0145833 -0.0520833 0.0 -0.0115555 -0.0479169 0.0 -0.00624436 -0.0437501 0.0 -0.00139534 -0.0395834 0.0 0.00294419 -0.0354166 0.0 0.00678543 -0.0312498 0.0 0.0101338 -0.0270831 0.0 0.0129945 -0.0229165 0.0 0.0153717 -0.01875 0.0 0.017269 -0.0145834 0.0 0.0186895 -0.0104169 0.0 0.0196353 -0.00625019 0.0 0.0201079 -0.00208341 0.0 0.0201079 0.00208341 0.0 0.0196353 0.00625019 0.0 0.0186895 0.0104169 0.0 0.017269 0.0145834 0.0 0.0153717 0.01875 0.0 0.0129945 0.0229165 0.0 0.0101338 0.0270831 0.0 0.00678543 0.0312498 0.0 0.00294419 0.0354166 0.0 -0.00139534 0.0395834 0.0 -0.00624436 0.0437501 0.0 -0.0115555 0.0479169 0.0 -0.0145833 0.0520833 0.0 -0.0145833 0.05625 0.0 -0.0145833 0.0604167 0.0 -0.0145833 0.0645833 0.0 -0.0104167 -0.0645833 0.0 -0.0104167 -0.0604167 0.0 -0.0104167 -0.05625 0.0 -0.0104167 -0.0520833 0.0 -0.00738881 -0.0479169 0.0 -0.00207769 -0.0437501 0.0 0.00277133 -0.0395834 0.0 0.00711086 -0.0354166 0.0 0.0109521 -0.0312498 0.0 0.0143005 -0.0270831 0.0 0.0171612 -0.0229165 0.0 0.0195384 -0.01875 0.0 0.0214357 -0.0145834 0.0 0.0228562 -0.0104169 0.0 0.023802 -0.00625019 0.0 0.0242746 -0.00208341 0.0 0.0242746 0.00208341 0.0 0.023802 0.00625019 0.0 0.0228562 0.0104169 0.0 0.0214357 0.0145834 0.0 0.0195384 0.01875 0.0 0.0171612 0.0229165 0.0 0.0143005 0.0270831 0.0 0.0109521 0.0312498 0.0 0.00711086 0.0354166 0.0 0.00277133 0.0395834 0.0 -0.00207769 0.0437501 0.0 -0.00738881 0.0479169 0.0 -0.0104167 0.0520833 0.0 -0.0104167 0.05625 0.0 -0.0104167 0.0604167 0.0 -0.0104167 0.0645833 0.0 -0.00625 -0.0645833 0.0 -0.00625 -0.0604167 0.0 -0.00625 -0.05625 0.0 -0.00625 -0.0520833 0.0 -0.00322214 -0.0479169 0.0 0.00208897 -0.0437501 0.0 0.00693799 -0.0395834 0.0 0.0112775 -0.0354166 0.0 0.0151188 -0.0312498 0.0 0.0184672 -0.0270831 0.0 0.0213278 -0.0229165 0.0 0.023705 -0.01875 0.0 0.0256024 -0.0145834 0.0 0.0270228 -0.0104169 0.0 0.0279687 -0.00625019 0.0 0.0284413 -0.00208341 0.0 0.0284413 0.00208341 0.0 0.0279687 0.00625019 0.0 0.0270228 0.0104169 0.0 0.0256024 0.0145834 0.0 0.023705 0.01875 0.0 0.0213278 0.0229165 0.0 0.0184672 0.0270831 0.0 0.0151188 0.0312498 0.0 0.0112775 0.0354166 0.0 0.00693799 0.0395834 0.0 0.00208897 0.0437501 0.0 -0.00322214 0.0479169 0.0 -0.00625 0.0520833 0.0 -0.00625 0.05625 0.0 -0.00625 0.0604167 0.0 -0.00625 0.0645833 0.0 -0.00208333 -0.0645833 0.0 -0.00208333 -0.0604167 0.0 -0.00208333 -0.05625 0.0 -0.00208333 -0.0520833 0.0 0.000944523 -0.0479169 0.0 0.00625564 -0.0437501 0.0 0.0111047 -0.0395834 0.0 0.0154442 -0.0354166 0.0 0.0192854 -0.0312498 0.0 0.0226338 -0.0270831 0.0 0.0254945 -0.0229165 0.0 0.0278717 -0.01875 0.0 0.029769 -0.0145834 0.0 0.0311895 -0.0104169 0.0 0.0321353 -0.00625019 0.0 0.0326079 -0.00208341 0.0 0.0326079 0.00208341 0.0 0.0321353 0.00625019 0.0 0.0311895 0.0104169 0.0 0.029769 0.0145834 0.0 0.0278717 0.01875 0.0 0.0254945 0.0229165 0.0 0.0226338 0.0270831 0.0 0.0192854 0.0312498 0.0 0.0154442 0.0354166 0.0 0.0111047 0.0395834 0.0 0.00625564 0.0437501 0.0 0.000944523 0.0479169 0.0 -0.00208333 0.0520833 0.0 -0.00208333 0.05625 0.0 -0.00208333 0.0604167 0.0 -0.00208333 0.0645833 0.0 0.00208333 -0.0645833 0.0 0.00208333 -0.0604167 0.0 0.00208333 -0.05625 0.0 0.00208333 -0.0520833 0.0 0.00511119 -0.0479169 0.0 0.0104223 -0.0437501 0.0 0.0152713 -0.0395834 0.0 0.0196109 -0.0354166 0.0 0.0234521 -0.0312498 0.0 0.0268005 -0.0270831 0.0 0.0296612 -0.0229165 0.0 0.0320384 -0.01875 0.0 0.0339357 -0.0145834 0.0 0.0353562 -0.0104169 0.0 0.036302 -0.00625019 0.0 0.0367746 -0.00208341 0.0 0.0367746 0.00208341 0.0 0.036302 0.00625019 0.0 0.0353562 0.0104169 0.0 0.0339357 0.0145834 0.0 0.0320384 0.01875 0.0 0.0296612 0.0229165 0.0 0.0268005 0.0270831 0.0 0.0234521 0.0312498 0.0 0.0196109 0.0354166 0.0 0.0152713 0.0395834 0.0 0.0104223 0.0437501 0.0 0.00511119 0.0479169 0.0 0.00208333 0.0520833 0.0 0.00208333 0.05625 0.0 0.00208333 0.0604167 0.0 0.00208333 0.0645833 0.0 0.00625 -0.0645833 0.0 0.00625 -0.0604167 0.0 0.00625 -0.05625 0.0 0.00625 -0.0520833 0.0 0.00927786 -0.0479169 0.0 0.014589 -0.0437501 0.0 0.019438 -0.0395834 0.0 0.0237775 -0.0354166 0.0 0.0276188 -0.0312498 0.0 0.0309672 -0.0270831 0.0 0.0338278 -0.0229165 0.0 0.036205 -0.01875 0.0 0.0381024 -0.0145834 0.0 0.0395228 -0.0104169 0.0 0.0404687 -0.00625019 0.0 0.0409413 -0.00208341 0.0 0.0409413 0.00208341 0.0 0.0404687 0.00625019 0.0 0.0395228 0.0104169 0.0 0.0381024 0.0145834 0.0 0.036205 0.01875 0.0 0.0338278 0.0229165 0.0 0.0309672 0.0270831 0.0 0.0276188 0.0312498 0.0 0.0237775 0.0354166 0.0 0.019438 0.0395834 0.0 0.014589 0.0437501 0.0 0.00927786 0.0479169 0.0 0.00625 0.0520833 0.0 0.00625 0.05625 0.0 0.00625 0.0604167 0.0 0.00625 0.0645833 0.0 0.0104167 -0.0645833 0.0 0.0104167 -0.0604167 0.0 0.0104167 -0.05625 0.0 0.0104167 -0.0520833 0.0 0.0134445 -0.0479169 0.0 0.0187556 -0.0437501 0.0 0.0236047 -0.0395834 0.0 0.0279442 -0.0354166 0.0 0.0317854 -0.0312498 0.0 0.0351338 -0.0270831 0.0 0.0379945 -0.0229165 0.0 0.0403717 -0.01875 0.0 0.042269 -0.0145834 0.0 0.0436895 -0.0104169 0.0 0.0446353 -0.00625019 0.0 0.0451079 -0.00208341 0.0 0.0451079 0.00208341 0.0 0.0446353 0.00625019 0.0 0.0436895 0.0104169 0.0 0.042269 0.0145834 0.0 0.0403717 0.01875 0.0 0.0379945 0.0229165 0.0 0.0351338 0.0270831 0.0 0.0317854 0.0312498 0.0 0.0279442 0.0354166 0.0 0.0236047 0.0395834 0.0 0.0187556 0.0437501 0.0 0.0134445 0.0479169 0.0 0.0104167 0.0520833 0.0 0.0104167 0.05625 0.0 0.0104167 0.0604167 0.0 0.0104167 0.0645833 0.0 0.0145833 -0.0645833 0.0 0.0145833 -0.0604167 0.0 0.0145833 -0.05625 0.0 0.0145833 -0.0520833 0.0 0.0176112 -0.0479169 0.0 0.0229223 -0.0437501 0.0 0.0277713 -0.0395834 0.0 0.0321109 -0.0354166 0.0 0.0359521 -0.0312498 0.0 0.0393005 -0.0270831 0.0 0.0421612 -0.0229165 0.0 0.0445384 -0.01875 0.0 0.0464357 -0.0145834 0.0 0.0478562 -0.0104169 0.0 0.048802 -0.00625019 0.0 0.0492746 -0.00208341 0.0 0.0492746 0.00208341 0.0 0.048802 0.00625019 0.0 0.0478562 0.0104169 0.0 0.0464357 0.0145834 0.0 0.0445384 0.01875 0.0 0.0421612 0.0229165 0.0 0.0393005 0.0270831 0.0 0.0359521 0.0312498 0.0 0.0321109 0.0354166 0.0 0.0277713 0.0395834 0.0 0.0229223 0.0437501 0.0 0.0176112 0.0479169 0.0 0.0145833 0.0520833 0.0 0.0145833 0.05625 0.0 0.0145833 0.0604167 0.0 0.0145833 0.0645833 0.0 0.01875 -0.0645833 0.0 0.01875 -0.0604167 0.0 0.01875 -0.05625 0.0 0.01875 -0.0520833 0.0 0.0217779 -0.0479169 0.0 0.027089 -0.0437501 0.0 0.031938 -0.0395834 0.0 0.0362775 -0.0354166 0.0 0.0401188 -0.0312498 0.0 0.0434672 -0.0270831 0.0 0.0463278 -0.0229165 0.0 0.048705 -0.01875 0.0 -0.0493976 -0.0145834 0.0 -0.0479772 -0.0104169 0.0 -0.0470313 -0.00625019 0.0 -0.0465587 -0.00208341 0.0 -0.0465587 0.00208341 0.0 -0.0470313 0.00625019 0.0 -0.0479772 0.0104169 0.0 -0.0493976 0.0145834 0.0 0.048705 0.01875 0.0 0.0463278 0.0229165 0.0 0.0434672 0.0270831 0.0 0.0401188 0.0312498 0.0 0.0362775 0.0354166 0.0 0.031938 0.0395834 0.0 0.027089 0.0437501 0.0 0.0217779 0.0479169 0.0 0.01875 0.0520833 0.0 0.01875 0.05625 0.0 0.01875 0.0604167 0.0 0.01875 0.0645833 0.0 0.0229167 -0.0645833 0.0 0.0229167 -0.0604167 0.0 0.0229167 -0.05625 0.0 0.0229167 -0.0520833 0.0 0.0259445 -0.0479169 0.0 0.0312556 -0.0437501 0.0 0.0361047 -0.0395834 0.0 0.0404442 -0.0354166 0.0 0.0442854 -0.0312498 0.0 0.0476338 -0.0270831 0.0 -0.0495055 -0.0229165 0.0 -0.0471283 -0.01875 0.0 -0.045231 -0.0145834 0.0 -0.0438105 -0.0104169 0.0 -0.0428647 -0.00625019 0.0 -0.0423921 -0.00208341 0.0 -0.0423921 0.00208341 0.0 -0.0428647 0.00625019 0.0 -0.0438105 0.0104169 0.0 -0.045231 0.0145834 0.0 -0.0471283 0.01875 0.0 -0.0495055 0.0229165 0.0 0.0476338 0.0270831 0.0 0.0442854 0.0312498 0.0 0.0404442 0.0354166 0.0 0.0361047 0.0395834 0.0 0.0312556 0.0437501 0.0 0.0259445 0.0479169 0.0 0.0229167 0.0520833 0.0 0.0229167 0.05625 0.0 0.0229167 0.0604167 0.0 0.0229167 0.0645833 0.0 0.0270833 -0.0645833 0.0 0.0270833 -0.0604167 0.0 0.0270833 -0.05625 0.0 0.0270833 -0.0520833 0.0 0.0301112 -0.0479169 0.0 0.0354223 -0.0437501 0.0 0.0402713 -0.0395834 0.0 0.0446109 -0.0354166 0.0 0.0484521 -0.0312498 0.0 -0.0481995 -0.0270831 0.0 -0.0453388 -0.0229165 0.0 -0.0429616 -0.01875 0.0 -0.0410643 -0.0145834 0.0 -0.0396438 -0.0104169 0.0 -0.038698 -0.00625019 0.0 -0.0382254 -0.00208341 0.0 -0.0382254 0.00208341 0.0 -0.038698 0.00625019 0.0 -0.0396438 0.0104169 0.0 -0.0410643 0.0145834 0.0 -0.0429616 0.01875 0.0 -0.0453388 0.0229165 0.0 -0.0481995 0.0270831 0.0 0.0484521 0.0312498 0.0 0.0446109 0.0354166 0.0 0.0402713 0.0395834 0.0 0.0354223 0.0437501 0.0 0.0301112 0.0479169 0.0 0.0270833 0.0520833 0.0 0.0270833 0.05625 0.0 0.0270833 0.0604167 0.0 0.0270833 0.0645833 0.0 0.03125 -0.0645833 0.0 0.03125 -0.0604167 0.0 0.03125 -0.05625 0.0 0.03125 -0.0520833 0.0 0.0342779 -0.0479169 0.0 0.039589 -0.0437501 0.0 0.044438 -0.0395834 0.0 0.0487775 -0.0354166 0.0 -0.0473812 -0.0312498 0.0 -0.0440328 -0.0270831 0.0 -0.0411722 -0.0229165 0.0 -0.038795 -0.01875 0.0 -0.0368976 -0.0145834 0.0 -0.0354772 -0.0104169 0.0 -0.0345313 -0.00625019 0.0 -0.0340587 -0.00208341 0.0 -0.0340587 0.00208341 0.0 -0.0345313 0.00625019 0.0 -0.0354772 0.0104169 0.0 -0.0368976 0.0145834 0.0 -0.038795 0.01875 0.0 -0.0411722 0.0229165 0.0 -0.0440328 0.0270831 0.0 -0.0473812 0.0312498 0.0 0.0487775 0.0354166 0.0 0.044438 0.0395834 0.0 0.039589 0.0437501 0.0 0.0342779 0.0479169 0.0 0.03125 0.0520833 0.0 0.03125 0.05625 0.0 0.03125 0.0604167 0.0 0.03125 0.0645833 0.0 0.0354167 -0.0645833 0.0 0.0354167 -0.0604167 0.0 0.0354167 -0.05625 0.0 0.0354167 -0.0520833 0.0 0.0384445 -0.0479169 0.0 0.0437556 -0.0437501 0.0 0.0486047 -0.0395834 0.0 -0.0470558 -0.0354166 0.0 -0.0432146 -0.0312498 0.0 -0.0398662 -0.0270831 0.0 -0.0370055 -0.0229165 0.0 -0.0346283 -0.01875 0.0 -0.032731 -0.0145834 0.0 -0.0313105 -0.0104169 0.0 -0.0303647 -0.00625019 0.0 -0.0298921 -0.00208341 0.0 -0.0298921 0.00208341 0.0 -0.0303647 0.00625019 0.0 -0.0313105 0.0104169 0.0 -0.032731 0.0145834 0.0 -0.0346283 0.01875 0.0 -0.0370055 0.0229165 0.0 -0.0398662 0.0270831 0.0 -0.0432146 0.0312498 0.0 -0.0470558 0.0354166 0.0 0.0486047 0.0395834 0.0 0.0437556 0.0437501 0.0 0.0384445 0.0479169 0.0 0.0354167 0.0520833 0.0 0.0354167 0.05625 0.0 0.0354167 0.0604167 0.0 0.0354167 0.0645833 0.0 0.0395833 -0.0645833 0.0 0.0395833 -0.0604167 0.0 0.0395833 -0.05625 0.0 0.0395833 -0.0520833 0.0 0.0426112 -0.0479169 0.0 0.0479223 -0.0437501 0.0 -0.0472287 -0.0395834 0.0 -0.0428891 -0.0354166 0.0 -0.0390479 -0.0312498 0.0 -0.0356995 -0.0270831 0.0 -0.0328388 -0.0229165 0.0 -0.0304616 -0.01875 0.0 -0.0285643 -0.0145834 0.0 -0.0271438 -0.0104169 0.0 -0.026198 -0.00625019 0.0 -0.0257254 -0.00208341 0.0 -0.0257254 0.00208341 0.0 -0.026198 0.00625019 0.0 -0.0271438 0.0104169 0.0 -0.0285643 0.0145834 0.0 -0.0304616 0.01875 0.0 -0.0328388 0.0229165 0.0 -0.0356995 0.0270831 0.0 -0.0390479 0.0312498 0.0 -0.0428891 0.0354166 0.0 -0.0472287 0.0395834 0.0 0.0479223 0.0437501 0.0 0.0426112 0.0479169 0.0 0.0395833 0.0520833 0.0 0.0395833 0.05625 0.0 0.0395833 0.0604167 0.0 0.0395833 0.0645833 0.0 0.04375 -0.0645833 0.0 0.04375 -0.0604167 0.0 0.04375 -0.05625 0.0 0.04375 -0.0520833 0.0 0.0467779 -0.0479169 0.0 -0.047911 -0.0437501 0.0 -0.043062 -0.0395834 0.0 -0.0387225 -0.0354166 0.0 -0.0348812 -0.0312498 0.0 -0.0315328 -0.0270831 0.0 -0.0286722 -0.0229165 0.0 -0.026295 -0.01875 0.0 -0.0243976 -0.0145834 0.0 -0.0229772 -0.0104169 0.0 -0.0220313 -0.00625019 0.0 -0.0215587 -0.00208341 0.0 -0.0215587 0.00208341 0.0 -0.0220313 0.00625019 0.0 -0.0229772 0.0104169 0.0 -0.0243976 0.0145834 0.0 -0.026295 0.01875 0.0 -0.0286722 0.0229165 0.0 -0.0315328 0.0270831 0.0 -0.0348812 0.0312498 0.0 -0.0387225 0.0354166 0.0 -0.043062 0.0395834 0.0 -0.047911 0.0437501 0.0 0.0467779 0.0479169 0.0 0.04375 0.0520833 0.0 0.04375 0.05625 0.0 0.04375 0.0604167 0.0 0.04375 0.0645833 0.0 0.0479167 -0.0645833 0.0 0.0479167 -0.0604167 0.0 0.0479167 -0.05625 0.0 0.0479167 -0.0520833 0.0 -0.0490555 -0.0479169 0.0 -0.0437444 -0.0437501 0.0 -0.0388953 -0.0395834 0.0 -0.0345558 -0.0354166 0.0 -0.0307146 -0.0312498 0.0 -0.0273662 -0.0270831 0.0 -0.0245055 -0.0229165 0.0 -0.0221283 -0.01875 0.0 -0.020231 -0.0145834 0.0 -0.0188105 -0.0104169 0.0 -0.0178647 -0.00625019 0.0 -0.0173921 -0.00208341 0.0 -0.0173921 0.00208341 0.0 -0.0178647 0.00625019 0.0 -0.0188105 0.0104169 0.0 -0.020231 0.0145834 0.0 -0.0221283 0.01875 0.0 -0.0245055 0.0229165 0.0 -0.0273662 0.0270831 0.0 -0.0307146 0.0312498 0.0 -0.0345558 0.0354166 0.0 -0.0388953 0.0395834 0.0 -0.0437444 0.0437501 0.0 -0.0490555 0.0479169 0.0 0.0479167 0.0520833 0.0 0.0479167 0.05625 0.0 0.0479167 0.0604167 0.0 0.0479167 0.0645833 0.0
        </DataArray>
      </Points>
      <Cells>
        <DataArray type="Int32" Name="connectivity" format="ascii">
 0 1 2 3 4 5 6 7 8 9 10 11 12 13 14 15 16 17 18 19 20 21 22 23 24 25 26 27 28 29 30 31 32 33 34 35 36 37 38 39 40 41 42 43 44 45 46 47 48 49 50 51 52 53 54 55 56 57 58 59 60 61 62 63 64 65 66 67 68 69 70 71 72 73 74 75 76 77 78 79 80 81 82 83 84 85 86 87 88 89 90 91 92 93 94 95 96 97 98 99 100 101 102 103 104 105 106 107 108 109 110 111 112 113 114 115 116 117 118 119 120 121 122 123 124 125 126 127 128 129 130 131 132 133 134 135 136 137 138 139 140 141 142 143 144 145 146 147 148 149 150 151 152 153 154 155 156 157 158 159 160 161 162 163 164 165 166 167 168 169 170 171 172 173 174 175 176 177 178 179 180 181 182 183 184 185 186 187 188 189 190 191 192 193 194 195 196 197 198 199 200 201 202 203 204 205 206 207 208 209 210 211 212 213 214 215 216 217 218 219 220 221 222 223 224 225 226 227 228 229 230 231 232 233 234 235 236 237 238 239 240 241 242 243 244 245 246 247 248 249 250 251 252 253 254 255 256 257 258 259 260 261 262 263 264 265 266 267 268 269 270 271 272 273 274 275 276 277 278 279 280 281 282 283 284 285 286 287 288 289 290 291 292 293 294 295 296 297 298 299 300 301 302 303 304 305 306 307 308 309 310 311 312 313 314 315 316 317 318 319 320 321 322 323 324 325 326 327 328 329 330 331 332 333 334 335 336 337 338 339 340 341 342 343 344 345 346 347 348 349 350 351 352 353 354 355 356 357 358 359 360 361 362 363 364 365 366 367 368 369 370 371 372 373 374 375 376 377 378 379 380 381 382 383 384 385 386 387 388 389 390 391 392 393 394 395 396 397 398 399 400 401 402 403 404 405 406 407 408 409 410 411 412 413 414 415 416 417 418 419 420 421 422 423 424 425 426 427 428 429 430 431 432 433 434 435 436 437 438 439 440 441 442 443 444 445 446 447 448 449 450 451 452 453 454 455 456 457 458 459 460 461 462 463 464 465 466 467 468 469 470 471 472 473 474 475 476 477 478 479 480 481 482 483 484 485 486 487 488 489 490 491 492 493 494 495 496 497 498 499 500 501 502 503 504 505 506 507 508 509 510 511 512 513 514 515 516 517 518 519 520 521 522 523 524 525 526 527 528 529 530 531 532 533 534 535 536 537 538 539 540 541 542 543 544 545 546 547 548 549 550 551 552 553 554 555 556 557 558 559 560 561 562 563 564 565 566 567 568 569 570 571 572 573 574 575 576 577 578 579 580 581 582 583 584 585 586 587 588 589 590 591 592 593 594 595 596 597 598 599 600 601 602 603 604 605 606 607 608 609 610 611 612 613 614 615 616 617 618 619 620 621 622 623 624 625 626 627 628 629 630 631 632 633 634 635 636 637 638 639 640 641 642 643 644 645 646 647 648 649 650 651 652 653 654 655 656 657 658 659 660 661 662 663 664 665 666 667 668 669 670 671 672 673 674 675 676 677 678 679 680 681 682 683 684 685 686 687 688 689 690 691 692 693 694 695 696 697 698 699 700 701 702 703 704 705 706 707 708 709 710 711 712 713 714 715 716 717 718 719 720 721 722 723 724 725 726 727 728 729 730 731 732 733 734 735 736 737 738 739 740 741 742 743 744 745 746 747 748 749 750 751 752 753 754 755 756 757 758 759 760 761 762 763 764 765 766 767
        </DataArray>
        <DataArray type="Int32" Name="offsets" format="ascii">
 1 2 3 4 5 6 7 8 9 10 11 12 13 14 15 16 17 18 19 20 21 22 23 24 25 26 27 28 29 30 31 32 33 34 35 36 37 38 39 40 41 42 43 44 45 46 47 48 49 50 51 52 53 54 55 56 57 58 59 60 61 62 63 64 65 66 67 68 69 70 71 72 73 74 75 76 77 78 79 80 81 82 83 84 85 86 87 88 89 90 91 92 93 94 95 96 97 98 99 100 101 102 103 104 105 106 107 108 109 110 111 112 113 114 115 116 117 118 119 120 121 122 123 124 125 126 127 128 129 130 131 132 133 134 135 136 137 138 139 140 141 142 143 144 145 146 147 148 149 150 151 152 153 154 155 156 157 158 159 160 161 162 163 164 165 166 167 168 169 170 171 172 173 174 175 176 177 178 179 180 181 182 183 184 185 186 187 188 189 190 191 192 193 194 195 196 197 198 199 200 201 202 203 204 205 206 207 208 209 210 211 212 213 214 215 216 217 218 219 220 221 222 223 224 225 226 227 228 229 230 231 232 233 234 235 236 237 238 239 240 241 242 243 244 245 246 247 248 249 250 251 252 253 254 255 256 257 258 259 260 261 262 263 264 265 266 267 268 269 270 271 272 273 274 275 276 277 278 279 280 281 282 283 284 285 286 287 288 289 290 291 292 293 294 295 296 297 298 299 300 301 302 303 304 305 306 307 308 309 310 311 312 313 314 315 316 317 318 319 320 321 322 323 324 325 326 327 328 329 330 331 332 333 334 335 336 337 338 339 340 341 342 343 344 345 346 347 348 349 350 351 352 353 354 355 356 357 358 359 360 361 362 363 364 365 366 367 368 369 370 371 372 373 374 375 376 377 378 379 380 381 382 383 384 385 386 387 388 389 390 391 392 393 394 395 396 397 398 399 400 401 402 403 404 405 406 407 408 409 410 411 412 413 414 415 416 417 418 419 420 421 422 423 424 425 426 427 428 429 430 431 432 433 434 435 436 437 438 439 440 441 442 443 444 445 446 447 448 449 450 451 452 453 454 455 456 457 458 459 460 461 462 463 464 465 466 467 468 469 470 471 472 473 474 475 476 477 478 479 480 481 482 483 484 485 486 487 488 489 490 491 492 493 494 495 496 497 498 499 500 501 502 503 504 505 506 507 508 509 510 511 512 513 514 515 516 517 518 519 520 521 522 523 524 525 526 527 528 529 530 531 532 533 534 535 536 537 538 539 540 541 542 543 544 545 546 547 548 549 550 551 552 553 554 555 556 557 558 559 560 561 562 563 564 565 566 567 568 569 570 571 572 573 574 575 576 577 578 579 580 581 582 583 584 585 586 587 588 589 590 591 592 593 594 595 596 597 598 599 600 601 602 603 604 605 606 607 608 609 610 611 612 613 614 615 616 617 618 619 620 621 622 623 624 625 626 627 628 629 630 631 632 633 634 635 636 637 638 639 640 641 642 643 644 645 646 647 648 649 650 651 652 653 654 655 656 657 658 659 660 661 662 663 664 665 666 667 668 669 670 671 672 673 674 675 676 677 678 679 680 681 682 683 684 685 686 687 688 689 690 691 692 693 694 695 696 697 698 699 700 701 702 703 704 705 706 707 708 709 710 711 712 713 714 715 716 717 718 719 720 721 722 723 724 725 726 727 728 729 730 731 732 733 734 735 736 737 738 739 740 741 742 743 744 745 746 747 748 749 750 751 752 753 754 755 756 757 758 759 760 761 762 763 764 765 766 767 768
        </DataArray>
        <DataArray type="UInt8" Name="types" format="ascii">
 1 1 1 1 1 1 1 1 1 1 1 1 1 1 1 1 1 1 1 1 1 1 1 1 1 1 1 1 1 1 1 1 1 1 1 1 1 1 1 1 1 1 1 1 1 1 1 1 1 1 1 1 1 1 1 1 1 1 1 1 1 1 1 1 1 1 1 1 1 1 1 1 1 1 1 1 1 1 1 1 1 1 1 1 1 1 1 1 1 1 1 1 1 1 1 1 1 1 1 1 1 1 1 1 1 1 1 1 1 1 1 1 1 1 1 1 1 1 1 1 1 1 1 1 1 1 1 1 1 1 1 1 1 1 1 1 1 1 1 1 1 1 1 1 1 1 1 1 1 1 1 1 1 1 1 1 1 1 1 1 1 1 1 1 1 1 1 1 1 1 1 1 1 1 1 1 1 1 1 1 1 1 1 1 1 1 1 1 1 1 1 1 1 1 1 1 1 1 1 1 1 1 1 1 1 1 1 1 1 1 1 1 1 1 1 1 1 1 1 1 1 1 1 1 1 1 1 1 1 1 1 1 1 1 1 1 1 1 1 1 1 1 1 1 1 1 1 1 1 1 1 1 1 1 1 1 1 1 1 1 1 1 1 1 1 1 1 1 1 1 1 1 1 1 1 1 1 1 1 1 1 1 1 1 1 1 1 1 1 1 1 1 1 1 1 1 1 1 1 1 1 1 1 1 1 1 1 1 1 1 1 1 1 1 1 1 1 1 1 1 1 1 1 1 1 1 1 1 1 1 1 1 1 1 1 1 1 1 1 1 1 1 1 1 1 1 1 1 1 1 1 1 1 1 1 1 1 1 1 1 1 1 1 1 1 1 1 1 1 1 1 1 1 1 1 1 1 1 1 1 1 1 1 1 1 1 1 1 1 1 1 1 1 1 1 1 1 1 1 1 1 1 1 1 1 1 1 1 1 1 1 1 1 1 1 1 1 1 1 1 1 1 1 1 1 1 1 1 1 1 1 1 1 1 1 1 1 1 1 1 1 1 1 1 1 1 1 1 1 1 1 1 1 1 1 1 1 1 1 1 1 1 1 1 1 1 1 1 1 1 1 1 1 1 1 1 1 1 1 1 1 1 1 1 1 1 1 1 1 1 1 1 1 1 1 1 1 1 1 1 1 1 1 1 1 1 1 1 1 1 1 1 1 1 1 1 1 1 1 1 1 1 1 1 1 1 1 1 1 1 1 1 1 1 1 1 1 1 1 1 1 1 1 1 1 1 1 1 1 1 1 1 1 1 1 1 1 1 1 1 1 1 1 1 1 1 1 1 1 1 1 1 1 1 1 1 1 1 1 1 1 1 1 1 1 1 1 1 1 1 1 1 1 1 1 1 1 1 1 1 1 1 1 1 1 1 1 1 1 1 1 1 1 1 1 1 1 1 1 1 1 1 1 1 1 1 1 1 1 1 1 1 1 1 1 1 1 1 1 1 1 1 1 1 1 1 1 1 1 1 1 1 1 1 1 1 1 1 1 1 1 1 1 1 1 1 1 1 1 1 1 1 1 1 1 1 1 1 1 1 1 1 1 1 1 1 1 1 1 1 1 1 1 1 1 1 1 1 1 1 1 1 1 1 1 1 1 1 1 1 1 1 1 1 1 1 1 1 1 1 1 1 1 1 1 1 1 1 1 1 1 1 1 1 1 1 1 1 1 1 1 1 1 1 1 1 1 1 1 1 1 1 1 1 1 1 1 1 1 1 1 1 1 1 1 1 1 1
        </DataArray>
      </Cells>
    </Piece>
  </UnstructuredGrid>
</VTKFile>
